<?xml version="1.0" encoding="UTF-8"?>
<svg width="125px" height="125px" viewBox="0 0 125 125" version="1.1" xmlns="http://www.w3.org/2000/svg" xmlns:xlink="http://www.w3.org/1999/xlink">
    <!-- Generator: Sketch 52.6 (67491) - http://www.bohemiancoding.com/sketch -->
    <title>logo_3</title>
    <desc>Created with Sketch.</desc>
    <defs>
        <linearGradient x1="79.5895477%" y1="-10.5320737%" x2="79.5895477%" y2="97.3025626%" id="linearGradient-1">
            <stop stop-color="#00F3FF" stop-opacity="0" offset="0%"></stop>
            <stop stop-color="#0D95CD" stop-opacity="0.700284091" offset="47.5094006%"></stop>
            <stop stop-color="#0774B7" offset="100%"></stop>
        </linearGradient>
    </defs>
    <g id="Page-1" stroke="none" stroke-width="1" fill="none" fill-rule="evenodd">
        <g id="Artboard" transform="translate(-962.000000, -251.000000)">
            <g id="logo_3" transform="translate(961.000000, 251.000000)">
                <path d="M14.5828125,124.888281 L14.5828125,122.378125 C16.7343858,121.501558 18.4476499,120.465631 19.7226562,119.270313 C18.2882741,117.517179 17.1726602,115.365638 16.3757812,112.815625 C15.7382781,117.198459 13.7461105,121.103108 10.3992188,124.529688 L10.3992188,121.541406 C11.6742251,119.230457 12.5109355,116.879699 12.909375,114.489063 C13.3078145,112.178113 13.5070313,108.512525 13.5070313,103.492188 L13.5070313,101.221094 L11.5945313,101.221094 L11.5945313,98.7109375 L26.4164063,98.7109375 L26.4164063,101.221094 C25.6195273,103.372667 24.6234435,105.205461 23.428125,106.719531 L28.209375,106.719531 L28.209375,108.990625 C27.412496,113.612523 25.8984487,117.039051 23.6671875,119.270313 C24.9421939,120.625007 26.7351447,121.660934 29.0460938,122.378125 L29.0460938,124.76875 C26.0179536,123.653119 23.5476658,122.417976 21.6351563,121.063281 C19.8023346,122.338288 17.4515768,123.613275 14.5828125,124.888281 Z M1.79296875,103.850781 L1.79296875,101.340625 L4.78125,101.340625 L4.78125,97.2765625 L8.24765625,97.2765625 L8.24765625,101.340625 L10.996875,101.340625 L10.996875,103.850781 L8.3671875,103.850781 C8.92500279,106.480482 9.92108658,109.0703 11.3554688,111.620313 L11.3554688,115.325781 C10.0804624,113.732023 9.04453523,112.178133 8.24765625,110.664062 L8.24765625,124.76875 L4.78125,124.76875 L4.78125,112.457031 C4.06405891,114.528917 2.82891502,116.720301 1.07578125,119.03125 L1.07578125,115.445312 C2.74922712,112.098421 3.98437102,108.233616 4.78125,103.850781 L1.79296875,103.850781 Z M16.9734375,103.850781 C16.9734375,106.480482 16.8539074,108.791396 16.6148437,110.783594 L19.125,110.783594 C19.6828153,113.333607 20.559369,115.445304 21.7546875,117.11875 C23.1890697,115.20624 24.1851535,112.496893 24.7429688,108.990625 L20.3203125,108.990625 L20.3203125,106.839063 C21.3562552,105.165617 22.1531222,103.292979 22.7109375,101.221094 L16.9734375,101.221094 L16.9734375,103.850781 Z M33.0539062,111.38125 L33.0539062,108.751563 L44.7679688,108.751563 L44.7679688,97.2765625 L48.8320312,97.2765625 L48.8320312,108.751563 L60.665625,108.751563 L60.665625,111.38125 L52.4179688,111.38125 L52.4179688,119.867969 C52.3382809,121.222663 52.8960878,121.860157 54.0914063,121.780469 L56.0039062,121.780469 C57.1195368,121.780469 57.6773438,121.222662 57.6773438,120.107031 L57.6773438,118.911719 L60.665625,118.911719 L60.665625,120.465625 C60.665625,122.93595 59.310951,124.171094 56.6015625,124.171094 L52.6570313,124.171094 C49.9476427,124.250782 48.5929687,122.896108 48.5929687,120.107031 L48.5929687,111.38125 L44.1703125,111.38125 C44.568752,118.075033 40.8633203,122.577332 33.0539062,124.888281 L33.0539062,122.497656 C37.9148681,120.505459 40.3453125,116.800027 40.3453125,111.38125 L33.0539062,111.38125 Z M37.715625,106.360938 C36.6796823,104.528116 35.9226586,102.217201 35.4445312,99.428125 L39.2695312,99.428125 C39.5085949,101.579698 40.1062452,103.890613 41.0625,106.360938 L37.715625,106.360938 Z M52.4179688,106.360938 C53.3742235,104.209364 53.9718738,101.89845 54.2109375,99.428125 L58.1554687,99.428125 C57.7570293,101.89845 57.0000056,104.209364 55.884375,106.360938 L52.4179688,106.360938 Z M73.8773437,102.296875 L73.8773437,99.7867188 L80.9296875,99.7867188 L80.9296875,97.3960938 L84.8742187,97.3960938 L84.8742187,99.7867188 L91.8070312,99.7867188 L91.8070312,102.296875 L83.3203125,102.296875 C81.8859303,104.846888 80.1726662,106.958585 78.1804687,108.632031 C80.8101694,108.632031 82.6429636,108.592188 83.6789062,108.5125 C84.9539126,108.5125 86.2288999,108.432813 87.5039062,108.273438 C87.3445305,107.954686 87.1453137,107.476566 86.90625,106.839063 C86.5078105,105.882808 86.1890637,105.165627 85.95,104.6875 L88.9382812,104.6875 C90.0539118,106.759385 91.0499956,109.269517 91.9265625,112.217969 L88.6992187,112.217969 L88.2210937,110.664062 C88.061718,110.74375 87.7828145,110.783594 87.384375,110.783594 C86.9859355,110.863282 86.707032,110.903125 86.5476562,110.903125 L86.5476562,120.226562 C86.5476562,121.342193 87.1054632,121.9 88.2210937,121.9 C89.2570364,121.9 89.775,121.342193 89.775,120.226562 L89.775,119.03125 L92.165625,119.03125 L92.165625,120.94375 C92.2453129,123.095323 91.1296991,124.13125 88.81875,124.051563 L86.90625,124.051563 C84.3562372,124.13125 83.1210934,123.015637 83.2007812,120.704688 L83.2007812,111.142188 C82.4835902,111.221875 81.7265665,111.261719 80.9296875,111.261719 L80.9296875,113.771875 C81.2484391,119.110964 78.5789345,122.816396 72.9210937,124.888281 L72.9210937,122.378125 C76.2679855,120.545303 77.8218762,117.636739 77.5828125,113.652344 L77.5828125,111.38125 L74.475,111.38125 L74.475,108.632031 C76.6265733,106.480458 78.180464,104.36876 79.1367187,102.296875 L73.8773437,102.296875 Z M64.434375,108.751563 L64.434375,106.241406 C66.3468846,103.532018 67.6218718,100.58361 68.259375,97.3960938 L71.7257812,97.3960938 C70.7695265,100.822673 69.2953225,103.771081 67.303125,106.241406 C68.6578193,106.241406 69.6539031,106.201563 70.2914062,106.121875 C70.6898457,105.16562 71.0484359,104.169536 71.3671875,103.133594 L74.5945312,103.133594 C73.239837,107.357052 71.1281393,110.942954 68.259375,113.891406 C70.2515725,113.891406 72.0843666,113.692189 73.7578125,113.29375 L73.7578125,115.803906 C71.6062392,116.282034 68.6976746,116.521094 65.0320312,116.521094 L65.0320312,113.891406 C66.7054771,112.138272 68.0203077,110.385165 68.9765625,108.632031 C67.3031166,108.791407 65.7890693,108.83125 64.434375,108.751563 Z M64.434375,121.9 L64.434375,119.389844 C67.9406425,119.469532 71.167954,119.150785 74.1164062,118.433594 L74.1164062,120.824219 C71.5663935,121.621098 68.339082,121.979688 64.434375,121.9 Z M105.138281,108.751563 L105.138281,106.121875 L112.549219,106.121875 L112.549219,97.2765625 L116.613281,97.2765625 L116.613281,106.121875 L123.785156,106.121875 L123.785156,108.751563 L116.613281,108.751563 L116.613281,124.76875 L112.549219,124.76875 L112.549219,108.751563 L105.138281,108.751563 Z M98.9226563,124.410156 L98.9226563,108.632031 L95.934375,108.632031 L95.934375,106.002344 L102.747656,106.002344 L102.747656,119.389844 C104.261726,118.911716 105.775774,118.154693 107.289844,117.11875 L107.289844,120.226562 C104.739831,121.979696 101.950796,123.374214 98.9226563,124.410156 Z M100.2375,103.73125 C99.8390605,101.739053 99.1218802,99.6671983 98.0859375,97.515625 L101.432812,97.515625 C102.548443,99.4281346 103.34531,101.499989 103.823437,103.73125 L100.2375,103.73125 Z" id="极光统计" fill="#404040"></path>
                <g id="Group-15" transform="translate(19.800000, 0.000000)">
                    <path d="M78.4783862,53.2808363 C73.0096018,68.9992683 58.0016367,80.2861916 40.344259,80.2861916 C18.06274,80.2861916 -8.52651283e-14,62.3135155 -8.52651283e-14,40.1430958 C-8.52651283e-14,17.9726762 18.06274,-3.05533376e-13 40.344259,-3.05533376e-13 C45.8111801,-3.05533376e-13 51.024131,1.08195395 55.77863,3.04239973 L50.5175867,8.88823272 C47.3131101,7.85631169 43.8941242,7.2987447 40.344259,7.2987447 C22.1139253,7.2987447 7.33531982,22.0036616 7.33531982,40.1430958 C7.33531982,58.2825301 22.1139253,72.987447 40.344259,72.987447 C53.8800303,72.987447 65.5129129,64.8808356 70.6065661,53.2808363 L78.4783862,53.2808363 Z" id="Combined-Shape" fill="#0875B7"></path>
                    <polygon id="Rectangle" fill="url(#linearGradient-1)" points="65.504406 4.37924682 75.7738538 4.37924682 20.7589551 67.1270682 10.4895073 67.1270682"></polygon>
                    <polygon id="Rectangle" fill="url(#linearGradient-1)" points="80.9085776 4.37924682 91.1780254 4.37924682 48.6331704 53.2808363 38.3637227 53.2808363"></polygon>
                    <polygon id="Rectangle" fill="url(#linearGradient-1)" points="96.3127492 4.37924682 105.848665 4.37924682 64.037342 53.2808363 53.7678943 53.2808363"></polygon>
                </g>
            </g>
        </g>
    </g>
</svg>