<?xml version="1.0" encoding="UTF-8"?>
<svg width="200px" height="59px" viewBox="0 0 200 59" version="1.1" xmlns="http://www.w3.org/2000/svg" xmlns:xlink="http://www.w3.org/1999/xlink">
    <!-- Generator: Sketch 52.6 (67491) - http://www.bohemiancoding.com/sketch -->
    <title>logo_7</title>
    <desc>Created with Sketch.</desc>
    <defs>
        <polygon id="path-1" points="0.0137490196 0.0597591333 8.63096471 0.0597591333 8.63096471 8.29933333 0.0137490196 8.29933333"></polygon>
        <linearGradient x1="50%" y1="0%" x2="50%" y2="100%" id="linearGradient-3">
            <stop stop-color="#FFB900" offset="0%"></stop>
            <stop stop-color="#EB8D00" offset="100%"></stop>
        </linearGradient>
        <linearGradient x1="50%" y1="-11.5544407%" x2="50%" y2="111.20152%" id="linearGradient-4">
            <stop stop-color="#00CDDA" offset="0%"></stop>
            <stop stop-color="#0077AB" offset="100%"></stop>
        </linearGradient>
    </defs>
    <g id="Page-1" stroke="none" stroke-width="1" fill="none" fill-rule="evenodd">
        <g id="Artboard" transform="translate(-154.000000, -1055.000000)">
            <g id="logo_7" transform="translate(154.000000, 1055.000000)">
                <path d="M25.4806627,53.712892 L29.4953686,53.712892 C29.4953686,54.127072 29.4780353,54.5034133 29.4433686,54.8408933 C29.4092118,55.179396 29.3403882,55.4928433 29.2374078,55.7827693 C29.0926235,56.190302 28.8968588,56.550792 28.6490941,56.8647507 C28.4013294,57.1787093 28.1107412,57.4410233 27.7768196,57.6511813 C27.4434078,57.8618507 27.0768588,58.0229207 26.6781922,58.1328573 C26.2785059,58.242794 25.8589373,58.2985293 25.4189765,58.2985293 C24.8133294,58.2985293 24.2612118,58.198308 23.7626235,57.9978653 C23.2635255,57.797934 22.8352902,57.5167007 22.4774078,57.1541653 C22.1195255,56.7921413 21.8411725,56.357508 21.6418392,55.8507767 C21.4419961,55.3430227 21.3425843,54.7826013 21.3425843,54.16849 C21.3425843,53.561026 21.4404667,53.0036727 21.6367412,52.49643 C21.8325059,51.9896987 22.1113686,51.556088 22.4728196,51.1976433 C22.8337608,50.8386873 23.2686235,50.5594993 23.7779176,50.3585453 C24.286702,50.1591253 24.8546235,50.058904 25.4806627,50.058904 C26.2927804,50.058904 27.0044667,50.2348027 27.6167412,50.5866 C28.2295255,50.9389087 28.714349,51.48399 29.0722314,52.2223553 L27.1523098,53.019524 C26.9738784,52.591538 26.7414078,52.2842267 26.4559176,52.0981013 C26.1704275,51.911976 25.8456824,51.8189133 25.4806627,51.8189133 C25.1778392,51.8189133 24.9025451,51.8756713 24.6552902,51.9896987 C24.4075255,52.103726 24.1954471,52.2653073 24.0205843,52.4759767 C23.8452118,52.686646 23.7070549,52.939756 23.6076431,53.2368407 C23.5077216,53.533414 23.4577608,53.864758 23.4577608,54.2308727 C23.4577608,54.561194 23.5005843,54.8690167 23.5867412,55.1512727 C23.672898,55.4345513 23.8018784,55.6799913 23.9741922,55.88657 C24.1459961,56.0931487 24.3596039,56.2542187 24.6139961,56.3677347 C24.8683882,56.481762 25.1640745,56.53852 25.5015647,56.53852 C25.700898,56.53852 25.8936039,56.5160213 26.0791725,56.4715353 C26.265251,56.4270493 26.4319569,56.3539287 26.5798,56.2542187 C26.7276431,56.1539973 26.8499961,56.02463 26.946349,55.8656053 C27.0421922,55.7065807 27.1074471,55.513808 27.1426235,55.2862647 L25.4806627,55.2862647 L25.4806627,53.712892 Z" id="Fill-1" fill="#1E334B"></path>
                <path d="M34.7173922,55.182464 L33.8089216,52.5848907 L32.9009608,55.182464 L34.7173922,55.182464 Z M35.2537059,56.7251567 L32.3641373,56.7251567 L31.8997059,58.0807013 L29.7427255,58.0807013 L32.7046863,50.2757093 L34.9131569,50.2757093 L37.8751176,58.0807013 L35.7181373,58.0807013 L35.2537059,56.7251567 Z" id="Fill-3" fill="#1E334B" fill-rule="nonzero"></path>
                <polygon id="Fill-5" fill="#1E334B" points="38.4119922 58.0807013 39.7328941 50.2757093 41.7354039 50.2757093 43.2933647 54.4374513 44.8411294 50.2757093 46.8436392 50.2757093 48.1645412 58.0807013 46.1523451 58.0807013 45.4809333 53.588638 43.6441098 58.0807013 42.8396392 58.0807013 41.0950902 53.588638 40.4241882 58.0807013"></polygon>
                <polygon id="Fill-7" fill="#1E334B" points="53.8708784 51.9946586 51.4666431 51.9946586 51.4666431 53.2990699 53.7368 53.2990699 53.7368 55.0166386 51.4666431 55.0166386 51.4666431 56.3629793 53.8708784 56.3629793 53.8708784 58.0805479 49.4437412 58.0805479 49.4437412 50.2760673 53.8708784 50.2760673"></polygon>
                <path d="M59.5982196,52.2742557 C59.3779843,52.0942663 59.1582588,51.961831 58.9380235,51.875927 C58.7172784,51.7890003 58.5041804,51.7460483 58.2982196,51.7460483 C58.0366902,51.7460483 57.8235922,51.8079197 57.6579059,51.932685 C57.4932392,52.0564277 57.410651,52.2190317 57.410651,52.418963 C57.410651,52.557023 57.4519451,52.670539 57.5345333,52.7605337 C57.6166118,52.8505283 57.7252,52.9277397 57.8597882,52.9931903 C57.9938667,53.0591523 58.1447686,53.1159103 58.3135137,53.1639757 C58.4822588,53.2125523 58.6489647,53.264197 58.8141412,53.319421 C59.4748471,53.5408283 59.9576314,53.8353563 60.2645333,54.204539 C60.5699059,54.5737217 60.7233569,55.0548863 60.7233569,55.6485443 C60.7233569,56.0489183 60.6560627,56.4109423 60.5219843,56.735639 C60.3879059,57.0598243 60.1916314,57.3374783 59.9336706,57.568601 C59.6757098,57.800235 59.3591216,57.9792017 58.9844157,58.1065237 C58.6097098,58.234357 58.1850431,58.2982737 57.7099059,58.2982737 C56.7259843,58.2982737 55.8144549,58.0047683 54.9753176,57.4187803 L55.8419843,55.7825137 C56.1448078,56.0524977 56.4440627,56.2519177 56.739749,56.3833303 C57.0359451,56.514743 57.3280627,56.5801937 57.6166118,56.5801937 C57.9474745,56.5801937 58.1932,56.504005 58.3553176,56.352139 C58.5164157,56.2007843 58.5974745,56.028465 58.5974745,55.8346697 C58.5974745,55.7175743 58.5765725,55.615819 58.5352784,55.5294037 C58.4939843,55.4429883 58.4251608,55.3637317 58.3293176,55.2911223 C58.2324549,55.2190243 58.1070431,55.1515283 57.9520627,55.089657 C57.7975922,55.0277857 57.6104941,54.9587557 57.389749,54.882567 C57.1282196,54.799731 56.8717882,54.7082023 56.6209647,54.607981 C56.3696314,54.508271 56.1463373,54.3753243 55.9505725,54.2096523 C55.754298,54.0439803 55.595749,53.8353563 55.4754353,53.5837803 C55.3551216,53.331693 55.2949647,53.0121097 55.2949647,52.6255417 C55.2949647,52.239485 55.3586902,51.8892217 55.4861412,51.575263 C55.6130824,51.2618157 55.7920235,50.9918317 56.0224549,50.768379 C56.2528863,50.5433923 56.5348078,50.369539 56.8687294,50.2447737 C57.202651,50.121031 57.5758275,50.0591597 57.9887686,50.0591597 C58.3741804,50.0591597 58.7764157,50.111827 59.1959843,50.2186957 C59.6155529,50.3260757 60.0177882,50.4835663 60.4032,50.690145 L59.5982196,52.2742557 Z" id="Fill-9" fill="#1E334B"></path>
                <g id="Group-13" transform="translate(65.137255, 49.999196)">
                    <g id="Fill-11-Clipped">
                        <mask id="mask-2" fill="white">
                            <use xlink:href="#path-1"></use>
                        </mask>
                        <g id="path-1"></g>
                        <path d="M2.12892549,4.1795718 C2.12892549,4.48995113 2.18755294,4.7762978 2.30480784,5.0386118 C2.42155294,5.3009258 2.57959216,5.52898047 2.77892549,5.72175313 C2.97876863,5.91554847 3.21072941,6.06536913 3.47582745,6.17172647 C3.74041569,6.27859513 4.02131765,6.33279647 4.31700392,6.33279647 C4.6126902,6.33279647 4.89308235,6.27859513 5.15767059,6.17172647 C5.42276863,6.06536913 5.65676863,5.91554847 5.85967059,5.72175313 C6.06257255,5.52898047 6.22265098,5.3009258 6.33990588,5.0386118 C6.45665098,4.7762978 6.51527843,4.48995113 6.51527843,4.1795718 C6.51527843,3.86919247 6.45665098,3.58233447 6.33990588,3.32002047 C6.22265098,3.0582178 6.06257255,2.83016313 5.85967059,2.63687913 C5.65676863,2.44359513 5.42276863,2.29377447 5.15767059,2.1869058 C4.89308235,2.08003713 4.6126902,2.02634713 4.31700392,2.02634713 C4.02131765,2.02634713 3.74041569,2.08003713 3.47582745,2.1869058 C3.21072941,2.29377447 2.97876863,2.44359513 2.77892549,2.63687913 C2.57959216,2.83016313 2.42155294,3.0582178 2.30480784,3.32002047 C2.18755294,3.58233447 2.12892549,3.86919247 2.12892549,4.1795718 M0.0137490196,4.1795718 C0.0137490196,3.5997198 0.120298039,3.06026313 0.333396078,2.5596678 C0.546494118,2.0595838 0.842690196,1.62290513 1.22096471,1.25014313 C1.59923922,0.877381133 2.0519451,0.586432467 2.57806275,0.375763133 C3.10418039,0.164582467 3.68382745,0.0597591333 4.31700392,0.0597591333 C4.94304314,0.0597591333 5.52065098,0.164582467 6.05033725,0.375763133 C6.58002353,0.586432467 7.03629804,0.877381133 7.41814118,1.25014313 C7.79998431,1.62290513 8.0977098,2.0595838 8.31080784,2.5596678 C8.52390588,3.06026313 8.63096471,3.5997198 8.63096471,4.1795718 C8.63096471,4.75891247 8.52390588,5.29888047 8.31080784,5.7994758 C8.0977098,6.2995598 7.79998431,6.73623847 7.41814118,7.10900047 C7.03629804,7.48125113 6.58002353,7.77271113 6.05033725,7.98338047 C5.52065098,8.1940498 4.94304314,8.29938447 4.31700392,8.29938447 C3.68382745,8.29938447 3.10418039,8.1940498 2.57806275,7.98338047 C2.0519451,7.77271113 1.59923922,7.48125113 1.22096471,7.10900047 C0.842690196,6.73623847 0.546494118,6.2995598 0.333396078,5.7994758 C0.120298039,5.29888047 0.0137490196,4.75891247 0.0137490196,4.1795718" id="Fill-11" fill="#1E334B" fill-rule="nonzero" mask="url(#mask-2)"></path>
                    </g>
                </g>
                <polygon id="Fill-14" fill="#1E334B" points="79.5059608 51.9946586 77.0706275 51.9946586 77.0706275 53.2990699 79.2887843 53.2990699 79.2887843 55.0166386 77.0706275 55.0166386 77.0706275 58.0805479 75.0477255 58.0805479 75.0477255 50.2760673 79.5059608 50.2760673"></polygon>
                <path d="M88.0093373,53.712892 L92.0240431,53.712892 C92.0240431,54.127072 92.0067098,54.5034133 91.9720431,54.8408933 C91.9378863,55.179396 91.8690627,55.4928433 91.7660824,55.7827693 C91.621298,56.190302 91.4255333,56.550792 91.1777686,56.8647507 C90.9300039,57.1787093 90.6394157,57.4410233 90.3054941,57.6511813 C89.9720824,57.8618507 89.6055333,58.0229207 89.2068667,58.1328573 C88.8071804,58.242794 88.3876118,58.2985293 87.947651,58.2985293 C87.3420039,58.2985293 86.7898863,58.198308 86.291298,57.9978653 C85.7922,57.797934 85.3639647,57.5167007 85.0060824,57.1541653 C84.6482,56.7921413 84.3698471,56.357508 84.1705137,55.8507767 C83.9706706,55.3430227 83.8712588,54.7826013 83.8712588,54.16849 C83.8712588,53.561026 83.9691412,53.0036727 84.1654157,52.49643 C84.3611804,51.9896987 84.6400431,51.556088 85.0014941,51.1976433 C85.3624353,50.8386873 85.797298,50.5594993 86.3065922,50.3585453 C86.8153765,50.1591253 87.383298,50.058904 88.0093373,50.058904 C88.8214549,50.058904 89.5331412,50.2348027 90.1454157,50.5866 C90.7582,50.9389087 91.2430235,51.48399 91.6009059,52.2223553 L89.6809843,53.019524 C89.5025529,52.591538 89.2700824,52.2842267 88.9845922,52.0981013 C88.699102,51.911976 88.3743569,51.8189133 88.0093373,51.8189133 C87.7065137,51.8189133 87.4312196,51.8756713 87.1839647,51.9896987 C86.9362,52.103726 86.7241216,52.2653073 86.5492588,52.4759767 C86.3738863,52.686646 86.2357294,52.939756 86.1363176,53.2368407 C86.0363961,53.533414 85.9864353,53.864758 85.9864353,54.2308727 C85.9864353,54.561194 86.0292588,54.8690167 86.1154157,55.1512727 C86.2015725,55.4345513 86.3305529,55.6799913 86.5028667,55.88657 C86.6746706,56.0931487 86.8882784,56.2542187 87.1426706,56.3677347 C87.3970627,56.481762 87.692749,56.53852 88.0302392,56.53852 C88.2295725,56.53852 88.4222784,56.5160213 88.6078471,56.4715353 C88.7939255,56.4270493 88.9606314,56.3539287 89.1084745,56.2542187 C89.2563176,56.1539973 89.3786706,56.02463 89.4750235,55.8656053 C89.5708667,55.7065807 89.6361216,55.513808 89.671298,55.2862647 L88.0093373,55.2862647 L88.0093373,53.712892 Z" id="Fill-16" fill="#1E334B"></path>
                <polygon id="Fill-18" fill="#1E334B" points="95.3268078 50.2758627 95.3268078 56.3627747 97.7519451 56.3627747 97.7519451 58.0808547 93.3039059 58.0808547 93.3039059 50.2758627"></polygon>
                <path d="M100.403945,54.1787678 C100.403945,54.4891471 100.462573,54.7754938 100.579827,55.0378078 C100.696573,55.3001218 100.854612,55.5281765 101.053945,55.7209491 C101.253788,55.9147445 101.485749,56.0645651 101.750847,56.1709225 C102.015435,56.2777911 102.296337,56.3319925 102.592024,56.3319925 C102.88771,56.3319925 103.168102,56.2777911 103.43269,56.1709225 C103.697788,56.0645651 103.931788,55.9147445 104.13469,55.7209491 C104.337592,55.5281765 104.497671,55.3001218 104.614925,55.0378078 C104.731671,54.7754938 104.790298,54.4891471 104.790298,54.1787678 C104.790298,53.8683885 104.731671,53.5815305 104.614925,53.3192165 C104.497671,53.0574138 104.337592,52.8293591 104.13469,52.6360751 C103.931788,52.4427911 103.697788,52.2929705 103.43269,52.1861018 C103.168102,52.0792331 102.88771,52.0255431 102.592024,52.0255431 C102.296337,52.0255431 102.015435,52.0792331 101.750847,52.1861018 C101.485749,52.2929705 101.253788,52.4427911 101.053945,52.6360751 C100.854612,52.8293591 100.696573,53.0574138 100.579827,53.3192165 C100.462573,53.5815305 100.403945,53.8683885 100.403945,54.1787678 M98.2887686,54.1787678 C98.2887686,53.5989158 98.3953176,53.0594591 98.6084157,52.5588638 C98.8215137,52.0587798 99.1177098,51.6221011 99.4959843,51.2493391 C99.8742588,50.8765771 100.326965,50.5856285 100.853082,50.3749591 C101.3792,50.1637785 101.958847,50.0589551 102.592024,50.0589551 C103.218063,50.0589551 103.795671,50.1637785 104.325357,50.3749591 C104.855043,50.5856285 105.311318,50.8765771 105.693161,51.2493391 C106.075004,51.6221011 106.372729,52.0587798 106.585827,52.5588638 C106.798925,53.0594591 106.905984,53.5989158 106.905984,54.1787678 C106.905984,54.7581085 106.798925,55.2980765 106.585827,55.7986718 C106.372729,56.2987558 106.075004,56.7354345 105.693161,57.1081965 C105.311318,57.4804471 104.855043,57.7719071 104.325357,57.9825765 C103.795671,58.1932458 103.218063,58.2985805 102.592024,58.2985805 C101.958847,58.2985805 101.3792,58.1932458 100.853082,57.9825765 C100.326965,57.7719071 99.8742588,57.4804471 99.4959843,57.1081965 C99.1177098,56.7354345 98.8215137,56.2987558 98.6084157,55.7986718 C98.3953176,55.2980765 98.2887686,54.7581085 98.2887686,54.1787678" id="Fill-20" fill="#1E334B" fill-rule="nonzero"></path>
                <path d="M110.208188,53.7643321 L110.589522,53.7643321 C110.988698,53.7643321 111.29509,53.6814961 111.508188,53.5163355 C111.721796,53.3506635 111.828345,53.1123821 111.828345,52.8014915 C111.828345,52.4916235 111.721796,52.2533421 111.508188,52.0876701 C111.29509,51.9214868 110.988698,51.8391621 110.589522,51.8391621 L110.208188,51.8391621 L110.208188,53.7643321 Z M114.656227,58.0804968 L112.137796,58.0804968 L110.208188,55.0789701 L110.208188,58.0804968 L108.185286,58.0804968 L108.185286,50.2760161 L111.332816,50.2760161 C111.766659,50.2760161 112.144424,50.3399328 112.468149,50.4677661 C112.791365,50.5955995 113.057992,50.7699641 113.268031,50.9903488 C113.477561,51.2117561 113.63611,51.4664001 113.742659,51.7563261 C113.849208,52.0467635 113.902737,52.3571428 113.902737,52.6879755 C113.902737,53.2821448 113.759992,53.7627981 113.473992,54.1319808 C113.189012,54.5011635 112.767404,54.7517168 112.210188,54.8826181 L114.656227,58.0804968 Z" id="Fill-23" fill="#1E334B" fill-rule="nonzero"></path>
                <polygon id="Fill-25" fill="#1E334B" points="117.008922 54.3335995 114.171353 50.2756582 116.585784 50.2756582 118.030569 52.4084295 119.465157 50.2756582 121.880098 50.2756582 119.031824 54.3335995 119.031824 58.0806502 117.008922 58.0806502"></polygon>
                <path d="M195.721576,35.6811822 C196.861498,39.0089395 198.276714,42.2109089 199.965694,45.2870902 L193.222008,45.2870902 C191.818518,42.1684682 190.612322,38.9670102 189.60342,35.6811822 L195.721576,35.6811822 Z M187.991929,28.7127315 L187.991929,30.3449075 L199.373302,30.3449075 L199.373302,34.8022002 L187.991929,34.8022002 L187.991929,45.2870902 L181.774871,45.2870902 L181.774871,34.8022002 L170.227812,34.8022002 L170.227812,30.3449075 L181.774871,30.3449075 L181.774871,28.7127315 L187.991929,28.7127315 Z M180.524322,35.6811822 C179.581184,38.9884862 178.363773,42.1894329 176.873106,45.2870902 L169.833733,45.2870902 C171.653224,42.2528382 173.06742,39.0508689 174.076831,35.6811822 L180.524322,35.6811822 Z M155.063082,16.4070347 L155.063082,26.2951987 L166.806416,26.2951987 L166.806416,31.0352587 L160.655631,31.0352587 L160.655631,40.4524847 L167.037357,40.4524847 L167.037357,45.2554387 L154.307043,45.2554387 L154.307043,31.0352587 L149.536808,31.0352587 C148.944925,33.777028 148.165945,36.4451653 147.200886,39.040182 C146.389788,41.216928 145.326337,43.2883393 144.010533,45.2554387 L136.773357,45.2554387 C138.330298,42.9743807 139.668024,40.568046 140.786533,38.035412 C141.729161,35.7753187 142.464298,33.4421047 142.990925,31.0352587 L137.036925,31.0352587 L137.036925,26.2951987 L148.780259,26.2951987 L148.780259,16.4070347 L155.063082,16.4070347 Z M199.439576,23.5329249 L199.439576,29.3718402 L194.472047,29.3718402 L194.472047,27.9278349 L175.425263,27.9278349 L175.425263,29.3718402 L170.458243,29.3718402 L170.458243,23.5329249 L199.439576,23.5329249 Z M165.88622,17.5999753 C165.18371,20.194992 164.339984,22.7378527 163.353004,25.228046 L156.773984,25.228046 C157.781867,22.7588173 158.615906,20.216468 159.274063,17.5999753 L165.88622,17.5999753 Z M144.536651,17.5999753 C145.413514,20.132098 146.247043,22.6749587 147.036729,25.228046 L140.358808,25.228046 C139.635396,22.653994 138.812573,20.1116447 137.891867,17.5999753 L144.536651,17.5999753 Z M181.708596,16.4069835 L181.708596,17.4746475 L187.991929,17.4746475 L187.991929,16.4069835 L194.011184,16.4069835 L194.011184,17.4746475 L199.801027,17.4746475 L199.801027,21.8378549 L194.011184,21.8378549 L194.011184,22.8426249 L187.991929,22.8426249 L187.991929,21.8378549 L181.708596,21.8378549 L181.708596,22.8426249 L175.656204,22.8426249 L175.656204,21.8378549 L169.866361,21.8378549 L169.866361,17.4746475 L175.656204,17.4746475 L175.656204,16.4069835 L181.708596,16.4069835 Z" id="Combined-Shape" fill="#1E334B" fill-rule="nonzero"></path>
                <g id="Group-5" transform="translate(0.000000, 0.117795)">
                    <path d="M43.5581569,9.76615987 L27.4600784,9.76615987 C25.3260392,9.76615987 23.3102745,10.0770505 21.4683529,10.6911619 C19.6045098,11.3124319 17.9578431,12.2093105 16.5752549,13.3577652 C15.178902,14.5169579 14.068549,15.8960239 13.2737647,17.4576359 C12.4667451,19.0448145 12.0578824,20.8227205 12.0578824,22.7407319 C12.0578824,24.6546525 12.4524706,26.4269339 13.2299216,28.0064425 C14.0038039,29.5833945 15.1131373,30.9512112 16.5268235,32.0710312 C17.9099216,33.1673299 19.5535294,34.0238132 21.4122745,34.6169599 C23.249098,35.2034592 25.2837255,35.5010552 27.4600784,35.5010552 L32.9430196,35.5010552 L33.2346275,35.5010552 L33.7913333,35.5010552 L33.7913333,34.9431905 L33.7913333,34.6507079 L33.7913333,27.3028479 L33.7913333,27.0103652 L33.7913333,26.4525005 L33.2346275,26.4525005 L32.9430196,26.4525005 L19.6641569,26.4525005 L26.3578824,17.9290852 L40.8031765,17.9290852 C40.5452157,19.4579719 40.4141961,21.0134479 40.4141961,22.5622765 C40.4141961,32.2162499 45.1079608,40.3413365 53.3800392,45.1693459 L27.4600784,45.1238372 C23.4841176,45.1238372 19.762549,44.5240432 16.3983529,43.3418405 C13.0433333,42.1637285 10.1206275,40.5264392 7.71027451,38.4754812 C5.31521569,36.4393519 3.40854902,33.9885312 2.04380392,31.1915379 C0.687215686,28.4144865 -5.68434189e-14,25.3551792 -5.68434189e-14,22.0979859 C-5.68434189e-14,18.8479512 0.685176471,15.8413112 2.03615686,13.1624359 C3.39682353,10.4631072 5.29839216,8.10943987 7.68784314,6.16739587 C10.0920784,4.21154587 13.0096863,2.68061387 16.3601176,1.61704053 C19.739098,0.5442632 23.4739216,0.000204533334 27.4600784,0.000204533334 L52.8569804,0.000204533334 C49.1272549,2.2730812 45.5774902,5.96644187 43.5581569,9.76615987 Z" id="Fill-32" fill="url(#linearGradient-3)"></path>
                    <path d="M74.0181765,-4.12114787e-13 C79.3405294,-4.12114787e-13 84.2280196,1.85716267 88.0821373,4.95379733 C85.2425294,7.69812333 83.1054314,11.1664973 81.9629608,15.0628573 C79.6295882,11.8435027 75.8509216,9.745502 71.5787647,9.745502 L67.8786078,9.745502 C60.7897843,9.745502 55.0427647,15.5097627 55.0427647,22.6198527 C55.0427647,29.730454 60.7897843,35.4942033 67.8786078,35.4942033 L71.5787647,35.4942033 C78.6675882,35.4942033 84.4467255,29.7294313 84.4467255,22.61883 C84.4467255,22.592752 84.4446863,22.566674 84.4446863,22.5400847 C84.4425447,22.3952545 84.4411686,22.2499117 84.4411686,22.104173 C84.4411686,18.8531157 85.1263451,15.8459643 86.4778353,13.1660663 C87.8390118,10.4662263 89.7410902,8.11204767 92.131051,6.16846967 C94.5363059,4.213131 97.4544235,2.68168767 100.805875,1.617603 C104.185875,0.544314333 107.921718,0.000255666666 110.888776,0.000255666666 L133.744816,-4.12114787e-13 L126.073286,9.76876767 L111.908384,9.76876767 C109.774345,9.76876767 107.758071,10.0801697 105.915639,10.6937697 C104.050776,11.315551 102.40411,12.212941 101.020502,13.3613957 C99.624149,14.5210997 98.5132863,15.900677 97.718502,17.462289 C96.9114824,19.0504903 96.5021098,20.8283963 96.5021098,22.746919 L96.5035882,22.5400847 L96.5046078,22.583548 C96.5046078,22.662853 96.5042016,22.7420625 96.503391,22.8211746 C96.5123749,24.7076483 96.9067608,26.4545741 97.6751686,28.014675 C98.449051,29.591627 99.5583843,30.9594437 100.97258,32.079775 C102.355678,33.176585 103.999796,34.0335797 105.859561,34.626215 C107.696384,35.213737 109.731522,35.511333 111.908384,35.511333 L119.262306,35.511333 L119.262306,26.4597103 L105.640855,26.4597103 L112.33611,17.9342497 L130.87309,17.9342497 L130.87309,45.169397 L111.908384,45.1366717 C107.931914,45.1366717 104.209325,44.5368777 100.8436,43.3536523 C97.4880706,42.175029 94.5643451,40.5377397 92.1534824,38.4867817 C91.7481435,38.1420883 91.3567875,37.7855371 90.9796733,37.4174549 C86.8604816,42.1676579 80.7932667,45.1691413 74.0181765,45.1691413 L67.0506863,45.1691413 C54.6145294,45.1691413 44.5336667,35.058036 44.5336667,22.5845707 C44.5336667,10.1116167 54.6145294,-4.12114787e-13 67.0506863,-4.12114787e-13 L74.0181765,-4.12114787e-13 Z" id="Combined-Shape" fill="url(#linearGradient-4)"></path>
                </g>
            </g>
        </g>
    </g>
</svg>