<?xml version="1.0" encoding="UTF-8"?>
<svg width="84px" height="98px" viewBox="0 0 84 98" version="1.1" xmlns="http://www.w3.org/2000/svg" xmlns:xlink="http://www.w3.org/1999/xlink">
    <!-- Generator: Sketch 52.6 (67491) - http://www.bohemiancoding.com/sketch -->
    <title>logo_17</title>
    <desc>Created with Sketch.</desc>
    <g id="Page-1" stroke="none" stroke-width="1" fill="none" fill-rule="evenodd">
        <g id="Artboard" transform="translate(-982.000000, -2166.000000)">
            <g id="logo_17" transform="translate(982.000000, 2166.000000)">
                <path d="M30.3351671,64.1388676 C25.9404847,64.1388676 22.3403435,67.4695664 21.9539435,71.7235013 L21.9183671,71.7235013 L21.9183671,77.6339741 C21.7404847,78.4681174 20.9943671,79.0947039 20.1010024,79.097641 C19.2046729,79.0947039 18.4585553,78.4681174 18.2806729,77.6339741 L18.2806729,74.2200568 L18.2342259,74.2200568 C17.7974259,70.014095 14.2200141,66.7421387 9.86387294,66.7421387 C5.45239059,66.7421387 1.83940235,70.1002507 1.47770824,74.3737663 L1.44904941,74.3737663 L1.44904941,88.5238515 L8.04354353,88.5238515 L8.04354353,74.6919548 C8.22340235,73.8607486 8.97149647,73.2361202 9.86387294,73.2341621 C10.7572376,73.2361202 11.5073082,73.8636857 11.6822259,74.697829 L11.6822259,78.0079679 L11.7178024,78.0079679 C12.1042024,82.2599447 15.7073082,85.5886854 20.1010024,85.5916225 C24.5954965,85.5886854 28.2638259,82.1003609 28.5019906,77.702507 L28.5168141,77.702507 L28.5168141,72.095537 C28.6937082,71.2584566 29.4418024,70.6328492 30.3351671,70.6328492 C31.2285318,70.6328492 31.9716847,71.2584566 32.15352,72.0886837 L32.15352,77.3177438 L38.7519671,77.3177438 L38.7519671,71.7235013 L38.7163906,71.7235013 C38.3319671,67.4695664 34.7278729,64.1388676 30.3351671,64.1388676" id="Fill-22" fill="#BD1010"></path>
                <path d="M66.2832141,17.8303997 C66.4699906,17.4926304 66.6617082,17.8117979 66.82872,18.2004773 C66.6765318,18.3395012 66.4680141,18.2034144 66.2832141,17.8303997 M71.5445788,28.7565016 C69.1421788,31.1296979 65.85432,32.5894486 62.1879671,32.5923857 C58.5265553,32.5894486 55.2446259,31.1296979 52.8392612,28.7565016 C51.2116376,27.1391252 50.0099435,25.1183838 49.4041553,22.8548401 L49.7826494,22.426999 C49.7441082,22.3878373 49.70952,22.356508 49.6690024,22.3193044 C49.5929082,22.239023 49.5800612,22.1753853 49.5800612,22.1558045 C49.5800612,22.1254542 49.6037788,22.0686698 49.7194024,22.0422357 C50.0168612,22.1881129 50.3291435,22.4720349 50.6098024,22.9458909 C52.2028376,25.7880481 53.8986494,23.1935884 55.5974259,23.7770971 C56.0253318,23.9190581 56.4443435,23.7408725 56.9364847,23.7477258 C59.5434494,24.4927763 61.7709318,23.0114867 64.4105082,23.1201603 C65.1072141,23.0721873 65.6754494,22.332032 66.2426965,21.930625 C66.6676376,21.7925802 67.1419906,22.1587416 67.4878729,22.1646159 C68.0343671,22.1646159 68.4938965,21.8963585 68.9366259,21.5595683 C68.4346024,21.694676 68.0738965,21.9012538 67.5194965,22.0089483 C67.1449553,22.0549633 67.7339435,21.0122842 67.9780376,20.795916 C68.0808141,20.6236047 68.2814259,21.4890773 68.3802494,21.3187241 C68.6105082,21.3187241 68.8160612,20.9721435 69.0591671,20.7557753 C69.1579906,20.5854221 69.1718259,21.36376 69.2232141,21.2785834 C69.5552612,21.1219368 69.7914494,20.1360421 70.0167671,20.3602426 C70.1847671,20.4855599 70.3359671,20.6128353 70.4861788,20.7381526 C70.57512,20.7880837 70.6680141,20.8233292 70.7668376,20.795916 L70.9476847,20.6128353 C71.3904141,20.1840152 71.9062729,19.8286231 72.3924847,19.5319736 L72.3875435,19.4653988 C72.1029318,19.5192461 71.8242494,19.4252581 71.5238259,18.9230099 C71.6532847,19.1041325 71.6394494,19.3185426 71.4961553,19.3508509 L71.3785553,18.9523811 C71.6256141,18.7585309 71.8835435,18.5588065 72.1276376,19.1432942 C72.1276376,19.1432942 72.2363435,18.9768571 72.2926729,18.8965757 C72.3707435,19.0111236 72.3677788,19.2558839 72.3875435,19.4653988 L72.5545553,19.4193838 C72.4339906,19.021893 72.0574729,18.4873364 72.0574729,18.4873364 C71.3301318,18.4442586 70.6492376,18.3620191 69.9811906,18.2572617 C69.9337553,18.4109712 69.8981788,18.5842615 69.8270259,18.4873364 C69.7756376,18.3492916 69.7212847,18.263136 69.6689082,18.2024354 L69.3763906,18.1476091 L69.2716376,18.2024354 L69.2716376,18.2092887 C69.2172847,18.2944653 69.2390259,18.4158664 69.2755906,18.5304143 L69.3862729,18.8162943 C69.36552,18.7526567 69.3131435,18.6439831 69.2755906,18.5304143 C69.2261788,18.4315311 69.1738024,18.3492916 69.1105553,18.3013186 C69.0769553,18.3218784 69.0354494,18.335585 68.9969082,18.3434174 C69.02952,18.3287317 69.0591671,18.311109 69.0888141,18.2905491 C69.0977082,18.2944653 69.1046259,18.2964234 69.1105553,18.3013186 L69.2390259,18.2269114 L69.2419906,18.2220162 L69.2390259,18.2220162 L69.2716376,18.2024354 L69.3190729,18.1348815 L68.6510259,18.0066271 L68.5146494,18.0692858 C68.3594965,18.1711061 68.2023671,18.2719473 68.08872,17.8920793 L67.9701318,17.8656452 L67.9938494,17.9371152 L67.9503671,17.862708 L67.4414259,17.7589296 L66.4304612,17.5611633 C64.2257082,17.0873072 62.2186024,17.3046544 59.9426965,17.1343012 C58.7074024,17.0148582 57.5086729,16.797511 56.3257553,16.4646369 C53.9964847,15.8077002 52.0259435,17.0491246 49.6265082,15.4131465 C50.2777553,13.4364619 51.3855671,11.6673341 52.8392612,10.2242271 C55.2446259,7.84907271 58.5265553,6.38736392 62.1909318,6.38736392 C65.85432,6.38736392 69.1421788,7.84907271 71.5445788,10.2242271 C73.9450024,12.6081929 75.4174729,15.8615474 75.4204376,19.4879167 C75.4174729,23.1172232 73.9450024,26.3754729 71.5445788,28.7565016 M62.1909318,9.79041386e-05 C51.3252847,0.00205598691 42.5220847,8.72335667 42.51912,19.4879167 C42.5220847,30.2544349 51.3252847,38.9776936 62.1879671,38.9816098 L62.1909318,38.6888764 L62.1909318,38.9816098 C73.0555906,38.9776936 81.8597788,30.2544349 81.8597788,19.4879167 C81.8597788,8.72335667 73.0555906,0.00205598691 62.1909318,9.79041386e-05" id="Fill-23" fill="#000000"></path>
                <path d="M74.3743906,17.9298703 L74.0581553,17.8466518 C74.1065788,17.9102894 74.1609318,18.0032984 74.2133082,18.1442803 C74.2824847,18.2451216 74.3160847,18.0747684 74.3743906,17.9298703" id="Fill-24" fill="#000000"></path>
                <path d="M23.2419106,40.5749997 L23.2419106,31.1468311 C25.56624,31.7430673 27.6365929,32.9443511 29.2908988,34.5783712 C30.9432282,36.2172865 32.1538165,38.2713153 32.7596047,40.5749997 L23.2419106,40.5749997 Z M29.2908988,53.237921 C27.6365929,54.8758572 25.56624,56.0751829 23.2419106,56.6733772 L23.2419106,47.2461877 L32.7596047,47.2461877 C32.1538165,49.547914 30.9432282,51.5990057 29.2908988,53.237921 L29.2908988,53.237921 Z M16.5070871,56.6733772 C14.1867106,56.0751829 12.1114165,54.8758572 10.4561224,53.237921 C8.80576941,51.5990057 7.59221647,49.547914 6.99136941,47.2461877 L16.5070871,47.2461877 L16.5070871,56.6733772 Z M10.4561224,34.5783712 C12.1114165,32.9443511 14.1847341,31.7430673 16.5070871,31.1468311 L16.5070871,40.5749997 L6.99136941,40.5749997 C7.59221647,38.2713153 8.80576941,36.2172865 10.4561224,34.5783712 L10.4561224,34.5783712 Z M76.4583812,47.0464632 L76.4791341,51.772296 L71.4865694,51.772296 L71.4598871,47.0464632 L76.4583812,47.0464632 Z M48.2106635,47.0464632 L53.2081694,47.0464632 L53.1933459,58.2868374 L59.8491106,58.2868374 L59.8303341,47.0464632 L64.8357459,47.0464632 L64.8495812,58.2868374 L83.1131576,58.3318733 L83.0854871,40.4849279 L39.44304,40.4849279 C38.73744,36.5119779 36.8311341,32.9443511 34.1055812,30.1726849 L34.1055812,20.1267412 L34.1055812,15.7181179 L34.1055812,13.8510859 L12.5057224,13.8510859 L12.5057224,11.1215186 L5.88652235,11.1215186 L5.88652235,24.521658 L12.5057224,24.521658 L12.5057224,20.4136004 L27.4824282,20.4136004 L27.4824282,25.7170676 C25.1383341,24.7556489 22.5708988,24.2230504 19.8740047,24.2230504 C8.89866353,24.2259875 0.00454588235,33.0344229 -0.000395294118,43.9096146 C0.00454588235,54.7838273 8.89866353,63.5971579 19.8740047,63.598137 C29.7721694,63.5971579 37.9755106,56.4305749 39.49344,47.0464632 L41.5855341,47.0464632 L41.5835576,66.6204377 L41.6962165,66.7056143 L55.8111812,80.4337327 L61.1239341,75.3250947 L52.3849694,66.7966652 L72.6882635,66.7907909 L57.2184282,82.1588036 C55.26864,83.8378596 54.26064,86.2218253 54.26064,88.5920845 C54.26064,88.5920845 54.26064,88.5999169 54.2636047,88.6234139 C54.2636047,90.6010775 54.9682165,92.6188818 56.3922635,94.2303839 C58.0870871,96.1512631 60.4904753,97.1567386 62.8820047,97.1567386 L62.8968282,97.1567386 L62.91264,97.1567386 C64.9098635,97.1567386 66.9436518,96.4528079 68.5712753,95.0488625 L70.8027106,92.97819 L66.4554635,88.0467585 L64.1380518,90.0019041 C63.7615341,90.3230297 63.3464753,90.4610746 62.89584,90.4649907 C62.3562635,90.4610746 61.8601694,90.2574339 61.4796988,89.8266557 C61.1634635,89.4604943 61.0172047,89.0541921 61.01424,88.602854 C61.0231341,88.0682974 61.2276988,87.5787767 61.6575812,87.1989087 L83.0756047,66.8211412 L83.0854871,60.2312136 L48.2106635,60.2312136 L48.2106635,47.0464632 Z" id="Fill-25" fill="#000000"></path>
                <polygon id="Fill-26" fill="#000000" points="73.7065412 17.7491392 73.6591059 17.8127769 73.7638588 17.7657829"></polygon>
                <path d="M73.4922918,17.895408 C73.4142212,17.8268751 73.3233035,17.8131685 73.2185506,17.8895338 C73.3124329,17.9463182 73.4043388,17.9326116 73.4922918,17.895408" id="Fill-27" fill="#000000"></path>
                <path d="M73.6486306,18.1411474 C73.6851953,18.2556952 73.7306541,18.3653479 73.7504188,18.4338808 L73.6486306,18.1411474 Z" id="Fill-28" fill="#000000"></path>
                <path d="M71.7580376,21.4415938 C72.3203435,21.3828513 72.6899435,21.1919383 73.1949318,21.114594 C73.6109788,20.854169 74.0102259,20.5389177 74.4410965,20.3127591 C74.5596847,20.2912202 74.67432,20.3675854 74.7850024,20.4351393 C74.6367671,20.2961154 74.4924847,20.1580706 74.3274494,20.0180676 C74.1070729,19.7782025 73.8333318,20.7376631 73.4923906,20.8678756 C73.4380376,20.9452198 73.4548376,20.1698191 73.3481082,20.3303818 C73.0941318,20.5124835 72.8806729,20.8365462 72.6474494,20.8218606 C72.5436847,20.9843815 72.3707435,20.1052023 72.2669788,20.2706603 C72.0100376,20.4664686 71.3844847,21.4553004 71.7580376,21.4415938" id="Fill-29" fill="#000000"></path>
                <path d="M73.6592047,17.8131685 L73.6592047,17.8131685 L73.4921929,17.895408 C73.5544518,17.9502343 73.6097929,18.0334528 73.6483341,18.1411474 C73.6176988,18.0217044 73.6028753,17.895408 73.6592047,17.8131685" id="Fill-30" fill="#000000"></path>
            </g>
        </g>
    </g>
</svg>