<?xml version="1.0" encoding="UTF-8"?>
<svg width="177px" height="60px" viewBox="0 0 177 60" version="1.1" xmlns="http://www.w3.org/2000/svg" xmlns:xlink="http://www.w3.org/1999/xlink">
    <!-- Generator: Sketch 52.6 (67491) - http://www.bohemiancoding.com/sketch -->
    <title>logo_11</title>
    <desc>Created with Sketch.</desc>
    <g id="Page-1" stroke="none" stroke-width="1" fill="none" fill-rule="evenodd">
        <g id="Artboard" transform="translate(-936.000000, -1427.000000)" fill="#000000">
            <g id="logo_11" transform="translate(936.000000, 1427.000000)">
                <polygon id="Shape" points="6.58088405 59.3306897 0.169237445 59.9731034 10.2667265 9.56586207 16.6825156 8.92344828"></polygon>
                <polygon id="Shape" points="19.6786218 58.0489655 13.261797 58.6903448 23.3613573 8.28413793 29.7761109 7.64275862"></polygon>
                <polygon id="Shape" points="1.11581231 21.6103448 0.32561907 25.647931 26.6443358 23.0503448 27.4397072 19.0137931"></polygon>
                <polygon id="Shape" points="33.0808378 45.6051724 26.6671199 46.2455172 32.0472692 18.7106897 38.4589158 18.0682759"></polygon>
                <polygon id="Shape" points="43.8256017 44.4858621 37.4139551 45.1272414 42.7920331 17.5934483 49.205751 16.95"></polygon>
                <polygon id="Shape" points="27.5080595 42.2327586 26.7168306 46.2703448 43.8121384 44.4941379 44.6044029 40.4555172"></polygon>
                <polygon id="Shape" points="32.0617681 18.6031034 31.2684679 22.6417241 48.3637757 20.8644828 49.1581115 16.827931"></polygon>
                <polygon id="Shape" points="54.2482816 43.3831034 47.8345638 44.0244828 53.2116061 16.4896552 59.625324 15.8472414"></polygon>
                <polygon id="Shape" points="56.4169116 43.1751724 51.5680456 43.622069 64.5570412 15.3010345 69.4038359 14.8551724"></polygon>
                <polygon id="Shape" points="72.6070701 41.4868966 66.1954235 42.1324138 75.8724427 14.0048276 82.2861606 13.3624138"></polygon>
                <polygon id="Shape" points="69.1842803 41.8344828 64.4793682 42.237931 64.7776325 15.2524138 69.4856515 14.8489655"></polygon>
                <polygon id="Shape" points="136.681075 31.2227586 133.335958 35.4206897 150.428159 33.6444828 151.218352 29.607931"></polygon>
                <polygon id="Shape" points="138.746141 7.77 137.955948 11.8055172 153.113573 10.2455172 155.842484 5.99068966"></polygon>
                <polygon id="Shape" points="139.77246 34.7317241 133.357707 35.3710345 149.408054 6.66 155.820736 6.01655172"></polygon>
                <polygon id="Shape" points="120.070447 36.6589655 113.652586 37.3013793 117.293896 18.5110345 123.707614 17.8706897"></polygon>
                <polygon id="Shape" points="130.815211 35.5417241 124.403564 36.1831034 129.777499 8.6462069 136.194324 8.00586207"></polygon>
                <polygon id="Shape" points="114.497668 33.2886207 113.709546 37.3251724 130.799676 35.547931 131.589869 31.5103448"></polygon>
                <polygon id="Shape" points="119.051377 9.65793103 118.260148 13.6944828 135.350278 11.9182759 136.143578 7.88068966"></polygon>
                <polygon id="Shape" points="117.483418 17.4837931 116.692189 21.5224138 133.78439 19.7451724 134.57769 15.7075862"></polygon>
                <polygon id="Shape" points="160.046147 32.4837931 153.630358 33.1262069 159.006364 5.59034483 165.422153 4.95"></polygon>
                <polygon id="Shape" points="154.471297 29.1144828 153.68214 33.15 170.772269 31.3748276 171.565569 27.3362069"></polygon>
                <polygon id="Shape" points="159.025006 5.48482759 158.233777 9.52241379 175.328049 7.74310345 176.116171 3.70758621"></polygon>
                <polygon id="Shape" points="157.485009 13.2734483 156.692745 17.312069 173.78391 15.5358621 174.57721 11.4962069"></polygon>
                <polygon id="Shape" points="173.78391 15.5358621 167.374335 16.1772414 169.740772 4.37068966 176.156561 3.72931034"></polygon>
                <polygon id="Shape" points="89.0229981 39.6537931 82.6092803 40.2972414 89.6547385 4.05931034 96.069492 3.41793103"></polygon>
                <polygon id="Shape" points="91.194735 39.4468966 86.3437977 39.8948276 101.001209 2.87275862 105.850075 2.42586207"></polygon>
                <polygon id="Shape" points="107.383858 37.7627586 100.97014 38.4041379 112.315575 1.57448276 118.731364 0.932068966"></polygon>
                <polygon id="Shape" points="103.962104 38.1082759 99.2571916 38.5106897 101.223872 2.82310345 105.930855 2.42275862"></polygon>
            </g>
        </g>
    </g>
</svg>