<?xml version="1.0" encoding="UTF-8"?>
<svg width="218px" height="49px" viewBox="0 0 218 49" version="1.1" xmlns="http://www.w3.org/2000/svg" xmlns:xlink="http://www.w3.org/1999/xlink">
    <!-- Generator: Sketch 52.6 (67491) - http://www.bohemiancoding.com/sketch -->
    <title>logo_9</title>
    <desc>Created with Sketch.</desc>
    <defs>
        <linearGradient x1="50%" y1="-11.5544407%" x2="50%" y2="111.20152%" id="linearGradient-1">
            <stop stop-color="#00CDDA" offset="0%"></stop>
            <stop stop-color="#0077AB" offset="100%"></stop>
        </linearGradient>
    </defs>
    <g id="Page-1" stroke="none" stroke-width="1" fill="none" fill-rule="evenodd">
        <g id="Artboard" transform="translate(-915.000000, -1052.000000)">
            <g id="logo_9" transform="translate(915.000000, 1052.000000)">
                <path d="M76.2767253,44.5297727 C76.6266166,44.2840758 77.0470856,44.1578416 77.4751261,44.1699859 L82.531189,44.1699859 L82.2538731,45.2148461 L77.5939757,45.2148461 C77.4151365,45.2115048 77.2404839,45.2688669 77.0987688,45.3774894 C76.9611177,45.4664404 76.8621235,45.6036713 76.8214529,45.7619191 L76.4252874,47.274995 C76.3806023,47.4080876 76.4066989,47.5546484 76.4946163,47.6643532 C76.5948534,47.7723736 76.7383157,47.8302093 76.8858298,47.822068 L80.4216074,47.822068 L80.6147381,47.0926373 L79.0053155,47.0926373 L79.2677752,46.1069201 L82.1647358,46.1069201 L81.4367816,48.8718568 L76.256917,48.8718568 C75.8820192,48.9015283 75.5150001,48.7535905 75.2665031,48.4726413 C75.0362624,48.1986462 74.9667647,47.8247643 75.0832765,47.4869242 L75.5784835,45.5154898 C75.686495,45.114941 75.9339536,44.7656004 76.2767253,44.5297727 Z M86.7751124,44.1305572 L88.0576984,44.1404144 L89.8156831,48.8373567 L88.4241516,48.8373567 L88.0477943,47.8072822 L84.8537095,47.8072822 L83.9128163,48.8274995 L82.5410931,48.8274995 L86.7751124,44.1305572 Z M85.7500341,46.8215651 L87.671437,46.8215651 L87.1118532,45.3084892 L85.7500341,46.8215651 Z M95.0648767,47.4228525 L98.3580028,44.1305572 L99.7000136,44.1305572 L98.4619963,48.8274995 L97.1744582,48.8274995 L97.9568852,45.8506337 L95.3620008,48.4085697 L94.2576893,48.4085697 L93.0097678,45.8506337 L92.2223888,48.8274995 L90.9348508,48.8274995 L92.1728681,44.1305572 L93.5099269,44.1305572 L95.0648767,47.4228525 Z M99.7841988,48.8274995 L101.027168,44.1305572 L106.855754,44.1305572 L106.578438,45.1754174 L102.03739,45.1754174 L101.834356,45.9442768 L105.771251,45.9442768 L105.498887,46.9743512 L101.561992,46.9743512 L101.349053,47.7826393 L105.8901,47.7826393 L105.612785,48.8274995 L99.7841988,48.8274995 Z M112.758621,44.1305572 C113.116068,44.1256393 113.457208,44.2791467 113.68961,44.549487 C113.916277,44.8249067 113.988829,45.1952047 113.88274,45.5352042 L112.624915,45.5352042 C112.655543,45.4471013 112.63667,45.3494306 112.575394,45.2789177 C112.513726,45.201872 112.416018,45.1626001 112.317887,45.1754174 L109.633865,45.1754174 C109.521062,45.1735408 109.410996,45.2100554 109.321885,45.2789177 C109.236166,45.3429017 109.173611,45.4328299 109.14361,45.5352042 C109.115928,45.6234948 109.13452,45.719716 109.193131,45.7914906 C109.253889,45.8672778 109.348603,45.9079411 109.445686,45.8999195 L110.931307,45.8999195 C111.614693,45.8999195 112.104948,45.8999195 112.416928,45.8999195 C112.805825,45.8750888 113.183771,46.0339499 113.437054,46.3287065 C113.683982,46.6118303 113.759572,47.0049199 113.635137,47.3587809 C113.519961,47.7811358 113.256401,48.1483701 112.892327,48.3937839 C112.533725,48.6663579 112.09562,48.8151608 111.644405,48.8176423 L108.519649,48.8176423 C108.131041,48.8384537 107.753957,48.6825337 107.494571,48.3937839 C107.255835,48.1047042 107.182911,47.7138952 107.30144,47.3587809 L108.504793,47.3587809 C108.473347,47.4602919 108.493683,47.5706895 108.559266,47.6544961 C108.631275,47.7367953 108.736925,47.7821179 108.846486,47.7777107 L111.817727,47.7777107 C111.945491,47.7690177 112.068593,47.7264765 112.174276,47.6544961 C112.276061,47.5851836 112.349778,47.4821201 112.382263,47.3637095 C112.415111,47.2615394 112.392643,47.1497316 112.322839,47.0679944 C112.250829,46.9856951 112.14518,46.9403725 112.035619,46.9447797 L108.995048,46.9447797 C108.618558,46.9654161 108.25341,46.8127812 108.004634,46.5307785 C107.78051,46.2540708 107.709919,45.8842967 107.816455,45.5450614 C107.928706,45.1411402 108.183681,44.7911194 108.534505,44.5593442 C108.885091,44.295815 109.308699,44.1461043 109.747762,44.1305572 L112.758621,44.1305572 Z M125.208123,44.1305572 C125.574822,44.1072249 125.93161,44.2547265 126.173777,44.5297727 C126.405726,44.8028238 126.47712,45.1768 126.361955,45.5154898 L125.866748,47.4869242 C125.758737,47.887473 125.511278,48.2368136 125.168507,48.4726413 C124.827608,48.7293278 124.412423,48.8693716 123.984962,48.8718568 L120.29567,48.8718568 C119.928972,48.8951891 119.572183,48.7476875 119.330017,48.4726413 C119.100765,48.1983172 119.029652,47.8258137 119.141838,47.4869242 L119.637045,45.5154898 C119.748895,45.1167425 119.99551,44.7685933 120.335287,44.5297727 C120.676186,44.2730862 121.09137,44.1330424 121.518831,44.1305572 L125.208123,44.1305572 Z M125.014993,45.7224904 C125.052675,45.584397 125.015117,45.4367447 124.915951,45.3331322 C124.820411,45.21854 124.673474,45.1593035 124.524738,45.1754174 L121.593113,45.1754174 C121.422493,45.1760858 121.25696,45.233314 121.122666,45.3380608 C120.985015,45.4270117 120.886021,45.5642426 120.84535,45.7224904 L120.444232,47.2355663 C120.401844,47.3695392 120.429736,47.5157384 120.518513,47.6249246 C120.618751,47.7329449 120.762213,47.7907807 120.909727,47.7826393 L123.841352,47.7826393 C124.019557,47.7819564 124.192947,47.7250089 124.336559,47.619996 C124.471642,47.5283958 124.569861,47.392239 124.613875,47.2355663 L125.014993,45.7224904 Z M126.812594,48.8274995 L128.050611,44.1305572 L133.740539,44.1305572 L133.468175,45.1754174 L129.065785,45.1754174 L128.823134,46.0921344 L132.616419,46.0921344 L132.349007,47.1172802 L128.55077,47.1172802 L128.100132,48.8274995 L126.812594,48.8274995 Z M139.554268,44.5297727 C139.894429,44.275851 140.307659,44.1376089 140.732861,44.1354858 L145.798828,44.1354858 L145.521512,45.180346 L140.861615,45.180346 C140.682775,45.1770047 140.508123,45.2343668 140.366408,45.3429893 C140.224579,45.43756 140.123787,45.5818711 140.08414,45.7471334 L139.687974,47.2602092 C139.645986,47.393487 139.671855,47.5387662 139.757303,47.6495675 C139.85754,47.7575878 140.001003,47.8154236 140.148517,47.8072822 L143.684294,47.8072822 L143.917041,47.0926373 L142.312571,47.0926373 L142.570079,46.1069201 L145.467039,46.1069201 L144.739085,48.8718568 L139.53446,48.8718568 C139.159806,48.8999649 138.793461,48.7522991 138.544046,48.4726413 C138.313805,48.1986462 138.244308,47.8247643 138.36082,47.4869242 L138.856027,45.5154898 C138.964038,45.114941 139.211497,44.7656004 139.554268,44.5297727 Z M148.552178,44.1305572 L147.586525,47.7826393 L151.884921,47.7826393 L151.607605,48.8274995 L146.021671,48.8274995 L147.26464,44.1305572 L148.552178,44.1305572 Z M159.377402,44.1305572 C159.752422,44.100092 160.119786,44.2481688 160.367816,44.5297727 C160.598057,44.8037678 160.667555,45.1776497 160.551043,45.5154898 L160.055836,47.4869242 C159.947824,47.887473 159.700366,48.2368136 159.357594,48.4726413 C159.019248,48.7305608 158.605188,48.8708119 158.179001,48.8718568 L154.48971,48.8718568 C154.115055,48.8999649 153.748711,48.7522991 153.499296,48.4726413 C153.271753,48.1973897 153.202528,47.8249771 153.316069,47.4869242 L153.811276,45.5154898 C153.919288,45.114941 154.166746,44.7656004 154.509518,44.5297727 C154.849062,44.2740908 155.262347,44.1341021 155.68811,44.1305572 L159.377402,44.1305572 Z M159.184272,45.7224904 C159.227677,45.5862187 159.19357,45.437239 159.095134,45.3331322 C158.99854,45.219984 158.852405,45.1610709 158.703921,45.1754174 L155.772296,45.1754174 C155.601676,45.1760858 155.436143,45.233314 155.301849,45.3380608 C155.163006,45.4268163 155.06237,45.5638744 155.019581,45.7224904 L154.623416,47.2355663 C154.581428,47.3688441 154.607296,47.5141233 154.692745,47.6249246 C154.792982,47.7329449 154.936444,47.7907807 155.083958,47.7826393 L158.015583,47.7826393 C158.193462,47.779995 158.366267,47.7232395 158.51079,47.619996 C158.644414,47.5269176 158.742218,47.3913365 158.788106,47.2355663 L159.184272,45.7224904 Z M166.855027,44.1305572 C167.260589,44.1040261 167.655614,44.2660192 167.924674,44.5692014 C168.169411,44.8648813 168.245938,45.2642788 168.127709,45.6288473 C168.015125,46.0233204 167.774913,46.3698025 167.444323,46.6145645 C167.106908,46.8845028 166.700403,47.0552104 166.270683,47.1074231 L167.350234,48.8274995 L165.864613,48.8274995 L164.874199,47.1222088 L162.720049,47.1222088 L162.269411,48.8274995 L160.981873,48.8274995 L162.224842,44.1305572 L166.855027,44.1305572 Z M166.855027,45.609133 L166.840171,45.6337759 C166.895772,45.5192719 166.880363,45.3831653 166.800554,45.2838463 C166.72239,45.1861454 166.597833,45.1373101 166.473718,45.1557031 L163.24992,45.1557031 L163.012221,46.0674915 L166.231066,46.0674915 C166.374506,46.0693998 166.51429,46.0224463 166.627232,45.9344196 C166.738508,45.8553072 166.818964,45.7404184 166.855027,45.609133 Z M173.079778,46.1118487 L175.605334,44.1305572 L177.506928,44.1305572 L173.456136,47.1271374 L173.010449,48.8274995 L171.717959,48.8274995 L172.168598,47.1271374 L169.702467,44.1305572 L171.604062,44.1305572 L173.079778,46.1118487 Z" id="Combined-Shape" fill="#303030" fill-rule="nonzero"></path>
                <path d="M166.498478,26.6981493 L165.696243,20.0544156 L164.953432,19.1623416 L170.757258,19.1919131 L171.633774,26.7227922 L166.498478,26.6981493 Z M180.389033,17.752766 L178.75485,27.6838664 L187.841897,27.7331523 L187.361546,30.7149467 L183.692063,30.6952323 L182.721457,36.7524643 L185.752124,36.7672501 L187.15356,35.5696037 L186.371133,40.3306176 L176.006451,40.3059747 L177.635682,30.6607322 L172.148789,30.6311607 L166.379628,40.2221887 L160.318295,40.1876886 L166.092408,30.5966606 L161.912862,30.5769463 L162.398165,27.5951519 L172.698469,27.6493663 L174.139521,18.9257695 L173.114443,17.7133374 L180.389033,17.752766 Z M180.116669,26.7671495 L183.043342,20.1825588 L182.236155,19.2559847 L188.61442,19.2904848 L185.247013,26.796721 L180.116669,26.7671495 Z M213.661987,19.0095554 L218,19.0341984 L217.514697,22.0455643 L213.176684,22.0209213 L213.028122,22.9129954 L207.288674,22.8784953 L207.437236,21.9913498 L201.985007,21.9617783 L201.836445,22.8489238 L196.096997,22.8193522 L196.245559,21.9322068 L192.066012,21.9075639 L192.551315,18.8961979 L196.730862,18.9159123 L196.765526,18.6349829 L195.775112,17.4225508 L202.727818,17.4570509 L202.47031,18.9504124 L207.922539,18.9799839 L207.962155,18.6941259 L206.966789,17.4816938 L213.919495,17.5211225 L213.661987,19.0095554 Z M206.575576,27.6690807 L206.278452,29.4187286 L216.291536,29.4729431 L215.776521,32.484309 L211.948571,32.4645946 L215.192177,39.8476162 L209.447776,39.8180447 L206.209123,32.4350231 L205.763436,32.4300945 L204.461042,40.3306176 L198.721594,40.3010461 L200.023988,32.400523 L199.578302,32.3955944 L194.269683,39.7342587 L188.530235,39.7046872 L193.833901,32.3660229 L190.327836,32.3463086 L190.842851,29.3349427 L200.539003,29.3842285 L200.836127,27.6395092 L206.575576,27.6690807 Z M190.956749,28.5710119 L191.768888,23.750855 L217.217573,23.8888554 L216.405434,28.7090123 L210.344101,28.6745122 L210.641225,26.8657212 L197.310254,26.796721 L197.018082,28.605512 L190.956749,28.5710119 Z" id="Combined-Shape" fill="#303030" fill-rule="nonzero"></path>
                <path d="M117.458135,21.6857775 C117.891821,22.5729686 118.174626,23.525617 118.295034,24.5049286 C118.462487,25.8212825 118.390356,27.1568916 118.082095,28.4477972 C117.770708,29.7439134 117.270185,30.9876267 116.596474,32.139308 C115.913945,33.3242886 115.08184,34.4174581 114.12044,35.3921746 C113.145447,36.406407 112.045636,37.2940062 110.847122,38.0338966 C109.616899,38.7664297 108.299286,39.3426352 106.925083,39.7490445 C105.532775,40.1672463 104.085968,40.3781725 102.631639,40.3749749 L86.0422062,40.3749749 C84.9551366,40.3894099 83.8750154,40.2004909 82.8580255,39.8180447 C81.9401275,39.4727405 81.0989816,38.9520289 80.3819908,38.2852545 C79.6849318,37.6246608 79.1173539,36.8408393 78.7081914,35.9737477 C78.2792224,35.0646627 77.9999899,34.0928153 77.8811958,33.0954536 C77.7184895,31.7894668 77.7855182,30.4652566 78.0792785,29.1821565 C78.3744816,27.89624 78.8548442,26.6595281 79.5054745,25.5103601 C80.1737374,24.3297606 80.9963477,23.2425676 81.9517968,22.2772078 C82.9284469,21.285252 84.0304226,20.4237566 85.2300668,19.7143432 C86.4545837,18.988026 87.7654792,18.416815 89.1322975,18.0139811 C90.547697,17.5928654 92.0177925,17.3819496 93.4950706,17.3880507 L110.084503,17.3880507 C111.186476,17.3726462 112.282117,17.5563351 113.318205,17.9301951 C114.232781,18.2571143 115.074018,18.7594626 115.794239,19.4087709 C116.487943,20.0567634 117.052464,20.8292995 117.458135,21.6857775 Z M105.31566,24.4950714 C105.439589,24.0106641 105.469839,23.5072214 105.404798,23.0115671 C105.376199,22.4419281 105.049002,21.9291297 104.543138,21.6611346 C103.882162,21.3808225 103.16609,21.2527766 102.448412,21.2865621 L97.8429876,21.2865621 C97.2390755,21.2808752 96.6378525,21.3673067 96.0602426,21.5428485 C95.5215249,21.7139961 95.0311242,22.0095434 94.6290945,22.405351 C94.1526596,22.8775327 93.7563031,23.4234756 93.4554541,24.0219272 C93.0427489,24.8378498 92.6998436,25.6869262 92.4303757,26.5601489 L91.2567353,30.2368739 C90.6377266,32.198451 90.3851711,33.6375981 90.4990686,34.5641722 C90.5264871,35.1182811 90.8006074,35.6314003 91.2468311,35.9638906 C91.7631612,36.2710098 92.3595284,36.4185369 92.9602471,36.3877489 L97.6003362,36.3877489 C98.2436174,36.3963873 98.8830583,36.2878136 99.4870746,36.0673909 C100.075363,35.8340075 100.609551,35.4834843 101.056881,35.0373164 C101.596273,34.4807277 102.042656,33.8417835 102.379083,33.1447395 C102.841539,32.2060688 103.23221,31.2340238 103.547772,30.2368739 L104.721412,26.5601489 C104.983872,25.7715751 105.181954,25.0815731 105.31566,24.4950714 Z M157.842261,26.0722189 L153.489392,39.4286864 C153.359369,39.954418 152.879397,40.319353 152.335559,40.3059747 L127.85748,40.3059747 C126.787876,40.3200268 125.724956,40.1361931 124.72282,39.7638302 C123.8104,39.4323982 122.969993,38.9305455 122.246786,38.2852545 C121.538717,37.6328512 120.965146,36.8493963 120.55813,35.9786763 C120.118597,35.0544807 119.831018,34.0660398 119.706374,33.0510964 C119.544469,31.7516438 119.6115,30.4340444 119.904457,29.1575136 C120.195374,27.8702966 120.675972,26.632978 121.330653,25.4857172 C122.702716,23.0896774 124.672766,21.0865301 127.050293,19.6699859 C128.276105,18.942787 129.588751,18.3715379 130.957476,17.9696238 C132.366775,17.5531694 133.830377,17.3472103 135.300441,17.3584792 L158.902004,17.3584792 C159.332834,17.3584792 159.565581,17.5063368 159.600245,17.7971233 C159.613376,17.9477435 159.58603,18.0991298 159.521012,18.2357675 L158.783154,20.3550593 C158.654326,20.9087714 158.145177,21.2908987 157.574849,21.2619191 L141.896597,21.2619191 C141.238371,21.2507635 140.581764,21.330377 139.945482,21.4984912 C139.390832,21.6623669 138.882177,21.9526127 138.459861,22.346208 C137.964346,22.8117216 137.5553,23.3606478 137.251556,23.9677127 C136.833966,24.7910786 136.492516,25.6505528 136.23143,26.5355059 L135.057789,30.2122309 C134.783368,31.0185409 134.561712,31.841695 134.394212,32.6765238 C134.268569,33.2591792 134.233497,33.8575719 134.290219,34.4508147 C134.320599,35.0446397 134.626093,35.5908283 135.117214,35.9293905 C135.702087,36.2515089 136.366164,36.4035052 137.033665,36.3680346 L143.060333,36.3680346 L146.398028,26.0525045 C146.506087,25.5150777 146.986467,25.1325963 147.537004,25.1456447 L157.223252,25.1456447 C157.64913,25.1456447 157.886829,25.3230738 157.921494,25.6385033 C157.937047,25.787632 157.909562,25.9380832 157.842261,26.0722189 Z" id="Combined-Shape" fill="url(#linearGradient-1)"></path>
                <polygon id="Rectangle" fill="#FFFFFF" points="18.1666667 7 81.1226355 9.50371094 72.173821 42 18.1666667 42"></polygon>
                <path d="M79.6589887,14.9040435 L49.07996,14.9040435 C48.2446034,14.8895536 47.4112795,14.990737 46.6039253,15.2046872 C45.8951748,15.4042084 45.2436818,15.7672468 44.7023307,16.2643331 C44.0757017,16.8534275 43.5577863,17.5473792 43.1721412,18.3146248 C42.6463812,19.3591293 42.2138868,20.4476069 41.8796511,21.5674915 L40.3940303,26.2299336 C40.0465089,27.2441362 39.7653039,28.2796606 39.5521785,29.3300141 C39.3934313,30.0680866 39.3483476,30.8258893 39.4184726,31.5774492 C39.4527679,32.3328394 39.839166,33.0290674 40.4633592,33.460169 C41.2041575,33.8674669 42.0446708,34.0603804 42.8898732,34.0170992 L50.5259643,34.0170992 L54.7550316,20.9563468 C54.8946773,20.2849006 55.4923185,19.8057504 56.1812276,19.8129149 L68.4623597,19.8129149 C69.0070874,19.8129149 69.3042115,20.0100583 69.3537322,20.4092738 C69.3699933,20.6008455 69.3340686,20.7932375 69.2497388,20.966204 L63.7380855,37.8761819 C63.5784328,38.560017 62.9576252,39.0378315 62.2524647,39.0196138 L31.242606,39.0196138 C29.8907193,39.0386843 28.5471412,38.8063447 27.2809504,38.3345403 C26.1329578,37.90672 25.0787016,37.2624395 24.1760029,36.4370348 C23.2686459,35.6138537 22.5332705,34.6206966 22.0119486,33.5143834 C21.4601294,32.3404729 21.1022812,31.0856223 20.9522057,29.7982297 C20.748627,28.1532205 20.8340857,26.485505 21.2047613,24.8696439 C21.5806507,23.2346634 22.1963573,21.6636707 23.0320749,20.2072018 C23.8889089,18.7181087 24.9304034,17.342106 26.1320703,16.111547 C27.3636743,14.8460663 28.7572683,13.7474149 30.2769524,12.8438946 C31.8321657,11.9256227 33.4954675,11.2022067 35.2290219,10.6901026 C37.0060195,10.1616628 38.8513932,9.8959669 40.7060106,9.90152887 L81.0901367,9.90152887 L81.7834265,7.3928787 C82.8900881,3.69241928 85.9795019,0.916195216 89.7909227,0.197143432 L89.8552996,3.55271368e-15 L19.620099,3.55271368e-15 L8.07682522,41.5775498 C6.96498174,45.2775622 3.87583022,48.0537351 0.0643769025,48.7782136 L2.84217094e-14,49 L70.2352006,49 L79.6986052,14.9188292 L79.6589887,14.9040435 Z" id="Path" fill="url(#linearGradient-1)"></path>
            </g>
        </g>
    </g>
</svg>