<?xml version="1.0" encoding="UTF-8"?>
<svg width="87px" height="126px" viewBox="0 0 87 126" version="1.1" xmlns="http://www.w3.org/2000/svg" xmlns:xlink="http://www.w3.org/1999/xlink">
    <!-- Generator: Sketch 52.6 (67491) - http://www.bohemiancoding.com/sketch -->
    <title>logo_10</title>
    <desc>Created with Sketch.</desc>
    <g id="Page-1" stroke="none" stroke-width="1" fill="none" fill-rule="evenodd">
        <g id="Artboard" transform="translate(-597.000000, -1391.000000)" fill="#000000" stroke="#000000" stroke-width="0.567032967">
            <g id="logo_10" transform="translate(598.000000, 1391.000000)">
                <path d="M20.6375987,60.8700715 C20.524089,61.5420038 19.9421799,62.0173885 19.2835793,62.0173885 C19.207346,62.0173885 19.1303488,62.0109644 19.0527406,61.9979632 C17.7130817,61.7712836 16.3900751,61.4561959 15.1200803,61.0617244 C14.3947182,60.8364214 13.989261,60.0650683 14.2142944,59.33899 C14.4393277,58.6129116 15.209452,58.2069685 15.9349669,58.4321186 C17.0883965,58.7904926 18.2916298,59.0766718 19.511057,59.2831613 C20.2597932,59.4101141 20.764094,60.1205911 20.6375987,60.8700715 Z M18.487942,55.2717582 C17.1478249,55.0449256 15.8248182,54.7298379 14.5552818,54.3353664 C13.8300724,54.1100634 13.4246152,53.3387103 13.6496486,52.612632 C13.8746819,51.8865536 14.6457229,51.4809164 15.3703211,51.7059135 C16.5232924,52.0641346 17.7263729,52.3504668 18.9462584,52.5569563 C19.6949946,52.6837561 20.1994482,53.3942331 20.0728001,54.1438665 C19.9594432,54.8157987 19.3775341,55.2911835 18.7187807,55.2911835 C18.6427002,55.2911835 18.5655502,55.2849123 18.487942,55.2717582 Z M48.5263042,41.3392217 C47.83058,41.6445203 47.0198182,41.3275971 46.7151906,40.6316509 C46.4101047,39.9353989 46.7266485,39.1235126 47.4220673,38.8180611 C53.2292416,36.2681449 54.800503,31.9298765 55.2203208,29.5708484 C55.8359925,26.1102369 54.8035584,22.5977737 52.5254204,20.4040902 C52.1268379,20.0201726 51.996676,19.4345071 52.1952798,18.9176715 C52.3938836,18.4006829 52.8822961,18.0533216 53.4351784,18.0358848 C58.5276847,17.8734463 62.9541044,19.6215713 66.2403858,23.0860067 C70.6278487,27.711525 72.7513813,35.0874837 72.0660455,43.3224389 C72.0063116,44.0411754 71.4051533,44.5847782 70.6975128,44.5847782 C70.6591669,44.5847782 70.6206684,44.5830956 70.5818643,44.5798836 C69.8250311,44.5167131 69.2626769,43.851358 69.3257718,43.0937708 C69.9460266,35.6402638 68.0945812,29.0387173 64.2464039,24.9817335 C62.1117189,22.7313036 59.4789967,21.3770382 56.3945274,20.9369861 C57.9184294,23.5655212 58.4995746,26.8379978 57.927443,30.053575 C57.0494615,34.9880628 53.6227826,39.1014871 48.5263042,41.3392217 Z M14.5554345,47.9672295 C13.8300724,47.7417735 13.424768,46.9704205 13.6496486,46.2443421 C13.8748347,45.5182638 14.6457229,45.1126266 15.3704739,45.3376237 C16.5225285,45.6956918 17.7256091,45.9820239 18.9464112,46.1886664 C19.6951474,46.3154663 20.199601,47.0259432 20.0729529,47.7755766 C19.959596,48.4475088 19.3775341,48.9228936 18.7189335,48.9228936 C18.6428529,48.9228936 18.565703,48.9166225 18.4880948,48.9034683 C17.147061,48.6763298 15.8239015,48.3613951 14.5554345,47.9672295 Z M41.0855375,23.3285936 C42.8723604,29.0928634 43.8563657,36.7309874 43.8563657,44.8357776 C43.8563657,55.7281765 42.0920003,65.5847627 39.1367762,71.2020425 C38.89891,71.6541781 38.4305106,71.9371452 37.9202517,71.9371452 L28.5440149,71.9371452 C28.0337559,71.9371452 27.5653566,71.6541781 27.3274904,71.2021955 C24.3719607,65.5849157 22.6075953,55.7283295 22.6075953,44.8359306 C22.6075953,36.7311403 23.5916006,29.0931693 25.3785763,23.3287466 C27.3473507,16.9777407 30.0631809,13.6206799 33.2321333,13.6206799 C36.4010856,13.6206799 39.1167631,16.9775877 41.0855375,23.3285936 Z M41.1064673,44.8357776 C41.1064673,27.2015723 36.5200951,16.3737206 33.2321333,16.3737206 C29.9440187,16.3737206 25.3574937,27.2017253 25.3574937,44.8357776 C25.3574937,54.6744681 26.8940758,63.8773238 29.3948029,69.1839516 L31.8571841,69.1839516 L31.8571841,40.7220475 C31.8571841,39.9617072 32.472703,39.3454506 33.2321333,39.3454506 C33.9915636,39.3454506 34.6070825,39.9617072 34.6070825,40.7220475 L34.6070825,69.1837986 L37.0694637,69.1837986 C39.5698852,63.8771708 41.1064673,54.6744681 41.1064673,44.8357776 Z M70.9197962,50.2003755 C71.6769349,50.2580396 72.2440251,50.9192649 72.18643,51.6773109 C72.1288349,52.4355098 71.4676371,53.0035855 70.7111095,52.9456154 C68.5249403,52.7792002 66.80274,50.9484794 65.6506854,49.2229917 C64.2216548,51.3513634 62.1778692,52.615997 59.9499932,52.6510237 C57.689424,52.6848268 55.6797066,51.4928469 54.1865118,49.3013048 C52.8221038,51.1416618 50.6894049,52.4838437 48.228093,52.9476039 C48.1420823,52.9638171 48.0565299,52.9716178 47.9721997,52.9716178 C47.3239876,52.9716178 46.7468144,52.5104579 46.6226107,51.8493855 C46.4820603,51.1023523 46.9732227,50.3825451 47.7195146,50.2419793 C49.6215277,49.8836052 52.1042276,48.5382113 52.8408948,45.9260423 C53.001,45.3579667 53.5053008,44.9552357 54.0940846,44.9252564 C54.6843961,44.8965009 55.225515,45.2444739 55.4424515,45.7932772 C56.485274,48.4302249 58.1063391,49.9265857 59.9067587,49.898136 C61.7201639,49.8695334 63.4001991,48.3121435 64.2913189,45.8336574 C64.4799925,45.309327 64.9656551,44.9503411 65.5217457,44.9247976 C66.0776835,44.8984893 66.5945116,45.2117415 66.8303918,45.7164937 C67.8367018,47.86995 69.4915295,50.0916243 70.9197962,50.2003755 Z M70.9197962,59.9804841 C71.6769349,60.0381482 72.2440251,60.6995265 72.18643,61.4575725 C72.1288349,62.2156185 71.4685537,62.7817057 70.7111095,62.7257241 C68.5257041,62.5591558 66.8031983,60.7282821 65.6509909,59.0027944 C64.2218076,61.1311661 62.1778692,62.3961056 59.9499932,62.4311323 C59.9173,62.4315912 59.8847595,62.4318971 59.8522191,62.4318971 C57.6361065,62.4318971 55.6581657,61.2411409 54.1865118,59.0812604 C52.8221038,60.9216174 50.6894049,62.2637994 48.228093,62.7275595 C48.1420823,62.7437728 48.0565299,62.7515735 47.9721997,62.7515735 C47.3239876,62.7515735 46.7468144,62.2904136 46.6226107,61.6293412 C46.4820603,60.882308 46.9732227,60.1625008 47.7195146,60.0219349 C49.6215277,59.6635609 52.1042276,58.3181669 52.8408948,55.7061509 C53.001,55.1380753 53.5053008,54.7353443 54.0940846,54.7053651 C54.6843961,54.6759977 55.225515,55.0245826 55.4424515,55.5733858 C56.485274,58.2103335 58.1063391,59.7099063 59.9067587,59.6782446 C61.7201639,59.649642 63.4001991,58.0922521 64.2913189,55.613766 C64.4798397,55.0894356 64.9655023,54.7306027 65.5215929,54.7049062 C66.0787529,54.6770683 66.594206,54.9916972 66.830239,55.4964494 C67.8370073,57.6499057 69.4919879,59.8717329 70.9197962,59.9804841 Z M42.8046674,86.5267046 C19.3205079,86.5267046 0.282835116,67.3281969 0.282835116,43.6456375 C0.282835116,19.9630781 19.3205079,0.764570451 42.8046674,0.764570451 C66.288827,0.764570451 85.3264998,19.9630781 85.3264998,43.6456375 C85.3264998,67.3281969 66.288827,86.5267046 42.8046674,86.5267046 Z M42.8046674,83.6029955 C64.6876343,83.6029955 82.4272839,65.713477 82.4272839,43.6456375 C82.4272839,21.5777981 64.6876343,3.68827957 42.8046674,3.68827957 C20.9217006,3.68827957 3.18205096,21.5777981 3.18205096,43.6456375 C3.18205096,65.713477 20.9217006,83.6029955 42.8046674,83.6029955 Z" id="Combined-Shape"></path>
                <path d="M8.06270484,98.9924414 L13.9989663,98.9924414 C16.997838,98.9924414 19.2346677,100.109081 20.7095227,102.342393 C22.1843776,104.575705 22.921794,107.821033 22.921794,112.078477 C22.921794,114.465598 22.5868841,116.668115 21.9170541,118.686094 C21.2472242,120.704073 20.2148412,122.217534 18.8198742,123.226523 C17.4249073,124.235513 15.817954,124.74 13.9989663,124.74 L8.06270484,124.74 L8.06270484,98.9924414 Z M10.5699457,101.244199 L10.5699457,122.543613 L13.9989663,122.543613 C16.2358296,122.543613 17.8458554,121.602314 18.829092,119.719688 C19.8123287,117.837061 20.3039396,115.025468 20.3039396,111.284824 C20.3039396,108.024066 19.7938932,105.535468 18.7737853,103.818955 C17.7536773,102.102443 16.1620868,101.244199 13.9989663,101.244199 L10.5699457,101.244199 Z M26.7010909,98.9924414 L29.2083317,98.9924414 L29.2083317,124.74 L26.7010909,124.74 L26.7010909,98.9924414 Z M34.1121999,98.9924414 L41.2099038,98.9924414 C43.4467671,98.9924414 45.2042762,99.5492229 46.4824838,100.662803 C47.7606914,101.776383 48.3997856,103.42827 48.3997856,105.618516 C48.3997856,107.956418 47.6746595,109.777493 46.2243855,111.081797 C44.7741115,112.3861 42.8568288,113.038242 40.47248,113.038242 L36.6378763,113.038242 L36.6378763,124.74 L34.1121999,124.74 L34.1121999,98.9924414 Z M36.6378763,101.207285 L36.6378763,110.860313 L40.4171732,110.860313 C42.0272232,110.860313 43.323847,110.414272 44.3070837,109.522178 C45.2903203,108.630083 45.7819312,107.384246 45.7819312,105.784629 C45.7819312,104.344973 45.3763522,103.222182 44.565182,102.416221 C43.7540118,101.61026 42.6233066,101.207285 41.1730326,101.207285 L36.6378763,101.207285 Z M59.1477372,98.5679297 C61.6304097,98.5679297 63.6398694,99.7676247 65.1761766,102.167051 C66.7124839,104.566477 67.480626,107.937928 67.480626,112.281504 C67.480626,116.182109 66.6879033,119.301316 65.1024343,121.639219 C63.5169652,123.977121 61.5013604,125.146055 59.0555593,125.146055 C56.5605963,125.146055 54.5327012,123.992502 52.9718131,121.685361 C51.4109249,119.378221 50.6304926,116.18211 50.6304926,112.096934 C50.6304926,107.937928 51.3863444,104.643381 52.8980707,102.213193 C54.409797,99.7830054 56.4929983,98.5679297 59.1477372,98.5679297 Z M59.2583508,100.856602 C57.1935539,100.856602 55.6726326,101.905566 54.6955412,104.003525 C53.7184498,106.101485 53.2299114,108.848479 53.2299114,112.24459 C53.2299114,115.456129 53.7399577,118.018555 54.7600657,119.931943 C55.7801737,121.845332 57.1935552,122.802012 59.0002525,122.802012 C60.8315307,122.802012 62.2633475,121.817647 63.295746,119.848887 C64.3281445,117.880127 64.8443359,115.203884 64.8443359,111.820078 C64.8443359,108.140958 64.3004913,105.393964 63.2127858,103.579014 C62.1250803,101.764063 60.8069485,100.856602 59.2583508,100.856602 Z M69.1213939,98.9924414 L83.5564644,98.9924414 L83.5564644,101.170371 L77.5095894,101.170371 L77.5095894,124.74 L75.0576553,124.74 L75.0576553,101.170371 L69.1213939,101.170371 L69.1213939,98.9924414 Z" id="DIPOT" stroke-linejoin="round"></path>
            </g>
        </g>
    </g>
</svg>