<?xml version="1.0" encoding="UTF-8"?>
<svg width="89px" height="78px" viewBox="0 0 89 78" version="1.1" xmlns="http://www.w3.org/2000/svg" xmlns:xlink="http://www.w3.org/1999/xlink">
    <!-- Generator: Sketch 52.6 (67491) - http://www.bohemiancoding.com/sketch -->
    <title>logo_16</title>
    <desc>Created with Sketch.</desc>
    <g id="Page-1" stroke="none" stroke-width="1" fill="none" fill-rule="evenodd">
        <g id="Artboard" transform="translate(-598.000000, -2182.000000)" fill="#000000">
            <g id="logo_16" transform="translate(598.000000, 2182.000000)">
                <path d="M61.8145328,53.6257393 L68.9390691,49.2047453 L44.1954822,33.7779812 L36.9367109,38.1152844 L61.8145328,53.6257393 Z M51.4587437,60.051825 L0.756003551,28.4404337 C0.19239446,28.0890431 0.193066503,27.5192922 0.755077569,27.1693705 L9.0543127,22.0020668 C9.61741038,21.6514686 10.5242326,21.6480247 11.0943958,22.0035016 L27.1927472,32.0402627 L51.0313371,17.5139572 L34.8530632,7.42736719 C34.2869173,7.07439499 34.2855329,6.50336194 34.847544,6.15344031 L43.1467791,0.986136582 C43.7098768,0.635538398 44.6271847,0.638631996 45.1914554,0.990435128 L85.4591452,26.0959365 C86.0252911,26.4489087 86.0266755,27.0199417 85.4646644,27.3698633 L77.1654293,32.5371671 C76.6023316,32.8877653 75.6850237,32.8846717 75.120753,32.5328685 L61.0063693,23.7330421 L54.7463869,27.4735432 L87.304886,47.7726328 C87.4852309,47.8850716 87.6082677,48.0196376 87.6740405,48.1621352 L88.218072,48.5041896 C88.7798491,48.8574015 88.7740406,49.4244941 88.2081939,49.768942 L52.846388,71.2947383 C52.8170277,71.4965262 52.6788688,71.6928699 52.4320268,71.8465597 L44.1327917,77.0138634 C43.569694,77.3644616 42.6523861,77.361368 42.0881154,77.0095649 L1.82042554,51.9040635 C1.25427969,51.5510913 1.25289529,50.9800583 1.81490635,50.6301367 L10.1141415,45.4628329 C10.6772392,45.1122347 11.594547,45.1153283 12.1588178,45.4671315 L43.4864984,64.9988486 L51.4587437,60.051825 Z" id="Combined-Shape"></path>
            </g>
        </g>
    </g>
</svg>