<?xml version="1.0" encoding="UTF-8"?>
<svg width="120px" height="136px" viewBox="0 0 120 136" version="1.1" xmlns="http://www.w3.org/2000/svg" xmlns:xlink="http://www.w3.org/1999/xlink">
    <!-- Generator: Sketch 52.6 (67491) - http://www.bohemiancoding.com/sketch -->
    <title>logo_2</title>
    <desc>Created with Sketch.</desc>
    <defs>
        <linearGradient x1="50%" y1="0%" x2="50%" y2="74.0209335%" id="linearGradient-1">
            <stop stop-color="#00F3FF" stop-opacity="0" offset="0%"></stop>
            <stop stop-color="#006BBA" offset="100%"></stop>
        </linearGradient>
        <linearGradient x1="50%" y1="0%" x2="50%" y2="74.0209335%" id="linearGradient-2">
            <stop stop-color="#00F3FF" stop-opacity="0" offset="0%"></stop>
            <stop stop-color="#006BBA" offset="100%"></stop>
        </linearGradient>
        <linearGradient x1="50%" y1="0%" x2="50%" y2="72.4492612%" id="linearGradient-3">
            <stop stop-color="#00F3FF" stop-opacity="0" offset="0%"></stop>
            <stop stop-color="#006BBA" offset="100%"></stop>
        </linearGradient>
        <linearGradient x1="50%" y1="0%" x2="50%" y2="73.0082194%" id="linearGradient-4">
            <stop stop-color="#00F3FF" stop-opacity="0" offset="0%"></stop>
            <stop stop-color="#006BBA" offset="100%"></stop>
        </linearGradient>
        <linearGradient x1="50%" y1="0%" x2="50%" y2="74.8897429%" id="linearGradient-5">
            <stop stop-color="#00F3FF" stop-opacity="0" offset="0%"></stop>
            <stop stop-color="#006BBA" offset="100%"></stop>
        </linearGradient>
        <linearGradient x1="50%" y1="0%" x2="50%" y2="74.525%" id="linearGradient-6">
            <stop stop-color="#00F3FF" stop-opacity="0" offset="0%"></stop>
            <stop stop-color="#006BBA" offset="100%"></stop>
        </linearGradient>
        <linearGradient x1="50%" y1="0%" x2="50%" y2="73.0788509%" id="linearGradient-7">
            <stop stop-color="#00F3FF" stop-opacity="0" offset="0%"></stop>
            <stop stop-color="#006BBA" offset="100%"></stop>
        </linearGradient>
        <linearGradient x1="50%" y1="0%" x2="50%" y2="69.3178157%" id="linearGradient-8">
            <stop stop-color="#00F3FF" stop-opacity="0" offset="0%"></stop>
            <stop stop-color="#006BBA" offset="100%"></stop>
        </linearGradient>
        <linearGradient x1="50%" y1="0%" x2="50%" y2="65.4343378%" id="linearGradient-9">
            <stop stop-color="#00F3FF" stop-opacity="0" offset="0%"></stop>
            <stop stop-color="#006BBA" offset="100%"></stop>
        </linearGradient>
        <linearGradient x1="50%" y1="0%" x2="50%" y2="71.1617385%" id="linearGradient-10">
            <stop stop-color="#00F3FF" stop-opacity="0" offset="0%"></stop>
            <stop stop-color="#006BBA" offset="100%"></stop>
        </linearGradient>
        <linearGradient x1="50%" y1="0%" x2="50%" y2="75.0144265%" id="linearGradient-11">
            <stop stop-color="#00F3FF" stop-opacity="0" offset="0%"></stop>
            <stop stop-color="#006BBA" offset="100%"></stop>
        </linearGradient>
    </defs>
    <g id="Page-1" stroke="none" stroke-width="1" fill="none" fill-rule="evenodd">
        <g id="Artboard" transform="translate(-580.000000, -238.000000)">
            <g id="logo_2" transform="translate(579.000000, 238.000000)">
                <path d="M11.4,121.81 L10.44,122.95 C9.99,121.99 8.73,119.77 7.8,118.24 L7.8,135.16 L6.42,135.16 L6.42,118.84 C5.31,122.59 3.69,126.43 2.1,128.65 C1.92,128.26 1.5,127.69 1.23,127.36 C3.18,124.78 5.25,119.68 6.24,115.27 L2.16,115.27 L2.16,113.89 L6.42,113.89 L6.42,108.01 L7.8,108.01 L7.8,113.89 L11.46,113.89 L11.46,115.27 L7.8,115.27 L7.8,116.41 C8.55,117.43 10.86,120.94 11.4,121.81 Z M22.71,111.37 L16.89,111.37 C16.77,113.5 16.65,115.54 16.5,117.43 C17.61,121.66 19.32,125.5 21.75,128.53 C23.58,126.22 25.02,123.31 25.89,119.8 L20.34,119.8 C21.09,117.64 22.02,114.22 22.71,111.37 Z M26.7,118.39 L27.6,118.81 C26.61,123.28 24.9,126.85 22.65,129.61 C24.39,131.5 26.43,132.97 28.8,133.9 C28.44,134.17 27.99,134.71 27.78,135.1 C25.44,134.08 23.46,132.58 21.72,130.72 C19.92,132.67 17.82,134.17 15.6,135.25 C15.36,134.92 14.88,134.35 14.58,134.11 C16.86,133.06 18.99,131.56 20.79,129.61 C18.84,127.12 17.31,124.09 16.17,120.7 C15.33,126.88 13.71,131.59 10.26,135.22 C10.02,135.01 9.39,134.53 9.03,134.32 C14.07,129.55 15.09,121.81 15.45,111.37 L11.7,111.37 L11.7,110.02 L24.51,110.02 C23.82,112.66 22.92,116.02 22.17,118.45 L26.43,118.45 L26.7,118.39 Z M54.77,110.2 L56.18,110.8 C54.83,112.93 53.03,115.54 51.59,117.16 L50.39,116.62 C51.83,114.94 53.72,112.15 54.77,110.2 Z M40.67,116.44 L39.44,117.16 C38.57,115.54 36.68,112.78 35.06,110.77 L36.23,110.17 C37.85,112.15 39.77,114.82 40.67,116.44 Z M50.93,133.21 L55.94,133.21 C56.87,133.21 57.05,132.85 57.14,130.81 C57.5,131.05 58.07,131.26 58.49,131.35 C58.31,133.9 57.86,134.59 56.03,134.59 L50.87,134.59 C48.56,134.59 47.93,134.14 47.93,132.22 L47.93,120.64 L42.92,120.64 C42.38,127.93 40.88,132.76 33.44,135.28 C33.26,134.92 32.81,134.35 32.48,134.05 C39.65,131.86 40.97,127.3 41.42,120.64 L32.66,120.64 L32.66,119.23 L44.72,119.23 L44.72,108.01 L46.19,108.01 L46.19,119.23 L58.13,119.23 L58.13,120.64 L49.37,120.64 L49.37,132.22 C49.37,133.03 49.61,133.21 50.93,133.21 Z M82.36,111.97 L80.98,112.48 C80.62,111.43 79.81,109.66 79.09,108.37 L80.41,107.98 C81.16,109.24 81.97,110.98 82.36,111.97 Z M89.11,122.26 L87.88,123.01 C87.55,122.38 87.1,121.63 86.53,120.76 C75.25,121.81 74.17,121.96 73.45,122.23 C73.39,121.87 73.06,121.09 72.88,120.76 C73.39,120.64 74.11,120.46 74.59,119.92 C75.37,119.17 77.89,115.81 79.18,113.95 L73.42,113.95 L73.42,112.6 L89.23,112.6 L89.23,113.95 L80.92,113.95 C79.63,115.84 77.5,118.69 76.06,120.43 L85.78,119.59 C85,118.48 84.19,117.34 83.41,116.35 L84.55,115.78 C86.17,117.85 88.15,120.64 89.11,122.26 Z M65.41,125.08 L71.92,123.82 C71.92,124.21 71.92,124.81 72.01,125.08 C64.42,126.7 63.55,126.94 63.01,127.3 C62.92,126.94 62.68,126.22 62.53,125.83 C63.07,125.71 63.82,124.93 64.75,123.79 C65.35,123.16 66.79,121.36 68.29,119.14 C63.97,119.8 63.25,119.95 62.83,120.16 C62.74,119.8 62.53,119.05 62.32,118.63 C62.8,118.51 63.37,117.76 64.09,116.71 C64.81,115.72 67.21,111.73 68.65,108.01 L70.15,108.73 C68.56,112.15 66.58,115.66 64.6,118.33 L69.19,117.79 C69.94,116.68 70.63,115.54 71.26,114.4 L72.61,115.15 C70.42,118.78 67.93,122.32 65.41,125.08 Z M71.92,129.22 L72.1,130.51 C68.77,131.41 65.35,132.37 62.77,133.09 L62.44,131.65 C64.81,131.08 68.38,130.15 71.92,129.22 Z M76.63,122.38 L78.07,122.38 C77.83,129.34 76.81,132.91 71.41,134.92 C71.26,134.56 70.84,134.05 70.51,133.81 C75.58,132.04 76.45,128.83 76.63,122.38 Z M84.55,133.21 L87.22,133.21 C87.97,133.21 88.09,132.67 88.18,129.25 C88.51,129.52 89.05,129.73 89.44,129.82 C89.32,133.57 88.96,134.5 87.37,134.5 L84.4,134.5 C82.72,134.5 82.24,134.08 82.24,132.4 L82.24,122.32 L83.65,122.32 L83.65,132.4 C83.65,133.09 83.8,133.21 84.55,133.21 Z M101.64,113.17 L100.65,114.28 C99.69,113.02 97.68,110.98 96.03,109.57 L97.02,108.67 C98.67,110.05 100.68,111.94 101.64,113.17 Z M99.48,130.99 L103.53,128.29 C103.65,128.65 103.92,129.25 104.07,129.52 C98.67,133.27 97.95,133.81 97.53,134.35 C97.38,133.99 96.99,133.36 96.69,133.03 C97.17,132.76 98.04,131.95 98.04,130.72 L98.04,118.93 L93.06,118.93 L93.06,117.52 L99.48,117.52 L99.48,130.99 Z M120.09,118.24 L120.09,119.68 L112.05,119.68 L112.05,135.16 L110.58,135.16 L110.58,119.68 L102.75,119.68 L102.75,118.24 L110.58,118.24 L110.58,108.07 L112.05,108.07 L112.05,118.24 L120.09,118.24 Z" id="极光统计" fill="#06131F"></path>
                <g id="Group-2" transform="translate(11.000000, 0.000000)">
                    <path d="M2.56,20.3657658 L2.58098361,20.3657658 C3.99483257,20.3657658 5.14098361,21.5119168 5.14098361,22.9257658 L5.14098361,78.1012613 C5.14098361,79.5151102 3.99483257,80.6612613 2.58098361,80.6612613 L2.56,80.6612613 C1.14615104,80.6612613 -1.81903429e-13,79.5151102 -1.82076576e-13,78.1012613 L-1.82076576e-13,22.9257658 C-1.82249723e-13,21.5119168 1.14615104,20.3657658 2.56,20.3657658 Z" id="Rectangle" fill="url(#linearGradient-1)"></path>
                    <path d="M10.2714754,25.0162162 L10.292459,25.0162162 C11.706308,25.0162162 12.852459,26.1623673 12.852459,27.5762162 L12.852459,82.1102703 C12.852459,83.5241192 11.706308,84.6702703 10.292459,84.6702703 L10.2714754,84.6702703 C8.85762645,84.6702703 7.71147541,83.5241192 7.71147541,82.1102703 L7.71147541,27.5762162 C7.71147541,26.1623673 8.85762645,25.0162162 10.2714754,25.0162162 Z" id="Rectangle" fill="url(#linearGradient-2)"></path>
                    <path d="M17.9829508,28.8648649 L18.0039344,28.8648649 C19.4177834,28.8648649 20.5639344,30.0110159 20.5639344,31.4248649 L20.5639344,85.3174775 C20.5639344,86.7313264 19.4177834,87.8774775 18.0039344,87.8774775 L17.9829508,87.8774775 C16.5691019,87.8774775 15.4229508,86.7313264 15.4229508,85.3174775 L15.4229508,31.4248649 C15.4229508,30.0110159 16.5691019,28.8648649 17.9829508,28.8648649 Z" id="Rectangle" fill="url(#linearGradient-3)"></path>
                    <path d="M25.6944262,26.9405405 L25.7154098,26.9405405 C27.1292588,26.9405405 28.2754098,28.0866916 28.2754098,29.5005405 L28.2754098,85.9589189 C28.2754098,87.3727679 27.1292588,88.5189189 25.7154098,88.5189189 L25.6944262,88.5189189 C24.2805773,88.5189189 23.1344262,87.3727679 23.1344262,85.9589189 L23.1344262,29.5005405 C23.1344262,28.0866916 24.2805773,26.9405405 25.6944262,26.9405405 Z" id="Rectangle" fill="url(#linearGradient-4)"></path>
                    <path d="M33.4059016,14.7531532 L33.4268852,14.7531532 C34.8407342,14.7531532 35.9868852,15.8993042 35.9868852,17.3131532 L35.9868852,84.676036 C35.9868852,86.089885 34.8407342,87.236036 33.4268852,87.236036 L33.4059016,87.236036 C31.9920527,87.236036 30.8459016,86.089885 30.8459016,84.676036 L30.8459016,17.3131532 C30.8459016,15.8993042 31.9920527,14.7531532 33.4059016,14.7531532 Z" id="Rectangle" fill="url(#linearGradient-2)"></path>
                    <path d="M41.117377,4.49009009 L41.1383607,4.49009009 C42.5522096,4.49009009 43.6983607,5.63624113 43.6983607,7.05009009 L43.6983607,81.4688288 C43.6983607,82.8826778 42.5522096,84.0288288 41.1383607,84.0288288 L41.117377,84.0288288 C39.7035281,84.0288288 38.557377,82.8826778 38.557377,81.4688288 L38.557377,7.05009009 C38.557377,5.63624113 39.7035281,4.49009009 41.117377,4.49009009 Z" id="Rectangle" fill="url(#linearGradient-5)"></path>
                    <path d="M48.8288525,0 L48.8498361,-4.4408921e-16 C50.263685,-7.0380905e-16 51.4098361,1.14615104 51.4098361,2.56 L51.4098361,77.6201802 C51.4098361,79.0340291 50.263685,80.1801802 48.8498361,80.1801802 L48.8288525,80.1801802 C47.4150035,80.1801802 46.2688525,79.0340291 46.2688525,77.6201802 L46.2688525,2.56 C46.2688525,1.14615104 47.4150035,2.48016589e-15 48.8288525,2.22044605e-15 Z" id="Rectangle" fill="url(#linearGradient-6)"></path>
                    <path d="M56.5403279,3.84864865 L56.5613115,3.84864865 C57.9751604,3.84864865 59.1213115,4.99479969 59.1213115,6.40864865 L59.1213115,73.7715315 C59.1213115,75.1853805 57.9751604,76.3315315 56.5613115,76.3315315 L56.5403279,76.3315315 C55.1264789,76.3315315 53.9803279,75.1853805 53.9803279,73.7715315 L53.9803279,6.40864865 C53.9803279,4.99479969 55.1264789,3.84864865 56.5403279,3.84864865 Z" id="Rectangle" fill="url(#linearGradient-7)"></path>
                    <path d="M64.2518033,10.9045045 L64.2727869,10.9045045 C65.6866358,10.9045045 66.8327869,12.0506555 66.8327869,13.4645045 L66.8327869,70.5643243 C66.8327869,71.9781733 65.6866358,73.1243243 64.2727869,73.1243243 L64.2518033,73.1243243 C62.8379543,73.1243243 61.6918033,71.9781733 61.6918033,70.5643243 L61.6918033,13.4645045 C61.6918033,12.0506555 62.8379543,10.9045045 64.2518033,10.9045045 Z" id="Rectangle" fill="url(#linearGradient-8)"></path>
                    <path d="M71.9632787,17.4792793 L71.9842623,17.4792793 C73.3981113,17.4792793 74.5442623,18.6254303 74.5442623,20.0392793 L74.5442623,68.8003604 C74.5442623,70.2142093 73.3981113,71.3603604 71.9842623,71.3603604 L71.9632787,71.3603604 C70.5494297,71.3603604 69.4032787,70.2142093 69.4032787,68.8003604 L69.4032787,20.0392793 C69.4032787,18.6254303 70.5494297,17.4792793 71.9632787,17.4792793 Z" id="Rectangle" fill="url(#linearGradient-9)"></path>
                    <path d="M79.6747541,20.045045 L79.6957377,20.045045 C81.1095867,20.045045 82.2557377,21.1911961 82.2557377,22.605045 L82.2557377,68.1589189 C82.2557377,69.5727679 81.1095867,70.7189189 79.6957377,70.7189189 L79.6747541,70.7189189 C78.2609051,70.7189189 77.1147541,69.5727679 77.1147541,68.1589189 L77.1147541,22.605045 C77.1147541,21.1911961 78.2609051,20.045045 79.6747541,20.045045 Z" id="Rectangle" fill="url(#linearGradient-10)"></path>
                    <path d="M87.3862295,15.3945946 L87.4072131,15.3945946 C88.8210621,15.3945946 89.9672131,16.5407456 89.9672131,17.9545946 L89.9672131,69.2814414 C89.9672131,70.6952904 88.8210621,71.8414414 87.4072131,71.8414414 L87.3862295,71.8414414 C85.9723805,71.8414414 84.8262295,70.6952904 84.8262295,69.2814414 L84.8262295,17.9545946 C84.8262295,16.5407456 85.9723805,15.3945946 87.3862295,15.3945946 Z" id="Rectangle" fill="url(#linearGradient-11)"></path>
                    <path d="M95.0977049,11.3855856 L95.1186885,11.3855856 C96.5325375,11.3855856 97.6786885,12.5317366 97.6786885,13.9455856 L97.6786885,71.0454054 C97.6786885,72.4592544 96.5325375,73.6054054 95.1186885,73.6054054 L95.0977049,73.6054054 C93.683856,73.6054054 92.5377049,72.4592544 92.5377049,71.0454054 L92.5377049,13.9455856 C92.5377049,12.5317366 93.683856,11.3855856 95.0977049,11.3855856 Z" id="Rectangle" fill="url(#linearGradient-2)"></path>
                </g>
            </g>
        </g>
    </g>
</svg>