<?xml version="1.0" encoding="UTF-8"?>
<svg width="195px" height="72px" viewBox="0 0 195 72" version="1.1" xmlns="http://www.w3.org/2000/svg" xmlns:xlink="http://www.w3.org/1999/xlink">
    <!-- Generator: Sketch 52.6 (67491) - http://www.bohemiancoding.com/sketch -->
    <title>logo_12</title>
    <desc>Created with Sketch.</desc>
    <g id="Page-1" stroke="none" stroke-width="1" fill="none" fill-rule="evenodd">
        <g id="Artboard" transform="translate(-159.000000, -1805.000000)" fill="#000000">
            <g id="logo_12" transform="translate(159.000000, 1805.000000)">
                <path d="M38.9974169,18.1745455 C38.1827399,22.9228708 34.7560337,32.1542584 34.7560337,32.1542584 C34.7560337,32.1542584 -15.2211759,57.6355981 4.76947779,70.2981818 C4.76947779,70.2981818 29.5780022,82.7161722 41.6370623,35.4040191 C41.6370623,35.4040191 41.3413391,34.7896651 40.1987202,35.1651675 C39.0595532,35.5395215 34.2923122,37.4032536 33.5225115,38.5596172 C32.7561629,39.7148325 24.6358587,64.8229665 16.6720463,67.0564593 C9.52406141,69.0602871 9.85200341,62.6652632 11.0924296,59.5716746 C12.3305545,56.4792344 21.5750668,39.2520574 47.9197405,29.9678469 C47.9197405,29.9678469 48.8425808,29.3799043 48.2350251,31.6053589 C47.6240174,33.8308134 42.9200634,48.3399043 50.0933631,49.1563636 C50.0933631,49.1563636 53.6259313,50.5986603 61.1455837,41.8323445 L60.3907418,39.7182775 C60.3907418,39.7182775 58.5128423,42.8738756 56.0147298,43.485933 C53.5189186,44.0968421 53.5649455,42.4535885 54.4785804,36.9358852 C55.3910647,31.4193301 56.5532451,27.8985646 56.5532451,27.8985646 C56.5532451,27.8985646 58.4253911,24.0815311 53.7168345,25.1586603 C49.0071271,26.2334928 43.6656999,28.034067 43.6656999,28.034067 L48.8598409,12.6579904 C48.8598409,12.6579904 50.026624,9.56555024 44.381419,10.2981818 C44.3837203,10.3004785 40.2792673,10.6736842 38.9974169,18.1745455 L38.9974169,18.1745455 Z" id="Shape"></path>
                <path d="M56.4462324,9.09014354 C56.4462324,9.09014354 54.9733701,9.77339713 54.4348548,11.996555 C53.8986409,14.2220096 48.9311827,28.9665072 48.9311827,28.9665072 C48.9311827,28.9665072 51.8193736,30.6465072 53.5430827,31.0472727 C55.2679426,31.4491866 55.7512255,30.2262201 56.8478175,27.1360766 C57.9409575,24.045933 61.2019667,12.144689 63.6321895,9.41856459 C65.3271318,7.51808612 63.323809,8.13818182 61.1076115,8.17263158 C61.1087621,8.1737799 57.9984912,8.25990431 56.4462324,9.09014354 L56.4462324,9.09014354 Z" id="Shape"></path>
                <path d="M61.1087621,41.8334928 C61.9648634,40.7655502 63.6195321,39.5069856 63.3353157,38.5756938 C64.8657117,43.6065072 71.0724455,44.7169378 75.2493909,42.4662201 C79.7278128,40.0535885 81.3502627,32.8409569 80.2076438,25.8901435 C81.1362374,25.7948325 83.9450318,24.9622967 86.2325711,23.664689 L86.1773388,20.1829665 C84.6342854,22.7150239 79.2445299,24.7257416 77.0732087,23.2593301 C72.3508439,20.0715789 67.3695776,21.5977033 64.4215516,26.6491866 C63.2052896,28.7322488 62.6575689,31.3952153 62.4090234,33.7584689 C62.4090234,33.7584689 62.1109989,37.1184689 60.3918924,39.7182775 L61.1087621,41.8334928 Z M73.4347785,38.3173206 C72.6764846,39.4541627 71.6121114,40.1569378 70.2094402,39.8044019 C68.916083,39.4771292 68.4546629,38.3655502 68.253295,37.1529187 C67.7078757,33.8744498 68.2406376,30.7062201 69.4833651,27.6872727 C70.121989,26.1358852 71.0091584,24.4742584 72.9238794,24.7843062 C74.8593125,25.0955024 75.0756392,27.0109091 75.3391435,28.6610526 C75.485279,29.5946411 75.4139372,30.5695694 75.4346494,31.2057416 C75.203364,33.9376077 74.7810667,36.2916746 73.4347785,38.3173206 L73.4347785,38.3173206 Z" id="Shape"></path>
                <path d="M106.988423,25.5869856 C106.776699,28.1374163 106.67544,30.6832536 105.985035,33.0866986 C104.229107,39.1934928 100.368597,41.3707177 96.3274312,37.4606699 C95.298729,36.4673684 94.9891978,37.6512919 94.2193971,38.3069856 C91.8731735,40.3085167 89.2139666,41.707177 86.5294449,39.942201 C83.7827869,38.1358852 84.0428391,34.3475598 84.138345,31.2551196 C84.244207,27.8882297 85.0542813,24.6614354 85.7688496,21.4243062 C86.1439692,19.7282297 86.8504829,18.7004785 88.5661373,18.6005742 C92.1677459,18.3892823 91.9491179,18.6166507 90.9457305,22.7265072 C90.1563683,25.9578947 89.5913876,29.2352153 89.3681569,32.5779904 C89.2979658,33.5942584 89.4866763,35.6796172 90.5867203,36.0195215 C91.8915842,36.4248804 92.8293833,34.6197129 93.0353539,33.3737799 C93.5750198,30.0907177 94.1181378,26.0509091 94.4552852,22.7333971 C94.8292541,19.0955024 96.2687469,20.0164593 98.0189215,20.0474641 C99.903725,20.0819139 99.2915666,22.457799 99.1926087,23.6956938 C98.9797341,26.357512 98.3526169,28.8390431 98.0373323,31.4905263 C97.8992515,32.6618182 98.035031,34.2465072 99.2892653,34.6380861 C100.795497,35.1088995 101.106179,33.4495694 101.452532,32.2082297 C102.386879,28.8654545 102.954161,24.8164593 103.017448,21.3312919 C103.08879,17.3661244 103.589333,17.2742584 107.2059,16.3877512 C107.2059,16.3877512 108.934212,15.7504306 108.327807,17.3087081 C108.071207,17.9770335 107.317515,21.6757895 106.988423,25.5869856 L106.988423,25.5869856 Z" id="Shape"></path>
                <path d="M193.916065,23.6336842 C193.803299,24.0666029 192.091097,25.6317703 192.091097,25.6317703 C190.812699,26.8742584 189.117756,28.1167464 187.252514,28.4130144 C185.279109,28.7242105 184.057093,28.2143541 183.503619,26.4264115 C183.015734,24.8520574 183.614084,25.0782775 185.821076,24.1963636 C186.969448,23.7370335 187.870426,23.2995215 188.787513,22.7115789 C192.293616,20.4608612 193.347633,16.6748325 191.475487,13.8361722 C189.77249,11.2455502 185.33319,10.8252632 182.249385,13.1862201 C178.139179,16.3314833 177.044888,20.6285167 177.958523,25.5755024 C177.958523,25.5755024 178.769748,29.0055502 180.419814,30.2721531 C183.348278,32.5205742 189.625203,32.3701435 193.529439,26.6721531 C195.958511,23.1272727 194.025379,23.1973206 193.916065,23.6336842 L193.916065,23.6336842 Z M186.611589,14.301244 C188.104013,14.2966507 188.09941,15.5425837 188.292723,16.32 C188.61146,19.1598086 186.35729,21.7240191 184.249256,22.902201 C183.739507,23.184689 183.046802,23.5211483 182.983515,22.605933 C182.793654,19.9636364 185.000646,14.3069856 186.611589,14.301244 L186.611589,14.301244 Z" id="Shape"></path>
                <path d="M141.831972,12.716555 C141.553509,16.076555 139.874676,25.7201914 138.962192,28.8861244 C136.649338,36.9335885 131.56336,39.8009569 126.241495,34.6495694 C124.888302,33.3393301 124.475211,34.9010526 123.463768,35.76689 C120.37536,38.4011483 117.50558,40.2878469 113.966108,37.9613397 C110.347239,35.5843062 111.415064,30.0367464 111.54394,25.9636364 C111.685473,21.5299522 112.680805,13.196555 113.623207,8.93397129 C114.117997,6.70047847 114.815305,5.32363636 117.072927,5.19157895 C121.819456,4.91368421 120.394922,5.74966507 119.070496,11.1674641 C118.032589,15.4254545 116.948654,23.1330144 116.65178,27.5368421 C116.560877,28.8734928 116.616109,32.0543541 118.832307,32.2817225 C120.617002,32.4643062 121.634197,30.907177 121.906907,29.2650718 C122.615722,24.9404785 124.750222,11.6842105 125.375037,7.33779904 C125.757061,4.704689 127.732768,4.55196172 130.043321,4.59215311 C132.524173,4.6369378 131.78544,6.49837321 131.095036,9.4507177 C130.288414,12.9002871 128.625691,23.0227751 128.211448,26.5159809 C128.029642,28.0593301 128.04345,30.1194258 129.699269,30.6361722 C131.684181,31.2551196 132.542584,29.3661244 132.995949,27.7297608 C134.224869,23.3247847 136.523915,11.7025837 136.605612,7.11272727 C136.697666,1.88669856 137.360454,1.76727273 142.125394,0.599425837 C142.125394,0.599425837 144.400276,-0.238851675 143.599407,1.81320574 C143.256506,2.69052632 142.265776,7.56401914 141.831972,12.716555 L141.831972,12.716555 Z" id="Shape"></path>
                <path d="M163.939866,27.3014354 C163.800634,27.649378 163.142449,29.1663158 162.357689,29.4958852 C161.609751,29.8070813 160.553433,30.3490909 159.24972,29.8449761 C158.076033,29.3925359 158.420084,28.0742584 158.559315,27.165933 C158.964353,24.5018182 159.483306,21.8503349 160.078205,19.2264115 C160.674254,16.6036364 161.051675,14.3379904 157.272862,15.1739713 C156.84136,15.268134 156.297091,14.8535885 155.825315,14.6262201 C152.238665,12.8968421 149.321707,13.5410526 146.74765,16.6863158 C144.736273,19.1517703 143.755899,22.1167464 143.34741,25.2907177 C142.810045,29.4533971 143.949212,32.9201914 146.347216,34.0432536 C149.723292,35.6279426 151.81982,32.8891866 153.761006,31.0782775 C156.707882,34.464689 160.559186,33.264689 163.847812,28.997512 L163.939866,27.3014354 L163.939866,27.3014354 Z M154.824229,18.7326316 C154.372014,21.3841148 153.92095,24.0401914 153.626377,26.7157895 C153.390489,28.8367464 152.633346,30.7934928 150.527613,30.5488995 C148.480565,30.3111962 148.837274,28.0191388 148.832671,26.3793301 C149.012176,23.0491866 149.790031,19.9441148 151.688643,17.2466986 C152.379047,16.2648804 153.275422,15.7584689 154.428397,16.3992344 C155.498523,16.9917703 154.970364,17.8633493 154.824229,18.7326316 L154.824229,18.7326316 Z" id="Shape"></path>
                <path d="M135.991153,27.4116746 C135.991153,27.4116746 141.095541,34.1190431 143.567188,26.7215311 L145.906508,28.5841148 C145.906508,28.5841148 141.72611,36.3950239 135.93477,29.8564593 L135.991153,27.4116746 L135.991153,27.4116746 Z" id="Shape"></path>
                <path d="M163.051545,20.9178947 C163.051545,20.9178947 161.70986,18.9887081 163.240256,16.5818182 C164.770652,14.1772249 168.01325,13.1391388 170.55739,14.1829665 C174.032424,15.6114833 174.549077,14.5665072 175.992022,14.5090909 C177.434966,14.4516746 177.319899,16.0788517 175.234878,18.1469856 C173.147556,20.2139713 169.809452,27.1992344 168.210016,27.8032536 C166.607127,28.4084211 177.004614,27.5253589 180.827152,23.5854545 C184.642786,19.6466986 182.288508,25.2700478 179.827217,26.9902392 C177.365926,28.7104306 173.972589,31.0759809 167.280271,31.627177 C167.233094,31.6202871 166.179077,31.7466029 164.924842,31.5410526 C163.4865,31.3067943 161.048223,29.5303349 164.189562,26.6997129 C167.32975,23.8702392 170.367529,18.5190431 170.367529,18.5190431 C170.367529,18.5190431 166.495512,16.6323445 164.097508,19.9762679 C164.097508,19.9762679 163.600417,21.0763636 163.051545,20.9178947 L163.051545,20.9178947 Z" id="Shape"></path>
            </g>
        </g>
    </g>
</svg>