<?xml version="1.0" encoding="UTF-8"?>
<svg width="121px" height="127px" viewBox="0 0 121 127" version="1.1" xmlns="http://www.w3.org/2000/svg" xmlns:xlink="http://www.w3.org/1999/xlink">
    <!-- Generator: Sketch 52.6 (67491) - http://www.bohemiancoding.com/sketch -->
    <title>logo_1</title>
    <desc>Created with Sketch.</desc>
    <defs>
        <linearGradient x1="76.369722%" y1="26.234827%" x2="36.4275241%" y2="96.5715393%" id="linearGradient-1">
            <stop stop-color="#0068A5" offset="0%"></stop>
            <stop stop-color="#60E0F1" offset="100%"></stop>
        </linearGradient>
        <linearGradient x1="62.191152%" y1="91.6203104%" x2="50.3829777%" y2="30.8194432%" id="linearGradient-2">
            <stop stop-color="#000E1E" offset="0%"></stop>
            <stop stop-color="#1C4277" offset="100%"></stop>
        </linearGradient>
        <linearGradient x1="40.2294269%" y1="13.8800785%" x2="67.9331108%" y2="44.4801929%" id="linearGradient-3">
            <stop stop-color="#1BB2D0" offset="0%"></stop>
            <stop stop-color="#31C6CF" offset="100%"></stop>
        </linearGradient>
        <linearGradient x1="34.9441094%" y1="15.5255028%" x2="54.7409818%" y2="36.0357477%" id="linearGradient-4">
            <stop stop-color="#1D91CA" offset="0%"></stop>
            <stop stop-color="#2CA0CD" offset="100%"></stop>
        </linearGradient>
        <linearGradient x1="50%" y1="0%" x2="61.0198271%" y2="45.2717987%" id="linearGradient-5">
            <stop stop-color="#0D80C5" offset="0%"></stop>
            <stop stop-color="#0B7FC3" offset="100%"></stop>
        </linearGradient>
        <linearGradient x1="50%" y1="0%" x2="50%" y2="74.0209335%" id="linearGradient-6">
            <stop stop-color="#227EB4" offset="0%"></stop>
            <stop stop-color="#167CA7" offset="100%"></stop>
        </linearGradient>
        <path d="M59.6345495,25.5457128 C54.2237331,27.0227331 50.3462537,31.5317093 50.9744788,35.6186606 C51.5999436,39.703398 56.494765,41.8230856 61.9050295,40.3460651 C67.3158466,38.8705199 71.1944291,34.360069 70.5656528,30.2745926 C70.074692,27.0712673 66.9624209,25.0785109 63.0337629,25.0767184 C61.950471,25.0762241 60.8043367,25.2268952 59.6345495,25.5457128" id="path-7"></path>
    </defs>
    <g id="Page-1" stroke="none" stroke-width="1" fill="none" fill-rule="evenodd">
        <g id="Artboard" transform="translate(-194.000000, -245.000000)">
            <g id="logo_1" transform="translate(194.000000, 245.000000)">
                <path d="M13.5828125,126.888281 L13.5828125,124.378125 C15.7343858,123.501558 17.4476499,122.465631 18.7226563,121.270312 C17.2882741,119.517179 16.1726602,117.365638 15.3757813,114.815625 C14.7382781,119.198459 12.7461105,123.103108 9.39921875,126.529687 L9.39921875,123.541406 C10.6742251,121.230457 11.5109355,118.879699 11.909375,116.489062 C12.3078145,114.178113 12.5070313,110.512525 12.5070313,105.492187 L12.5070313,103.221094 L10.5945313,103.221094 L10.5945313,100.710937 L25.4164063,100.710937 L25.4164063,103.221094 C24.6195273,105.372667 23.6234435,107.205461 22.428125,108.719531 L27.209375,108.719531 L27.209375,110.990625 C26.412496,115.612523 24.8984487,119.039051 22.6671875,121.270312 C23.9421939,122.625007 25.7351447,123.660934 28.0460938,124.378125 L28.0460938,126.76875 C25.0179536,125.653119 22.5476658,124.417976 20.6351563,123.063281 C18.8023346,124.338288 16.4515768,125.613275 13.5828125,126.888281 Z M0.79296875,105.850781 L0.79296875,103.340625 L3.78125,103.340625 L3.78125,99.2765625 L7.24765625,99.2765625 L7.24765625,103.340625 L9.996875,103.340625 L9.996875,105.850781 L7.3671875,105.850781 C7.92500279,108.480482 8.92108658,111.0703 10.3554688,113.620312 L10.3554688,117.325781 C9.08046238,115.732023 8.04453523,114.178133 7.24765625,112.664062 L7.24765625,126.76875 L3.78125,126.76875 L3.78125,114.457031 C3.06405891,116.528917 1.82891502,118.720301 0.07578125,121.03125 L0.07578125,117.445312 C1.74922712,114.098421 2.98437102,110.233616 3.78125,105.850781 L0.79296875,105.850781 Z M15.9734375,105.850781 C15.9734375,108.480482 15.8539074,110.791396 15.6148438,112.783594 L18.125,112.783594 C18.6828153,115.333606 19.559369,117.445304 20.7546875,119.11875 C22.1890697,117.20624 23.1851535,114.496893 23.7429688,110.990625 L19.3203125,110.990625 L19.3203125,108.839062 C20.3562552,107.165617 21.1531222,105.292979 21.7109375,103.221094 L15.9734375,103.221094 L15.9734375,105.850781 Z M31.1539063,113.38125 L31.1539063,110.751562 L42.8679688,110.751562 L42.8679688,99.2765625 L46.9320313,99.2765625 L46.9320313,110.751562 L58.765625,110.751562 L58.765625,113.38125 L50.5179688,113.38125 L50.5179688,121.867969 C50.4382809,123.222663 50.9960878,123.860157 52.1914062,123.780469 L54.1039063,123.780469 C55.2195368,123.780469 55.7773438,123.222662 55.7773438,122.107031 L55.7773438,120.911719 L58.765625,120.911719 L58.765625,122.465625 C58.765625,124.93595 57.410951,126.171094 54.7015625,126.171094 L50.7570312,126.171094 C48.0476427,126.250782 46.6929688,124.896108 46.6929688,122.107031 L46.6929688,113.38125 L42.2703125,113.38125 C42.668752,120.075033 38.9633203,124.577332 31.1539063,126.888281 L31.1539063,124.497656 C36.0148681,122.505459 38.4453125,118.800027 38.4453125,113.38125 L31.1539063,113.38125 Z M35.815625,108.360937 C34.7796823,106.528116 34.0226586,104.217201 33.5445313,101.428125 L37.3695313,101.428125 C37.6085949,103.579698 38.2062452,105.890613 39.1625,108.360937 L35.815625,108.360937 Z M50.5179688,108.360937 C51.4742235,106.209364 52.0718738,103.89845 52.3109375,101.428125 L56.2554688,101.428125 C55.8570293,103.89845 55.1000056,106.209364 53.984375,108.360937 L50.5179688,108.360937 Z M71.0773437,104.296875 L71.0773437,101.786719 L78.1296875,101.786719 L78.1296875,99.3960937 L82.0742188,99.3960937 L82.0742188,101.786719 L89.0070313,101.786719 L89.0070313,104.296875 L80.5203125,104.296875 C79.0859303,106.846888 77.3726662,108.958585 75.3804688,110.632031 C78.0101694,110.632031 79.8429636,110.592188 80.8789062,110.5125 C82.1539126,110.5125 83.4288999,110.432813 84.7039063,110.273437 C84.5445305,109.954686 84.3453137,109.476566 84.10625,108.839062 C83.7078105,107.882808 83.3890637,107.165627 83.15,106.6875 L86.1382813,106.6875 C87.2539118,108.759385 88.2499956,111.269517 89.1265625,114.217969 L85.8992188,114.217969 L85.4210938,112.664062 C85.261718,112.74375 84.9828145,112.783594 84.584375,112.783594 C84.1859355,112.863282 83.907032,112.903125 83.7476563,112.903125 L83.7476563,122.226562 C83.7476563,123.342193 84.3054632,123.9 85.4210938,123.9 C86.4570364,123.9 86.975,123.342193 86.975,122.226562 L86.975,121.03125 L89.365625,121.03125 L89.365625,122.94375 C89.4453129,125.095323 88.3296991,126.13125 86.01875,126.051562 L84.10625,126.051562 C81.5562372,126.13125 80.3210934,125.015637 80.4007813,122.704687 L80.4007813,113.142187 C79.6835902,113.221875 78.9265665,113.261719 78.1296875,113.261719 L78.1296875,115.771875 C78.4484391,121.110964 75.7789345,124.816396 70.1210938,126.888281 L70.1210938,124.378125 C73.4679855,122.545303 75.0218762,119.636739 74.7828125,115.652344 L74.7828125,113.38125 L71.675,113.38125 L71.675,110.632031 C73.8265733,108.480458 75.380464,106.36876 76.3367188,104.296875 L71.0773437,104.296875 Z M61.634375,110.751562 L61.634375,108.241406 C63.5468846,105.532018 64.8218718,102.58361 65.459375,99.3960937 L68.9257812,99.3960937 C67.9695265,102.822673 66.4953225,105.771081 64.503125,108.241406 C65.8578193,108.241406 66.8539031,108.201563 67.4914062,108.121875 C67.8898457,107.16562 68.2484359,106.169536 68.5671875,105.133594 L71.7945313,105.133594 C70.439837,109.357052 68.3281393,112.942954 65.459375,115.891406 C67.4515725,115.891406 69.2843666,115.692189 70.9578125,115.29375 L70.9578125,117.803906 C68.8062392,118.282034 65.8976746,118.521094 62.2320313,118.521094 L62.2320313,115.891406 C63.9054771,114.138272 65.2203077,112.385165 66.1765625,110.632031 C64.5031166,110.791407 62.9890693,110.83125 61.634375,110.751562 Z M61.634375,123.9 L61.634375,121.389844 C65.1406425,121.469532 68.367954,121.150785 71.3164062,120.433594 L71.3164062,122.824219 C68.7663935,123.621098 65.539082,123.979688 61.634375,123.9 Z M101.438281,110.751562 L101.438281,108.121875 L108.849219,108.121875 L108.849219,99.2765625 L112.913281,99.2765625 L112.913281,108.121875 L120.085156,108.121875 L120.085156,110.751562 L112.913281,110.751562 L112.913281,126.76875 L108.849219,126.76875 L108.849219,110.751562 L101.438281,110.751562 Z M95.2226563,126.410156 L95.2226563,110.632031 L92.234375,110.632031 L92.234375,108.002344 L99.0476563,108.002344 L99.0476563,121.389844 C100.561726,120.911716 102.075774,120.154693 103.589844,119.11875 L103.589844,122.226562 C101.039831,123.979696 98.2507964,125.374214 95.2226563,126.410156 Z M96.5375,105.73125 C96.1390605,103.739053 95.4218802,101.667198 94.3859375,99.515625 L97.7328125,99.515625 C98.8484431,101.428135 99.6453101,103.499989 100.123438,105.73125 L96.5375,105.73125 Z" id="极光统计" fill="#404040"></path>
                <g id="Group" transform="translate(22.000000, 0.000000)">
                    <path d="M17.9456342,69.5758842 C19.7863404,69.8422536 21.6700451,69.980261 23.5868448,69.980261 C44.6068137,69.980261 61.6468653,53.3838925 61.6468653,32.9112344 C61.6468653,18.6076387 53.3289806,6.1962044 41.147318,0.0150639379 C61.512478,0.590343199 77.8479377,17.5699152 77.8479377,38.4318584 C77.8479377,59.6571877 60.9384396,76.8637168 40.0795167,76.8637168 C31.8121667,76.8637168 24.1652323,74.160741 17.9456342,69.5758842 Z" id="Combined-Shape" fill="url(#linearGradient-1)"></path>
                    <path d="M1.00654552,47.3862119 C2.06478799,51.9036204 3.90192688,56.0695308 6.35295679,59.7601623 C6.19715606,59.2183617 7.15732328,58.6230886 7.04077497,58.0855508 C5.78789274,52.3070752 5.64130345,46.825859 7.37472374,41.4297059 C7.5552845,40.8676186 6.82636764,40.2421423 7.04077497,39.6842977 C7.15748129,35.2368352 6.1960341,31.9201001 4.15446201,29.7358608 C4.04954316,29.9384634 3.45235414,29.3458532 3.34947446,29.5520905 C1.69634255,32.866034 0.816378894,37.4500181 0.259388485,41.8318012 C0.205527033,42.2555234 0.300067312,42.6879494 0.259388485,43.1228487 C0.424985295,44.5429874 0.673971926,45.9658768 1.00654552,47.3862119 Z" id="Path" fill="url(#linearGradient-2)"></path>
                    <path d="M30.1722836,76.0017704 C28.5097321,75.0165218 28.3515153,73.6219038 27.0988127,72.5694656 C19.2686841,65.991107 21.6475558,58.848179 29.5548545,49.7237322 C30.8819346,48.1923785 29.2981148,46.1460618 31.1220996,44.5274657 C31.5981904,39.7554225 28.3146422,35.4205415 23.5805449,34.5664543 C22.7759125,35.4099958 19.81817,35.8821354 19.0999306,36.7137786 C9.15677259,48.2268765 7.33516132,58.2172574 14.36057,67.5180707 C15.3344016,68.807309 18.2938041,70.7349539 19.5285487,71.97084 C22.8229395,73.8183171 26.4053504,75.188354 30.1722836,76.0017704 Z" id="Path" fill="url(#linearGradient-2)"></path>
                    <path d="M31.1220996,44.5274657 C16.6913233,57.3332734 16.3737323,67.8245774 30.1722836,76.0017704 C33.2253762,76.6603627 36.3995122,76.9538999 39.6396897,76.8395501 C23.6077501,72.6932874 28.224906,63.6895234 49.6389391,47.4068515 C54.0357316,44.0692898 48.911534,35.6292005 44.3193767,35.6301829 C43.3942031,35.6303794 43.0245477,35.6303794 41.4243896,36.6017637 C39.8242316,37.573148 33.9971756,41.9773855 31.1220996,44.5274657 Z" id="Clip-8" fill="url(#linearGradient-3)"></path>
                    <path d="M7.04077497,39.6842977 C4.57653674,46.0957483 4.34785543,52.7873757 6.35295679,59.7601623 C9.72383756,64.8371384 14.2574445,69.0154269 19.5285487,71.97084 C8.74267647,61.1749961 10.0926847,48.7065401 23.5805449,34.5664543 C28.8688734,28.8986899 38.1989926,23.1582268 46.15,17.9877835 C50.8150987,14.865954 46.9513803,8.07010102 42.7296474,8.07069045 C41.9716477,8.07069045 40.1725113,8.42978229 39.3693668,8.8557453 C21.4515949,18.3328329 11.341955,28.4956954 7.04077497,39.6842977 Z" id="Clip-11" fill="url(#linearGradient-4)"></path>
                    <path d="M4.15446201,29.7358608 C11.6682201,15.2277728 26.7981556,9.29540707 22.7601563,3.19360481 C7.41485191,10.0881934 -1.66054881,26.7849667 0.259388485,43.1228487 C0.746913378,37.9106962 2.2006168,33.5088164 4.15446201,29.7358608 Z" id="Clip-14" fill="url(#linearGradient-5)"></path>
                    <path d="M30.7449372,0.23622704 C28.8117916,0.630360712 27.425904,1.83201651 27.6496568,2.92069781 C27.872424,4.00878967 29.6206531,4.5728763 31.5536016,4.17874263 C33.4867472,3.78500191 34.8730291,2.58295315 34.6490791,1.49466481 C34.4742168,0.641363447 33.3627467,0.110874456 31.9593138,0.110874456 C31.5723298,0.110874456 31.162872,0.151152324 30.7449372,0.23622704" id="Clip-17" fill="url(#linearGradient-6)"></path>
                    <mask id="mask-8" fill="white">
                        <use xlink:href="#path-7"></use>
                    </mask>
                    <use id="Clip-17" fill="url(#linearGradient-3)" transform="translate(60.770113, 32.946455) rotate(-10.000000) translate(-60.770113, -32.946455) " xlink:href="#path-7"></use>
                </g>
            </g>
        </g>
    </g>
</svg>