<?xml version="1.0" encoding="UTF-8"?>
<svg width="173px" height="54px" viewBox="0 0 173 54" version="1.1" xmlns="http://www.w3.org/2000/svg" xmlns:xlink="http://www.w3.org/1999/xlink">
    <!-- Generator: Sketch 52.6 (67491) - http://www.bohemiancoding.com/sketch -->
    <title>logo_24</title>
    <desc>Created with Sketch.</desc>
    <g id="Page-1" stroke="none" stroke-width="1" fill="none" fill-rule="evenodd">
        <g id="Artboard" transform="translate(-162.000000, -3355.000000)">
            <g id="logo_24" transform="translate(162.000000, 3355.000000)">
                <polygon id="Fill-1" fill="#000000" points="0 8.4 17.8220255 41.1450458 41.1936056 41.1450458 41.1936056 17.0587914 34.9027287 17.0587914 34.9027287 34.8473076 30.778426 34.8473076 30.778426 17.0587914 24.4859549 17.0587914 24.4859549 34.8473076 20.683689 34.8473076 6.29087688 8.4"></polygon>
                <polygon id="Fill-2" fill="#000000" points="123.570523 29.6901492 123.570523 26.4 112.930556 26.4 112.930556 35.791532 120.281603 35.791532 120.281603 37.9833684 112.930556 37.9833684 112.930556 41.2735176 123.570523 41.2735176 123.570523 32.4997865 116.217881 32.4997865 116.217881 29.6901492"></polygon>
                <path d="M124.189601,12.9211389 C122.413616,12.9211389 120.790678,12.191591 119.626882,11.0278265 C118.461491,9.86565831 117.736111,8.234153 117.736111,6.46376222 C117.736111,4.68698589 118.461491,3.05548058 119.626882,1.89331242 C120.790678,0.729547872 122.413616,0 124.189601,0 C125.960803,0 127.583741,0.729547872 128.749131,1.89331242 C129.911333,3.05548058 130.641496,4.68698589 130.635119,6.46376222 C130.641496,8.234153 129.911333,9.86565831 128.749131,11.0278265 C127.586929,12.191591 125.960803,12.9211389 124.189601,12.9211389 Z M122.340121,4.61498893 C121.865037,5.092308 121.578074,5.73086194 121.578074,6.46360258 C121.578074,7.18995768 121.865037,7.830108 122.340121,8.30742707 C122.82477,8.78314975 123.460873,9.07049902 124.189441,9.07688456 C124.913227,9.07049902 125.552518,8.78314975 126.033979,8.30742707 C126.50428,7.830108 126.792838,7.18995768 126.792838,6.46360258 C126.792838,5.73086194 126.50428,5.092308 126.033979,4.61498893 C125.552518,4.13766987 124.913227,3.85032059 124.189441,3.85032059 C123.460873,3.85032059 122.82477,4.13766987 122.340121,4.61498893 Z" id="Combined-Shape" fill="#000000"></path>
                <polygon id="Fill-8" fill="#000000" points="98.3830627 40.954899 104.670751 40.954899 104.670751 23.0945454 124.176296 23.0945454 124.176296 16.8 90.1041667 16.8 90.1041667 23.0945454 98.3830627 23.0945454"></polygon>
                <path d="M132.653528,46.7306578 C136.988271,51.4016799 142.792904,53.7467692 149.908003,53.7467692 L149.9367,53.7467692 C155.37944,53.7467692 160.237094,52.2924626 164.447486,49.3966205 C168.672226,46.4912001 171.498816,42.3565634 172.881023,37.0900898 L173.000591,36.6415056 L165.907811,32.6776821 L165.70056,33.420001 C164.530386,37.5849691 162.539179,40.7282508 159.734908,42.9328583 C156.898752,45.1566224 153.807518,46.2437605 150.370334,46.250146 C146.177478,46.2437605 142.617537,44.6793033 139.542245,41.4801481 C136.490867,38.2873784 134.965178,34.2118079 134.958801,29.1241294 C134.96199,24.1561798 136.387241,20.1285009 139.240934,16.9165746 C142.099409,13.707841 145.673698,12.1338056 150.134386,12.12742 C153.083733,12.12742 155.881626,12.9192269 158.566329,14.5188045 C161.233495,16.1119966 163.181658,18.3389535 164.466617,21.2507594 L164.622852,21.609946 L171.602442,21.609946 L171.602442,5.53275428 L164.418789,5.53275428 L164.418789,9.14377678 C160.366228,6.24474191 155.460747,4.79682086 149.766116,4.80001363 C142.799281,4.7936281 137.060011,7.03016326 132.693384,11.5016372 C128.318785,15.9715147 126.14424,22.0026567 126.145834,29.4577739 C126.14424,36.2791263 128.312408,42.0819852 132.653528,46.7306578" id="Fill-10" fill="#00B174"></path>
                <path d="M50.7406715,31.9943909 L50.7406715,40.8894472 L44.4513889,40.8894472 L44.4513889,16.8 L50.7406715,16.8 L50.7406715,25.6998455 L59.6875547,25.6998455 L59.6875547,16.8 L65.9784316,16.8 L65.9784316,35.7762266 L74.9986499,20.7255103 L81.0822754,20.7255103 L81.0822754,16.8031928 L87.3731523,16.8031928 L87.3731523,40.8894472 L81.0822754,40.8894472 L81.0822754,37.7030631 L71.6778449,37.7030631 L69.7727263,40.8798689 L65.9784316,40.8830617 L65.9784316,40.8894472 L59.6875547,40.8894472 L59.6875547,31.9943909 L50.7406715,31.9943909 Z M81.0825942,22.0326302 L75.4581103,31.4050056 L81.0825942,31.4050056 L81.0825942,22.0326302 Z" id="Combined-Shape" fill="#000000"></path>
                <polygon id="Fill-17" fill="#000000" points="110.886226 30.9113836 111.426674 26.4 108.125 26.4 108.663854 30.9113836"></polygon>
            </g>
        </g>
    </g>
</svg>