<?xml version="1.0" encoding="UTF-8"?>
<svg width="121px" height="145px" viewBox="0 0 121 145" version="1.1" xmlns="http://www.w3.org/2000/svg" xmlns:xlink="http://www.w3.org/1999/xlink">
    <!-- Generator: Sketch 52.6 (67491) - http://www.bohemiancoding.com/sketch -->
    <title>logo_5</title>
    <desc>Created with Sketch.</desc>
    <defs>
        <linearGradient x1="23.9681487%" y1="32.6210804%" x2="59.1264183%" y2="57.9867924%" id="linearGradient-1">
            <stop stop-color="#14243E" stop-opacity="0.145974864" offset="0%"></stop>
            <stop stop-color="#14243E" stop-opacity="0" offset="100%"></stop>
        </linearGradient>
        <linearGradient x1="0%" y1="0%" x2="76.3659744%" y2="76.2122807%" id="linearGradient-2">
            <stop stop-color="#F7E83D" offset="0%"></stop>
            <stop stop-color="#FAC13F" offset="100%"></stop>
        </linearGradient>
        <linearGradient x1="-28.6053458%" y1="-36.6660494%" x2="100%" y2="100%" id="linearGradient-3">
            <stop stop-color="#FF7C6F" offset="0%"></stop>
            <stop stop-color="#EE412D" offset="100%"></stop>
        </linearGradient>
        <linearGradient x1="0%" y1="0%" x2="75.6983437%" y2="76.6015784%" id="linearGradient-4">
            <stop stop-color="#68C8C4" offset="0%"></stop>
            <stop stop-color="#4CBFDC" offset="100%"></stop>
        </linearGradient>
    </defs>
    <g id="Page-1" stroke="none" stroke-width="1" fill="none" fill-rule="evenodd">
        <g id="Artboard" transform="translate(-590.000000, -632.000000)">
            <g id="logo_5" transform="translate(590.000000, 632.000000)">
                <g id="Group-7">
                    <g id="logo">
                        <polygon id="Rectangle-15" fill="url(#linearGradient-1)" points="78.0236338 6.75834606 151.91833 79.7782861 91.7986702 145.984887 13.9408554 82.1976589 70.0990261 92.068718 97.0986008 58.4970532"></polygon>
                        <g id="Group-2">
                            <path d="M58.2898188,22.8088653 C59.321032,22.2123692 60.5074878,21.8442038 61.7822181,21.7780353 C66.0496004,21.5565246 69.6902966,24.8033526 69.9139407,29.0300288 C70.0798124,32.1648587 68.3194275,34.9582463 65.6578327,36.2826209 C65.6751166,35.8289256 65.6717919,35.3727664 65.6475806,34.9151933 C65.3731047,29.7278407 62.4730835,25.2933696 58.2898188,22.8088653 Z" id="Combined-Shape" fill="#55C1D5"></path>
                            <path d="M39.9666036,28.5816307 C42.1335607,25.441366 45.7021518,23.3024931 49.83326,23.0880561 C56.8665279,22.7229742 62.8669257,28.0742199 63.2355237,35.040398 C63.3011747,36.2811446 63.183739,37.4894378 62.9066137,38.6395405 C58.6604937,32.0518965 51.0554561,27.8530459 42.612551,28.2912991 C41.7147007,28.3379046 40.8318082,28.4356828 39.9666036,28.5816307 Z" id="Combined-Shape" fill="#F7C400" fill-rule="nonzero"></path>
                            <path d="M44.6656683,70.361438 C33.7060715,70.9301869 24.3558307,62.5914891 23.7813208,51.736435 C23.206811,40.881381 31.6255874,31.6205589 42.5851841,31.05181 C53.5447809,30.483061 62.8950217,38.8217589 63.4695316,49.6768129 C64.0440414,60.5318669 55.6252651,69.792689 44.6656683,70.361438 Z M42.7864522,39.5825614 C40.9201689,39.7005496 39.4149816,40.4011042 38.2907445,41.6805382 C37.1069451,42.9624302 36.5473083,44.549125 36.6254837,46.4074383 C36.6788416,47.4054214 36.9543169,48.2608354 37.4568732,48.9749095 C37.7646114,49.5169176 38.17162,50.0245124 38.6642493,50.4804874 C37.2794274,51.7304244 36.623002,53.3527614 36.7073818,55.3204596 C36.8339516,57.325029 37.614465,58.917869 39.0427177,60.0645663 C40.3878315,61.2260121 42.034479,61.7729363 43.945434,61.6942776 C45.8712795,61.5738313 47.4744963,60.8585282 48.7389529,59.5545134 C49.9947233,58.2701632 50.5816594,56.6084968 50.4960387,54.6051564 C50.3719507,52.6411454 49.5480065,51.095009 48.0403375,49.9950154 C48.4845725,49.4935658 48.8555956,48.9441835 49.1496841,48.3468685 C49.5281524,47.5959231 49.6894668,46.7220734 49.636109,45.7376098 C49.5182254,43.8805255 48.8158874,42.35897 47.5352994,41.1987532 C46.3440547,40.1171952 44.8698895,39.5751872 43.1376212,39.5751872 C43.0222194,39.5751872 42.9043358,39.5788743 42.7864522,39.5825614 Z M41.4884919,47.9375971 C40.9698041,47.5492194 40.6844017,46.967882 40.6223577,46.1493392 C40.5962993,45.2976123 40.8196576,44.6769455 41.2825058,44.2467804 C41.7627263,43.8116991 42.3273267,43.5781809 42.9899565,43.5437676 C43.6823675,43.5081254 44.2829533,43.6826495 44.8090864,44.06734 C45.2905478,44.4397401 45.5722275,45.0407423 45.6355123,45.8973854 C45.6603299,46.7085539 45.4456577,47.3206174 44.9939775,47.7520116 C44.5100343,48.2251932 43.9392296,48.4722309 43.253023,48.5078731 C43.202147,48.5103312 43.1525118,48.5127893 43.1028766,48.5127893 C42.5084951,48.5127893 41.9761577,48.3222876 41.4884919,47.9375971 Z M41.7019232,57.0239134 C41.0914103,56.5249219 40.7675407,55.8931937 40.7054967,55.0795671 C40.6794382,54.2462758 40.9338186,53.5727601 41.4748422,53.029523 C42.0046979,52.4813698 42.6549189,52.1851704 43.4552864,52.1261763 C44.2643401,52.1003664 44.9567511,52.3301975 45.536242,52.8144405 C46.1157329,53.3011416 46.4333981,53.9488473 46.4954421,54.7882839 C46.5202597,55.5920781 46.2733246,56.2594486 45.7471915,56.8039147 C45.216095,57.3877102 44.5609104,57.6900548 43.7406888,57.7318423 C43.6811266,57.7355294 43.6240461,57.7367585 43.5669656,57.7367585 C42.850978,57.7367585 42.2367424,57.5007822 41.7019232,57.0239134 Z" id="Combined-Shape" fill="#FF5555"></path>
                            <path d="M94.2847963,50.5439098 L97.810136,60.222625 C98.0657573,60.9219506 97.9255378,61.7048511 97.4415947,62.2751271 L72.7505674,91.4206575 C72.269106,91.9897045 71.5183737,92.261323 70.7812911,92.1384187 L33.3687635,85.8518628 C32.6192721,85.7252713 31.9963504,85.2103022 31.7370065,84.5023733 L28.1421776,74.677402 L68.076173,81.4789271 L94.2847963,50.5439098 Z" id="Fill-1" fill="#55C1D5"></path>
                            <path d="M37.6426406,15.393766 L27.1634102,13.6989155 C26.4288093,13.5796983 25.6855223,13.8537749 25.2065427,14.4191348 L0.50558832,43.5744975 C0.0253678174,44.1435445 -0.117333366,44.9215288 0.134565244,45.6208544 L12.8784013,81.0099242 C13.1352635,81.7252273 13.7643895,82.2463416 14.5213263,82.369246 L24.8863957,84.0714708 L11.2962795,46.4934751 L37.6426406,15.393766 Z" id="Fill-4" fill="#FF5555"></path>
                            <path d="M84.2611317,53.1244089 L91.0475036,45.1135054 C91.5289649,44.5456874 91.6704253,43.766474 91.4197675,43.0671484 L78.6734497,7.67439153 C78.4165875,6.96154647 77.7911841,6.4416612 77.0392109,6.31506975 L39.6341286,0.0297428453 C38.8945642,-0.0943905175 38.1450728,0.178457072 37.6636114,0.746275029 L30.8772395,8.75717858 L70.697074,15.4444026 L84.2611317,53.1244089 Z" id="Fill-7" fill="#F7C400"></path>
                        </g>
                    </g>
                </g>
                <g id="text" transform="translate(14.030769, 105.444444)">
                    <g id="Group-11" transform="translate(16.162216, 1.085758)">
                        <polyline id="Rectangle-5" fill="url(#linearGradient-2)" points="-1.11948741e-13 11.3631355 8.8374098 7.64013467 8.8374098 10.8646855 6.44120639e-12 14.5876864"></polyline>
                        <polyline id="Rectangle-5" fill="url(#linearGradient-3)" points="-1.11948741e-13 3.72300088 8.8374098 0 8.8374098 3.22455085 6.44120639e-12 6.94755173"></polyline>
                        <polyline id="Rectangle-5" fill="url(#linearGradient-4)" points="-7.859041e-12 18.7178066 8.8374098 14.9948057 8.8374098 18.2193566 -1.30552959e-12 21.9423575"></polyline>
                    </g>
                    <path d="M6.2897269,39.3734693 C4.64020001,39.3734693 3.36601936,38.9199075 2.46714673,38.0127705 C1.5682741,37.1056334 1.11884453,35.8211018 1.11884453,34.1591372 C1.11884453,32.5016522 1.57664114,31.2160007 2.4922481,30.3021441 C3.40785506,29.3882875 4.6975745,28.9313661 6.36144511,28.9313661 C7.31291135,28.9313661 8.42692295,29.0769538 9.70351333,29.3681336 L9.70351333,30.6918751 C8.25001716,30.2215078 7.12883381,29.9863276 6.33992965,29.9863276 C5.18765144,29.9863276 4.29596404,30.3514168 3.6648407,31.0816061 C3.03371737,31.8117954 2.71816044,32.8421085 2.71816044,34.1725762 C2.71816044,35.4403282 3.05523262,36.4404038 3.72938709,37.172833 C4.40354156,37.9052621 5.32391595,38.2714712 6.49053787,38.2714712 C7.49459772,38.2714712 8.57036,37.9825356 9.71785697,37.4046557 L9.71785697,38.6141657 C8.67076598,39.1203706 7.52806739,39.3734693 6.2897269,39.3734693 Z M18.8997951,35.3216107 L17.0924964,31.0345696 L15.2780259,35.3216107 L18.8997951,35.3216107 Z M20.4919392,39.1248478 L19.3372761,36.3698527 L14.8405448,36.3698527 L13.6715381,39.1248478 L12.2730332,39.1248478 L16.4828917,29.1799876 L17.9746303,29.1799876 L22.1199424,39.1248478 L20.4919392,39.1248478 Z M25.2632078,39.1248478 L25.2632078,29.1799876 L26.7692901,29.1799876 L26.7692901,39.1248478 L25.2632078,39.1248478 Z M31.1174214,39.1248478 L31.1174214,29.1799876 L32.6235036,29.1799876 L32.6235036,38.0698862 L37.3999359,38.0698862 L37.3999359,39.1248478 L31.1174214,39.1248478 Z M40.557545,39.1248478 L40.557545,29.1799876 L42.0636272,29.1799876 L42.0636272,39.1248478 L40.557545,39.1248478 Z M46.4117585,39.1248478 L46.4117585,29.1799876 L52.3428538,29.1799876 L52.3428538,30.2349491 L47.9178408,30.2349491 L47.9178408,33.5678212 L51.6328436,33.5678212 L51.6328436,34.6093437 L47.9178408,34.6093437 L47.9178408,39.1248478 L46.4117585,39.1248478 Z M55.816023,29.1799876 L57.3221053,29.1799876 L57.3221053,35.4560007 C57.3221053,36.4549714 57.5193284,37.18179 57.9137805,37.6364785 C58.3082325,38.0911669 58.9357605,38.3185077 59.7963833,38.3185077 C60.637881,38.3185077 61.2343315,38.1046058 61.5857524,37.6767955 C61.9371734,37.2489852 62.1128812,36.5244063 62.1128812,35.5030372 L62.1128812,29.1799876 L63.4324961,29.1799876 L63.4324961,35.4828787 C63.4324961,36.8402245 63.1348686,37.8279811 62.5396045,38.4461782 C61.9443404,39.0643753 60.9964744,39.3734693 59.6959778,39.3734693 C58.371575,39.3734693 57.3938267,39.0531763 56.7627033,38.4125807 C56.13158,37.7719852 55.816023,36.7819887 55.816023,35.4425617 L55.816023,29.1799876 Z M67.6945656,39.1248478 L67.6945656,29.1799876 L69.1719605,29.1799876 L74.5149666,36.8603762 L74.5149666,29.1799876 L75.8058942,29.1799876 L75.8058942,39.1248478 L74.3356711,39.1248478 L68.9854932,31.4444591 L68.9854932,39.1248478 L67.6945656,39.1248478 Z" id="Cailifun" fill="#FFFFFF" opacity="0.608695652"></path>
                    <path d="M13.1535414,2.83252997 L13.1535414,8.17816736 L10.6918989,8.17816736 L10.6918989,2.83252997 L8.3670142,2.83252997 L8.3670142,8.17816736 L5.90537172,8.17816736 L5.90537172,2.83252997 L3.58048702,2.83252997 L3.58048702,8.17816736 L1.11884453,8.17816736 L1.11884453,2.83252997 L1.11884453,0.389617408 L14.7995112,0.389617408 L14.7995112,2.83252997 L13.1535414,2.83252997 Z M9.43668984,16.993699 L9.43668984,24.1986141 L6.86472451,24.1986141 L6.86472451,16.3555354 L0.714375164,22.1547578 L0.674863507,18.8807527 L5.66879994,13.9316658 L1.11884453,13.9316658 L1.11884453,11.2344241 L6.86472451,11.2344241 L6.86472451,9.43944016 L9.43668984,9.43944016 L9.43668984,11.2344241 L14.6353432,11.2344241 L14.6353432,13.9316658 L10.0317456,13.9316658 L14.5594575,18.8844155 L14.5199458,22.1584206 L9.43668984,16.993699 Z M50.8440241,20.5832527 L50.8440241,23.0810037 L27.7866389,23.0810037 L27.7866389,20.5832527 L34.5689745,20.5832527 C32.8981665,16.4466955 32.1646957,13.256794 31.6294599,7.92621875 L31.5717049,7.35101952 L34.7268385,7.35101952 L34.7675703,7.82789491 C35.1984411,12.8724067 35.7918318,15.7459265 37.4280774,20.5832527 L41.2009081,20.5832527 C42.814193,15.7465321 43.4083528,12.8715853 43.8633115,7.82540259 L43.9060814,7.35101952 L47.0589581,7.35101952 L47.0012031,7.92621875 C46.4659673,13.256794 45.7324964,16.4466955 44.0616884,20.5832527 L50.8440241,20.5832527 Z M41.0166,3.34682103 L50.2969924,3.34682103 L50.2969924,5.84457211 L28.4704285,5.84457211 L28.4704285,3.34682103 L37.7262045,3.34682103 L37.7262045,0.389617408 L41.0166,0.389617408 L41.0166,3.34682103 Z M54.4544332,6.03949137 L54.4544332,3.56680133 L64.276387,3.56680133 L64.276387,1.08575762 L67.5667825,1.08575762 L67.5667825,3.56680133 L77.2410378,3.56680133 L77.2410378,6.03949137 L62.1265525,6.03949137 L62.1265525,9.05517076 L74.3855324,9.05517076 L74.3855324,20.153038 C74.3855324,22.8817001 73.283797,24.0583846 70.7710206,24.0583846 L67.3534402,24.0583846 L67.3534402,21.6358167 L69.9586785,21.6358167 C71.0229028,21.6358167 71.2428354,21.3996092 71.2428354,20.2282212 L71.2428354,11.4526777 L62.1229244,11.4526777 C62.0319415,17.8937726 60.2173344,19.5408338 55.2783657,22.9271568 L54.4790496,23.4751947 L54.4790496,20.7902565 L54.6399954,20.6357003 C58.0375371,17.3730423 58.9592391,16.6719829 58.9592391,10.654901 L58.9592391,6.03949137 L54.4544332,6.03949137 Z" id="Combined-Shape" fill="#2F2F2F" fill-rule="nonzero"></path>
                </g>
            </g>
        </g>
    </g>
</svg>