<?xml version="1.0" encoding="UTF-8"?>
<svg width="69px" height="71px" viewBox="0 0 69 71" version="1.1" xmlns="http://www.w3.org/2000/svg" xmlns:xlink="http://www.w3.org/1999/xlink">
    <!-- Generator: Sketch 52.6 (67491) - http://www.bohemiancoding.com/sketch -->
    <title>logo_14</title>
    <desc>Created with Sketch.</desc>
    <g id="Page-1" stroke="none" stroke-width="1" fill="none" fill-rule="evenodd">
        <g id="Artboard" transform="translate(-989.000000, -1805.000000)" fill="#000000">
            <g id="logo_14" transform="translate(989.000000, 1805.000000)">
                <path d="M21.7785844,46.9172932 L21.7785844,70.9774436 C17.1010366,70.9774436 13.3091349,67.1181493 13.3091349,62.556391 L13.3091349,39.6992481 L13.3091349,38.4962406 L55.6563823,38.4962406 L55.6563823,39.6992481 L55.6563823,62.556391 C55.6563823,67.1181493 51.8644806,70.9774436 47.1869328,70.9774436 L47.1869328,46.9172932 L21.7785844,46.9172932 Z M13.3091349,31.2781955 L13.3091349,8.42105263 C13.3091349,3.85929432 17.1010366,-2.33407649e-14 21.7785844,-2.33407649e-14 L21.7785844,24.0601504 L47.1869328,24.0601504 L47.1869328,-2.33407649e-14 C51.8644806,-2.33407649e-14 55.6563823,3.85929432 55.6563823,8.42105263 L55.6563823,31.2781955 L55.6563823,32.481203 L13.3091349,32.481203 L13.3091349,31.2781955 Z M-1.95399252e-14,4.69183775e-14 C4.67754779,4.69183775e-14 8.46944949,3.84850843 8.46944949,8.42105263 L8.46944949,62.556391 C8.46944949,67.1289352 4.67754779,70.9774436 -1.95399252e-14,70.9774436 L-1.95399252e-14,4.69183775e-14 Z M68.9655172,4.69183775e-14 L68.9655172,70.9774436 C64.2879695,70.9774436 60.4960678,67.1289352 60.4960678,62.556391 L60.4960678,8.42105263 C60.4960678,3.84850843 64.2879695,4.69183775e-14 68.9655172,4.69183775e-14 Z" id="Combined-Shape"></path>
            </g>
        </g>
    </g>
</svg>