<?xml version="1.0" encoding="UTF-8"?>
<svg width="105px" height="130px" viewBox="0 0 105 130" version="1.1" xmlns="http://www.w3.org/2000/svg" xmlns:xlink="http://www.w3.org/1999/xlink">
    <!-- Generator: Sketch 52.6 (67491) - http://www.bohemiancoding.com/sketch -->
    <title>logo_19</title>
    <desc>Created with Sketch.</desc>
    <g id="Page-1" stroke="none" stroke-width="1" fill="none" fill-rule="evenodd">
        <g id="Artboard" transform="translate(-587.000000, -2546.000000)">
            <g id="logo_19" transform="translate(587.000000, 2546.000000)">
                <g id="Group-16" transform="translate(0.162755, 0.000000)">
                    <polygon id="Page-1" fill="#FFFFFF" points="69.7925436 0.000175143021 0 40.4459529 0 80.8899792 34.8980166 101.113744 69.7925436 80.8899792 69.7925436 80.8917306 104.69056 60.667966 104.69056 20.2239397 104.688815 20.2239397"></polygon>
                    <g id="Page-1" transform="translate(3.382979, 0.000000)">
                        <polygon id="Fill-1" fill="#B4EFF5" points="0 37.7194938 0 75.4367008 32.483382 56.5764639 32.483382 18.8592569"></polygon>
                        <polygon id="Fill-1" fill="#FFFFFF" transform="translate(48.604093, 47.030141) scale(-1, 1) translate(-48.604093, -47.030141) " points="32.3624024 37.6016556 32.3624024 75.3188627 64.8457844 56.4586258 64.8457844 18.7414188"></polygon>
                        <polygon id="Fill-2" fill="#47E3FF" points="0 75.4355575 32.483382 94.2957944 64.9618917 75.4371908 32.4785097 56.5769539"></polygon>
                        <g id="Group-19" transform="translate(32.481758, 24.061951)">
                            <polygon id="Fill-3" fill="#040000" points="9.05867505 0.0818305939 9.12363857 0.119397533 9.12363857 0.117764188 9.06029914 0.0801972487"></polygon>
                            <polygon id="Fill-7" fill="#000000" points="9.05867505 0.0818305939 9.05867505 0.0818305939 9.12363857 0.119397533 9.12363857 0.119397533"></polygon>
                            <polygon id="Fill-9" fill="#040000" points="9.05867505 0.0818305939 9.05867505 0.0818305939 9.12363857 0.119397533 9.12363857 0.119397533"></polygon>
                            <polygon id="Fill-11" fill="#000000" points="9.12315134 0.117274184 9.12315134 0.043773651 9.05981192 0.0813405903"></polygon>
                            <polygon id="Fill-13" fill="#040000" points="9.12315134 0.117274184 9.12315134 0.043773651 9.05981192 0.0813405903"></polygon>
                        </g>
                        <polygon id="Fill-20" fill="#00AAFF" points="41.5422195 24.1428019 32.4830572 18.881797 32.4830572 18.8850637 41.5405954 24.1444352"></polygon>
                        <polygon id="Fill-21" fill="#00AAFF" points="41.5422195 24.1428019 32.4830572 18.881797 32.4830572 18.8850637 41.5405954 24.1444352"></polygon>
                        <polygon id="Fill-22" fill="#00AAFF" points="41.5399457 24.1441086 41.5399457 24.1441086 32.4824075 18.8847371 32.4824075 18.8847371"></polygon>
                        <polygon id="Fill-23" fill="#00AAFF" points="41.5399457 24.1441086 41.5399457 24.1441086 32.4824075 18.8847371 32.4824075 18.8847371"></polygon>
                        <polygon id="Fill-24" fill="#00AAFF" points="41.5399457 24.1441086 41.5399457 24.1441086 32.4824075 18.8847371 32.4824075 18.8847371"></polygon>
                        <polygon id="Fill-26" fill="#0070FF" points="0 75.4355575 9.12250171 80.7341293 23.4274679 89.0396895 32.4801338 94.2957944 32.4801338 83.7819514 32.4801338 83.7051842 9.12250171 70.1435191 0 64.8449473"></polygon>
                        <polygon id="Fill-27" fill="#B4EFF5" points="64.9614045 37.7194938 64.9614045 75.4367008 97.4447865 56.5764639 97.4447865 18.8592569"></polygon>
                        <polygon id="Fill-28" fill="#47E3FF" points="64.9614045 0.000490003556 32.4828948 18.8590935 64.9662768 37.7193304 97.4447865 18.8607269"></polygon>
                        <path d="M41.5399457,24.1441086 L41.6049093,24.1816755 L41.5529384,61.7453481 L32.4824075,56.6019441 L32.4807835,56.6003108 L32.4807835,29.4051134 L32.4807835,18.8831037 L32.4824075,18.8847371 L41.5399457,24.1441086 Z M64.8766271,0.000490003556 L64.9399665,0.0364235977 L64.9610797,0.0233568362 L74.020242,5.28436169 L97.4428376,18.8835937 L97.4217245,18.8982938 L88.3008468,24.1935989 L64.8766271,10.5927335 L41.6050717,24.1053983 L41.5417322,24.1429652 L32.48257,18.8835937 L32.48257,18.8100932 L41.6050717,13.5131547 L55.7541254,5.29742845 L64.8766271,0.000490003556 Z" id="Combined-Shape" fill="#0070FF"></path>
                    </g>
                </g>
                <path d="M2.25531915,108.521739 L19.5034752,108.521739 L19.5034752,109.89066 L11.6925131,109.89066 L11.6925131,129.726486 L10.0676098,129.726486 L10.0676098,109.89066 L2.25531915,109.89066 L2.25531915,108.521739 Z M27.5385755,129.726216 L27.5385755,127.419882 L27.4787876,127.419882 C26.8423782,128.350531 26.1886968,129.013349 25.5190718,129.406981 C24.8467897,129.803319 23.9951437,129.999459 22.9614767,129.999459 C21.4906934,129.999459 20.2736767,129.513844 19.3090979,128.542613 C18.3458478,127.571383 17.8635584,126.194346 17.8635584,124.414208 L17.8635584,115.762411 L19.3250414,115.762411 L19.3250414,124.383096 C19.3250414,125.678971 19.6718114,126.696193 20.3680088,127.434761 C21.0642061,128.174682 21.9676683,128.542613 23.0810526,128.542613 C24.0350023,128.542613 24.8467897,128.31942 25.5190718,127.874385 C26.1886968,127.42935 26.8623075,126.659671 27.5385755,125.568051 L27.5385755,115.762411 L29.0000585,115.762411 L29.0000585,129.726216 L27.5385755,129.726216 Z M35.5141537,111.132699 L35.5141537,115.762952 L39.3605111,115.762952 L39.3605111,116.977666 L35.5141537,116.977666 L35.5141537,125.277764 C35.5141537,126.61422 35.6204434,127.492115 35.83568,127.912801 C36.0482593,128.332135 36.6222235,128.541802 37.556244,128.541802 C38.2723706,128.541802 39.1067445,128.313197 40.0606943,127.860047 L40.0606943,129.28578 C39.0974442,129.760574 38.1527947,130 37.2280746,130 C36.3246124,130 35.5686272,129.736226 34.9627761,129.21003 C34.3569249,128.683834 34.0526708,127.956087 34.0526708,127.024085 L34.0526708,116.977666 L30.3564475,116.977666 L30.3564475,115.762952 L34.0526708,115.762952 L34.0526708,112.439396 L35.0517937,111.132699 L35.5141537,111.132699 Z M48.4240969,128.542478 C49.9639685,128.542478 51.2500735,127.994639 52.2837405,126.894903 C53.3174075,125.797873 53.834241,124.420836 53.834241,122.761087 C53.834241,121.112159 53.3160789,119.729711 52.2757688,118.616449 C51.2381159,117.503186 49.9546681,116.947231 48.4240969,116.947231 C46.8735963,116.947231 45.578191,117.499128 44.5405381,118.600216 C43.5015566,119.705363 42.9833945,121.089164 42.9833945,122.761087 C42.9833945,124.420836 43.5015566,125.797873 44.5405381,126.894903 C45.578191,127.994639 46.8735963,128.542478 48.4240969,128.542478 Z M48.4240969,115.490385 C50.4117137,115.490385 52.0671753,116.184315 53.3957962,117.568115 C54.7204312,118.955974 55.3847416,120.686062 55.3847416,122.761087 C55.3847416,124.82529 54.7204312,126.547262 53.3957962,127.927005 C52.0671753,129.309452 50.4117137,129.999324 48.4240969,129.999324 C46.4364801,129.999324 44.7743754,129.309452 43.4377828,127.927005 C42.0998616,126.547262 41.4328939,124.82529 41.4328939,122.761087 C41.4328939,120.686062 42.0998616,118.955974 43.4377828,117.568115 C44.7743754,116.184315 46.4364801,115.490385 48.4240969,115.490385 Z M68.0862242,117.142965 L67.2372354,118.53894 C66.0946215,117.478432 65.1738872,116.946825 64.4790185,116.946825 C63.1065532,116.946825 61.642413,118.281929 60.0812835,120.953489 L60.0812835,129.725675 L58.6211291,129.725675 L58.6211291,115.763223 L60.0812835,115.763223 L60.0812835,119.435772 L60.1410714,119.435772 C61.7819182,116.804793 63.3815777,115.489979 64.9413786,115.489979 C65.8355404,115.489979 66.8838223,116.041876 68.0862242,117.142965 Z M82.3497663,108.522145 L85.3192339,108.522145 L76.5144634,129.817522 L75.839524,129.817522 L66.8633615,108.522145 L69.864716,108.522145 L76.1278348,123.412542 L82.3497663,108.522145 Z M91.566542,111.104292 L90.6723802,111.104292 L90.6723802,117.796043 L91.8056938,117.796043 C93.3163357,117.796043 94.3513314,117.664832 94.913338,117.402411 C95.474016,117.138636 95.9111323,116.742299 96.2260154,116.210692 C96.5382413,115.680438 96.6950186,115.074433 96.6950186,114.396736 C96.6950186,113.728508 96.5196406,113.123856 96.1715419,112.584134 C95.8247719,112.041706 95.3358394,111.660247 94.7047445,111.435701 C94.0736496,111.215213 93.028025,111.104292 91.566542,111.104292 Z M87.690955,129.726757 L87.690955,108.52201 L92.9084491,108.52201 C95.0156418,108.52201 96.6870468,109.053616 97.9253215,110.11683 C99.1609389,111.17869 99.7800762,112.616598 99.7800762,114.426496 C99.7800762,115.6615 99.4771506,116.730124 98.8712995,117.62831 C98.2654484,118.530553 97.3938731,119.202839 96.2618882,119.647874 C96.9275272,120.092908 97.5798801,120.700266 98.2149608,121.469945 C98.8513702,122.238273 99.7455321,123.578787 100.898775,125.492841 C101.624202,126.696734 102.204809,127.601683 102.641926,128.20904 L103.744681,129.726757 L100.197263,129.726757 L99.2884865,128.32943 C99.2592568,128.27938 99.1994689,128.192808 99.1091227,128.071066 L98.529844,127.235104 L97.6064525,125.687629 L96.6086582,124.031938 C95.9935067,123.160806 95.4301715,122.466877 94.9173239,121.952855 C94.4044762,121.437481 93.9421161,121.066844 93.5302437,120.839592 C93.1170426,120.610988 92.4235025,120.498715 91.4469662,120.498715 L90.6723802,120.498715 L90.6723802,129.726757 L87.690955,129.726757 Z" id="Combined-Shape" fill="#000000"></path>
            </g>
        </g>
    </g>
</svg>