<?xml version="1.0" encoding="UTF-8"?>
<svg width="210px" height="51px" viewBox="0 0 210 51" version="1.1" xmlns="http://www.w3.org/2000/svg" xmlns:xlink="http://www.w3.org/1999/xlink">
    <!-- Generator: Sketch 52.6 (67491) - http://www.bohemiancoding.com/sketch -->
    <title>logo_23</title>
    <desc>Created with Sketch.</desc>
    <g id="Page-1" stroke="none" stroke-width="1" fill="none" fill-rule="evenodd">
        <g id="Artboard" transform="translate(-919.000000, -2975.000000)">
            <g id="logo_23" transform="translate(919.000000, 2975.000000)">
                <path d="M76.1509144,12.368176 C76.1509144,12.6447592 76.0620938,12.8694831 75.8844526,13.0440762 C75.7051033,13.2186694 75.4796356,13.3051016 75.2080495,13.3051016 L71.8465314,13.3051016 C71.5749453,13.3051016 71.3511858,13.2186694 71.1803769,13.0440762 C71.00786,12.8694831 70.9207475,12.6447592 70.9207475,12.368176 L70.9207475,1.03172126 C70.9207475,0.756866687 71.00786,0.532142822 71.1803769,0.357549664 C71.3511858,0.182956507 71.5749453,0.0947956058 71.8465314,0.0947956058 L75.2080495,0.0947956058 C75.4796356,0.0947956058 75.7051033,0.182956507 75.8844526,0.357549664 C76.0620938,0.532142822 76.1509144,0.756866687 76.1509144,1.03172126 L76.1509144,4.10525229 L74.9825819,4.10525229 L74.9825819,1.13371132 L72.0805395,1.13371132 L72.0805395,12.2661859 L74.9825819,12.2661859 L74.9825819,9.01806172 L76.1509144,9.01806172 L76.1509144,12.368176 Z" id="Fill-1" fill="#000000"></path>
                <polygon id="Fill-4" fill="#000000" points="83.6405408 13.3051016 82.4807487 13.3051016 82.4807487 6.95751674 79.3361578 6.95751674 79.3361578 13.3051016 78.1780738 13.3051016 78.1780738 0.0947956058 79.3361578 0.0947956058 79.3361578 5.90304321 82.4807487 5.90304321 82.4807487 0.0947956058 83.6405408 0.0947956058"></polygon>
                <path d="M89.687174,16.4204659 C89.687174,16.6400038 89.6188504,16.8215115 89.4804953,16.9598031 C89.3421401,17.0998234 89.1644989,17.1706978 88.9458636,17.1706978 L86.2573323,17.1706978 C86.038697,17.1706978 85.8627639,17.0998234 85.7244087,16.9598031 C85.5860535,16.8215115 85.51773,16.6400038 85.51773,16.4204659 L85.51773,13.7393373 L86.445222,13.7393373 L86.445222,16.3392195 L88.7528496,16.3392195 L88.7528496,13.1049245 L86.9115302,11.7064506 L86.9115302,11.4972846 L88.7391849,10.1195544 L88.7391849,7.43323988 L86.4571787,7.43323988 L86.4571787,9.81012692 L85.5296866,9.81012692 L85.5296866,7.35199355 C85.5296866,7.13072698 85.5980102,6.95094789 85.7363653,6.81092763 C85.8764286,6.67263602 86.0523617,6.60176157 86.270997,6.60176157 L88.933907,6.60176157 C89.1525423,6.60176157 89.3284754,6.67263602 89.4668306,6.81092763 C89.6051857,6.95094789 89.6735093,7.13072698 89.6735093,7.35199355 L89.6735093,9.92421749 C89.6735093,10.2613033 89.5402784,10.525786 89.2738166,10.7142083 L88.0320362,11.5992746 L89.2874813,12.4843409 C89.5539431,12.6693059 89.687174,12.9355173 89.687174,13.2881609 L89.687174,16.4204659 Z" id="Fill-7" fill="#000000"></path>
                <path d="M96.7197159,12.368176 C96.7197159,12.6447592 96.6308953,12.8694831 96.4532541,13.0440762 C96.2739048,13.2186694 96.0484371,13.3051016 95.776851,13.3051016 L92.4153329,13.3051016 C92.1437468,13.3051016 91.9199872,13.2186694 91.7491784,13.0440762 C91.5766615,12.8694831 91.4895489,12.6447592 91.4895489,12.368176 L91.4895489,1.03172126 C91.4895489,0.756866687 91.5766615,0.532142822 91.7491784,0.357549664 C91.9199872,0.182956507 92.1437468,0.0947956058 92.4153329,0.0947956058 L95.776851,0.0947956058 C96.0484371,0.0947956058 96.2739048,0.182956507 96.4532541,0.357549664 C96.6308953,0.532142822 96.7197159,0.756866687 96.7197159,1.03172126 L96.7197159,4.10525229 L95.5513833,4.10525229 L95.5513833,1.13371132 L92.649341,1.13371132 L92.649341,12.2661859 L95.5513833,12.2661859 L95.5513833,9.01806172 L96.7197159,9.01806172 L96.7197159,12.368176 Z" id="Fill-9" fill="#000000"></path>
                <polygon id="Fill-12" fill="#000000" points="104.209342 13.3051016 103.04955 13.3051016 103.04955 6.95751674 99.9049593 6.95751674 99.9049593 13.3051016 98.7468753 13.3051016 98.7468753 0.0947956058 99.9049593 0.0947956058 99.9049593 5.90304321 103.04955 5.90304321 103.04955 0.0947956058 104.209342 0.0947956058"></polygon>
                <path d="M109.969017,17.1700064 L105.825194,17.1700064 L105.825194,16.6704279 L109.021027,9.95118436 L109.021027,7.43254842 L106.892749,7.43254842 L106.892749,9.80943546 L105.958425,9.80943546 L105.958425,7.3513021 C105.958425,7.13176417 106.026748,6.95025643 106.165104,6.81196482 C106.303459,6.67194456 106.4811,6.60279876 106.699735,6.60279876 L109.21575,6.60279876 C109.434385,6.60279876 109.610318,6.67194456 109.748673,6.81196482 C109.887028,6.95025643 109.955352,7.13176417 109.955352,7.3513021 L109.955352,9.59335482 C109.955352,9.86302346 109.873364,10.1724509 109.709387,10.51818 L106.9457,16.3402567 L109.969017,16.3402567 L109.969017,17.1700064 Z" id="Fill-15" fill="#000000"></path>
                <path d="M112.784459,12.2663588 L115.978584,12.2663588 L115.978584,1.13388419 L112.784459,1.13388419 L112.784459,12.2663588 Z M117.138376,12.3683488 C117.138376,12.6449321 117.049556,12.8679273 116.877039,13.0442491 C116.699398,13.2188422 116.475638,13.3052745 116.204052,13.3052745 L112.550451,13.3052745 C112.278865,13.3052745 112.055105,13.2188422 111.884296,13.0442491 C111.711779,12.8679273 111.624667,12.6449321 111.624667,12.3683488 L111.624667,1.03189413 C111.624667,0.757039552 111.711779,0.532315686 111.884296,0.357722529 C112.055105,0.183129372 112.278865,0.0949684703 112.550451,0.0949684703 L116.204052,0.0949684703 C116.475638,0.0949684703 116.699398,0.183129372 116.877039,0.357722529 C117.049556,0.532315686 117.138376,0.757039552 117.138376,1.03189413 L117.138376,12.3683488 Z" id="Fill-17" fill="#000000"></path>
                <polygon id="Fill-19" fill="#000000" points="124.686249 13.3051016 123.526456 13.3051016 123.526456 6.95751674 120.381866 6.95751674 120.381866 13.3051016 119.223782 13.3051016 119.223782 0.0947956058 120.381866 0.0947956058 120.381866 5.90304321 123.526456 5.90304321 123.526456 0.0947956058 124.686249 0.0947956058"></polygon>
                <polygon id="Fill-20" fill="#000000" points="134.611267 1.13371132 132.592307 1.13371132 132.592307 13.3051016 131.434223 13.3051016 131.434223 1.13371132 129.398181 1.13371132 129.398181 0.0947956058 134.611267 0.0947956058"></polygon>
                <path d="M137.129844,12.2663588 L140.323969,12.2663588 L140.323969,1.13388419 L137.129844,1.13388419 L137.129844,12.2663588 Z M141.483761,12.3683488 C141.483761,12.6449321 141.396649,12.8679273 141.220716,13.0442491 C141.046491,13.2188422 140.821023,13.3052745 140.549437,13.3052745 L136.895836,13.3052745 C136.62425,13.3052745 136.40049,13.2188422 136.229681,13.0442491 C136.057164,12.8679273 135.970052,12.6449321 135.970052,12.3683488 L135.970052,1.03189413 C135.970052,0.757039552 136.057164,0.532315686 136.229681,0.357722529 C136.40049,0.183129372 136.62425,0.0949684703 136.895836,0.0949684703 L140.549437,0.0949684703 C140.821023,0.0949684703 141.046491,0.183129372 141.220716,0.357722529 C141.396649,0.532315686 141.483761,0.757039552 141.483761,1.03189413 L141.483761,12.3683488 Z" id="Fill-21" fill="#000000"></path>
                <path d="M148.814706,0.171374585 L147.2296,5.51461665 C147.029754,6.048768 146.766708,6.94074888 146.437047,8.1905593 L146.437047,13.3056202 L145.278963,13.3056202 L145.278963,8.1905593 C145.200391,7.76185531 145.080825,7.31240758 144.920265,6.83875882 C144.652095,6.0297529 144.508615,5.58721975 144.48641,5.51461665 L142.901304,0.171374585 L142.901304,0.0953141993 L144.078177,0.0953141993 L145.869962,6.7039245 L147.646374,0.0953141993 L148.814706,0.0953141993 L148.814706,0.171374585 Z" id="Fill-22" fill="#000000"></path>
                <path d="M13.7373613,41.3490843 L14.2275827,41.3490843 C16.7589698,41.3490843 18.8787076,40.2116358 20.5867961,37.9384675 C21.4118028,36.8476924 22.0642926,35.6652991 22.5408493,34.3912877 C23.0208222,33.1190049 23.2582465,31.9400689 23.2582465,30.8579371 C23.2582465,29.6496141 22.9217531,28.7005879 22.2538905,28.0056726 C21.5826117,27.3107573 20.6722005,26.9632996 19.5192408,26.9632996 L13.7373613,41.3490843 Z M9.10502534,44.311982 L5.85965723,44.311982 C4.25747024,44.311982 3.45637674,44.8876209 3.45637674,46.0354412 C3.45637674,46.5073613 3.63230985,46.9049497 3.98417608,47.2264777 C4.33433422,47.5480057 4.76306443,47.7104983 5.27036671,47.7104983 C6.02192564,47.7104983 6.73590662,47.4097141 7.41401775,46.8116029 C8.09212888,46.211763 8.65579807,45.3785561 9.10502534,44.311982 Z M16.0654859,26.9632996 L14.8527431,26.9632996 L14.5213739,26.9632996 C13.616087,26.9632996 13.1617355,26.5674399 13.1617355,25.7722631 C13.1617355,25.2692274 13.346209,24.847438 13.7185723,24.5086235 C14.0909356,24.1698091 14.5452872,24.0004019 15.0850431,24.0004019 L15.4164123,24.0004019 L19.0068143,24.0004019 C21.4083867,24.0004019 23.2497061,24.5777693 24.5324805,25.7359616 C25.815255,26.8941538 26.4557881,28.558839 26.4557881,30.7334746 C26.4557881,34.0490159 25.3643196,37.0879741 23.1847987,39.8486203 C21.9515588,41.4026723 20.5560505,42.5349348 18.9999819,43.245408 C17.4422052,43.9576098 15.5786807,44.311982 13.4059921,44.311982 L12.5502398,44.311982 L12.4016361,44.6594397 C11.8311346,45.949009 11.3801992,46.854819 11.0522462,47.3751412 C10.7260013,47.897192 10.3023954,48.4002277 9.77801221,48.8877057 C8.4149576,50.1530739 6.85034855,50.785758 5.08589315,50.785758 C3.63230985,50.785758 2.43835601,50.3501394 1.50061543,49.4771737 C0.566291031,48.6059365 0.098274787,47.4961463 0.098274787,46.1478031 C0.098274787,45.3215108 0.298121139,44.5470778 0.699521932,43.8227755 C1.10092273,43.0984732 1.64238677,42.5349348 2.32903834,42.1304319 C3.22066053,41.6083811 4.42315482,41.3490843 5.94506166,41.3490843 L10.2938549,41.3490843 L16.0654859,26.9632996 Z M29.8598377,33.8108086 L29.4328155,34.8791113 C29.0484956,35.8281375 28.5429014,36.3035149 27.9245734,36.3035149 C27.5470859,36.3035149 27.2327976,36.1894243 26.9817086,35.9612432 C26.7306196,35.7313334 26.604221,35.4478356 26.604221,35.1072925 C26.604221,34.9136842 26.6981659,34.583513 26.8809314,34.1167788 L28.302061,30.5678704 C28.6453868,29.7104624 29.132192,29.2834871 29.7590604,29.2834871 C30.3790966,29.2834871 30.7617084,29.5790854 30.9034797,30.1737393 L31.0042569,30.5678704 C31.0554996,30.7718505 31.1289474,30.8980416 31.2297246,30.949901 C31.3305018,31.0000317 31.5781747,31.0259614 31.9727431,31.0259614 L34.9123634,31.0259614 C36.0106643,31.0259614 36.5589607,31.4149065 36.5589607,32.1945255 C36.5589607,33.2714714 35.8637687,33.8108086 34.4716766,33.8108086 L34.3350295,33.9387284 C33.0027205,35.226569 32.336566,36.2239972 32.336566,36.9275558 C32.336566,37.6311144 32.7208859,37.983758 33.4912338,37.983758 L35.0763399,37.983758 C36.140479,37.983758 36.6716945,38.3554167 36.6716945,39.1021914 C36.6716945,39.6276995 36.4855129,40.0356597 36.1131496,40.3243435 C35.7390782,40.6112986 35.2181112,40.7565047 34.5485405,40.7565047 L32.085477,40.7565047 C31.2468055,40.7565047 30.5635701,40.4626351 30.0306465,39.878353 C29.4977229,39.2923423 29.2312611,38.5334671 29.2312611,37.6017274 C29.2312611,37.0088021 29.3747405,36.4314347 29.6582832,35.8713536 C29.943534,35.3112726 30.445712,34.6250005 31.1665254,33.8108086 L29.8598377,33.8108086 Z M43.0208302,26.9679669 C43.5093435,26.9679669 43.9209928,27.1391028 44.2609025,27.4831032 C44.599104,27.8271036 44.7699128,28.243707 44.7699128,28.7363709 C44.7699128,29.2273061 44.599104,29.6456382 44.2609025,29.9896386 C43.9209928,30.3319103 43.5093435,30.5030462 43.0208302,30.5030462 C42.5357331,30.5030462 42.1240838,30.3319103 41.7824661,29.9896386 C41.4459726,29.6456382 41.2751638,29.2273061 41.2751638,28.7363709 C41.2751638,28.243707 41.4459726,27.8271036 41.7824661,27.4831032 C42.1240838,27.1391028 42.5357331,26.9679669 43.0208302,26.9679669 Z M41.3622763,37.9828936 L42.7834059,37.9828936 C43.8390046,37.9828936 44.3668039,38.3597383 44.3668039,39.1151562 C44.3668039,39.6320211 44.1806223,40.0347954 43.8065509,40.3234791 C43.4341876,40.6121629 42.9132206,40.7556404 42.2419419,40.7556404 L40.2434783,40.7556404 C39.5055841,40.7556404 38.9265421,40.6035197 38.5046443,40.2975495 C38.0793302,39.9933079 37.8675273,39.5767044 37.8675273,39.0511963 C37.8675273,38.7711558 37.958056,38.4150549 38.132281,37.9828936 L40.2076085,32.8194307 L40.3459637,32.4633298 C40.7319917,31.5056604 41.3503197,31.025097 42.206072,31.025097 C42.5579382,31.025097 42.861978,31.1443735 43.1164832,31.3811979 C43.3726964,31.6180223 43.5008031,31.9032488 43.5008031,32.23342 C43.5008031,32.5048173 43.3863611,32.9196921 43.1608935,33.4797731 L41.3622763,37.9828936 Z M54.7989543,37.9830665 L56.3089045,37.9830665 C57.3713356,37.9830665 57.9025511,38.3599111 57.9025511,39.1153291 C57.9025511,39.632194 57.7163695,40.0349683 57.3388819,40.323652 C56.9613943,40.6123357 56.4421355,40.7558133 55.7793971,40.7558133 L53.1540651,40.7558133 C52.6416386,40.7558133 52.2129084,40.5985066 51.8661664,40.2856218 C51.5177164,39.9710084 51.3434913,39.5768773 51.3434913,39.1014999 C51.3434913,38.8145448 51.4613494,38.3806549 51.6953576,37.8050161 L52.8004908,35.0322693 C52.9183489,34.7435856 52.9815482,34.5102185 52.9900886,34.332168 C52.996921,34.1299165 52.9166408,33.9553234 52.7441239,33.8101172 C52.571607,33.6666396 52.3546797,33.5940365 52.0865098,33.5940365 C51.220509,33.5940365 50.5287331,34.2526503 49.9992257,35.5664206 L48.5148968,39.2553493 C48.0725019,40.3737827 47.4097636,40.9338637 46.530098,40.9338637 C46.1713994,40.9338637 45.8639435,40.8232304 45.6145626,40.6036925 C45.3617655,40.3824259 45.237075,40.1110287 45.237075,39.7895007 C45.237075,39.5526763 45.3036905,39.2674498 45.4369214,38.9372786 L45.5752765,38.5932782 L48.113496,32.2595225 C48.441449,31.4366874 48.9982859,31.0252699 49.7857146,31.0252699 C50.429664,31.0252699 50.8908479,31.3139536 51.1692663,31.8913211 C52.0643047,31.1946771 52.9183489,30.8472195 53.731399,30.8472195 C54.5188278,30.8472195 55.1679014,31.0754006 55.680328,31.5352202 C56.1910464,31.9915825 56.4455516,32.5741359 56.4455516,33.2759658 C56.4455516,33.6666396 56.3550229,34.0953436 56.1705494,34.5620778 L54.7989543,37.9830665 Z M66.6797346,35.3755782 L68.6286635,38.4663957 C68.8712121,38.8484263 68.9924864,39.161311 68.9924864,39.4085073 C68.9924864,39.7974524 68.8319261,40.150096 68.5090973,40.4629808 C68.1862686,40.7775942 67.8241538,40.9331723 67.4227531,40.9331723 C67.0708868,40.9331723 66.7634309,40.7430213 66.5038015,40.3609907 L66.3534897,40.1328096 L63.4377826,35.7195786 L62.0303177,39.2425573 C61.5776743,40.369634 60.9149359,40.9331723 60.0438108,40.9331723 C59.6834042,40.9331723 59.3810725,40.8208103 59.1333997,40.5978151 C58.8857268,40.3730913 58.7627445,40.0982367 58.7627445,39.7767087 C58.7627445,39.5295124 58.8293599,39.2460146 58.9625908,38.9244866 L59.100946,38.5804863 L64.4814247,25.1610142 L64.6197799,24.8187425 C65.0058079,23.8679876 65.6207197,23.3943389 66.4662235,23.3943389 C66.8180897,23.3943389 67.1204214,23.5118867 67.3715104,23.7504398 C67.6225994,23.9872642 67.748998,24.270762 67.748998,24.6026618 C67.748998,24.8567726 67.6823825,25.1489137 67.5474435,25.4790849 L67.4090883,25.8230853 L64.2047144,33.8111544 L67.0316008,31.6866495 C67.6191832,31.245845 68.1213612,31.0245784 68.5398429,31.0245784 C68.8917091,31.0245784 69.1855004,31.1403977 69.4195085,31.3685788 C69.6535166,31.59676 69.7730828,31.8819864 69.7730828,32.2208009 C69.7730828,32.7895251 69.4622107,33.30639 68.8421746,33.7731242 L68.5535076,33.9892048 L66.6797346,35.3755782 Z M80.6746159,41.3490843 L81.1648373,41.3490843 C83.6979325,41.3490843 85.8176703,40.2116358 87.5257588,37.9384675 C88.3490575,36.8476924 89.0015473,35.6652991 89.4781039,34.3912877 C89.9580768,33.1190049 90.1955011,31.9400689 90.1955011,30.8579371 C90.1955011,29.6496141 89.8607158,28.7005879 89.1911451,28.0056726 C88.5215744,27.3107573 87.6111632,26.9632996 86.4582035,26.9632996 L80.6746159,41.3490843 Z M76.04228,44.311982 L72.7969118,44.311982 C71.1947248,44.311982 70.3936314,44.8876209 70.3936314,46.0354412 C70.3936314,46.5073613 70.5695645,46.9049497 70.9214307,47.2264777 C71.2715888,47.5480057 71.700319,47.7104983 72.2076213,47.7104983 C72.9591802,47.7104983 73.6731612,47.4097141 74.3529804,46.8116029 C75.0293835,46.211763 75.5930527,45.3785561 76.04228,44.311982 Z M83.0027405,26.9632996 L81.7899977,26.9632996 L81.4586285,26.9632996 C80.5533416,26.9632996 80.0989901,26.5674399 80.0989901,25.7722631 C80.0989901,25.2692274 80.2834637,24.847438 80.6558269,24.5086235 C81.0281902,24.1698091 81.4842499,24.0004019 82.0222977,24.0004019 L82.3536669,24.0004019 L85.9440689,24.0004019 C88.3456413,24.0004019 90.1869607,24.5777693 91.4697351,25.7359616 C92.7525096,26.8941538 93.3930427,28.558839 93.3930427,30.7334746 C93.3930427,34.0490159 92.3032823,37.0879741 90.1220533,39.8486203 C88.8888134,41.4026723 87.4933051,42.5349348 85.9372365,43.245408 C84.3811679,43.9576098 82.5159353,44.311982 80.3449548,44.311982 L79.4874944,44.311982 L79.3388907,44.6594397 C78.7683892,45.949009 78.3174538,46.854819 77.9912089,47.3751412 C77.6632559,47.897192 77.23965,48.4002277 76.7169749,48.8877057 C75.3522122,50.1530739 73.7893113,50.785758 72.0248558,50.785758 C70.5695645,50.785758 69.3756106,50.3501394 68.4395781,49.4771737 C67.5035456,48.6059365 67.0372375,47.4961463 67.0372375,46.1478031 C67.0372375,45.3215108 67.2370838,44.5470778 67.6367765,43.8227755 C68.0381773,43.0984732 68.5813495,42.5349348 69.266293,42.1304319 C70.1579151,41.6083811 71.3621175,41.3490843 72.8823163,41.3490843 L77.2311095,41.3490843 L83.0027405,26.9632996 Z M96.7981171,33.8108086 L96.371095,34.8791113 C95.985067,35.8281375 95.4811809,36.3035149 94.8628529,36.3035149 C94.4853653,36.3035149 94.171077,36.1894243 93.9182799,35.9612432 C93.668899,35.7313334 93.5425005,35.4478356 93.5425005,35.1072925 C93.5425005,34.9136842 93.6347373,34.583513 93.8192108,34.1167788 L95.2403404,30.5678704 C95.5836662,29.7104624 96.0687633,29.2834871 96.6973399,29.2834871 C97.317376,29.2834871 97.6982798,29.5790854 97.8400511,30.1737393 L97.9425364,30.5678704 C97.992071,30.7718505 98.0672269,30.8980416 98.1680041,30.949901 C98.2670732,31.0000317 98.5164541,31.0259614 98.9093145,31.0259614 L101.850643,31.0259614 C102.948944,31.0259614 103.49724,31.4149065 103.49724,32.1945255 C103.49724,33.2714714 102.802048,33.8108086 101.409956,33.8108086 L101.271601,33.9387284 C99.9409999,35.226569 99.2731373,36.2239972 99.2731373,36.9275558 C99.2731373,37.6311144 99.6591653,37.983758 100.429513,37.983758 L102.014619,37.983758 C103.078758,37.983758 103.609974,38.3554167 103.609974,39.1021914 C103.609974,39.6276995 103.423792,40.0356597 103.049721,40.3243435 C102.677358,40.6112986 102.156391,40.7565047 101.485112,40.7565047 L99.0237564,40.7565047 C98.185085,40.7565047 97.5001415,40.4626351 96.968926,39.878353 C96.4360024,39.2923423 96.1695406,38.5334671 96.1695406,37.6017274 C96.1695406,37.0088021 96.31302,36.4314347 96.5965627,35.8713536 C96.8818135,35.3112726 97.3839915,34.6250005 98.1048048,33.8108086 L96.7981171,33.8108086 Z M108.184235,38.0463349 L108.500231,38.0463349 C109.185175,38.0463349 109.642943,37.7628371 109.86841,37.1941129 L110.748076,34.9935476 C110.865934,34.7048639 110.924009,34.4645822 110.924009,34.2692453 C110.924009,34.0393355 110.812983,33.8405413 110.590932,33.6711341 C110.36888,33.5017269 110.104126,33.4170233 109.793254,33.4170233 C109.181759,33.4170233 108.585636,33.7765815 108.008302,34.4974265 C107.430968,35.2182715 107.142301,35.9650462 107.142301,36.7360219 C107.142301,37.6107164 107.489043,38.0463349 108.184235,38.0463349 Z M112.746539,37.9823751 L114.128383,37.9823751 C115.18569,37.9823751 115.713489,38.3557624 115.713489,39.1025371 C115.713489,39.619402 115.525599,40.0256336 115.146404,40.316046 C114.768916,40.6099156 114.251365,40.7551218 113.588627,40.7551218 L111.981316,40.7551218 C111.260502,40.7551218 110.770281,40.471624 110.508943,39.9028998 C109.880367,40.471624 109.273995,40.7551218 108.688121,40.7551218 L107.255035,40.7551218 C106.332667,40.7551218 105.58794,40.423222 105.022563,39.7576936 C104.457186,39.0921652 104.175351,38.2209281 104.175351,37.1439822 C104.175351,35.5155985 104.73048,34.0583506 105.840738,32.7739673 C106.950995,31.489584 108.20644,30.846528 109.605365,30.846528 C110.678044,30.846528 111.460349,31.2251013 111.955694,31.9787905 C112.374176,31.3443778 112.922472,31.0245784 113.602292,31.0245784 C113.971239,31.0245784 114.276987,31.143855 114.526367,31.382408 C114.772332,31.6192324 114.897023,31.9113734 114.897023,32.2588311 C114.897023,32.4973841 114.830407,32.7808819 114.695468,33.1110531 L114.555405,33.4550535 L112.746539,37.9823751 Z M125.50374,37.9830665 L127.01369,37.9830665 C128.076121,37.9830665 128.607336,38.3599111 128.607336,39.1153291 C128.607336,39.632194 128.419447,40.0349683 128.041959,40.323652 C127.66618,40.6123357 127.146921,40.7558133 126.484182,40.7558133 L123.857142,40.7558133 C123.346424,40.7558133 122.915986,40.5985066 122.569244,40.2856218 C122.222502,39.9710084 122.048277,39.5768773 122.048277,39.1014999 C122.048277,38.8145448 122.166135,38.3806549 122.400143,37.8050161 L123.505276,35.0322693 C123.623134,34.7435856 123.686334,34.5102185 123.693166,34.332168 C123.701706,34.1299165 123.619718,33.9553234 123.448909,33.8101172 C123.276392,33.6666396 123.057757,33.5940365 122.789587,33.5940365 C121.925294,33.5940365 121.23181,34.2526503 120.702303,35.5664206 L119.219682,39.2553493 C118.777287,40.3737827 118.114549,40.9338637 117.234883,40.9338637 C116.874477,40.9338637 116.568729,40.8232304 116.31764,40.6036925 C116.066551,40.3824259 115.940152,40.1110287 115.940152,39.7895007 C115.940152,39.5526763 116.006768,39.2674498 116.141707,38.9372786 L116.280062,38.5932782 L118.818281,32.2595225 C119.144526,31.4366874 119.703071,31.0252699 120.488792,31.0252699 C121.134449,31.0252699 121.595633,31.3139536 121.872344,31.8913211 C122.767382,31.1946771 123.623134,30.8472195 124.436184,30.8472195 C125.223613,30.8472195 125.872687,31.0754006 126.385113,31.5352202 C126.894124,31.9915825 127.150337,32.5741359 127.150337,33.2759658 C127.150337,33.6666396 127.0581,34.0953436 126.875335,34.5620778 L125.50374,37.9830665 Z M136.739717,35.3755782 L138.688645,38.4663957 C138.931194,38.8484263 139.052468,39.161311 139.052468,39.4085073 C139.052468,39.7974524 138.891908,40.150096 138.569079,40.4629808 C138.246251,40.7775942 137.884136,40.9331723 137.482735,40.9331723 C137.130869,40.9331723 136.823413,40.7430213 136.563783,40.3609907 L136.413472,40.1328096 L133.497765,35.7195786 L132.0903,39.2425573 C131.637656,40.369634 130.974918,40.9331723 130.103793,40.9331723 C129.743386,40.9331723 129.441054,40.8208103 129.193382,40.5978151 C128.947417,40.3730913 128.822726,40.0982367 128.822726,39.7767087 C128.822726,39.5295124 128.889342,39.2460146 129.022573,38.9244866 L129.160928,38.5804863 L134.541407,25.1610142 L134.679762,24.8187425 C135.06579,23.8679876 135.680702,23.3943389 136.526205,23.3943389 C136.878072,23.3943389 137.180403,23.5118867 137.431492,23.7504398 C137.682581,23.9872642 137.80898,24.270762 137.80898,24.6026618 C137.80898,24.8567726 137.742364,25.1489137 137.607425,25.4790849 L137.46907,25.8230853 L134.264696,33.8111544 L137.091583,31.6866495 C137.679165,31.245845 138.181343,31.0245784 138.599825,31.0245784 C138.951691,31.0245784 139.245482,31.1403977 139.47949,31.3685788 C139.713499,31.59676 139.833065,31.8819864 139.833065,32.2208009 C139.833065,32.7895251 139.522193,33.30639 138.902157,33.7731242 L138.61349,33.9892048 L136.739717,35.3755782 Z M150.089111,41.3490843 L150.579333,41.3490843 C153.112428,41.3490843 155.232166,40.2116358 156.940254,37.9384675 C157.763553,36.8476924 158.416043,35.6652991 158.892599,34.3912877 C159.372572,33.1190049 159.609996,31.9400689 159.609996,30.8579371 C159.609996,29.6496141 159.275211,28.7005879 158.60564,28.0056726 C157.93607,27.3107573 157.025659,26.9632996 155.872699,26.9632996 L150.089111,41.3490843 Z M145.456775,44.311982 L142.211407,44.311982 C140.60922,44.311982 139.808127,44.8876209 139.808127,46.0354412 C139.808127,46.5073613 139.98406,46.9049497 140.335926,47.2264777 C140.686084,47.5480057 141.114814,47.7104983 141.622117,47.7104983 C142.373676,47.7104983 143.087657,47.4097141 143.767476,46.8116029 C144.443879,46.211763 145.007548,45.3785561 145.456775,44.311982 Z M152.417236,26.9632996 L151.204493,26.9632996 L150.873124,26.9632996 C149.967837,26.9632996 149.513485,26.5674399 149.513485,25.7722631 C149.513485,25.2692274 149.697959,24.847438 150.070322,24.5086235 C150.442686,24.1698091 150.898745,24.0004019 151.436793,24.0004019 L151.768162,24.0004019 L155.358564,24.0004019 C157.760137,24.0004019 159.601456,24.5777693 160.88423,25.7359616 C162.167005,26.8941538 162.807538,28.558839 162.807538,30.7334746 C162.807538,34.0490159 161.717778,37.0879741 159.536549,39.8486203 C158.303309,41.4026723 156.9078,42.5349348 155.351732,43.245408 C153.795663,43.9576098 151.930431,44.311982 149.75945,44.311982 L148.90199,44.311982 L148.753386,44.6594397 C148.182885,45.949009 147.731949,46.854819 147.405704,47.3751412 C147.077751,47.897192 146.654145,48.4002277 146.13147,48.8877057 C144.766708,50.1530739 143.203807,50.785758 141.439351,50.785758 C139.98406,50.785758 138.790106,50.3501394 137.854073,49.4771737 C136.918041,48.6059365 136.451733,47.4961463 136.451733,46.1478031 C136.451733,45.3215108 136.651579,44.5470778 137.051272,43.8227755 C137.452673,43.0984732 137.995845,42.5349348 138.680788,42.1304319 C139.57241,41.6083811 140.776613,41.3490843 142.296812,41.3490843 L146.645605,41.3490843 L152.417236,26.9632996 Z M166.21415,33.8108086 L165.787128,34.8791113 C165.4011,35.8281375 164.897214,36.3035149 164.278885,36.3035149 C163.901398,36.3035149 163.58711,36.1894243 163.334313,35.9612432 C163.084932,35.7313334 162.958533,35.4478356 162.958533,35.1072925 C162.958533,34.9136842 163.05077,34.583513 163.235243,34.1167788 L164.656373,30.5678704 C164.999699,29.7104624 165.484796,29.2834871 166.113373,29.2834871 C166.733409,29.2834871 167.114312,29.5790854 167.256084,30.1737393 L167.358569,30.5678704 C167.408104,30.7718505 167.483259,30.8980416 167.584037,30.949901 C167.683106,31.0000317 167.932487,31.0259614 168.325347,31.0259614 L171.266675,31.0259614 C172.364976,31.0259614 172.913273,31.4149065 172.913273,32.1945255 C172.913273,33.2714714 172.218081,33.8108086 170.825989,33.8108086 L170.687633,33.9387284 C169.357033,35.226569 168.68917,36.2239972 168.68917,36.9275558 C168.68917,37.6311144 169.075198,37.983758 169.845546,37.983758 L171.430652,37.983758 C172.494791,37.983758 173.026007,38.3554167 173.026007,39.1021914 C173.026007,39.6276995 172.839825,40.0356597 172.465754,40.3243435 C172.09339,40.6112986 171.572423,40.7565047 170.901145,40.7565047 L168.439789,40.7565047 C167.601118,40.7565047 166.916174,40.4626351 166.384959,39.878353 C165.852035,39.2923423 165.585573,38.5334671 165.585573,37.6017274 C165.585573,37.0088021 165.729053,36.4314347 166.012595,35.8713536 C166.297846,35.3112726 166.800024,34.6250005 167.520837,33.8108086 L166.21415,33.8108086 Z M182.439453,37.9830665 L183.898161,37.9830665 C184.475494,37.9830665 184.887144,38.0694988 185.129692,38.2440919 C185.372241,38.4169564 185.493515,38.7039115 185.493515,39.1014999 C185.493515,39.6200934 185.307334,40.0245964 184.93497,40.3167374 C184.560899,40.6106071 184.039932,40.7558133 183.370361,40.7558133 L181.120809,40.7558133 C180.415368,40.7558133 179.947352,40.4809587 179.711636,39.9295209 C179.25216,40.4809587 178.673118,40.7558133 177.977926,40.7558133 L176.141731,40.7558133 C175.405545,40.7558133 174.794049,40.5224462 174.307244,40.055712 C173.822147,39.5907065 173.579598,38.9995098 173.579598,38.2890367 C173.579598,37.8810764 173.687208,37.4074277 173.905843,36.8646331 L175.61564,32.6156234 C176.092196,31.4366874 176.746394,30.8472195 177.574817,30.8472195 C177.935224,30.8472195 178.24268,30.9630387 178.492061,31.1981344 C178.744858,31.4297729 178.869548,31.7167279 178.869548,32.0555424 C178.869548,32.3096532 178.802933,32.6035229 178.669702,32.9336941 L178.531347,33.2759658 L177.210994,36.5448338 L177.072639,36.9268643 C176.997483,37.1481309 176.954781,37.3123522 176.947949,37.4229855 C176.92916,37.8050161 177.173416,37.995167 177.677302,37.995167 C178.714112,37.995167 179.407596,37.571649 179.750922,36.7228842 L181.322363,32.8057744 C181.790379,31.6181952 182.453118,31.0252699 183.307162,31.0252699 C183.659028,31.0252699 183.96136,31.1445464 184.212449,31.3813708 C184.463538,31.6181952 184.589936,31.9034216 184.589936,32.2335928 C184.589936,32.4963469 184.478911,32.9043071 184.261983,33.4540163 L182.439453,37.9830665 Z M195.270101,37.9830665 L196.780051,37.9830665 C197.842483,37.9830665 198.373698,38.3599111 198.373698,39.1153291 C198.373698,39.632194 198.185808,40.0349683 197.808321,40.323652 C197.432541,40.6123357 196.913282,40.7558133 196.250544,40.7558133 L193.623504,40.7558133 C193.112786,40.7558133 192.682347,40.5985066 192.335605,40.2856218 C191.988863,39.9710084 191.814638,39.5768773 191.814638,39.1014999 C191.814638,38.8145448 191.932496,38.3806549 192.166504,37.8050161 L193.271638,35.0322693 C193.389496,34.7435856 193.452695,34.5102185 193.459527,34.332168 C193.468068,34.1299165 193.38608,33.9553234 193.215271,33.8101172 C193.042754,33.6666396 192.824119,33.5940365 192.555949,33.5940365 C191.691656,33.5940365 190.998172,34.2526503 190.468665,35.5664206 L188.986044,39.2553493 C188.543649,40.3737827 187.88091,40.9338637 187.001245,40.9338637 C186.640838,40.9338637 186.33509,40.8232304 186.084001,40.6036925 C185.832912,40.3824259 185.706514,40.1110287 185.706514,39.7895007 C185.706514,39.5526763 185.773129,39.2674498 185.908068,38.9372786 L186.046423,38.5932782 L188.584643,32.2595225 C188.910888,31.4366874 189.469433,31.0252699 190.255153,31.0252699 C190.900811,31.0252699 191.361995,31.3139536 191.638705,31.8913211 C192.533744,31.1946771 193.389496,30.8472195 194.202546,30.8472195 C194.989975,30.8472195 195.639048,31.0754006 196.151475,31.5352202 C196.660485,31.9915825 196.916699,32.5741359 196.916699,33.2759658 C196.916699,33.6666396 196.824462,34.0953436 196.641696,34.5620778 L195.270101,37.9830665 Z M206.506078,35.3755782 L208.455007,38.4663957 C208.697556,38.8484263 208.81883,39.161311 208.81883,39.4085073 C208.81883,39.7974524 208.65827,40.150096 208.335441,40.4629808 C208.012612,40.7775942 207.650497,40.9331723 207.249097,40.9331723 C206.89723,40.9331723 206.589774,40.7430213 206.330145,40.3609907 L206.179833,40.1328096 L203.264126,35.7195786 L201.856661,39.2425573 C201.404018,40.369634 200.741279,40.9331723 199.870154,40.9331723 C199.509748,40.9331723 199.207416,40.8208103 198.959743,40.5978151 C198.713778,40.3730913 198.589088,40.0982367 198.589088,39.7767087 C198.589088,39.5295124 198.655703,39.2460146 198.788934,38.9244866 L198.92729,38.5804863 L204.307768,25.1610142 L204.446123,24.8187425 C204.832151,23.8679876 205.447063,23.3943389 206.292567,23.3943389 C206.644433,23.3943389 206.946765,23.5118867 207.197854,23.7504398 C207.448943,23.9872642 207.575341,24.270762 207.575341,24.6026618 C207.575341,24.8567726 207.508726,25.1489137 207.373787,25.4790849 L207.235432,25.8230853 L204.031058,33.8111544 L206.857944,31.6866495 C207.445527,31.245845 207.947705,31.0245784 208.366186,31.0245784 C208.718053,31.0245784 209.011844,31.1403977 209.245852,31.3685788 C209.47986,31.59676 209.599426,31.8819864 209.599426,32.2208009 C209.599426,32.7895251 209.288554,33.30639 208.668518,33.7731242 L208.379851,33.9892048 L206.506078,35.3755782 Z" id="Combined-Shape" fill="#0DA2D2"></path>
            </g>
        </g>
    </g>
</svg>