<svg height="43" viewBox="0 0 187 43" width="187" xmlns="http://www.w3.org/2000/svg"><g fill="none" fill-rule="evenodd"><path d="m9.13165179 21.5553324c-.02847292.0285392-.07247651.0726454-.12942234.129724-.05824005.0583758-.11389166.1011847-.17083749.129724l-.04400359.129724v17.0963286c.02847291.0298365.05694583.0726455.08671297.1310213.02717869.0570786.08541874.1284268.1721317.2153419.02847292.0583758.05694583.1011847.08541875.129724.02847291.0856178.08671296.129724.17342593.129724h5.68422898l.3028483-.129724c.0854187 0 .2355486-.0285393.4516839-.0869151.2148411-.0570786.4452129-.1141572.6898211-.172533.243314-.0570785.4736858-.1141571.6885268-.1725329.2161353-.0570786.3662652-.0869151.451684-.0869151.05824-.0570786.1876624-.1141571.388267-.172533.2018988-.0570785.3455576-.0998874.4309764-.129724 1.263162-.6032167 2.3554865-1.4308559 3.2743851-2.4816205.9188986-1.0507645 1.4637666-2.2961151 1.6358983-3.7347545v-1.12341c0-1.9562383-.3300269-3.5687078-.9900809-4.8348143-.6613481-1.2661064-1.5595391-2.2662786-2.6932788-3.0005165-1.1337396-.734238-2.4538475-1.2453506-3.9616177-1.533338-1.5077702-.2879873-3.122961-.4319809-4.8455723-.4319809zm-.04270938-2.0716926c.3157905.0285392.63158101.0428089.94737149.0428089h.9486657c1.0043174 0 2.0888766-.0934013 3.2510891-.2802039 1.1635068-.1868026 2.2325353-.5253823 3.209674-1.0157391.9758444-.4877623 1.7873224-1.1428686 2.4344341-1.9640216.6458175-.8198559.9680791-1.8784039.9680791-3.1730496 0-1.3530215-.3442634-2.4024888-1.0327903-3.15229367-.689821-.74721035-1.5375373-1.30891536-2.5418546-1.68381778-1.0056116-.37360518-2.1044072-.59673049-3.2950927-.66937594-1.193274-.07134821-2.2765389-.10767094-3.2536776-.10767094h-1.33434424c-.05824005.02853929-.17213171.06486201-.34426342.10767094-.1721317.04410616-.25884467.09469853-.25884467.1517771v10.96686869c0 .2581508.10094942.5175988.30155404.7770469zm-5.9443679 22.4072299c0-.1725329.06471116-.3087431.19283928-.4099279.13071656-.0998875.25237355-.1660467.36755943-.194586l.08541874-.6473228c0-.1141572.01423646-.496843.04270938-1.1441659.02976713-.6473229.05047471-1.3958305.06471116-2.2442256.01553068-.8496923.02976714-1.6980874.0440036-2.5477797.01423645-.8496923.0220018-1.517771.0220018-2.0081278v-15.456617c-.08800719-.9210406-.21613531-1.8057584-.38826701-2.6554507-.17213171-.8483951-.28861181-1.7201405-.34555764-2.6126418l-1.16221258-7.1672521c0-.08561786-.0220018-.27242045-.06471117-.56040777-.04270937-.28669008-.06471117-.47478991-.06471117-.56170501-.05824005-.31522937-.17860282-.61100013-.36626521-.88471781-.18636816-.27242045-.35073453-.5098154-.49568755-.71218488-.05824005-.08691509-.10094942-.17901914-.12812811-.28150112-.02976714-.09988749-.07247651-.17901915-.12942234-.23739496-.11518588-.14399366-.28084647-.27242044-.49568755-.38787482-.2161353-.11415713-.32355584-.28798732-.32355584-.51759884 0-.20236947.05694583-.30225696.17213171-.30225696h.0440036l17.61826266 5.91411807c1.5504796.54743537 2.8201127 1.3971277 3.8114878 2.54777976.9913751 1.1519493 1.4857684 2.57631904 1.4857684 4.27440644 0 .9495798-.1656606 1.8070556-.4943933 2.5685356-.3313212.7627773-.7830052 1.4399366-1.3576403 2.0288837-.5746352.5915415-1.2424545 1.1013569-2.0034578 1.5333379s-1.5569507.7913165-2.3904305 1.0793039l-.0854188.0428089v.0869151c0 .0583758.0491805.1076709.1501299.1504798.0996552.0441062.1798971.0648621.2381371.0648621.1708375.0583758.3429692.0946985.5163951.1076709.1721318.0155669.3442635.03762.5163952.0661592.8606585.1712357 1.651429.4890596 2.3697229.9495799.8891315.4890595 1.6501348 1.1000597 2.2817158 1.8342976.631581.734238 1.1492704 1.5476076 1.5504796 2.4388116.4025035.8925012.6911153 1.8355949.8619528 2.8292809.1721317.9923887.2588447 1.9782913.2588447 2.9564104 0 1.1519493-.2446083 2.2234697-.7325305 3.2171557-.4892164.993686-1.0625573 1.949752-1.7226113 2.8707925l-.8619527 1.0793039-.0854188.0869151c-.3157905.2309087-.6885268.4747899-1.1195032.7342379-.4309764.2581508-.8774834.4955458-1.3369327.7121849-.4581551.2153419-.9188986.3956583-1.3770537.5396519-.4607435.1439937-.8774834.2309088-1.2502197.2594481-.1436588.0285393-.4025035.0635647-.7752398.1076709-.3740306.0428089-.7752398.0869151-1.204922.129724-.4309764.042809-.8347741.0856179-1.2075104.1284268-.3727363.0441062-.631581.064862-.7739456.064862-.9486657.0869151-1.9038025.1154544-2.8654105.0869151-.96290216-.0285393-1.91674478-.0155669-2.86411628.0428089-.08671297 0-.26531579.0142697-.53839692.042809s-.56816406.064862-.88395456.1089681c-.3157905.042809-.61087343.0856179-.88266033.1297241-.27308113.0428089-.46721464.0635647-.58110629.0635647h-.30155405c-.11518588 0-.3157905-.0207558-.60310808-.0635647-.28861181-.0441062-.43097638-.1375075-.43097638-.2815012zm25.88692629-5.9575756c0 1.6695482.7312362 2.8643064 2.196297 3.5829775.1436588.0583758.3093194.1154543.4956876.1738301.1863682.0570786.3662652.0856179.5383969.0856179h1.5944832c.1423646 0 .3157905-.0350255.5163951-.1076709.2006046-.0713483.3727363-.1517771.5163951-.237395l1.0340845-.6486201c.1721317-.1141571.3080252-.2075584.4102688-.2802039.0996552-.0713482.1643664-.2088557.1928393-.4099279 0-.2010722.0142365-.5461381.0427094-1.0364949.0284729-.4890596.0569458-1.0066584.0867129-1.5540938.0284729-.5461381.0504747-1.0650342.063417-1.5540937.0155307-.4890596.0220018-.8211531.0220018-.993686v-1.9860748c0-.2866901-.0854188-.5033292-.2575505-.6473228-.2873176-.0285393-.5112182-.042809-.6678192-.042809h-.5811063c-.8347741 0-1.6307215.1297241-2.3917248.3878749-.7610033.259448-1.4210572.6343504-1.981456 1.12341-.5603987.4890595-1.0043173 1.0793038-1.3343443 1.7694356-.3313211.691429-.4956875 1.4840428-.4956875 2.3752468zm-2.0681689.863962c0-3.1665633.6820557-5.5119736 2.0461671-7.0388253 1.3641114-1.5255545 3.6108832-2.3155738 6.7416095-2.3739496l2.7139864-1.2090279c.1138917-.0285393.2717869-.0428089.4736857-.0428089.2290776 0 .451684.0570786.6678193.1725329.2148411.1154544.3222616.3165267.3222616.604514v.0428089l-.3442634 12.0889814v.8198559c0 .0583758.0931841.1154543.2795522.1738301.1876624.0583758.4025035.1219406.6471117.1945861.243314.0713482.4594493.1582633.6458175.2581508.1863682.1011847.2795522.2088556.2795522.32431 0 .2296115-.0854187.3813886-.2575504.4527368-.1734259.0726455-.3455577.107671-.5176894.107671-.5461622.0583758-1.0910303.1154544-1.6358983.1738302-.5461622.0570785-1.0923245.0856178-1.6371925.0856178-.2303718 0-.3817959-.0505923-.4529782-.1517771-.0711823-.0998875-.121657-.2153419-.1501299-.3450659-.0284729-.1284268-.0660054-.2438811-.1087148-.3450659-.0427094-.0998875-.1358934-.1517771-.2795522-.1517771-.4025035 0-.7972416.102482-1.1842144.302257-.3869728.2023695-.7402958.3749024-1.0547921.5188961-.2588446.1154544-.5112182.2010722-.7545322.2581508-.2446082.0583758-.5241604.0869151-.8399509.0869151-1.1479762 0-2.1678242-.2010723-3.0582499-.604514-.5746351-.259448-1.0340844-.5175988-1.3783478-.7770468-.3442634-.2594481-.6031081-.5539216-.7752398-.8847179-.173426-.3307962-.2808465-.718671-.3235559-1.1662189-.0427093-.4449534-.0647111-.9716329-.0647111-1.5748496zm17.5306437 4.2736281.7325304-.7770469c0-.0285393.0142365-.0869151.0440036-.1725329 0-.0570786.0051769-.1154544.0207076-.172533.0142364-.0583758.0220018-.1154543.0220018-.1738301 0-.0285393.0064711-.1141572.0207076-.2581508.0142364-.1439937.0284729-.3100405.0440035-.496843.0129423-.1868026.028473-.3736052.0427094-.5617051.0142365-.1868025.0207076-.3372824.0207076-.4527368v-.0428089l-2.2390064-32.77088197-.8619528-.8198558c-.0284729-.05707857-.0427094-.14399367-.0427094-.25944804 0-.20107224.0582401-.30225697.173426-.30225697h1.2476313l.1294223.08691509 2.2843043 1.85635073c.0854187.05837581.1993104.11545438.3429692.17253295.144953.05837581.2873175.10767093.4309763.15047986.1436588.04410617.2653158.09469853.3662652.1517771.1009495.05837581.1514242.10118474.1514242.12972402v33.93580363l.7312362.7770469v.172533l-.3869728.389172c-.2018988.0285393-.388267.0428089-.5591045.0428089h-.8192434-.388267-.364971c-.1578952 0-.3235558-.022053-.4956875-.064862-.173426-.0428089-.3235559-.0934013-.4529782-.1517771-.1281281-.0570785-.1941335-.156966-.1941335-.3022569zm7.2800064-5.1375901c0 1.6695482.7312362 2.8643064 2.1962971 3.5829775.1436587.0583758.3093193.1154543.4956875.1738301.1863682.0570786.3662652.0856179.5383969.0856179h1.5944832c.1423646 0 .3157905-.0350255.5163951-.1076709.2006046-.0713483.3727364-.1517771.5163951-.237395l1.0340845-.6486201c.1721317-.1141571.3080252-.2075584.4102688-.2802039.0996552-.0713482.1643664-.2088557.1928393-.4099279 0-.2010722.0142365-.5461381.0427094-1.0364949.0284729-.4890596.0569458-1.0066584.0867129-1.5540938.028473-.5461381.0504748-1.0650342.063417-1.5540937.0155307-.4890596.0220018-.8211531.0220018-.993686v-1.9860748c0-.2866901-.0854188-.5033292-.2575505-.6473228-.2873176-.0285393-.5112182-.042809-.6678192-.042809h-.5811063c-.8347741 0-1.6307215.1297241-2.3917248.3878749-.7610033.259448-1.4210572.6343504-1.981456 1.12341-.5603987.4890595-1.0043173 1.0793038-1.3343442 1.7694356-.3313212.691429-.4956876 1.4840428-.4956876 2.3752468zm-2.0681689.863962c0-3.1665633.6820557-5.5119736 2.0461671-7.0388253 1.3641114-1.5255545 3.6108832-2.3155738 6.7416095-2.3739496l2.7139864-1.2090279c.1138917-.0285393.2717869-.0428089.4736858-.0428089.2290775 0 .4516839.0570786.6678192.1725329.2148411.1154544.3222616.3165267.3222616.604514v.0428089l-.3442634 12.0889814v.8198559c0 .0583758.0931841.1154543.2795523.1738301.1876623.0583758.4025034.1219406.6471116.1945861.243314.0713482.4594493.1582633.6458175.2581508.1863682.1011847.2795522.2088556.2795522.32431 0 .2296115-.0854187.3813886-.2575504.4527368-.1734259.0726455-.3455576.107671-.5176893.107671-.5461623.0583758-1.0910303.1154544-1.6358984.1738302-.5461622.0570785-1.0923245.0856178-1.6371925.0856178-.2303718 0-.3817959-.0505923-.4529782-.1517771-.0711823-.0998875-.121657-.2153419-.1501299-.3450659-.0284729-.1284268-.0660054-.2438811-.1087148-.3450659-.0427094-.0998875-.1358934-.1517771-.2795522-.1517771-.4025035 0-.7972416.102482-1.1842144.302257-.3869728.2023695-.7402958.3749024-1.0547921.5188961-.2588446.1154544-.5112182.2010722-.7545322.2581508-.2446082.0583758-.5241604.0869151-.8399509.0869151-1.1479762 0-2.1678242-.2010723-3.0582498-.604514-.5746352-.259448-1.0340845-.5175988-1.3783479-.7770468-.3442634-.2594481-.6031081-.5539216-.7752398-.8847179-.1734259-.3307962-.2808465-.718671-.3235559-1.1662189-.0427093-.4449534-.0647111-.9716329-.0647111-1.5748496zm17.5306437 4.532687c0-.172533.0802418-.3165266.2381371-.431981.1578952-.1141571.2653158-.2724204.3235558-.4747899.1125975-.5759747.1708375-1.1727052.1708375-1.7914887v-1.7914888-1.0793038l-.1708375-.691429-1.2929291-9.8447559c-.0582401-.1712357-.144953-.3152294-.2588447-.4306838-.1151859-.1141571-.1721317-.2737176-.1721317-.4747899v-.1738302c0-.0570785.0427094-.0856178.1294224-.0856178l2.5405604 1.7266267c.086713.0583758.1798971.1011847.2808465.129724.0996552.0298365.179897.0869151.2355486.172533.086713.1439936.1229513.3100404.1087148.496843-.0142365.1868025.0064711.3671189.0647112.5396519 0 .0583758.0427093.1803164.1294223.367119.0854187.1880998.1423646.32431.1721317.4099279 0 .0285392.0284729.1076709.0854188.2373949.05824.129724.1009494.2231253.1307165.2802039.0569458.0583758.0996552.1375075.1281281.237395.0284729.1024819.086713.1517771.1721317.1517771l.5603987-.9495799c.028473-.0570785.0711823-.1011847.1281282-.129724.05824-.0285393.1009494-.0713482.1307165-.129724.0569459-.0285393.1993104-.1076709.4309764-.237395.2290775-.129724.4723915-.2659342.7312362-.4099279.2588447-.1439936.5176893-.2802038.7752398-.4099279.2588447-.129724.4452128-.2231253.5603987-.2815011.1721317-.1141571.3287327-.1725329.4736858-.1725329h1.7666149c.0284729.0285392.0711822.0441061.1294223.0441061h.1708375c.7480611.2296115 1.3938785.6110002 1.9387466 1.1441659.544868.5318685.8179491 1.2155141.8179491 2.0509367v.5175989l-.3856785 9.1961358v1.1662189c0 .2309088.0918898.3878748.278258.4734927.1876624.0869151.2808465.259448.2808465.5188961v.259448c-.0582401.0869151-.1436588.1660467-.2588447.237395-.1151859.0713482-.2148411.1076709-.3002598.1076709h-2.1548819c-.1436588 0-.2368429-.0583758-.2795523-.172533-.0440036-.1141571-.0647111-.2296115-.0647111-.3450658 0-.3165267.0854187-.5902443.2575504-.8211531.1734259-.2296115.2588447-.4747899.2588447-.7329407v-7.2541672c0-.0570786-.0077654-.2231253-.0207076-.496843-.0155307-.2737177-.0375325-.4812761-.0647112-.6252698-.0867129-.6615925-.2588446-1.2375671-.5176893-1.7279239-.2588447-.4877623-.7597091-.7329407-1.5077702-.7329407-.3157905 0-.6820557.0505923-1.0975014.1504798-.4180342.1011848-.8192434.2451784-1.2062162.431981-.388267.1868026-.7402958.4034417-1.054792.6473229-.3170848.2451784-.5319259.5111126-.6471117.7990999-.1151859.3165266-.2018989.6551063-.2588447 1.0144419-.0569458.3606327-.0854187.6979152-.0854187 1.0144418v7.382594c0 .1738302.0854187.2957708.2575504.3684162.1734259.0713482.2588447.2360977.2588447.4955458 0 .0869151-.0362383.2101529-.1074206.3671189-.0711822.1582633-.1643663.237395-.2795522.237395h-2.1535877c-.144953 0-.3093194-.0363227-.4956875-.1076709-.1876624-.0713483-.2808465-.1945861-.2808465-.367119zm3.2051442-35.49599447s.9732559-.12194058.8438336.67715939c-.1048321.66029526-.9033679.89639298-1.4288226 1.21810855-.144953.08950957-.2808465.18550534-.4141515.28279836-.1811913.1323185-.3546172.27371768-.5189835.42030583-.4905107.43457546-.926664.91455434-1.413292 1.39323597-.0297671.03243101-.0608285.06356477-.093184.0934013-.0155307.01426964-.0297672.0194586-.0427094.02724204.0556516.04151169.1113032.07653713.168249.11934613.0776534.0492951.1591895.1024819.2368429.1530743.3455576.2257198 1.2256295.734238 1.6566059.9833081.5539276.2827983 1.1311512.524085 1.7342593.6473228.3339096.0687538.7079402.1271296 1.0897361.1556689.7208824.0531868 1.4792973-.0025945 2.0966418-.3087432.1423646-.0713482.2795523-.1543716.4037977-.2555563.4788627-.3749024.8386568-.8847178 1.1686837-1.4191808.1837797-.297068.3584999-.60451393.5371027-.9002847.075065-.12453506.1501299-.2451784.2264891-.36322725-.0181191-.06226753-.0077653-.12972402.0336498-.17772191.0323556-.09859026.1384819-.16345227.2251949-.14010194.1553068-.04799789.2743753.15047986.1902508.2905818.0621227.18809983.0815361.38787482.0815361.59024429-.0012942.28928457-.0452978.58505533-.0724765.86266471-.0194134.1764247-.0440036.3489576-.0724765.5188961-.1087148.6434311-.2924945 1.2414589-.5591045 1.8550535v.0038917c-.318379.7407242-.6561713 1.425667-1.0496152 2.0600175-.2756696.4449533-.5849889.8652592-.9318408 1.2635119-.2070757.232206-.4270937.4605203-.666525.6771594-.1320108.1232378-.2679043.2425839-.4141515.3593355-.4413302.3606328-.9137217.7121849-1.4042324 1.0546563-.0724765.0505924-.1423645.102482-.2174295.1543716 0 0-1.7135517 1.12341-2.8123474 1.5722551-.2446082.107671-.4918048.2075585-.736413.2996625-.6548771.2490701-1.169978.1426964-1.8442683.2750149-.4257995.0817262-.8554817.1375075-1.2825754.1621551-.3830901.0233503-.7622976.0259448-1.1466819-.0025945-.278258-.0207559-.5552218-.0596731-.8295972-.102482-5.927543-.9353102-6.6885463-5.1811774-6.6885463-5.1811774-.4853338-1.9795885-.0841245-2.6826927-.0841245-2.6826927-1.3239905-.4229003-1.9012141-2.3505992-1.9012141-2.3505992l-3.3339194-.82504481 2.9818906-.91195986c.168249-2.04055884 2.4900857-3.4363893 3.9706773-3.39617485 1.4107034.03761997 2.7049268.47997888 3.691125 2.42843366.1475415.29317628.8425394.17383018 1.118209.35414657.023296-.22053083.1009494-.43716995.1811913-.64991734.0090595-.0259448.0168249-.05059237.0271787-.07523993.0711822-.18939707.1268338-.3774969.1773086-.56429949.0776534-.27890664.336498-1.76165219.4012092-2.052234.086713-.38917206.0957725-1.07930384.4620377-1.38934425 0 0 .5642814-.70569867.9861982.22571979 0 0 .7325305-.64991734 1.0703228.31004041 0 0 .8179491-.59283877 1.2398659.28279837 0 0 .8438337-.39565827 1.0431441.62137805 0 0 .9279581-.1128599.9279581.67845663 0 0 1.0431441-.16993847.9874925.67715938zm10.4081442 28.54486257c0-.6330532.0854188-1.3309685.2588447-2.0937457.1721317-.7627772.4154457-1.5035014.7325304-2.2247669.3157905-.7186711.7169998-1.365994 1.204922-1.9419686.4879222-.5759747 1.0340845-.993686 1.6371925-1.2531341.028473-.0557813.173426-.1206433.4309764-.1932887.2588447-.0713483.4309764-.1362103.5163951-.1945861.086713-.0285393.2446083-.0570785.47498-.0856178.2290776-.0285393.3727364-.1154544.4309764-.2594481h.9046621c.5163952 0 1.0107885.0142697 1.4844742.042809.4736858.0298365.9551369.1154543 1.4430591.259448.6328752.1439937 1.0703227.3100404 1.3149309.496843.243314.1868026.4089746.5967305.4956876 1.2297837.0271787.2309088.0647111.5046264.1074205.8198558.0427094.3178239.0647112.6058112.0647112.863962 0 .2309087-.1074206.4527368-.3235559.6693759-.214841.2153419-.3947381.3956583-.5383969.539652l-.1294223.0428089h-.0854188c-.05824-.0272421-.1656606-.0856179-.3235558-.172533-.1578953-.0856178-.330027-.1790191-.5176893-.2802039-.1863682-.1011847-.3584999-.1868025-.5163952-.259448-.1578952-.0713482-.2653158-.1219406-.3222616-.1504799-.2303717-.1439936-.4672146-.2231253-.7118228-.2373949-.243314-.0142697-.509924-.0220531-.7959474-.0220531-.6898211 0-1.3291674.1362102-1.918039.4099279-.5888717.2737177-1.0845592.6473229-1.4857685 1.12341-.4025034.4747899-.7182939 1.0209281-.9473715 1.6397116-.2303717.6200809-.3442634 1.2738899-.3442634 1.9640217 0 .6343505.1138917 1.2245948.3442634 1.7707329.2290776.5474353.5526334 1.0300087.9693733 1.4464228.41674.4177113.8968968.7498048 1.4430591.993686.544868.2451784 1.1337397.367119 1.7653207.367119.4892164 0 .9409003-.1089682 1.3576403-.3243101.4154457-.2153419.8399509-.4241975 1.2696331-.626567l.5603987-.4747899 1.7666149-1.7266267c.0569458-.0570786.1294223-.1219406.2148411-.194586.0867129-.0713483.2006046-.107671.3455576-.107671.0854188 0 .1281281.0869151.1281281.2594481 0 .1439936-.0284729.2737176-.0854187.3878748 0 .0298365-.0220018.1154544-.0647112.259448-.0427094.1439937-.0931841.2879873-.1501299.431981-.05824.1439937-.1087148.2879873-.1514241.4306838-.0427094.1452909-.0802419.2322059-.1074206.259448-.05824.2309087-.1009494.4397644-.1294223.626567-.0284729.1880998-.1009494.3956583-.2161353.6252698-.2006046.3463631-.4956876.6551063-.8813661.928824-.388267.2737177-.8114781.496843-1.2722216.6693759-.4581551.172533-.9253697.302257-1.3990554.3891721-.4736858.0856178-.8839546.1284268-1.228218.1284268-1.2062162 0-2.2985407-.2724205-3.2730909-.8198559-.9758444-.5461381-1.7666149-1.3244822-2.369723-2.3311406-.4309764-.6628897-.7674744-1.323185-1.0120826-1.9860747-.243314-.6615925-.3662653-1.3672912-.3662653-2.1157988zm21.1929078-4.4041305c-.345558 0-.746767.0583758-1.206216.172533-.45945.1154543-.8981914.2879873-1.3136371.518896-.4167399.2296115-.7687686.5111127-1.0560862.8419089-.2860234.3307963-.4309764.7121849-.4309764 1.1428686h7.4948477l.088007-.1284267v-.2166392c0-.4319809-.122951-.7978027-.367559-1.1000596-.243314-.302257-.552634-.539652-.92537-.7134822-.372736-.1725329-.761004-.3009597-1.163507-.3878748-.401209-.0869151-.773946-.129724-1.119503-.129724zm-6.6768985 4.6635785c0-.6628897.0142364-1.3322657.0427094-2.0081278.0284729-.6758621.1151858-1.3452381.2588446-2.0068306.086713-.3178238.2070758-.6122974.3662652-.8860151.1578953-.2737176.3222617-.5396519.4943934-.7990999.6328752-.9210406 1.4365879-1.6189558 2.4137265-2.0937457.9745502-.4747899 2.0086344-.7121849 3.1009594-.7121849.630287 0 1.269633.107671 1.916745.3243101.645817.2153419 1.228218.5175988 1.744613.9054736.517689.3891721.953842.8717455 1.313636 1.4477201.3585.5746774.581107 1.2077306.66782 1.8991597 0 .0856178.006471.2373949.022001.454034.014237.2153419.022002.4384672.022002.6680787 0 .2309088.005177.4540341.020708.669376.014236.2153419.022002.367119.022002.4527368v.302257c0 .0583758-.015531.2023694-.04271.431981-.029767.2309087-.044003.3749024-.044003.4319809-.028473.145291-.129423.2529619-.301554.3243101-.172132.0713482-.330027.1076709-.473686.1076709h-9.4775978c-.0569458 0-.0931841.0713482-.1074205.2153419-.0142365.1452909-.0207076.2451784-.0207076.302257 0 1.382858.4659204 2.4686481 1.4003497 3.2599646.933135.7926138 2.0604032 1.1869748 3.3805112 1.1869748.402504 0 .77524-.0428089 1.119503-.1284268.345558-.0869151.718294-.129724 1.120798-.129724l.258845-.0869151 3.487931-2.2455228c.058241-.0570786.130717-.0856178.216136-.0856178.086713 0 .186368.022053.301554.064862.113891.0428089.172132.1232378.172132.2373949 0 .172533-.086713.3736052-.258845.604514-.489217.8354226-.955137 1.5112848-1.40035 2.0288836-.445213.5188961-1.127268.9353102-2.044873 1.2531341l-1.292929.4306837h-3.9189082c-.3170848 0-.6328753-.1141571-.9486658-.3450659-.3157905-.2296115-.5888716-.4164141-.8192433-.561705-1.0327903-.6901318-1.7433189-1.5463103-2.1315859-2.5685356-.3869728-1.020928-.5811063-2.1378518-.5811063-3.3455825z" fill="#00cda6"/><path d="m174.706306 39.3873259c0-.3463632.100949-.5967305.301554-.7562911.200605-.1582633.459449-.2373949.77524-.2373949.173426 0 .345557.0077834.516395.0220531.173426.0142696.330027.064862.47498.1504798l2.239006 1.12341c.230372.0856179.452978.1362103.669114.1504799.214841.0155669.423211.0220531.623815.0220531.344264 0 .753238-.0428089 1.226924-.129724.47498-.0856179.918899-.2231253 1.336933-.4099279.415446-.1868026.773945-.431981 1.076794-.734238.30026-.3022569.451684-.6693759.451684-1.1013569 0-.7186711-.30932-1.2297837-.926664-1.5320407-.617345-.302257-1.242455-.496843-1.874036-.5837581-.085418-.027242-.25755-.0570786-.516395-.0856178-.25755-.0285393-.538397-.0570786-.839951-.0869151-.301554-.0272421-.581106-.0570786-.839951-.0856179-.25755-.0285393-.430976-.0441061-.516395-.0441061-.890426-.1426965-1.594483-.3580383-2.110878-.6473229-.51769-.2866901-1.063852-.7627772-1.637193-1.4243697-.287317-.3165267-.430976-.734238-.430976-1.2518368 0-.3165267.034944-.6330533.10742-.9508771.072477-.3152294.151425-.631756.238138-.9482826.056945-.2023695.134599-.4605203.235548-.7783441.10095-.3165266.222607-.5889471.366265-.8198558.258845-.4021445.582401-.7407242.969374-1.0144419.388267-.2737176.811478-.496843 1.270927-.6693759.458155-.172533.939606-.2944735 1.443059-.367119.502159-.0713482.969373-.1076709 1.40035-.1076709.25755 0 .62511.0363227 1.098795.1076709.473686.0726455.953843.1803164 1.441765.3243101.487922.1439936.933135.3230128 1.335639.5396519.402503.2153419.67429.4825733.817949.7978027v.3450659c0 .1738302-.006471.3320935-.020708.4760872-.014236.1439936-.036238.2879873-.064711.4319809 0 .0570786-.036238.2581508-.10742.6032167-.072477.3463632-.107421.5474354-.107421.604514-.029767.1452909-.05824.2879873-.086713.431981-.028473.1452909-.129422.2166391-.301554.2166391h-.129422c-.660054-.3165266-1.305872-.5902443-1.938747-.8211531-.631581-.2296115-1.320108-.3450659-2.066875-.3450659-.574635 0-1.128562.0791317-1.659194.237395-.530632.1595605-.996552.4540341-1.399055.886015-.05824.0570786-.086713.0998875-.086713.1284268-.028473.0298366-.04271.0726455-.04271.129724v.734238c0 .0583758.020708.1219406.063417.194586.045298.0713482.080242.1362103.108715.1945861.229078.2581508.538397.4462506.92537.5604077.388267.1154544.726059.2010723 1.013377.2594481.716999.0856178 1.485768.1660467 2.305011.2373949.81795.0726455 1.572482.237395 2.261009.496843.688526.2581508 1.261867.6473229 1.722611 1.1649217.458155.5188961.688527 1.2674037.688527 2.2455228 0 .6901318-.157896 1.3102126-.472392 1.8563507-.317085.5474354-.73253 1.0079557-1.25022 1.3815609-.516395.3749024-1.098795.6551063-1.744613.8419088-.645817.1880999-1.285163.2802039-1.916744.2802039-2.068169 0-4.005622-.4747899-5.814946-1.4243697-.402504-.172533-.603108-.4449534-.603108-.8198558zm-55.047461-17.8319935c-.028473.0285392-.072477.0726454-.129423.129724-.05824.0583758-.113891.1011847-.170837.129724l-.044004.129724v17.0963286c.028473.0298365.056946.0726455.086713.1310213.027179.0570786.085419.1284268.172132.2153419.028473.0583758.056946.1011847.085419.129724.028473.0856178.086713.129724.173426.129724h5.684229l.302848-.129724c.085419 0 .235549-.0285393.451684-.0869151.214841-.0570786.445213-.1141572.689821-.172533.243314-.0570785.473686-.1141571.688527-.1725329.216135-.0570786.366265-.0869151.451684-.0869151.05824-.0570786.187662-.1141571.388267-.172533.201899-.0570785.345557-.0998874.430976-.129724 1.263162-.6032167 2.355487-1.4308559 3.274385-2.4816205.918899-1.0507645 1.463767-2.2961151 1.635899-3.7347545v-1.12341c0-1.9562383-.330027-3.5687078-.990081-4.8348143-.661348-1.2661064-1.559539-2.2662786-2.693279-3.0005165-1.13374-.734238-2.453848-1.2453506-3.961618-1.533338-1.50777-.2879873-3.122961-.4319809-4.845572-.4319809zm-.04271-2.0716926c.315791.0285392.631581.0428089.947372.0428089h.948666c1.004317 0 2.088876-.0934013 3.251089-.2802039 1.163506-.1868026 2.232535-.5253823 3.209674-1.0157391.975844-.4877623 1.787322-1.1428686 2.434434-1.9640216.645817-.8198559.968079-1.8784039.968079-3.1730496 0-1.3530215-.344264-2.4024888-1.03279-3.15229367-.689821-.74721035-1.537538-1.30891536-2.541855-1.68381778-1.005612-.37360518-2.104407-.59673049-3.295093-.66937594-1.193274-.07134821-2.276539-.10767094-3.253677-.10767094h-1.334345c-.05824.02853929-.172131.06486201-.344263.10767094-.172132.04410616-.258845.09469853-.258845.1517771v10.96686869c0 .2581508.10095.5175988.301554.7770469zm-5.944368 22.4072299c0-.1725329.064712-.3087431.19284-.4099279.130716-.0998875.252373-.1660467.367559-.194586l.085419-.6473228c0-.1141572.014236-.496843.042709-1.1441659.029767-.6473229.050475-1.3958305.064711-2.2442256.015531-.8496923.029768-1.6980874.044004-2.5477797s.022002-1.517771.022002-2.0081278v-15.456617c-.088007-.9210406-.216135-1.8057584-.388267-2.6554507-.172132-.8483951-.288612-1.7201405-.345558-2.6126418l-1.162212-7.1672521c0-.08561786-.022002-.27242045-.064712-.56040777-.042709-.28669008-.064711-.47478991-.064711-.56170501-.05824-.31522937-.178603-.61100013-.366265-.88471781-.186368-.27242045-.350734-.5098154-.495688-.71218488-.05824-.08691509-.100949-.17901914-.128128-.28150112-.029767-.09988749-.072476-.17901915-.129422-.23739496-.115186-.14399366-.280846-.27242044-.495688-.38787482-.216135-.11415713-.323555-.28798732-.323555-.51759884 0-.20236947.056945-.30225696.172131-.30225696h.044004l17.618263 5.91411807c1.550479.54743537 2.820112 1.3971277 3.811487 2.54777976.991376 1.1519493 1.485769 2.57631904 1.485769 4.27440644 0 .9495798-.165661 1.8070556-.494393 2.5685356-.331322.7627773-.783006 1.4399366-1.357641 2.0288837-.574635.5915415-1.242454 1.1013569-2.003458 1.5333379-.761003.431981-1.55695.7913165-2.39043 1.0793039l-.085419.0428089v.0869151c0 .0583758.049181.1076709.15013.1504798.099655.0441062.179897.0648621.238137.0648621.170838.0583758.342969.0946985.516395.1076709.172132.0155669.344264.03762.516395.0661592.860659.1712357 1.651429.4890596 2.369723.9495799.889132.4890595 1.650135 1.1000597 2.281716 1.8342976.631581.734238 1.149271 1.5476076 1.55048 2.4388116.402503.8925012.691115 1.8355949.861953 2.8292809.172131.9923887.258844 1.9782913.258844 2.9564104 0 1.1519493-.244608 2.2234697-.73253 3.2171557-.489217.993686-1.062558 1.949752-1.722612 2.8707925l-.861952 1.0793039-.085419.0869151c-.315791.2309087-.688527.4747899-1.119503.7342379-.430977.2581508-.877484.4955458-1.336933.7121849-.458155.2153419-.918899.3956583-1.377054.5396519-.460743.1439937-.877483.2309088-1.250219.2594481-.143659.0285393-.402504.0635647-.77524.1076709-.374031.0428089-.77524.0869151-1.204922.129724-.430977.042809-.834774.0856179-1.207511.1284268-.372736.0441062-.631581.064862-.773945.064862-.948666.0869151-1.903803.1154544-2.865411.0869151-.962902-.0285393-1.916744-.0155669-2.864116.0428089-.086713 0-.265316.0142697-.538397.042809s-.568164.064862-.883954.1089681c-.315791.042809-.610874.0856179-.882661.1297241-.273081.0428089-.467214.0635647-.581106.0635647h-.301554c-.115186 0-.315791-.0207558-.603108-.0635647-.288612-.0441062-.430977-.1375075-.430977-.2815012zm24.810133-21.8893717c0-.4605202.129422-.8133696.388267-1.0572507.25755-.2451784.587577-.3684162.988787-.3684162.402503 0 .697586.064862.883954.194586.187662.129724.280847.3956583.280847.7991s-.108715.7627772-.323556 1.0793038c-.214841.3178238-.511219.4747899-.883955.4747899s-.688527-.1076709-.946077-.3230128c-.258845-.2166391-.388267-.4825734-.388267-.7991zm-.516395 21.3720324c.142364-.1439937.286023-.302257.430976-.4760872.142365-.1712357.24202-.3580383.30026-.5604078v-.454034c0-.2153419.007765-.4384672.022002-.6680787.012942-.2309088.020707-.4540341.020707-.6706732v-.4527369-2.3311406-.6486201c0-.3152294-.007765-.6538091-.020707-1.0131446-.014237-.3606328-.022002-.6979152-.022002-1.0157391v-.6901318l-.560399-2.1586077c0-.0570785-.006471-.1154543-.020707-.1738301-.015531-.0570786-.022002-.0998875-.022002-.1284268l-.731236-4.6194724c-.029767-.1738302-.086713-.259448-.173426-.259448-.085419 0-.200605-.0285393-.344264-.0869151-.028473 0-.121657-.0428089-.279552-.1284268-.159189-.0869151-.26661-.1439937-.322262-.1738302-.05824-.0570785-.080241-.0934013-.064711-.1076709.012943-.0142697.020708-.0363227.020708-.064862 0-.1426964.044003-.2802039.129422-.4099279s.199311-.1945861.344264-.1945861c.258844 0 .509924.1232379.754532.367119.243314.2451784.480157.4099279.709234.496843.144953.0583758.36756.1439937.66782.2581508.301554.1167516.481451.1880998.538396.2166391.05824.0583758.200605.1154544.430977.172533.230372.0583758.372736.1011847.430976.129724.056946.0583758.15013.0934013.280847.1076709.128128.0142697.192839.0791317.192839.1945861l.172132 14.592655c.085418.1452909.16566.2957708.238137.4540341.069888.1582633.10742.3230128.10742.496843 0 .1141571-.115186.2010722-.345557.2581508-.230372.0583758-.487923.1011847-.77524.129724-.287318.0285393-.56687.0441061-.839951.0441061h-.538397-.430976c-.200605-.0583758-.30026-.1738301-.30026-.3463631zm8.356282-6.3472666v-.129724c0-.7186711-.050474-1.4464229-.151424-2.1806608-.100949-.7329407-.265316-1.430856-.495687-2.0937457-.085419-.2296115-.19284-.4670065-.322262-.7121849-.130717-.2438811-.251079-.4812761-.366265-.7121849-.144953-.5759746-.273081-1.0637369-.388267-1.4684759-.115186-.4021444-.287318-.891204-.516395-1.4671786-.056946-.1439937-.15919-.2944736-.301554-.4540341-.143659-.1582633-.273081-.2802039-.388267-.367119-.200605-.1439936-.40121-.2438811-.601814-.3022569-.201899-.0570786-.302848-.2153419-.302848-.47479v-.1725329c.115185-.0570786.258844-.0869151.430976-.0869151.230372 0 .445213.0726455.645817.2166391.200605.1439937.415446.2166391.647112.2166391.229078 0 .445213-.0077834.645817-.022053.199311-.0142697.415446-.0220531.645818-.0220531.115186 0 .236843.0583758.366265.1725329.129422.1154544.221312.2166391.279552.302257l1.119504 1.9860747c.029767.1154544.144953.1738302.345557.1738302h.085419c.172132-1.0948707.718294-1.8719176 1.637193-2.3324379.05824-.0285393.157895-.0791316.302848-.1504798l.430976-.2166391c.142365-.0713483.278258-.1426965.407681-.2153419.130716-.0713482.222606-.1219406.280846-.1517771l.172132-.0428089h.473685c.229078 0 .500865.022053.819244.064862.314496.0428089.638052.1076709.969373.194586.327439.0856178.630287.2010722.903368.3450659.273081.1439936.495688.3178238.666525.5175988v2.2455228c0 .0285393-.005177.1154544-.020707.2594481-.014237.1439936-.028473.3087431-.04271.4955457-.014236.1880998-.036238.3684162-.064711.5396519-.029767.1738302-.042709.3178239-.042709.431981 0 .0298365-.015531.0726455-.044004.129724-.028473.0583759-.042709.1011848-.042709.1297241 0 .0298365-.014237.0583758-.04271.0856178v.0441062h-.301554l-.344263-1.4243698c-.028473-.0570785-.05824-.129724-.085419-.2166391-.029767-.0856178-.072476-.1439936-.130716-.1725329-.230372-.0570786-.458156-.0869151-.688527-.0869151h-.688527-.819244c-.746766.0869151-1.329167.3969555-1.744613.928824-.41674.5331657-.682055 1.1298962-.797241 1.7914887 0 .0869151-.029767.2737177-.086713.561705s-.107421.5902443-.15013.9067709-.093184.6330532-.15013.9495798c-.05824.3165266-.086713.5474354-.086713.6901318 0 .0583758-.006471.1595606-.022002.302257-.014236.1452909-.022002.232206-.022002.259448v5.7000735c0 .1154543.05824.2088556.173426.2802038.113892.0726455.243314.1439937.386973.2153419.143659.0726455.273081.1595606.388267.2594481.115186.1011847.172132.2231253.172132.3671189 0 .0856179-.056946.1517771-.172132.1945861-.115186.0428089-.244608.0791316-.388267.1076709s-.287317.0428089-.429682.0428089h-.301554-1.809324c-.05824 0-.15919-.0220531-.301554-.064862-.144953-.0428089-.230372-.064862-.257551-.064862h-.130716c-.028473 0-.04271-.0142696-.04271-.0428089l-.086713-.0428089v-.431981c0-.0570786.078948-.107671.238137-.1517771.156601-.042809.264022-.1362103.322262-.2802039zm13.308758-.4313324c0 .5759747.078948 1.1649217.236843 1.7694356.157895.604514.401209 1.1519493.73253 1.6410089.330027.4903568.731237.8925013 1.206216 1.2090279.473686.3165266 1.02632.4747899 1.657901.4747899 1.522006 0 2.972831-.4747899 4.349884-1.4243698.029767-.0285392.094479-.0791316.195428-.1517771.099655-.0713482.15013-.1362102.15013-.1932888v-6.3902052c0-.0583758-.022002-.1232378-.064711-.194586-.04271-.0713482-.078948-.1219406-.107421-.1504799-.430976-.5188961-1.019848-.8782316-1.766615-1.0793038-.746766-.2023695-1.44953-.3035542-2.110878-.3035542-.631581 0-1.220453.129724-1.765321.389172-.546162.2594481-1.019848.6122974-1.422351 1.0572508-.402504.4475479-.718294.9573633-.946077 1.5333379-.231666.5759747-.345558 1.1804886-.345558 1.8135418zm-4.738152-1.4684759c0-.891204.172132-1.7629494.516395-2.6126418.345558-.8483951.811478-1.5969027 1.40035-2.2442255.587577-.6473229 1.277399-1.166219 2.068169-1.5540938.788182-.389172 1.642369-.5824608 2.561268-.5824608.718294 0 1.371877.0934013 1.960748.2802039.587578.1868025 1.226924.3956582 1.918039.6252697.286024.0583758.530632.1297241.731237.2166391l2.068169 1.0793039h.042709c.027179-.3450659.04918-.956066.064711-1.8355949.012942-.8769344.028473-1.8057583.04271-2.7838775.014236-.9794163.028472-1.9069431.042709-2.7851747.015531-.8782316.022002-1.490529.022002-1.8355949v-12.9088372c-.056946-.11415713-.137188-.19458603-.236843-.23739495-.10095-.04280893-.200605-.07913166-.301554-.10896818-.10095-.02724205-.194134-.06356477-.279552-.10767094-.086713-.04280892-.129423-.13491298-.129423-.28020388 0-.11415714.028473-.20107223.086713-.25944804.085419 0 .286024-.02724205.601814-.08561785.317085-.05707857.531926-.0869151.645817-.0869151.028473 0 .072477-.0064862.129423-.02075584.05824-.01426964.100949-.02205308.130716-.02205308l3.273091-.90677091h.516395v.51889609l-2.455141 22.62386908c-.05824.2581508-.085419.4890596-.085419.6901318v.734238.389172l.170837.3450659v10.0159916c0 .1154544.094479.2153419.280847.302257s.279552.259448.279552.5188961v.2581508c-.115186.0583758-.187662.086915-.214841.086915-.05824.0285393-.179897.0791317-.366265.1504799-.187663.0726455-.380502.1439937-.582401.2153419-.200604.0726454-.393444.1452909-.581106.2166391-.186368.0726455-.323556.1232378-.408975.1517771-.143658-.1439937-.25755-.2879873-.344263-.431981-.086713-.1439936-.201899-.259448-.344263-.3450659h-.302849c-.31579 0-.566869.0791317-.753238.237395-.186368.1582633-.408974.2802039-.666525.3658217-.948665.3463632-1.925804.5188961-2.930121.5188961-.516395 0-1.012083-.0713482-1.487063-.2166391-.472392-.1439937-.924076-.302257-1.355052-.4747899-.89172-.3450659-1.744613-.7329407-2.563856-1.1649217-.819244-.431981-1.501299-1.0793039-2.046168-1.9432659-.115185-.1725329-.208369-.3956582-.279552-.6693759-.071182-.2724204-.135893-.4812761-.194133-.6252698-.172132-.5759746-.322262-1.1441658-.452978-1.7058708-.128129-.561705-.19284-1.128599-.19284-1.7058709z" fill="#0097c8"/></g></svg>