<?xml version="1.0" encoding="UTF-8"?>
<svg width="210px" height="102px" viewBox="0 0 210 102" version="1.1" xmlns="http://www.w3.org/2000/svg" xmlns:xlink="http://www.w3.org/1999/xlink">
    <!-- Generator: Sketch 52.6 (67491) - http://www.bohemiancoding.com/sketch -->
    <title>logo_6</title>
    <desc>Created with Sketch.</desc>
    <defs>
        <linearGradient x1="50%" y1="0%" x2="50%" y2="100%" id="linearGradient-1">
            <stop stop-color="#00FDD5" offset="0%"></stop>
            <stop stop-color="#0793F0" offset="100%"></stop>
        </linearGradient>
    </defs>
    <g id="Page-1" stroke="none" stroke-width="1" fill="none" fill-rule="evenodd">
        <g id="Artboard" transform="translate(-922.000000, -636.000000)">
            <g id="logo_6" transform="translate(922.000000, 636.000000)">
                <path d="M37.8048962,79.5090655 L27.7860605,79.5090655 L26.1514019,79.508817 L33.4267718,62.7167347 L34.2861112,62.7167347 L36.6381824,62.7167347 L42.2658678,62.7167347 L45.4772784,62.7167347 L38.2019085,79.508817 L37.8049995,79.508817 Z M30.5818482,76.6941323 L36.2101509,76.6941323 L41.047853,65.5298045 L35.4195503,65.5298045 L30.5818482,76.6941323 Z M55.8880642,69.6619549 L57.6777373,65.5345871 L52.0352357,65.5345871 L50.244328,69.6619549 L55.8880642,69.6619549 Z M62.0960506,62.7221385 L62.1077801,62.7221385 L57.88146,72.4712979 L57.7246553,72.4712979 L55.1435503,72.4712979 L57.2715266,79.5092518 L54.2514918,79.5092518 L52.1228982,72.4712979 L49.0287825,72.4712979 L45.978498,79.5092518 L42.7670874,79.5092518 L50.0449266,62.7221385 L50.9036487,62.7221385 L53.2544852,62.7221385 L58.8963695,62.7221385 L62.0960506,62.7221385 Z M15.958229,39.9931685 L16.8972055,39.9931685 L17.9405126,47.826782 L10.9435638,56.7852508 L10.7305809,56.7852508 L7.13580123,56.7852508 L3.52990937,56.7852508 L2.00322377,56.7852508 L0.316646718,56.7852508 L6.37338444,42.8062382 L3.02801071,42.8062382 L4.24849491,39.9931685 L7.5932513,39.9931685 L10.8046619,39.9931685 L13.6876469,39.9931685 L15.958229,39.9931685 Z M9.58479507,42.8062382 L4.74977623,53.9690754 L9.38971515,53.9690754 L14.573532,47.5013131 L14.0203939,42.8062382 L9.58479507,42.8062382 Z M27.0153096,42.8061761 L25.2268712,46.9347861 L30.8699901,46.9347861 L32.6590459,42.8061761 L27.0153096,42.8061761 Z M20.9585719,56.7851887 L17.7490133,56.7851887 L25.0231485,39.9931064 L25.8837226,39.9931064 L28.2351765,39.9931064 L33.8782954,39.9931064 L37.0755072,39.9931064 L37.089706,39.9931064 L32.8627686,49.7478559 L32.7065812,49.7478559 L30.1242416,49.7478559 L32.2522178,56.7851887 L29.230331,56.7851887 L27.1035895,49.7478559 L24.0076217,49.7478559 L20.9585719,56.7851887 Z M38.8876515,56.7854371 L35.6762409,56.7854371 L42.9522281,39.9933548 L46.1654908,39.9933548 L38.8876515,56.7854371 Z M51.9362142,56.7854371 L50.5076859,56.7854371 L48.8001192,39.9933548 L51.7300221,39.9933548 L53.152377,53.9798208 L59.2134361,39.9933548 L62.4248467,39.9933548 L55.1482421,56.7854371 L53.4388234,56.7854371 L51.9362142,56.7854371 Z M63.706139,56.7854371 L60.4947284,56.7854371 L67.7700983,39.9933548 L70.9796569,39.9933548 L63.706139,56.7854371 Z M71.9160406,56.7817725 L68.7058646,56.7817725 L75.9799998,39.9934169 L76.6349992,39.9934169 L79.1914105,39.9934169 L79.4439031,39.9934169 L79.8877717,52.7792506 L85.4302639,39.9934169 L88.6472306,39.9934169 L81.3663047,56.7817725 L80.0285256,56.7817725 L80.0285256,56.7854992 L77.220239,56.7854992 L76.824523,45.451853 L71.9160406,56.7817725 Z M90.9204056,53.9691375 L96.5474736,53.9691375 L98.3247999,49.8703415 L95.0609152,49.8703415 L96.2807821,47.0541661 L99.5440494,47.0541661 L102.774598,47.0541661 L98.5377827,56.7853129 L98.1513269,56.7853129 L95.3282241,56.7853129 L89.6986867,56.7853129 L88.1287872,56.7853129 L86.4823374,56.7853129 L93.7632633,39.9932306 L94.6238374,39.9932306 L105.811301,39.9932306 L104.592051,42.8063004 L95.7572765,42.8063004 L90.9204056,53.9691375 Z M18.7902833,65.5296803 L17.0006102,69.6564269 L25.8514357,69.6564269 L24.6315688,72.47136 L15.781978,72.47136 L12.7310762,79.5086928 L9.52151756,79.5086928 L16.7975048,62.7166105 L17.8469854,62.7166105 L20.0082981,62.7166105 L28.8591236,62.7166105 L27.6398741,65.5296803 L18.7902833,65.5296803 Z M70.0796964,65.5296803 L65.2415909,76.6943808 L74.0998245,76.6943808 L72.880575,79.5086928 L64.021724,79.5086928 L62.1030266,79.5086928 L60.8103134,79.5086928 L68.0856833,62.7166105 L68.943788,62.7166105 L71.298946,62.7166105 L80.1374246,62.7166105 L78.9157057,65.5296803 L70.0796964,65.5296803 Z M85.3914331,62.7167347 L87.7472084,62.7167347 L96.5893911,62.7167347 L95.3695243,65.5298045 L86.5273416,65.5298045 L84.7148268,69.7043776 L93.595902,69.7043776 L92.3760352,72.5193107 L83.4955773,72.5193107 L81.685532,76.6938839 L90.5672245,76.6938839 L89.347975,79.508817 L80.4675171,79.508817 L80.033526,79.508817 L77.2561065,79.508817 L84.5302417,62.7167347 L85.3914331,62.7167347 Z" id="Combined-Shape" fill="#3A3A3A"></path>
                <path d="M146.464351,23.4124547 L161.153993,-0.000186337144 L156.536896,19.8105577 L146.464351,23.4124547 Z M165.519832,39.7639738 L158.367313,33.00242 L151.208621,32.2011703 L154.682402,37.5813447 L165.519832,39.7639738 Z M146.730426,27.112924 L156.855444,23.5917731 C162.422013,24.3004754 172.385287,35.6173512 172.385287,35.6173512 L192.151328,51.9659511 L210.020279,52.0578774 L199.409413,58.873469 C193.437868,55.2989015 189.368353,59.5014252 189.368353,59.5014252 L183.59621,51.7932787 L156.87952,51.8373785 L147.29591,45.478934 L146.730426,27.112924 Z M203.820318,72.7624186 L198.761204,69.2723239 L192.3995,69.9269884 L201.363299,75.3102685 L193.053264,81.4134311 L181.416377,76.6904056 L181.126843,72.3978189 L159.323575,63.9586097 C141.324366,69.628849 134.608307,57.6287369 134.608307,57.6287369 L87.7915953,101.576352 L98.5524754,77.0661855 L143.37394,42.8447479 L143.506668,47.2683917 L143.494321,47.4510021 L154.768212,55.2305779 L180.994115,55.241137 L188.644829,65.1275647 C191.099996,59.0927257 198.109909,61.5840533 198.109909,61.5840533 L205.987187,68.1816305 L203.820318,72.7624186 Z M102.913932,67.1243535 L110.067685,50.8217168 L142.989274,30.3389169 L143.237445,38.48185 L102.913932,67.1243535 Z M113.232672,43.6129539 L118.689971,31.187372 L142.720607,21.655606 L142.877412,26.7134172 L113.232672,43.6129539 Z" id="Combined-Shape" fill="url(#linearGradient-1)"></path>
            </g>
        </g>
    </g>
</svg>