<?xml version="1.0" encoding="UTF-8"?>
<svg width="187px" height="43px" viewBox="0 0 187 43" version="1.1" xmlns="http://www.w3.org/2000/svg" xmlns:xlink="http://www.w3.org/1999/xlink">
    <!-- Generator: Sketch 52.6 (67491) - http://www.bohemiancoding.com/sketch -->
    <title>logo_22</title>
    <desc>Created with Sketch.</desc>
    <g id="Page-1" stroke="none" stroke-width="1" fill="none" fill-rule="evenodd">
        <g id="Artboard" transform="translate(-546.000000, -2975.000000)">
            <g id="logo_22" transform="translate(546.000000, 2975.000000)">
                <path d="M9.13165179,21.5553324 C9.10317887,21.5838716 9.05917528,21.6279778 9.00222945,21.6850564 C8.9439894,21.7434322 8.88833779,21.7862411 8.83139196,21.8147804 L8.78738837,21.9445044 L8.78738837,39.040833 C8.81586128,39.0706695 8.8443342,39.1134785 8.87410134,39.1718543 C8.90128003,39.2289329 8.95952008,39.3002811 9.04623304,39.3871962 C9.07470596,39.445572 9.10317887,39.4883809 9.13165179,39.5169202 C9.1601247,39.602538 9.21836475,39.6466442 9.30507772,39.6466442 L14.9893067,39.6466442 L15.292155,39.5169202 C15.3775737,39.5169202 15.5277036,39.4883809 15.7438389,39.4300051 C15.95868,39.3729265 16.1890518,39.3158479 16.43366,39.2574721 C16.676974,39.2003936 16.9073458,39.143315 17.1221868,39.0849392 C17.3383221,39.0278606 17.488452,38.9980241 17.5738708,38.9980241 C17.6321108,38.9409455 17.7615332,38.883867 17.9621378,38.8254911 C18.1640366,38.7684126 18.3076954,38.7256037 18.3931142,38.6957671 C19.6562762,38.0925504 20.7486007,37.2649112 21.6674993,36.2141466 C22.5863979,35.1633821 23.1312659,33.9180315 23.3033976,32.4793921 L23.3033976,31.3559821 C23.3033976,29.3997438 22.9733707,27.7872743 22.3133167,26.5211678 C21.6519686,25.2550614 20.7537776,24.2548892 19.6200379,23.5206513 C18.4862983,22.7864133 17.1661904,22.2753007 15.6584202,21.9873133 C14.15065,21.699326 12.5354592,21.5553324 10.8128479,21.5553324 L9.13165179,21.5553324 Z M9.08894241,19.4836398 C9.40473291,19.512179 9.72052342,19.5264487 10.0363139,19.5264487 L10.9849796,19.5264487 C11.989297,19.5264487 13.0738562,19.4330474 14.2360687,19.2462448 C15.3995755,19.0594422 16.468604,18.7208625 17.4457427,18.2305057 C18.4215871,17.7427434 19.2330651,17.0876371 19.8801768,16.2664841 C20.5259943,15.4466282 20.8482559,14.3880802 20.8482559,13.0934345 C20.8482559,11.740413 20.5039925,10.6909457 19.8154656,9.94114083 C19.1256446,9.19393048 18.2779283,8.63222547 17.273611,8.25732305 C16.2679994,7.88371787 15.1692038,7.66059256 13.9785183,7.58794711 C12.7852443,7.5165989 11.7019794,7.48027617 10.7248407,7.48027617 L9.39049646,7.48027617 C9.33225641,7.50881546 9.21836475,7.54513818 9.04623304,7.58794711 C8.87410134,7.63205327 8.78738837,7.68264564 8.78738837,7.73972421 L8.78738837,18.7065929 C8.78738837,18.9647437 8.88833779,19.2241917 9.08894241,19.4836398 Z M3.14457451,41.8908697 C3.14457451,41.7183368 3.20928567,41.5821266 3.33741379,41.4809418 C3.46813035,41.3810543 3.58978734,41.3148951 3.70497322,41.2863558 L3.79039196,40.639033 C3.79039196,40.5248758 3.80462842,40.14219 3.83310134,39.4948671 C3.86286847,38.8475442 3.88357605,38.0990366 3.8978125,37.2506415 C3.91334318,36.4009492 3.92757964,35.5525541 3.9418161,34.7028618 C3.95605255,33.8531695 3.9638179,33.1850908 3.9638179,32.694734 L3.9638179,17.238117 C3.87581071,16.3170764 3.74768259,15.4323586 3.57555089,14.5826663 C3.40341918,13.7342712 3.28693908,12.8625258 3.22999325,11.9700245 L2.06778067,4.8027724 C2.06778067,4.71715454 2.04577887,4.53035195 2.0030695,4.24236463 C1.96036013,3.95567455 1.93835833,3.76757472 1.93835833,3.68065962 C1.88011828,3.36543025 1.75975551,3.06965949 1.57209312,2.79594181 C1.38572496,2.52352136 1.22135859,2.28612641 1.07640557,2.08375693 C1.01816552,1.99684184 0.975456149,1.90473779 0.948277458,1.80225581 C0.918510321,1.70236832 0.87580095,1.62323666 0.818855122,1.56486085 C0.703669243,1.42086719 0.538008652,1.29244041 0.323167574,1.17698603 C0.107032272,1.0628289 -0.000388267009,0.88899871 -0.000388267009,0.659387194 C-0.000388267009,0.457017723 0.056557561,0.357130227 0.17174344,0.357130227 L0.215747035,0.357130227 L17.8340097,6.2712483 C19.3844893,6.81868367 20.6541224,7.668376 21.6454975,8.81902806 C22.6368726,9.97097736 23.1312659,11.3953471 23.1312659,13.0934345 C23.1312659,14.0430143 22.9656053,14.9004901 22.6368726,15.6619701 C22.3055514,16.4247474 21.8538674,17.1019067 21.2792323,17.6908538 C20.7045971,18.2823953 20.0367778,18.7922107 19.2757745,19.2241917 C18.5147712,19.6561727 17.7188238,20.0155082 16.885344,20.3034956 L16.7999252,20.3463045 L16.7999252,20.4332196 C16.7999252,20.4915954 16.8491057,20.5408905 16.9500551,20.5836994 C17.0497103,20.6278056 17.1299522,20.6485615 17.1881922,20.6485615 C17.3590297,20.7069373 17.5311614,20.74326 17.7045873,20.7562324 C17.8767191,20.7717993 18.0488508,20.7938524 18.2209825,20.8223916 C19.081641,20.9936273 19.8724115,21.3114512 20.5907054,21.7719715 C21.4798369,22.261031 22.2408402,22.8720312 22.8724212,23.6062691 C23.5040022,24.3405071 24.0216916,25.1538767 24.4229008,26.0450807 C24.8254043,26.9375819 25.1140161,27.8806756 25.2848536,28.8743616 C25.4569853,29.8667503 25.5436983,30.8526529 25.5436983,31.830772 C25.5436983,32.9827213 25.29909,34.0542417 24.8111678,35.0479277 C24.3219514,36.0416137 23.7486105,36.9976797 23.0885565,37.9187202 L22.2266038,38.9980241 L22.141185,39.0849392 C21.8253945,39.3158479 21.4526582,39.5597291 21.0216818,39.8191771 C20.5907054,40.0773279 20.1441984,40.3147229 19.6847491,40.531362 C19.226594,40.7467039 18.7658505,40.9270203 18.3076954,41.0710139 C17.8469519,41.2150076 17.430212,41.3019227 17.0574757,41.330462 C16.9138169,41.3590013 16.6549722,41.3940267 16.2822359,41.4381329 C15.9082053,41.4809418 15.5069961,41.525048 15.0773139,41.5678569 C14.6463375,41.6106659 14.2425398,41.6534748 13.8698035,41.6962837 C13.4970672,41.7403899 13.2382225,41.7611457 13.0958579,41.7611457 C12.1471922,41.8480608 11.1920554,41.8766001 10.2304474,41.8480608 C9.26754524,41.8195215 8.31370262,41.8324939 7.36633112,41.8908697 C7.27961815,41.8908697 7.10101533,41.9051394 6.8279342,41.9336787 C6.55485307,41.962218 6.25977014,41.9985407 5.94397964,42.0426468 C5.62818914,42.0854558 5.33310621,42.1282647 5.06131931,42.1723709 C4.78823818,42.2151798 4.59410467,42.2359356 4.48021302,42.2359356 L4.17865897,42.2359356 C4.06347309,42.2359356 3.86286847,42.2151798 3.57555089,42.1723709 C3.28693908,42.1282647 3.14457451,42.0348634 3.14457451,41.8908697 Z M29.0315008,35.9332941 C29.0315008,37.6028423 29.762737,38.7976005 31.2277978,39.5162716 C31.3714566,39.5746474 31.5371172,39.6317259 31.7234854,39.6901017 C31.9098536,39.7471803 32.0897506,39.7757196 32.2618823,39.7757196 L33.8563655,39.7757196 C33.9987301,39.7757196 34.172156,39.7406941 34.3727606,39.6680487 C34.5733652,39.5967004 34.7454969,39.5162716 34.8891557,39.4306537 L35.9232402,38.7820336 C36.0953719,38.6678765 36.2312654,38.5744752 36.333509,38.5018297 C36.4331642,38.4304815 36.4978754,38.292974 36.5263483,38.0919018 C36.5263483,37.8908296 36.5405848,37.5457637 36.5690577,37.0554069 C36.5975306,36.5663473 36.6260035,36.0487485 36.6557706,35.5013131 C36.6842435,34.955175 36.7062453,34.4362789 36.7191876,33.9472194 C36.7347183,33.4581598 36.7411894,33.1260663 36.7411894,32.9535334 L36.7411894,30.9674586 C36.7411894,30.6807685 36.6557706,30.4641294 36.4836389,30.3201358 C36.1963213,30.2915965 35.9724207,30.2773268 35.8158197,30.2773268 L35.2347134,30.2773268 C34.3999393,30.2773268 33.6039919,30.4070509 32.8429886,30.6652017 C32.0819853,30.9246497 31.4219314,31.2995521 30.8615326,31.7886117 C30.3011339,32.2776712 29.8572153,32.8679155 29.5271883,33.5580473 C29.1958672,34.2494763 29.0315008,35.0420901 29.0315008,35.9332941 Z M26.9633319,36.7972561 C26.9633319,33.6306928 27.6453876,31.2852825 29.009499,29.7584308 C30.3736104,28.2328763 32.6203822,27.442857 35.7511085,27.3844812 L38.4650949,26.1754533 C38.5789866,26.146914 38.7368818,26.1326444 38.9387806,26.1326444 C39.1678582,26.1326444 39.3904646,26.189723 39.6065999,26.3051773 C39.821441,26.4206317 39.9288615,26.621704 39.9288615,26.9096913 L39.9288615,26.9525002 L39.5845981,39.0414816 L39.5845981,39.8613375 C39.5845981,39.9197133 39.6777822,39.9767918 39.8641503,40.0351676 C40.0518127,40.0935434 40.2666538,40.1571082 40.511262,40.2297537 C40.754576,40.3011019 40.9707113,40.388017 41.1570795,40.4879045 C41.3434477,40.5890892 41.4366317,40.6967601 41.4366317,40.8122145 C41.4366317,41.041826 41.351213,41.1936031 41.1790813,41.2649513 C41.0056554,41.3375968 40.8335236,41.3726223 40.6613919,41.3726223 C40.1152297,41.4309981 39.5703616,41.4880767 39.0254936,41.5464525 C38.4793314,41.603531 37.9331691,41.6320703 37.3883011,41.6320703 C37.1579293,41.6320703 37.0065052,41.581478 36.9353229,41.4802932 C36.8641406,41.3804057 36.8136659,41.2649513 36.785193,41.1352273 C36.7567201,41.0068005 36.7191876,40.8913462 36.6764782,40.7901614 C36.6337688,40.6902739 36.5405848,40.6383843 36.396926,40.6383843 C35.9944225,40.6383843 35.5996844,40.7408663 35.2127116,40.9406413 C34.8257388,41.1430108 34.4724158,41.3155437 34.1579195,41.4595374 C33.8990749,41.5749918 33.6467013,41.6606096 33.4033873,41.7176882 C33.1587791,41.776064 32.8792269,41.8046033 32.5634364,41.8046033 C31.4154602,41.8046033 30.3956122,41.603531 29.5051865,41.2000893 C28.9305514,40.9406413 28.4711021,40.6824905 28.1268387,40.4230425 C27.7825753,40.1635944 27.5237306,39.8691209 27.3515989,39.5383246 C27.1781729,39.2075284 27.0707524,38.8196536 27.028043,38.3721057 C26.9853337,37.9271523 26.9633319,37.4004728 26.9633319,36.7972561 Z M44.4939756,41.0708842 L45.226506,40.2938373 C45.226506,40.265298 45.2407425,40.2069222 45.2705096,40.1213044 C45.2705096,40.0642258 45.2756865,40.00585 45.2912172,39.9487714 C45.3054536,39.8903956 45.313219,39.8333171 45.313219,39.7749413 C45.313219,39.746402 45.3196901,39.6607841 45.3339266,39.5167905 C45.348163,39.3727968 45.3623995,39.20675 45.3779301,39.0199475 C45.3908724,38.8331449 45.4064031,38.6463423 45.4206395,38.4582424 C45.434876,38.2714399 45.4413471,38.12096 45.4413471,38.0055056 L45.4413471,37.9626967 L43.2023407,5.19181473 L42.3403879,4.37195893 C42.311915,4.31488036 42.2976785,4.22796526 42.2976785,4.11251089 C42.2976785,3.91143865 42.3559186,3.81025392 42.4711045,3.81025392 L43.7187358,3.81025392 L43.8481581,3.89716901 L46.1324624,5.75351974 C46.2178811,5.81189555 46.3317728,5.86897412 46.4754316,5.92605269 C46.6203846,5.9844285 46.7627491,6.03372362 46.9064079,6.07653255 C47.0500667,6.12063872 47.1717237,6.17123108 47.2726731,6.22830965 C47.3736226,6.28668546 47.4240973,6.32949439 47.4240973,6.35803367 L47.4240973,40.2938373 L48.1553335,41.0708842 L48.1553335,41.2434172 L47.7683607,41.6325892 C47.5664619,41.6611285 47.3800937,41.6753981 47.2092562,41.6753981 L46.3900128,41.6753981 L46.0017458,41.6753981 L45.6367748,41.6753981 C45.4788796,41.6753981 45.313219,41.6533451 45.1410873,41.6105361 C44.9676613,41.5677272 44.8175314,41.5171348 44.6881091,41.458759 C44.559981,41.4016805 44.4939756,41.301793 44.4939756,41.1565021 L44.4939756,41.0708842 Z M51.773982,35.9332941 C51.773982,37.6028423 52.5052182,38.7976005 53.9702791,39.5162716 C54.1139378,39.5746474 54.2795984,39.6317259 54.4659666,39.6901017 C54.6523348,39.7471803 54.8322318,39.7757196 55.0043635,39.7757196 L56.5988467,39.7757196 C56.7412113,39.7757196 56.9146372,39.7406941 57.1152418,39.6680487 C57.3158464,39.5967004 57.4879782,39.5162716 57.6316369,39.4306537 L58.6657214,38.7820336 C58.8378531,38.6678765 58.9737466,38.5744752 59.0759902,38.5018297 C59.1756454,38.4304815 59.2403566,38.292974 59.2688295,38.0919018 C59.2688295,37.8908296 59.283066,37.5457637 59.3115389,37.0554069 C59.3400118,36.5663473 59.3684847,36.0487485 59.3982518,35.5013131 C59.4267248,34.955175 59.4487266,34.4362789 59.4616688,33.9472194 C59.4771995,33.4581598 59.4836706,33.1260663 59.4836706,32.9535334 L59.4836706,30.9674586 C59.4836706,30.6807685 59.3982518,30.4641294 59.2261201,30.3201358 C58.9388025,30.2915965 58.7149019,30.2773268 58.5583009,30.2773268 L57.9771946,30.2773268 C57.1424205,30.2773268 56.3464731,30.4070509 55.5854698,30.6652017 C54.8244665,30.9246497 54.1644126,31.2995521 53.6040138,31.7886117 C53.0436151,32.2776712 52.5996965,32.8679155 52.2696696,33.5580473 C51.9383484,34.2494763 51.773982,35.0420901 51.773982,35.9332941 Z M49.7058131,36.7972561 C49.7058131,33.6306928 50.3878688,31.2852825 51.7519802,29.7584308 C53.1160916,28.2328763 55.3628634,27.442857 58.4935897,27.3844812 L61.2075761,26.1754533 C61.3214678,26.146914 61.479363,26.1326444 61.6812619,26.1326444 C61.9103394,26.1326444 62.1329458,26.189723 62.3490811,26.3051773 C62.5639222,26.4206317 62.6713427,26.621704 62.6713427,26.9096913 L62.6713427,26.9525002 L62.3270793,39.0414816 L62.3270793,39.8613375 C62.3270793,39.9197133 62.4202634,39.9767918 62.6066316,40.0351676 C62.7942939,40.0935434 63.009135,40.1571082 63.2537432,40.2297537 C63.4970572,40.3011019 63.7131925,40.388017 63.8995607,40.4879045 C64.0859289,40.5890892 64.1791129,40.6967601 64.1791129,40.8122145 C64.1791129,41.041826 64.0936942,41.1936031 63.9215625,41.2649513 C63.7481366,41.3375968 63.5760049,41.3726223 63.4038732,41.3726223 C62.8577109,41.4309981 62.3128429,41.4880767 61.7679748,41.5464525 C61.2218126,41.603531 60.6756503,41.6320703 60.1307823,41.6320703 C59.9004105,41.6320703 59.7489864,41.581478 59.6778041,41.4802932 C59.6066218,41.3804057 59.5561471,41.2649513 59.5276742,41.1352273 C59.4992013,41.0068005 59.4616688,40.8913462 59.4189594,40.7901614 C59.37625,40.6902739 59.283066,40.6383843 59.1394072,40.6383843 C58.7369037,40.6383843 58.3421656,40.7408663 57.9551928,40.9406413 C57.56822,41.1430108 57.214897,41.3155437 56.9004007,41.4595374 C56.6415561,41.5749918 56.3891825,41.6606096 56.1458685,41.7176882 C55.9012603,41.776064 55.6217081,41.8046033 55.3059176,41.8046033 C54.1579414,41.8046033 53.1380934,41.603531 52.2476678,41.2000893 C51.6730326,40.9406413 51.2135833,40.6824905 50.8693199,40.4230425 C50.5250565,40.1635944 50.2662118,39.8691209 50.0940801,39.5383246 C49.9206542,39.2075284 49.8132336,38.8196536 49.7705242,38.3721057 C49.7278149,37.9271523 49.7058131,37.4004728 49.7058131,36.7972561 Z M67.2364568,41.3299431 C67.2364568,41.1574101 67.3166986,41.0134165 67.4745939,40.8979621 C67.6324891,40.783805 67.7399097,40.6255417 67.7981497,40.4231722 C67.9107472,39.8471975 67.9689872,39.250467 67.9689872,38.6316835 L67.9689872,36.8401947 L67.9689872,35.7608909 L67.7981497,35.0694619 L66.5052206,25.224706 C66.4469805,25.0534703 66.3602676,24.9094766 66.2463759,24.7940222 C66.13119,24.6798651 66.0742442,24.5203046 66.0742442,24.3192323 L66.0742442,24.1454021 C66.0742442,24.0883236 66.1169536,24.0597843 66.2036666,24.0597843 L68.744227,25.786411 C68.83094,25.8447868 68.9241241,25.8875957 69.0250735,25.916135 C69.1247287,25.9459715 69.2049705,26.0030501 69.2606221,26.088668 C69.3473351,26.2326616 69.3835734,26.3987084 69.3693369,26.585511 C69.3551004,26.7723135 69.375808,26.9526299 69.4340481,27.1251629 C69.4340481,27.1835387 69.4767574,27.3054793 69.5634704,27.4922819 C69.6488891,27.6803817 69.705835,27.8165919 69.7356021,27.9022098 C69.7356021,27.930749 69.764075,28.0098807 69.8210209,28.1396047 C69.8792609,28.2693287 69.9219703,28.36273 69.9517374,28.4198086 C70.0086832,28.4781844 70.0513926,28.5573161 70.0798655,28.6572036 C70.1083384,28.7596855 70.1665785,28.8089807 70.2519972,28.8089807 L70.8123959,27.8594008 C70.8408689,27.8023223 70.8835782,27.7582161 70.9405241,27.7296768 C70.9987641,27.7011375 71.0414735,27.6583286 71.0712406,27.5999528 C71.1281865,27.5714135 71.270551,27.4922819 71.502217,27.3625578 C71.7312945,27.2328338 71.9746085,27.0966236 72.2334532,26.9526299 C72.4922979,26.8086363 72.7511425,26.6724261 73.008693,26.542702 C73.2675377,26.412978 73.4539058,26.3195767 73.5690917,26.2612009 C73.7412234,26.1470438 73.8978244,26.088668 74.0427775,26.088668 L75.8093924,26.088668 C75.8378653,26.1172072 75.8805746,26.1327741 75.9388147,26.1327741 L76.1096522,26.1327741 C76.8577133,26.3623856 77.5035307,26.7437743 78.0483988,27.27694 C78.5932668,27.8088085 78.8663479,28.4924541 78.8663479,29.3278767 L78.8663479,29.8454756 L78.4806694,39.0416114 L78.4806694,40.2078303 C78.4806694,40.4387391 78.5725592,40.5957051 78.7589274,40.681323 C78.9465898,40.7682381 79.0397739,40.940771 79.0397739,41.2002191 L79.0397739,41.4596671 C78.9815338,41.5465822 78.8961151,41.6257138 78.7809292,41.6970621 C78.6657433,41.7684103 78.5660881,41.804733 78.4806694,41.804733 L76.3257875,41.804733 C76.1821287,41.804733 76.0889446,41.7463572 76.0462352,41.6322 C76.0022316,41.5180429 75.9815241,41.4025885 75.9815241,41.2871342 C75.9815241,40.9706075 76.0669428,40.6968899 76.2390745,40.4659811 C76.4125004,40.2363696 76.4979192,39.9911912 76.4979192,39.7330404 L76.4979192,32.4788732 C76.4979192,32.4217946 76.4901538,32.2557479 76.4772116,31.9820302 C76.4616809,31.7083125 76.4396791,31.5007541 76.4125004,31.3567604 C76.3257875,30.6951679 76.1536558,30.1191933 75.8948111,29.6288365 C75.6359664,29.1410742 75.135102,28.8958958 74.3870409,28.8958958 C74.0712504,28.8958958 73.7049852,28.9464881 73.2895395,29.0463756 C72.8715053,29.1475604 72.4702961,29.291554 72.0833233,29.4783566 C71.6950563,29.6651592 71.3430275,29.8817983 71.0285313,30.1256795 C70.7114465,30.3708579 70.4966054,30.6367921 70.3814196,30.9247794 C70.2662337,31.241306 70.1795207,31.5798857 70.1225749,31.9392213 C70.0656291,32.299854 70.0371562,32.6371365 70.0371562,32.9536631 L70.0371562,40.3362571 C70.0371562,40.5100873 70.1225749,40.6320279 70.2947066,40.7046733 C70.4681325,40.7760215 70.5535513,40.940771 70.5535513,41.2002191 C70.5535513,41.2871342 70.517313,41.410372 70.4461307,41.567338 C70.3749485,41.7256013 70.2817644,41.804733 70.1665785,41.804733 L68.0129908,41.804733 C67.8680378,41.804733 67.7036714,41.7684103 67.5173033,41.6970621 C67.3296409,41.6257138 67.2364568,41.502476 67.2364568,41.3299431 Z M70.441601,5.83394863 C70.441601,5.83394863 71.4148569,5.71200805 71.2854346,6.51110802 C71.1806025,7.17140328 70.3820667,7.407501 69.856612,7.72921657 C69.711659,7.81872614 69.5757655,7.91472191 69.4424605,8.01201493 C69.2612692,8.14433343 69.0878433,8.28573261 68.923477,8.43232076 C68.4329663,8.86689622 67.996813,9.3468751 67.510185,9.82555673 C67.4804179,9.85798774 67.4493565,9.8891215 67.417001,9.91895803 C67.4014703,9.93322767 67.3872338,9.93841663 67.3742916,9.94620007 C67.4299432,9.98771176 67.4855948,10.0227372 67.5425406,10.0655462 C67.620194,10.1148413 67.7017301,10.1680281 67.7793835,10.2186205 C68.1249411,10.4443403 69.005013,10.9528585 69.4359894,11.2019286 C69.989917,11.4847269 70.5671406,11.7260136 71.1702487,11.8492514 C71.5041583,11.9180052 71.8781889,11.976381 72.2599848,12.0049203 C72.9808672,12.0581071 73.7392821,12.0023258 74.3566266,11.6961771 C74.4989912,11.6248289 74.6361789,11.5418055 74.7604243,11.4406208 C75.239287,11.0657184 75.5990811,10.555903 75.929108,10.02144 C76.1128877,9.724372 76.2876079,9.41692607 76.4662107,9.1211553 C76.5412757,8.99662024 76.6163406,8.8759769 76.6926998,8.75792805 C76.6745807,8.69566052 76.6849345,8.62820403 76.7263496,8.58020614 C76.7587052,8.48161588 76.8648315,8.41675387 76.9515445,8.4401042 C77.1068513,8.39210631 77.2259198,8.59058406 77.1417953,8.730686 C77.203918,8.91878583 77.2233314,9.11856082 77.2233314,9.32093029 C77.2220372,9.61021486 77.1780336,9.90598562 77.1508549,10.183595 C77.1314415,10.3600197 77.1068513,10.5325526 77.0783784,10.7024911 C76.9696636,11.3459222 76.7858839,11.94395 76.5192739,12.5575446 L76.5192739,12.5614363 C76.2008949,13.3021605 75.8631026,13.9871033 75.4696587,14.6214538 C75.1939891,15.0664071 74.8846698,15.486713 74.5378179,15.8849657 C74.3307422,16.1171717 74.1107242,16.345486 73.8712929,16.5621251 C73.7392821,16.6853629 73.6033886,16.804709 73.4571414,16.9214606 C73.0158112,17.2820934 72.5434197,17.6336455 72.052909,17.9761169 C71.9804325,18.0267093 71.9105445,18.0785989 71.8354795,18.1304885 C71.8354795,18.1304885 70.1219278,19.2538985 69.0231321,19.7027436 C68.7785239,19.8104146 68.5313273,19.9103021 68.2867191,20.0024061 C67.631842,20.2514762 67.1167411,20.1451025 66.4424508,20.277421 C66.0166513,20.3591472 65.5869691,20.4149285 65.1598754,20.4395761 C64.7767853,20.4629264 64.3975778,20.4655209 64.0131935,20.4369816 C63.7349355,20.4162257 63.4579717,20.3773085 63.1835963,20.3344996 C57.2560533,19.3991894 56.49505,15.1533222 56.49505,15.1533222 C56.0097162,13.1737337 56.4109255,12.4706295 56.4109255,12.4706295 C55.086935,12.0477292 54.5097114,10.1200303 54.5097114,10.1200303 L51.175792,9.29498549 L54.1576826,8.38302563 C54.3259316,6.34246679 56.6477683,4.94663633 58.1283599,4.98685078 C59.5390633,5.02447075 60.8332867,5.46682966 61.8194849,7.41528444 C61.9670264,7.70846072 62.6620243,7.58911462 62.9376939,7.76943101 C62.9609899,7.54890018 63.0386433,7.33226106 63.1188852,7.11951367 C63.1279447,7.09356887 63.1357101,7.0689213 63.1460639,7.04427374 C63.2172461,6.85487667 63.2728977,6.66677684 63.3233725,6.47997425 C63.4010259,6.20106761 63.6598705,4.71832206 63.7245817,4.42774025 C63.8112947,4.03856819 63.8203542,3.34843641 64.1866194,3.038396 C64.1866194,3.038396 64.7509008,2.33269733 65.1728176,3.26411579 C65.1728176,3.26411579 65.9053481,2.61419845 66.2431404,3.5741562 C66.2431404,3.5741562 67.0610895,2.98131743 67.4830063,3.85695457 C67.4830063,3.85695457 68.32684,3.4612963 68.5261504,4.47833262 C68.5261504,4.47833262 69.4541085,4.36547272 69.4541085,5.15678925 C69.4541085,5.15678925 70.4972526,4.98685078 70.441601,5.83394863 Z M80.8497452,34.3788112 C80.8497452,33.745758 80.935164,33.0478427 81.1085899,32.2850655 C81.2807216,31.5222883 81.5240356,30.7815641 81.8411203,30.0602986 C82.1569108,29.3416275 82.5581201,28.6943046 83.0460423,28.11833 C83.5339645,27.5423553 84.0801268,27.124644 84.6832348,26.8651959 C84.7117078,26.8094146 84.8566608,26.7445526 85.1142112,26.6719072 C85.3730559,26.6005589 85.5451876,26.5356969 85.6306063,26.4773211 C85.7173193,26.4487818 85.8752146,26.4202426 86.1055863,26.3917033 C86.3346639,26.363164 86.4783227,26.2762489 86.5365627,26.1322552 L87.4412248,26.1322552 C87.95762,26.1322552 88.4520133,26.1465249 88.925699,26.1750642 C89.3993848,26.2049007 89.8808359,26.2905185 90.3687581,26.4345122 C91.0016333,26.5785059 91.4390808,26.7445526 91.683689,26.9313552 C91.927003,27.1181578 92.0926636,27.5280857 92.1793766,28.1611389 C92.2065553,28.3920477 92.2440877,28.6657653 92.2867971,28.9809947 C92.3295065,29.2988186 92.3515083,29.5868059 92.3515083,29.8449567 C92.3515083,30.0758654 92.2440877,30.2976935 92.0279524,30.5143326 C91.8131114,30.7296745 91.6332143,30.9099909 91.4895555,31.0539846 L91.3601332,31.0967935 L91.2747144,31.0967935 C91.2164744,31.0695514 91.1090538,31.0111756 90.9511586,30.9242605 C90.7932633,30.8386427 90.6211316,30.7452414 90.4334693,30.6440566 C90.2471011,30.5428719 90.0749694,30.4572541 89.9170741,30.3846086 C89.7591789,30.3132604 89.6517583,30.262668 89.5948125,30.2341287 C89.3644408,30.0901351 89.1275979,30.0110034 88.8829897,29.9967338 C88.6396757,29.9824641 88.3730657,29.9746807 88.0870423,29.9746807 C87.3972212,29.9746807 86.7578749,30.1108909 86.1690033,30.3846086 C85.5801316,30.6583263 85.0844441,31.0319315 84.6832348,31.5080186 C84.2807314,31.9828085 83.9649409,32.5289467 83.7358633,33.1477302 C83.5054916,33.7678111 83.3915999,34.4216201 83.3915999,35.1117519 C83.3915999,35.7461024 83.5054916,36.3363467 83.7358633,36.8824848 C83.9649409,37.4299201 84.2884967,37.9124935 84.7052366,38.3289076 C85.1219766,38.7466189 85.6021334,39.0787124 86.1482957,39.3225936 C86.6931637,39.567772 87.2820354,39.6897126 87.9136164,39.6897126 C88.4028328,39.6897126 88.8545167,39.5807444 89.2712567,39.3654025 C89.6867024,39.1500606 90.1112076,38.941205 90.5408898,38.7388355 L91.1012885,38.2640456 L92.8679034,36.5374189 C92.9248492,36.4803403 92.9973257,36.4154783 93.0827445,36.3428329 C93.1694574,36.2714846 93.2833491,36.2351619 93.4283021,36.2351619 C93.5137209,36.2351619 93.5564302,36.322077 93.5564302,36.49461 C93.5564302,36.6386036 93.5279573,36.7683276 93.4710115,36.8824848 C93.4710115,36.9123213 93.4490097,36.9979392 93.4063003,37.1419328 C93.3635909,37.2859265 93.3131162,37.4299201 93.2561704,37.5739138 C93.1979304,37.7179075 93.1474556,37.8619011 93.1047463,38.0045976 C93.0620369,38.1498885 93.0245044,38.2368035 92.9973257,38.2640456 C92.9390857,38.4949543 92.8963763,38.70381 92.8679034,38.8906126 C92.8394305,39.0787124 92.766954,39.2862709 92.6517681,39.5158824 C92.4511635,39.8622455 92.1560805,40.1709887 91.770402,40.4447064 C91.382135,40.7184241 90.9589239,40.9415494 90.4981804,41.1140823 C90.0400253,41.2866153 89.5728107,41.4163393 89.099125,41.5032544 C88.6254392,41.5888722 88.2151704,41.6316812 87.870907,41.6316812 C86.6646908,41.6316812 85.5723663,41.3592607 84.5978161,40.8118253 C83.6219717,40.2656872 82.8312012,39.4873431 82.2280931,38.4806847 C81.7971167,37.817795 81.4606187,37.1574997 81.2160105,36.49461 C80.9726965,35.8330175 80.8497452,35.1273188 80.8497452,34.3788112 Z M102.042653,29.9746807 C101.697095,29.9746807 101.295886,30.0330565 100.836437,30.1472137 C100.376987,30.262668 99.9382456,30.435201 99.5227999,30.6661097 C99.10606,30.8957212 98.7540313,31.1772224 98.4667137,31.5080186 C98.1806903,31.8388149 98.0357373,32.2202035 98.0357373,32.6508872 L105.530585,32.6508872 L105.618592,32.5224605 L105.618592,32.3058213 C105.618592,31.8738404 105.495641,31.5080186 105.251033,31.2057617 C105.007719,30.9035047 104.698399,30.6661097 104.325663,30.4922795 C103.952927,30.3197466 103.564659,30.1913198 103.162156,30.1044047 C102.760947,30.0174896 102.38821,29.9746807 102.042653,29.9746807 Z M95.3657545,34.6382592 C95.3657545,33.9753695 95.3799909,33.3059935 95.4084639,32.6301314 C95.4369368,31.9542693 95.5236497,31.2848933 95.6673085,30.6233008 C95.7540215,30.305477 95.8743843,30.0110034 96.0335737,29.7372857 C96.191469,29.4635681 96.3558354,29.1976338 96.5279671,28.9381858 C97.1608423,28.0171452 97.964555,27.31923 98.9416936,26.8444401 C99.9162438,26.3696502 100.950328,26.1322552 102.042653,26.1322552 C102.67294,26.1322552 103.312286,26.2399262 103.959398,26.4565653 C104.605215,26.6719072 105.187616,26.9741641 105.704011,27.3620389 C106.2217,27.751211 106.657853,28.2337844 107.017647,28.809759 C107.376147,29.3844364 107.598754,30.0174896 107.685467,30.7089187 C107.685467,30.7945365 107.691938,30.9463136 107.707468,31.1629527 C107.721705,31.3782946 107.72947,31.6014199 107.72947,31.8310314 C107.72947,32.0619402 107.734647,32.2850655 107.750178,32.5004074 C107.764414,32.7157493 107.77218,32.8675264 107.77218,32.9531442 L107.77218,33.2554012 C107.77218,33.313777 107.756649,33.4577706 107.72947,33.6873822 C107.699703,33.9182909 107.685467,34.0622846 107.685467,34.1193631 C107.656994,34.2646541 107.556044,34.372325 107.383913,34.4436732 C107.211781,34.5150214 107.053886,34.5513441 106.910227,34.5513441 L97.4326292,34.5513441 C97.3756834,34.5513441 97.3394451,34.6226923 97.3252087,34.766686 C97.3109722,34.9119769 97.3045011,35.0118644 97.3045011,35.068943 C97.3045011,36.451801 97.7704215,37.5375911 98.7048508,38.3289076 C99.6379858,39.1215214 100.765254,39.5158824 102.085362,39.5158824 C102.487866,39.5158824 102.860602,39.4730735 103.204865,39.3874556 C103.550423,39.3005405 103.923159,39.2577316 104.325663,39.2577316 L104.584508,39.1708165 L108.072439,36.9252937 C108.13068,36.8682151 108.203156,36.8396759 108.288575,36.8396759 C108.375288,36.8396759 108.474943,36.8617289 108.590129,36.9045379 C108.70402,36.9473468 108.762261,37.0277757 108.762261,37.1419328 C108.762261,37.3144658 108.675548,37.515538 108.503416,37.7464468 C108.014199,38.5818694 107.548279,39.2577316 107.103066,39.7753304 C106.657853,40.2942265 105.975798,40.7106406 105.058193,41.0284645 L103.765264,41.4591482 L99.8463558,41.4591482 C99.529271,41.4591482 99.2134805,41.3449911 98.89769,41.1140823 C98.5818995,40.8844708 98.3088184,40.6976682 98.0784467,40.5523773 C97.0456564,39.8622455 96.3351278,39.006067 95.9468608,37.9838417 C95.559888,36.9629137 95.3657545,35.8459899 95.3657545,34.6382592 Z" id="Combined-Shape" fill="#00CDA6"></path>
                <path d="M174.706306,39.3873259 C174.706306,39.0409627 174.807255,38.7905954 175.00786,38.6310348 C175.208465,38.4727715 175.467309,38.3936399 175.7831,38.3936399 C175.956526,38.3936399 176.128657,38.4014233 176.299495,38.415693 C176.472921,38.4299626 176.629522,38.480555 176.774475,38.5661728 L179.013481,39.6895828 C179.243853,39.7752007 179.466459,39.8257931 179.682595,39.8400627 C179.897436,39.8556296 180.105806,39.8621158 180.30641,39.8621158 C180.650674,39.8621158 181.059648,39.8193069 181.533334,39.7323918 C182.008314,39.6467739 182.452233,39.5092665 182.870267,39.3224639 C183.285713,39.1356613 183.644212,38.8904829 183.947061,38.5882259 C184.247321,38.285969 184.398745,37.91885 184.398745,37.486869 C184.398745,36.7681979 184.089425,36.2570853 183.472081,35.9548283 C182.854736,35.6525713 182.229626,35.4579853 181.598045,35.3710702 C181.512627,35.3438282 181.340495,35.3139916 181.08165,35.2854524 C180.8241,35.2569131 180.543253,35.2283738 180.241699,35.1985373 C179.940145,35.1712952 179.660593,35.1414587 179.401748,35.1129194 C179.144198,35.0843801 178.970772,35.0688133 178.885353,35.0688133 C177.994927,34.9261168 177.29087,34.710775 176.774475,34.4214904 C176.256785,34.1348003 175.710623,33.6587132 175.137282,32.9971207 C174.849965,32.680594 174.706306,32.2628827 174.706306,31.7452839 C174.706306,31.4287572 174.74125,31.1122306 174.813726,30.7944068 C174.886203,30.4791774 174.965151,30.1626508 175.051864,29.8461242 C175.108809,29.6437547 175.186463,29.3856039 175.287412,29.0677801 C175.388362,28.7512535 175.510019,28.478833 175.653677,28.2479243 C175.912522,27.8457798 176.236078,27.5072001 176.623051,27.2334824 C177.011318,26.9597648 177.434529,26.7366394 177.893978,26.5641065 C178.352133,26.3915735 178.833584,26.269633 179.337037,26.1969875 C179.839196,26.1256393 180.30641,26.0893166 180.737387,26.0893166 C180.994937,26.0893166 181.362497,26.1256393 181.836182,26.1969875 C182.309868,26.269633 182.790025,26.3773039 183.277947,26.5212976 C183.765869,26.6652912 184.211082,26.8443104 184.613586,27.0609495 C185.016089,27.2762914 185.287876,27.5435228 185.431535,27.8587522 L185.431535,28.2038181 C185.431535,28.3776483 185.425064,28.5359116 185.410827,28.6799053 C185.396591,28.8238989 185.374589,28.9678926 185.346116,29.1118862 C185.346116,29.1689648 185.309878,29.370037 185.238696,29.7151029 C185.166219,30.0614661 185.131275,30.2625383 185.131275,30.3196169 C185.101508,30.4649078 185.073035,30.6076042 185.044562,30.7515979 C185.016089,30.8968888 184.91514,30.968237 184.743008,30.968237 L184.613586,30.968237 C183.953532,30.6517104 183.307714,30.3779927 182.674839,30.1470839 C182.043258,29.9174724 181.354731,29.802018 180.607964,29.802018 C180.033329,29.802018 179.479402,29.8811497 178.94877,30.039413 C178.418138,30.1989735 177.952218,30.4934471 177.549715,30.925428 C177.491475,30.9825066 177.463002,31.0253155 177.463002,31.0538548 C177.434529,31.0836914 177.420292,31.1265003 177.420292,31.1835788 L177.420292,31.9178168 C177.420292,31.9761926 177.441,32.0397574 177.483709,32.1124028 C177.529007,32.183751 177.563951,32.2486131 177.592424,32.3069889 C177.821502,32.5651397 178.130821,32.7532395 178.517794,32.8673966 C178.906061,32.982851 179.243853,33.0684689 179.531171,33.1268447 C180.24817,33.2124625 181.016939,33.2928914 181.836182,33.3642396 C182.654132,33.4368851 183.408664,33.6016346 184.097191,33.8610826 C184.785717,34.1192334 185.359058,34.5084055 185.819802,35.0260043 C186.277957,35.5449004 186.508329,36.293408 186.508329,37.2715271 C186.508329,37.9616589 186.350433,38.5817397 186.035937,39.1278778 C185.718852,39.6753132 185.303407,40.1358335 184.785717,40.5094387 C184.269322,40.8843411 183.686922,41.164545 183.041104,41.3513475 C182.395287,41.5394474 181.755941,41.6315514 181.12436,41.6315514 C179.056191,41.6315514 177.118738,41.1567615 175.309414,40.2071817 C174.90691,40.0346487 174.706306,39.7622283 174.706306,39.3873259 Z M119.658845,21.5553324 C119.630372,21.5838716 119.586368,21.6279778 119.529422,21.6850564 C119.471182,21.7434322 119.415531,21.7862411 119.358585,21.8147804 L119.314581,21.9445044 L119.314581,39.040833 C119.343054,39.0706695 119.371527,39.1134785 119.401294,39.1718543 C119.428473,39.2289329 119.486713,39.3002811 119.573426,39.3871962 C119.601899,39.445572 119.630372,39.4883809 119.658845,39.5169202 C119.687318,39.602538 119.745558,39.6466442 119.832271,39.6466442 L125.5165,39.6466442 L125.819348,39.5169202 C125.904767,39.5169202 126.054897,39.4883809 126.271032,39.4300051 C126.485873,39.3729265 126.716245,39.3158479 126.960853,39.2574721 C127.204167,39.2003936 127.434539,39.143315 127.64938,39.0849392 C127.865515,39.0278606 128.015645,38.9980241 128.101064,38.9980241 C128.159304,38.9409455 128.288726,38.883867 128.489331,38.8254911 C128.69123,38.7684126 128.834888,38.7256037 128.920307,38.6957671 C130.183469,38.0925504 131.275794,37.2649112 132.194692,36.2141466 C133.113591,35.1633821 133.658459,33.9180315 133.830591,32.4793921 L133.830591,31.3559821 C133.830591,29.3997438 133.500564,27.7872743 132.84051,26.5211678 C132.179162,25.2550614 131.280971,24.2548892 130.147231,23.5206513 C129.013491,22.7864133 127.693383,22.2753007 126.185613,21.9873133 C124.677843,21.699326 123.062652,21.5553324 121.340041,21.5553324 L119.658845,21.5553324 Z M119.616135,19.4836398 C119.931926,19.512179 120.247716,19.5264487 120.563507,19.5264487 L121.512173,19.5264487 C122.51649,19.5264487 123.601049,19.4330474 124.763262,19.2462448 C125.926768,19.0594422 126.995797,18.7208625 127.972936,18.2305057 C128.94878,17.7427434 129.760258,17.0876371 130.40737,16.2664841 C131.053187,15.4466282 131.375449,14.3880802 131.375449,13.0934345 C131.375449,11.740413 131.031185,10.6909457 130.342659,9.94114083 C129.652838,9.19393048 128.805121,8.63222547 127.800804,8.25732305 C126.795192,7.88371787 125.696397,7.66059256 124.505711,7.58794711 C123.312437,7.5165989 122.229172,7.48027617 121.252034,7.48027617 L119.917689,7.48027617 C119.859449,7.50881546 119.745558,7.54513818 119.573426,7.58794711 C119.401294,7.63205327 119.314581,7.68264564 119.314581,7.73972421 L119.314581,18.7065929 C119.314581,18.9647437 119.415531,19.2241917 119.616135,19.4836398 Z M113.671767,41.8908697 C113.671767,41.7183368 113.736479,41.5821266 113.864607,41.4809418 C113.995323,41.3810543 114.11698,41.3148951 114.232166,41.2863558 L114.317585,40.639033 C114.317585,40.5248758 114.331821,40.14219 114.360294,39.4948671 C114.390061,38.8475442 114.410769,38.0990366 114.425005,37.2506415 C114.440536,36.4009492 114.454773,35.5525541 114.469009,34.7028618 C114.483245,33.8531695 114.491011,33.1850908 114.491011,32.694734 L114.491011,17.238117 C114.403004,16.3170764 114.274876,15.4323586 114.102744,14.5826663 C113.930612,13.7342712 113.814132,12.8625258 113.757186,11.9700245 L112.594974,4.8027724 C112.594974,4.71715454 112.572972,4.53035195 112.530262,4.24236463 C112.487553,3.95567455 112.465551,3.76757472 112.465551,3.68065962 C112.407311,3.36543025 112.286948,3.06965949 112.099286,2.79594181 C111.912918,2.52352136 111.748552,2.28612641 111.603598,2.08375693 C111.545358,1.99684184 111.502649,1.90473779 111.47547,1.80225581 C111.445703,1.70236832 111.402994,1.62323666 111.346048,1.56486085 C111.230862,1.42086719 111.065202,1.29244041 110.85036,1.17698603 C110.634225,1.0628289 110.526805,0.88899871 110.526805,0.659387194 C110.526805,0.457017723 110.58375,0.357130227 110.698936,0.357130227 L110.74294,0.357130227 L128.361203,6.2712483 C129.911682,6.81868367 131.181315,7.668376 132.17269,8.81902806 C133.164066,9.97097736 133.658459,11.3953471 133.658459,13.0934345 C133.658459,14.0430143 133.492798,14.9004901 133.164066,15.6619701 C132.832744,16.4247474 132.38106,17.1019067 131.806425,17.6908538 C131.23179,18.2823953 130.563971,18.7922107 129.802967,19.2241917 C129.041964,19.6561727 128.246017,20.0155082 127.412537,20.3034956 L127.327118,20.3463045 L127.327118,20.4332196 C127.327118,20.4915954 127.376299,20.5408905 127.477248,20.5836994 C127.576903,20.6278056 127.657145,20.6485615 127.715385,20.6485615 C127.886223,20.7069373 128.058354,20.74326 128.23178,20.7562324 C128.403912,20.7717993 128.576044,20.7938524 128.748175,20.8223916 C129.608834,20.9936273 130.399604,21.3114512 131.117898,21.7719715 C132.00703,22.261031 132.768033,22.8720312 133.399614,23.6062691 C134.031195,24.3405071 134.548885,25.1538767 134.950094,26.0450807 C135.352597,26.9375819 135.641209,27.8806756 135.812047,28.8743616 C135.984178,29.8667503 136.070891,30.8526529 136.070891,31.830772 C136.070891,32.9827213 135.826283,34.0542417 135.338361,35.0479277 C134.849144,36.0416137 134.275803,36.9976797 133.615749,37.9187202 L132.753797,38.9980241 L132.668378,39.0849392 C132.352587,39.3158479 131.979851,39.5597291 131.548875,39.8191771 C131.117898,40.0773279 130.671391,40.3147229 130.211942,40.531362 C129.753787,40.7467039 129.293043,40.9270203 128.834888,41.0710139 C128.374145,41.2150076 127.957405,41.3019227 127.584669,41.330462 C127.44101,41.3590013 127.182165,41.3940267 126.809429,41.4381329 C126.435398,41.4809418 126.034189,41.525048 125.604507,41.5678569 C125.17353,41.6106659 124.769733,41.6534748 124.396996,41.6962837 C124.02426,41.7403899 123.765415,41.7611457 123.623051,41.7611457 C122.674385,41.8480608 121.719248,41.8766001 120.75764,41.8480608 C119.794738,41.8195215 118.840896,41.8324939 117.893524,41.8908697 C117.806811,41.8908697 117.628208,41.9051394 117.355127,41.9336787 C117.082046,41.962218 116.786963,41.9985407 116.471173,42.0426468 C116.155382,42.0854558 115.860299,42.1282647 115.588512,42.1723709 C115.315431,42.2151798 115.121298,42.2359356 115.007406,42.2359356 L114.705852,42.2359356 C114.590666,42.2359356 114.390061,42.2151798 114.102744,42.1723709 C113.814132,42.1282647 113.671767,42.0348634 113.671767,41.8908697 Z M138.4819,20.001498 C138.4819,19.5409778 138.611322,19.1881284 138.870167,18.9442473 C139.127717,18.6990689 139.457744,18.5758311 139.858954,18.5758311 C140.261457,18.5758311 140.55654,18.6406931 140.742908,18.7704171 C140.93057,18.9001411 141.023755,19.1660754 141.023755,19.5695171 C141.023755,19.9729588 140.91504,20.3322943 140.700199,20.6488209 C140.485358,20.9666447 140.18898,21.1236108 139.816244,21.1236108 C139.443508,21.1236108 139.127717,21.0159399 138.870167,20.800598 C138.611322,20.5839589 138.4819,20.3180246 138.4819,20.001498 Z M137.965505,41.3735304 C138.107869,41.2295367 138.251528,41.0712734 138.396481,40.8974432 C138.538846,40.7262075 138.638501,40.5394049 138.696741,40.3370354 L138.696741,39.8830014 C138.696741,39.6676595 138.704506,39.4445342 138.718743,39.2149227 C138.731685,38.9840139 138.73945,38.7608886 138.73945,38.5442495 L138.73945,38.0915126 L138.73945,35.760372 L138.73945,35.1117519 C138.73945,34.7965225 138.731685,34.4579428 138.718743,34.0986073 C138.704506,33.7379745 138.696741,33.4006921 138.696741,33.0828682 L138.696741,32.3927364 L138.136342,30.2341287 C138.136342,30.1770502 138.129871,30.1186744 138.115635,30.0602986 C138.100104,30.00322 138.093633,29.9604111 138.093633,29.9318718 L137.362397,25.3123994 C137.33263,25.1385692 137.275684,25.0529514 137.188971,25.0529514 C137.103552,25.0529514 136.988366,25.0244121 136.844707,24.9660363 C136.816234,24.9660363 136.72305,24.9232274 136.565155,24.8376095 C136.405966,24.7506944 136.298545,24.6936158 136.242893,24.6637793 C136.184653,24.6067008 136.162652,24.570378 136.178182,24.5561084 C136.191125,24.5418387 136.19889,24.5197857 136.19889,24.4912464 C136.19889,24.34855 136.242893,24.2110425 136.328312,24.0813185 C136.413731,23.9515945 136.527623,23.8867324 136.672576,23.8867324 C136.93142,23.8867324 137.1825,24.0099703 137.427108,24.2538514 C137.670422,24.4990298 137.907265,24.6637793 138.136342,24.7506944 C138.281295,24.8090702 138.503902,24.8946881 138.804162,25.0088452 C139.105716,25.1255968 139.285613,25.196945 139.342558,25.2254843 C139.400798,25.2838601 139.543163,25.3409387 139.773535,25.3980173 C140.003907,25.4563931 140.146271,25.499202 140.204511,25.5277413 C140.261457,25.5861171 140.354641,25.6211426 140.485358,25.6354122 C140.613486,25.6496819 140.678197,25.7145439 140.678197,25.8299983 L140.850329,40.4226533 C140.935747,40.5679442 141.015989,40.7184241 141.088466,40.8766874 C141.158354,41.0349507 141.195886,41.1997002 141.195886,41.3735304 C141.195886,41.4876875 141.0807,41.5746026 140.850329,41.6316812 C140.619957,41.690057 140.362406,41.7328659 140.075089,41.7614052 C139.787771,41.7899445 139.508219,41.8055113 139.235138,41.8055113 L138.696741,41.8055113 L138.265765,41.8055113 C138.06516,41.7471355 137.965505,41.6316812 137.965505,41.4591482 L137.965505,41.3735304 Z M146.321787,35.0262638 L146.321787,34.8965398 C146.321787,34.1778687 146.271313,33.4501169 146.170363,32.715879 C146.069414,31.9829383 145.905047,31.285023 145.674676,30.6221333 C145.589257,30.3925218 145.481836,30.1551268 145.352414,29.9099484 C145.221697,29.6660673 145.101335,29.4286723 144.986149,29.1977635 C144.841196,28.6217889 144.713068,28.1340266 144.597882,27.7292876 C144.482696,27.3271432 144.310564,26.8380836 144.081487,26.262109 C144.024541,26.1181153 143.922297,25.9676354 143.779933,25.8080749 C143.636274,25.6498116 143.506852,25.527871 143.391666,25.4409559 C143.191061,25.2969623 142.990456,25.1970748 142.789852,25.138699 C142.587953,25.0816204 142.487004,24.9233571 142.487004,24.663909 L142.487004,24.4913761 C142.602189,24.4342975 142.745848,24.404461 142.91798,24.404461 C143.148352,24.404461 143.363193,24.4771065 143.563797,24.6211001 C143.764402,24.7650938 143.979243,24.8377392 144.210909,24.8377392 C144.439987,24.8377392 144.656122,24.8299558 144.856726,24.8156862 C145.056037,24.8014165 145.272172,24.7936331 145.502544,24.7936331 C145.61773,24.7936331 145.739387,24.8520089 145.868809,24.966166 C145.998231,25.0816204 146.090121,25.1828051 146.148361,25.268423 L147.267865,27.2544977 C147.297632,27.3699521 147.412818,27.4283279 147.613422,27.4283279 L147.698841,27.4283279 C147.870973,26.3334572 148.417135,25.5564103 149.336034,25.09589 C149.394274,25.0673507 149.493929,25.0167584 149.638882,24.9454102 L150.069858,24.7287711 C150.212223,24.6574228 150.348116,24.5860746 150.477539,24.5134292 C150.608255,24.442081 150.700145,24.3914886 150.758385,24.3616521 L150.930517,24.3188432 L151.404202,24.3188432 C151.63328,24.3188432 151.905067,24.3408962 152.223446,24.3837052 C152.537942,24.4265141 152.861498,24.4913761 153.192819,24.5782912 C153.520258,24.663909 153.823106,24.7793634 154.096187,24.9233571 C154.369268,25.0673507 154.591875,25.2411809 154.762712,25.4409559 L154.762712,27.6864787 C154.762712,27.715018 154.757535,27.8019331 154.742005,27.9459268 C154.727768,28.0899204 154.713532,28.2546699 154.699295,28.4414725 C154.685059,28.6295723 154.663057,28.8098887 154.634584,28.9811244 C154.604817,29.1549546 154.591875,29.2989483 154.591875,29.4131054 C154.591875,29.4429419 154.576344,29.4857509 154.547871,29.5428294 C154.519398,29.6012053 154.505162,29.6440142 154.505162,29.6725535 C154.505162,29.70239 154.490925,29.7309293 154.462452,29.7581713 L154.462452,29.8022775 L154.160898,29.8022775 L153.816635,28.3779077 C153.788162,28.3208292 153.758395,28.2481837 153.731216,28.1612686 C153.701449,28.0756508 153.65874,28.017275 153.6005,27.9887357 C153.370128,27.9316571 153.142344,27.9018206 152.911973,27.9018206 L152.223446,27.9018206 L151.404202,27.9018206 C150.657436,27.9887357 150.075035,28.2987761 149.659589,28.8306446 C149.242849,29.3638103 148.977534,29.9605408 148.862348,30.6221333 C148.862348,30.7090484 148.832581,30.895851 148.775635,31.1838383 C148.718689,31.4718256 148.668214,31.7740826 148.625505,32.0906092 C148.582796,32.4071358 148.532321,32.7236624 148.475375,33.040189 C148.417135,33.3567156 148.388662,33.5876244 148.388662,33.7303208 C148.388662,33.7886966 148.382191,33.8898814 148.36666,34.0325778 C148.352424,34.1778687 148.344658,34.2647838 148.344658,34.2920258 L148.344658,39.9920993 C148.344658,40.1075536 148.402898,40.2009549 148.518084,40.2723031 C148.631976,40.3449486 148.761398,40.4162968 148.905057,40.487645 C149.048716,40.5602905 149.178138,40.6472056 149.293324,40.7470931 C149.40851,40.8482778 149.465456,40.9702184 149.465456,41.114212 C149.465456,41.1998299 149.40851,41.2659891 149.293324,41.3087981 C149.178138,41.351607 149.048716,41.3879297 148.905057,41.416469 C148.761398,41.4450083 148.61774,41.4592779 148.475375,41.4592779 L148.173821,41.4592779 L146.364497,41.4592779 C146.306257,41.4592779 146.205307,41.4372248 146.062943,41.3944159 C145.91799,41.351607 145.832571,41.3295539 145.805392,41.3295539 L145.674676,41.3295539 C145.646203,41.3295539 145.631966,41.3152843 145.631966,41.286745 L145.545253,41.2439361 L145.545253,40.8119551 C145.545253,40.7548765 145.624201,40.7042841 145.78339,40.660178 C145.939991,40.617369 146.047412,40.5239677 146.105652,40.3799741 L146.321787,35.0262638 Z M159.630545,34.5949314 C159.630545,35.1709061 159.709493,35.7598531 159.867388,36.364367 C160.025283,36.968881 160.268597,37.5163163 160.599918,38.0053759 C160.929945,38.4957327 161.331155,38.8978772 161.806134,39.2144038 C162.27982,39.5309304 162.832454,39.6891937 163.464035,39.6891937 C164.986041,39.6891937 166.436866,39.2144038 167.813919,38.2648239 C167.843686,38.2362847 167.908398,38.1856923 168.009347,38.1130468 C168.109002,38.0416986 168.159477,37.9768366 168.159477,37.919758 L168.159477,31.5295528 C168.159477,31.471177 168.137475,31.406315 168.094766,31.3349668 C168.052056,31.2636186 168.015818,31.2130262 167.987345,31.1844869 C167.556369,30.6655908 166.967497,30.3062553 166.22073,30.1051831 C165.473964,29.9028136 164.7712,29.8016289 164.109852,29.8016289 C163.478271,29.8016289 162.889399,29.9313529 162.344531,30.1908009 C161.798369,30.450249 161.324683,30.8030983 160.92218,31.2480517 C160.519676,31.6955996 160.203886,32.205415 159.976103,32.7813896 C159.744437,33.3573643 159.630545,33.9618782 159.630545,34.5949314 Z M154.892393,33.1264555 C154.892393,32.2352515 155.064525,31.3635061 155.408788,30.5138137 C155.754346,29.6654186 156.220266,28.916911 156.809138,28.2695882 C157.396715,27.6222653 158.086537,27.1033692 158.877307,26.7154944 C159.665489,26.3263224 160.519676,26.1330336 161.438575,26.1330336 C162.156869,26.1330336 162.810452,26.2264349 163.399323,26.4132375 C163.986901,26.60004 164.626247,26.8088957 165.317362,27.0385072 C165.603386,27.096883 165.847994,27.1682313 166.048599,27.2551463 L168.116768,28.3344502 L168.159477,28.3344502 C168.186656,27.9893843 168.208657,27.3783842 168.224188,26.4988553 C168.23713,25.6219209 168.252661,24.693097 168.266898,23.7149778 C168.281134,22.7355615 168.29537,21.8080347 168.309607,20.9298031 C168.325138,20.0515715 168.331609,19.4392741 168.331609,19.0942082 L168.331609,6.185371 C168.274663,6.07121387 168.194421,5.99078497 168.094766,5.94797605 C167.993816,5.90516712 167.894161,5.86884439 167.793212,5.83900787 C167.692262,5.81176582 167.599078,5.7754431 167.51366,5.73133693 C167.426947,5.68852801 167.384237,5.59642395 167.384237,5.45113305 C167.384237,5.33697591 167.41271,5.25006082 167.47095,5.19168501 C167.556369,5.19168501 167.756974,5.16444296 168.072764,5.10606716 C168.389849,5.04898859 168.60469,5.01915206 168.718581,5.01915206 C168.747054,5.01915206 168.791058,5.01266586 168.848004,4.99839622 C168.906244,4.98412658 168.948953,4.97634314 168.97872,4.97634314 L172.251811,4.06957223 L172.768206,4.06957223 L172.768206,4.58846832 L170.313065,27.2123374 C170.254825,27.4704882 170.227646,27.701397 170.227646,27.9024692 L170.227646,28.6367072 L170.227646,29.0258792 L170.398483,29.3709451 L170.398483,39.3869367 C170.398483,39.5023911 170.492962,39.6022786 170.67933,39.6891937 C170.865698,39.7761088 170.958882,39.9486417 170.958882,40.2080898 L170.958882,40.4662406 C170.843696,40.5246164 170.77122,40.5531556 170.744041,40.5531556 C170.685801,40.5816949 170.564144,40.6322873 170.377776,40.7036355 C170.190113,40.776281 169.997274,40.8476292 169.795375,40.9189774 C169.594771,40.9916228 169.401931,41.0642683 169.214269,41.1356165 C169.027901,41.208262 168.890713,41.2588543 168.805294,41.2873936 C168.661636,41.1433999 168.547744,40.9994063 168.461031,40.8554126 C168.374318,40.711419 168.259132,40.5959646 168.116768,40.5103467 L167.813919,40.5103467 C167.498129,40.5103467 167.24705,40.5894784 167.060681,40.7477417 C166.874313,40.906005 166.651707,41.0279456 166.394156,41.1135634 C165.445491,41.4599266 164.468352,41.6324595 163.464035,41.6324595 C162.94764,41.6324595 162.451952,41.5611113 161.976972,41.4158204 C161.50458,41.2718267 161.052896,41.1135634 160.62192,40.9410305 C159.7302,40.5959646 158.877307,40.2080898 158.058064,39.7761088 C157.23882,39.3441278 156.556765,38.6968049 156.011896,37.8328429 C155.896711,37.66031 155.803527,37.4371847 155.732344,37.163467 C155.661162,36.8910466 155.596451,36.6821909 155.538211,36.5381972 C155.366079,35.9622226 155.215949,35.3940314 155.085233,34.8323264 C154.957104,34.2706214 154.892393,33.7037274 154.892393,33.1264555 Z" id="Combined-Shape" fill="#0097C8"></path>
            </g>
        </g>
    </g>
</svg>