<?xml version="1.0" encoding="UTF-8"?>
<svg width="130px" height="141px" viewBox="0 0 130 141" version="1.1" xmlns="http://www.w3.org/2000/svg" xmlns:xlink="http://www.w3.org/1999/xlink">
    <!-- Generator: Sketch 52.6 (67491) - http://www.bohemiancoding.com/sketch -->
    <title>logo_21</title>
    <desc>Created with Sketch.</desc>
    <g id="Page-1" stroke="none" stroke-width="1" fill="none" fill-rule="evenodd">
        <g id="Artboard" transform="translate(-191.000000, -2918.000000)">
            <g id="logo_21" transform="translate(191.000000, 2918.000000)">
                <path d="M6.42113333,45.1954743 C7.85067719,46.0624223 9.13516842,47.0418542 10.2759754,48.1351415 L9.83944912,48.7167649 C8.70639649,47.613418 7.45018596,46.5983206 6.07172982,45.6705582 L6.42113333,45.1954743 Z M5.59004561,44.5370327 L5.44818596,52.9111291 L4.85839649,53.0652227 L4.98794035,45.4140403 C3.67790526,47.5960425 2.18815088,49.5046085 0.517308772,51.1406529 L0.227203509,50.6404202 C2.49787018,48.3916594 4.36530877,45.8452281 5.8295193,42.9988401 L0.674677193,44.3454445 L0.68425614,43.7917135 L10.092607,41.3335317 L10.0830281,41.88772 L6.46127368,42.8342297 C6.35772982,43.0614835 6.21085263,43.3472654 6.02018596,43.6929472 C5.85141404,44.0089077 5.70772982,44.2905744 5.59004561,44.5370327 L5.59004561,44.5370327 Z" id="Fill-1" fill="#000000"></path>
                <path d="M17.4919333,48.5051491 L17.6041439,41.8900977 L14.7008105,42.6486772 L14.7085649,42.1786231 L17.6128105,41.4200436 L17.636986,39.9504386 C16.6640386,40.32447 15.7540386,40.654148 14.9110912,40.9385582 L14.8650211,40.4945674 C17.038986,39.7670809 19.0482842,38.945858 20.8910912,38.0327275 L20.9905298,38.4863206 C20.2091614,38.8672108 19.2448807,39.2947405 18.0990561,39.7698244 L18.0730561,41.2997865 L21.2874772,40.4602735 L21.2797228,40.9303277 L18.0653018,41.7702979 L17.9530912,48.3844348 L20.1708456,47.8050977 L20.2100737,45.503753 L18.6030912,45.9235095 L18.6103895,45.4539126 L20.2187404,45.0336989 L20.2520386,43.0460284 L18.4730912,43.5105955 L18.4808456,43.0409986 L20.7104596,42.4584608 L20.5996175,48.9527979 L20.1498632,49.0703114 L20.1630912,48.2637205 L15.3521789,49.5197892 L15.3384947,50.3277519 L14.8882842,50.4448082 L14.9918281,44.3482795 C15.7088807,43.9925381 16.3962842,43.5092238 17.0540386,42.8978791 L17.3149509,43.2371594 C16.6293719,43.8087232 16.0030912,44.2444835 15.4361088,44.543983 L15.4069158,46.2911393 L17.0253018,45.8681821 L17.0166351,46.3382362 L15.3987053,46.7611935 L15.3594772,49.0625381 L17.4919333,48.5051491 Z M13.2470912,49.7223515 C13.2361439,50.364332 12.9451263,50.7607687 12.3731263,50.9098325 C12.138214,50.9720187 11.8704596,51.0095133 11.5716877,51.0232308 L11.5164947,50.4978493 C11.8503895,50.5069943 12.1459684,50.477273 12.4032316,50.4105143 C12.6531965,50.3446702 12.7813719,50.143937 12.7868456,49.8069429 L12.8438632,46.4443185 C12.3758632,46.7744537 11.8941789,47.0927005 11.3983544,47.3981442 L11.2783895,46.9253466 C11.8526702,46.6080143 12.3772316,46.2746783 12.8525298,45.926253 L12.9068105,42.7332687 L11.3746351,43.1338206 L11.3823895,42.6642238 L12.9145649,42.2636718 L12.9578982,39.7213558 L13.4186,39.6006415 L13.3757228,42.1434148 L14.4900737,41.8526031 L14.4818632,42.3226572 L13.3675123,42.6134689 L13.3168807,45.6011475 C13.7634421,45.285187 14.1812667,44.9477357 14.5717228,44.5897081 L14.7030912,45.0112936 C14.2551614,45.4004142 13.7903544,45.7735311 13.3077579,46.132016 L13.2470912,49.7223515 Z" id="Fill-3" fill="#000000"></path>
                <path d="M28.1697684,40.251447 L30.8016982,39.5637413 L30.7934877,40.0470557 L28.1611018,40.7343041 L28.1697684,40.251447 Z M28.1583649,38.9601699 L30.8126456,38.26652 L30.8039789,38.7493772 L28.1501544,39.4430271 L28.1583649,38.9601699 Z M27.3254526,43.4554053 L30.3984702,42.6529297 L30.4176281,41.5006569 L27.3450667,42.3035898 L27.3254526,43.4554053 Z M27.2962596,45.1888442 L30.3688211,44.3859113 L30.3898035,43.1357868 L27.3176982,43.9382624 L27.2962596,45.1888442 Z M26.871593,42.4270476 L23.8099789,43.227237 L23.7903649,44.3785952 L26.8519789,43.5788631 L26.871593,42.4270476 Z M26.8442246,44.0621775 L23.7826105,44.8614524 L23.7616281,46.1124913 L26.8232421,45.3123019 L26.8442246,44.0621775 Z M23.7096281,41.4165227 L26.3415579,40.7292744 L26.3333474,41.2116742 L23.7009614,41.8998371 L23.7096281,41.4165227 Z M23.6658386,40.1334762 L26.3634526,39.4288523 L26.354786,39.9121667 L23.6571719,40.6167906 L23.6658386,40.1334762 Z M27.2853123,45.8326537 C27.2743649,46.4682327 27.5521544,46.7124048 28.1173123,46.5647127 L30.9476632,45.8253377 C31.4685754,45.6890768 31.7536632,44.817099 31.8033825,43.2103187 L32.2513123,43.2656461 C32.1842596,45.0827619 31.7541193,46.0955731 30.9613474,46.3022505 L28.0762596,47.0567148 C27.2168912,47.2807679 26.7958737,46.9140525 26.8118386,45.9565687 L26.8145754,45.7956163 L23.2908912,46.71652 L23.3556632,42.8655514 L30.8883649,40.8970855 L30.8226807,44.7485114 L27.2880491,45.6717013 L27.2853123,45.8326537 Z M27.4750667,37.8934031 L31.8905053,36.7402159 L31.8535579,38.9313631 L31.3910316,39.0525346 L31.4197684,37.3437873 L27.4664,38.3762603 L27.4189614,41.1993285 L26.978786,41.3145557 L27.0262246,38.4910303 L23.0176632,39.5381353 L22.9889263,41.2477971 L22.5259439,41.3675969 L22.5633474,39.1759924 L27.0344351,38.0086304 L27.0485754,37.1540281 L23.040014,38.2011331 L23.0477684,37.718276 L31.4840842,35.514783 L31.4758737,35.9976402 L27.489207,37.0392581 L27.4750667,37.8934031 Z" id="Fill-5" fill="#000000"></path>
                <path d="M4.45626316,56.0444421 L9.38577193,54.7572803 L9.36068421,56.2145395 L4.43117544,57.5026158 L4.45626316,56.0444421 Z M4.11278947,59.3009843 L9.94180702,57.777881 L9.91763158,59.2241661 L8.27826316,59.6526104 L8.20938596,63.7006542 C8.2052807,63.9658598 8.24542105,64.0874886 8.33117544,64.0646261 L8.47029825,64.0285032 C8.66370175,63.9786629 8.77545614,63.6805352 8.80601754,63.1373209 L8.87991228,61.906401 L10.0731754,61.9786466 C9.96187719,63.5424453 9.77850877,64.5099886 9.52307018,64.8808193 C9.36935088,65.1291066 9.10707018,65.3014903 8.73577193,65.3984275 L7.97492982,65.597789 C7.58173684,65.7002132 7.30850877,65.6714064 7.15478947,65.5118258 C6.98738596,65.3234383 6.90664912,65.0248534 6.91394737,64.6151564 L6.99240351,59.9882327 L6.30636842,60.1679324 C6.24022807,61.5442581 6.05321053,62.7212224 5.74531579,63.696539 C5.42191228,64.7326699 4.83440351,65.8062955 3.98415789,66.9155866 L2.79591228,65.8950022 C3.48285965,65.1871775 4.00878947,64.4148804 4.37096491,63.5758247 C4.68296491,62.7907246 4.87089474,61.7742554 4.93521053,60.52596 L4.08815789,60.7472695 L4.11278947,59.3009843 Z M0.166719298,57.3686412 L4.12054386,56.3366255 L4.09773684,57.6736277 L2.81233333,58.0101645 L2.77903509,59.9493663 L3.84001754,59.6722722 L3.81629825,61.0696315 L2.75531579,61.3471829 L2.72110526,63.3595449 C3.15854386,63.1167446 3.59050877,62.8647992 4.01426316,62.6018799 L3.98735088,64.1917419 C2.85840351,64.9109978 1.60949123,65.6055622 0.239701754,66.2745206 L-0.000228070175,64.6576807 C0.479631579,64.4606055 0.952649123,64.2488983 1.4192807,64.0230162 L1.45896491,61.686006 L0.258403509,61.9992229 L0.282578947,60.6018636 L1.48222807,60.2881894 L1.51552632,58.3480731 L0.14345614,58.7061006 L0.166719298,57.3686412 Z" id="Fill-7" fill="#000000"></path>
                <path d="M13.7399053,55.250517 L18.4012035,54.0328574 L18.4107825,53.454892 L13.7499404,54.6720944 L13.7399053,55.250517 Z M13.7102561,56.9976734 L18.3720105,55.7800138 L18.3829579,55.141234 L13.7212035,56.3593509 L13.7102561,56.9976734 Z M13.6815193,58.7205955 L18.3428175,57.5029359 L18.3528526,56.8883904 L13.6920105,58.1060501 L13.6815193,58.7205955 Z M13.6495895,60.6127005 L18.3108877,59.3945836 L18.3232035,58.6593239 L13.6614491,59.8774407 L13.6495895,60.6127005 Z M19.8909579,51.7360852 L19.7682561,59.0136935 L20.8930982,58.7201383 L20.8698351,60.105609 L18.0732386,60.8362963 C18.9266772,60.8216642 19.9073789,60.8527573 21.0153439,60.9314045 L20.3156246,62.6017427 C19.0042211,62.3365371 17.7790281,62.192503 16.6418702,62.1700977 L17.2905018,61.0402302 L14.5896947,61.7457687 L15.2296596,62.394608 C13.9748175,63.4421702 12.7231684,64.2693374 11.4756246,64.8747378 L10.8680456,63.582089 C11.8779404,63.1824516 12.9142912,62.6236907 13.9793789,61.9062638 L11.0436596,62.6721594 L11.0673789,61.2871458 L12.1917649,60.9931334 L12.3153789,53.7150679 L19.8909579,51.7360852 Z" id="Fill-10" fill="#000000"></path>
                <path d="M22.3860456,53.7233899 L26.114993,52.7494451 L26.1651684,49.7978893 L27.8364667,49.3607573 L27.7862912,52.3127703 L31.7191333,51.2853271 L31.6922211,52.8756464 L27.8670281,53.8761117 C28.0216596,54.7787254 28.3715193,55.559253 28.9152386,56.21678 C29.6478,57.0649808 30.6622561,57.6552919 31.9576947,57.9890852 L30.9865719,59.8619857 C30.0546772,59.4815528 29.2176596,58.9525133 28.4750632,58.2748672 C27.8588175,57.7001025 27.3265018,56.815779 26.8772035,55.6209819 C26.5647474,56.8148644 26.1355193,57.8340771 25.5876947,58.6813634 C24.9299404,59.7161226 24.0117298,60.7920344 22.8339754,61.9072698 L21.8829228,60.7522535 C23.1742561,59.6562227 24.1722912,58.4751431 24.8765719,57.2117584 C25.4120807,56.2400998 25.776993,55.2935901 25.9699404,54.3708574 L22.3586772,55.3141664 L22.3860456,53.7233899 Z" id="Fill-12" fill="#000000"></path>
                <path d="M37.7701088,49.2731937 L37.7796877,48.7427825 L35.4223544,49.3586997 L35.4136877,49.8886537 L37.7701088,49.2731937 Z M37.7454772,50.7185644 L37.7546,50.1886104 L35.3977228,50.8040703 L35.3886,51.3344816 L37.7454772,50.7185644 Z M35.3735474,52.2380097 L35.3648807,52.7807668 L37.7213018,52.1648496 L37.7304246,51.6225498 L35.3735474,52.2380097 Z M34.7810211,47.5109481 L36.0084947,47.5260373 C35.9400737,47.7596926 35.8648105,47.9874037 35.7831614,48.2091705 L37.9475474,47.6430936 C37.8453719,47.3659995 37.7322491,47.1199984 37.6077228,46.9041759 L39.1417228,46.3710211 C39.2361439,46.6664053 39.3200737,46.9649903 39.3935123,47.264947 L42.5221789,46.4478393 L42.5039333,47.5082045 L39.0646351,48.4067029 L39.0555123,48.9371142 L42.1093719,48.139211 L42.0938632,49.0546277 L39.0400035,49.8534453 L39.0313368,50.3833994 L42.0847404,49.585039 L42.0687754,50.4885671 L39.0158281,51.2864702 L39.0067053,51.82877 L42.6494421,50.8767733 L42.6293719,52.0336185 L38.6016526,53.0862105 L38.5907053,53.7131017 L42.8446702,52.6010671 L42.8250561,53.7460238 L39.9103193,54.5078041 C40.1639333,54.6408642 40.4403544,54.7332289 40.7377579,54.782612 C41.3758982,54.9037835 42.1472316,54.9229881 43.0517579,54.8383966 L42.2667404,56.4831288 C41.1861439,56.4213999 40.3395474,56.2348415 39.7264947,55.9234535 C39.2758281,55.6971142 38.8890211,55.4099605 38.5678982,55.0619924 L38.5209158,57.8452798 L37.150214,58.2037646 L37.1967404,55.4328231 C36.7816526,56.0213052 36.3460386,56.5306829 35.8908105,56.9609562 C35.1249509,57.649119 34.3038982,58.2430882 33.4276526,58.7442354 L32.8615825,57.5005124 C34.0238281,56.9490676 35.0054421,56.3093734 35.807793,55.5796006 L32.999793,56.3134886 L33.0189509,55.1689892 L37.2200035,54.0711293 L37.2300386,53.4446953 L33.9727404,54.2951824 L34.0178982,51.5964865 C33.8281439,51.8776959 33.6283544,52.1543328 33.4176175,52.4259399 L32.9724246,50.958164 C33.7870912,49.9298063 34.3901088,48.7807343 34.7810211,47.5109481 L34.7810211,47.5109481 Z" id="Fill-14" fill="#000000"></path>
                <path d="M46.6960456,48.1765227 L51.2729579,46.9817256 C50.4550982,46.5395639 49.6919754,45.9908626 48.985414,45.3351645 C48.2989228,46.3548344 47.5362561,47.3013442 46.6960456,48.1765227 L46.6960456,48.1765227 Z M46.6121158,53.7161196 L51.1256246,52.5382408 L51.1539053,50.8628728 L46.6408526,52.0412089 L46.6121158,53.7161196 Z M52.6673789,49.1125157 L52.5811684,54.1729134 L51.091414,54.5620341 L51.1023614,53.8994773 L46.5902211,55.0782706 L46.5783614,55.7403701 L45.0890632,56.1294908 L45.1752737,51.0690931 L52.6673789,49.1125157 Z M48.4102211,43.9862738 L49.6431684,43.664369 C50.7894491,44.8605379 52.2459053,45.6195747 54.0120807,45.9419367 L53.3397298,47.8331272 C52.8229228,47.6886358 52.3243614,47.5025346 51.8445018,47.2752808 L51.8271684,48.2762035 L45.9534491,49.8098236 L45.9689579,48.9062955 C45.5424667,49.3219367 45.098186,49.7215741 44.6361158,50.1061223 L43.9687825,48.5651861 C45.7249228,47.3543853 47.2050982,45.8280812 48.4102211,43.9862738 L48.4102211,43.9862738 Z" id="Fill-16" fill="#000000"></path>
                <polygon id="Fill-18" fill="#E0106C" points="44.3525333 38.3219389 65.5192702 32.4014518 59.3814456 63.2526396 77.3447088 22.0959269 55.8513754 27.5335568 61.6192702 0.456976732"></polygon>
                <path d="M29.1123368,70.9604754 L28.3998456,88.2235327 C28.2725825,91.1284489 27.7046877,93.4147043 26.6966175,95.0845852 C25.6885474,96.7535517 24.1385825,97.965267 22.0462667,98.7183596 C20.0173544,99.4476751 18.091986,99.4513331 16.2701614,98.7279619 C14.4483368,98.0045906 13.2194947,96.7535517 12.5827228,94.9757595 C12.1115298,93.6588764 11.9236,91.828043 12.0203018,89.482345 L12.2547579,83.678457 C12.3455298,81.4799938 12.2707228,80.0410246 12.0276,79.3629213 C11.7986175,78.723227 11.3374596,78.2792362 10.6436702,78.0304916 C9.94942456,77.7822043 9.22005614,77.7954646 8.45419649,78.071187 C7.20391579,78.5206648 6.2601614,79.4854646 5.62247719,80.9637573 C4.98479298,82.4429646 4.90451228,83.8476399 5.38072281,85.1782405 C5.66535439,85.9715712 6.06584561,86.5280457 6.58310877,86.8462925 C7.10037193,87.1663682 7.86805614,87.3373801 8.88433684,87.3611572 C9.96174035,87.3931648 10.6486877,87.8248098 10.9465474,88.655635 C11.2028982,89.373062 11.1422316,90.0685409 10.7654596,90.746187 C10.3891439,91.4229186 9.79251228,91.9085192 8.97556491,92.2020744 C7.35535439,92.7850695 5.73240702,92.6081134 4.10763509,91.6689196 C2.48240702,90.7306404 1.32609123,89.3017308 0.6396,87.3831052 C-0.358435088,84.5934164 -0.188294737,81.780865 1.15138947,78.9445365 C2.49152982,76.1082081 4.55784561,74.1872963 7.35261754,73.1813439 C9.47002105,72.4186491 11.4510386,72.4104186 13.2947579,73.1552806 C15.1384772,73.8996853 16.3992491,75.2188547 17.0766175,77.1123314 C17.5076702,78.3144445 17.6796351,79.8636112 17.5943368,81.7575452 L17.2608982,90.0008677 C17.2111789,91.1883488 17.2960211,92.0886761 17.5158807,92.7027643 C17.7448632,93.3420014 18.1444421,93.7869067 18.7168982,94.0361085 C19.2884421,94.2848531 19.9188281,94.2857676 20.6076,94.0379375 C21.4879509,93.7210625 22.1105825,93.1577292 22.4759509,92.347023 C22.8413193,91.5372313 23.0575298,90.2395528 23.1241263,88.4539873 L23.8630737,70.6618904 C23.9068632,69.3756431 24.1075649,68.4876615 24.4651789,67.9979456 C24.822793,67.508687 25.5877404,67.0518931 26.7623018,66.6298504 L30.8963018,65.1424126 C32.6570035,64.5091199 33.7531088,64.7939873 34.1832491,65.9961004 C34.5039158,66.891398 34.4437053,67.6888439 34.0030737,68.388438 C33.5624421,69.0884894 32.7801614,69.641306 31.6576,70.0450587 L29.1123368,70.9604754 Z" id="Fill-21" fill="#000000"></path>
                <path d="M49.9143895,83.1446163 L52.2115123,82.3183636 C53.8326351,81.7353685 54.8466351,82.0129199 55.2544246,83.1514751 C55.5335825,83.93246 55.4642491,84.6430281 55.0459684,85.2845514 C54.6272316,85.9265319 53.9138281,86.4285936 52.9057579,86.7911937 L48.9044947,88.2310774 C48.125407,88.510915 47.3864596,88.5095433 46.6876526,88.2269621 C45.9888456,87.944381 45.5112667,87.4446055 45.2544596,86.7276358 C45.0984596,86.2932473 45.0437228,85.5758203 45.089793,84.5776412 L45.2763544,79.7874789 C45.2996175,79.288618 45.2686,78.9017835 45.1855825,78.6288047 C45.0884246,78.3165022 44.8699333,78.0997652 44.5305649,77.9763074 C44.1916526,77.8533068 43.8176175,77.8642808 43.4089158,78.0110584 C42.0947754,78.4852278 41.3909509,79.8574383 41.296986,82.1299762 L41.0306,88.5081715 C40.9585298,90.4400574 40.2533368,91.646743 38.9141088,92.1291429 C38.3658281,92.3262181 37.8403544,92.3275898 37.3390561,92.1323436 C36.8373018,91.9375547 36.4997579,91.5973598 36.3255123,91.1113019 C36.197793,90.7537316 36.145793,90.28825 36.1713368,89.7157716 L36.1964246,89.1218025 L36.6411614,78.1733826 C36.6954421,76.7531607 37.3212667,75.8272273 38.5204596,75.3955823 C39.5020737,75.0416699 40.3596175,75.2245703 41.0917228,75.9429118 C42.0815474,74.4028902 43.1954421,73.4088263 44.4324947,72.963921 C45.6316877,72.532276 46.7446702,72.5217592 47.7700737,72.9328279 C48.7963895,73.3434394 49.4997579,74.0796136 49.8801789,75.1418079 C50.0904596,75.73029 50.1812316,76.4271407 50.1524947,77.2314453 L49.9143895,83.1446163 Z" id="Fill-23" fill="#000000"></path>
                <path d="M60.6350561,77.9005409 C61.1555123,78.3495614 61.5897579,78.6042503 61.9364246,78.6678082 C62.2821789,78.7304516 62.7688807,78.6499754 63.3942491,78.4245506 C64.3001439,78.0989878 64.8871965,77.5050187 65.1549509,76.6431004 C65.6986702,74.901431 65.7118982,73.3083682 65.1941789,71.8625403 C64.7498982,70.6211036 63.9402491,70.2123212 62.7656877,70.6343639 C61.4775474,71.098931 60.819793,72.1798726 60.7947053,73.8790176 C60.7901439,74.0683195 60.7901439,74.2269857 60.7928807,74.356845 L60.6350561,77.9005409 Z M60.4676526,82.3811442 L59.8824246,96.4973996 C59.8021439,98.4462037 59.0992316,99.6588336 57.7718632,100.136661 C57.2614421,100.320476 56.7633368,100.30813 56.2780035,100.100081 C55.7931263,99.8915744 55.4656175,99.5513796 55.2959333,99.0776675 C55.1540737,98.6812308 55.0984246,98.0227892 55.128986,97.1023428 L56.1931614,70.9850755 C56.2529158,69.6640771 56.8636877,68.7948428 58.0254772,68.3773726 C58.8296526,68.0874754 59.6046351,68.2420262 60.351793,68.8396534 C60.9060035,67.5716962 61.8269509,66.7056626 63.1160035,66.2424673 C64.4566,65.7596101 65.7205649,65.8798672 66.9078982,66.6000376 C68.0952316,67.3211226 68.986986,68.5127189 69.581793,70.1752838 C70.7089158,73.3230003 70.6514421,76.2393477 69.4084596,78.9256978 C69.0043193,79.8081924 68.5071263,80.49224 67.9173368,80.9778406 C67.3284596,81.464813 66.4266702,81.9257221 65.2142491,82.3623969 C63.9128807,82.8301648 62.9841789,83.0642773 62.4290561,83.0606193 C61.8730211,83.0597048 61.2193719,82.8319938 60.4676526,82.3811442 L60.4676526,82.3811442 Z" id="Fill-25" fill="#000000"></path>
                <path d="M77.5968632,73.1842246 L79.6066175,72.4608534 C81.2281965,71.8783155 82.2431088,72.1558669 82.649986,73.2939648 C82.9296,74.0744924 82.8630035,74.7850606 82.4511088,75.4242976 C82.0387579,76.0635346 81.3226175,76.5665108 80.3008632,76.9341407 L76.8547228,78.1737484 C75.9100561,78.5139432 75.0835298,78.5587538 74.3746877,78.3081802 C73.6653895,78.0576066 73.1754947,77.5560022 72.9054596,76.8001661 C72.7626877,76.4041867 72.7120561,75.6785292 72.7526526,74.623651 L73.6567228,52.77025 L73.6818105,52.1771953 C73.7561614,50.5333777 74.4371789,49.479414 75.7266877,49.0157614 C76.2626526,48.8228014 76.7831088,48.8378907 77.2876,49.060572 C77.7925474,49.2837105 78.1346526,49.6444816 78.3130035,50.142428 C78.4503018,50.5265189 78.5105123,50.9961158 78.4931789,51.5507614 L78.4680912,52.1447305 L77.5968632,73.1842246 Z" id="Fill-27" fill="#000000"></path>
                <path d="M96.3734702,66.4286142 L98.5935053,65.6297965 C99.4738561,65.3133788 100.145751,65.2191851 100.609646,65.3481299 C101.073996,65.4775319 101.412909,65.8428755 101.628663,66.4432462 C101.907821,67.2237738 101.842137,67.9366282 101.433435,68.5818095 C101.022909,69.2274481 100.307681,69.733625 99.2872947,70.1007976 L95.8612246,71.334461 C94.7892947,71.7194665 93.9262772,71.5617148 93.2712596,70.8584627 C92.8671193,71.942605 92.1354702,72.6751212 91.0772246,73.0560114 L88.2829088,74.0610492 C87.1608035,74.4661737 86.1025579,74.4497127 85.1109088,74.0116661 C84.1192596,73.5749913 83.4309439,72.8186981 83.0459614,71.7437008 C82.8261018,71.1296126 82.7353298,70.3532002 82.7741018,69.4153782 L83.0824526,62.0719259 C83.1732246,60.0321288 83.850593,58.7847478 85.1136456,58.329783 C85.6623825,58.1327078 86.1915053,58.1413956 86.6991895,58.3553891 C87.2091544,58.5693826 87.5544526,58.9319827 87.7369088,59.4436466 C87.8751193,59.8272803 87.9303123,60.3051077 87.9056807,60.8771288 L87.8801368,61.4706407 L87.6361018,67.1245503 L87.6315404,67.7756759 C87.6361018,68.1506218 87.6611895,68.4226861 87.7086281,68.5923263 C87.8883474,69.1780649 88.3613649,69.3326158 89.1267684,69.0568934 C90.7091193,68.4880731 91.5329088,67.4697749 91.5976807,66.0024562 L91.8745579,59.2328539 C91.9475404,57.1848263 92.6354,55.9269286 93.9367684,55.4587035 C94.4722772,55.2662008 94.9954702,55.279461 95.5063474,55.5003133 C96.0176807,55.7207083 96.3629789,56.0801077 96.5413298,56.5794259 C96.6836456,56.9758626 96.737014,57.6493934 96.7032596,58.6000184 L96.3734702,66.4286142 Z" id="Fill-29" fill="#000000"></path>
                <path d="M110.145853,60.3039646 L110.336063,55.9472762 C110.348835,55.5814754 110.319186,55.2961507 110.245747,55.0917595 C110.107993,54.7081258 109.82473,54.4493217 109.395502,54.3144326 C108.964905,54.1809153 108.495081,54.2056069 107.985116,54.3889646 C107.065993,54.7200143 106.377677,55.5627281 105.920168,56.9189348 C105.462204,58.2751415 105.443502,59.5408125 105.865432,60.7177768 C106.346204,62.060266 107.211046,62.5070003 108.462239,62.0570652 C109.547396,61.6665728 110.107537,61.0822059 110.145853,60.3039646 L110.145853,60.3039646 Z M109.684695,71.6876875 L106.374028,72.8792838 C105.225467,73.293096 104.422204,73.8555149 103.965151,74.5697411 C103.507642,75.2830528 103.43694,76.0818704 103.752589,76.964365 C103.967888,77.5656502 104.368379,77.9991242 104.953151,78.2661588 C105.537467,78.532279 106.149151,78.5496545 106.787747,78.3201144 C107.706414,77.9895219 108.379677,77.3351956 108.807081,76.3585073 C109.235396,75.3813617 109.528239,73.8239646 109.684695,71.6876875 L109.684695,71.6876875 Z M114.69494,65.1640863 L116.991607,64.3373764 C118.611361,63.7548385 119.622625,64.0259884 120.026309,65.1521978 C120.305467,65.9313536 120.237046,66.6455798 119.821046,67.2935046 C119.405046,67.9409721 118.692554,68.4466918 117.68494,68.8088347 L114.507923,69.9524196 L114.411677,72.2180988 C114.176765,77.7192865 112.183432,81.1440971 108.432589,82.4939023 C106.467537,83.201727 104.613782,83.1825225 102.87087,82.4376604 C101.127958,81.6923412 99.9296772,80.4056366 99.2742035,78.5766323 C98.8486246,77.3859505 98.7646947,76.1564023 99.0233263,74.8857016 C99.2815018,73.6159153 99.8498526,72.4769029 100.726554,71.4677497 C101.809432,70.226313 103.492133,69.1942973 105.776484,68.3726172 L109.89087,66.8924954 L109.947888,65.1823764 C109.319326,65.9578742 108.646063,66.4736534 107.931747,66.7310858 C106.566063,67.2221734 105.290239,67.1476415 104.103361,66.505661 C102.915116,65.864595 102.049818,64.7831962 101.50473,63.2605501 C100.624835,60.805569 100.694168,58.283372 101.711361,55.6930446 C102.729011,53.1045463 104.309537,51.4236913 106.45294,50.6523087 C108.022063,50.0871464 109.378625,50.1772248 110.523537,50.9202578 C110.757081,49.6815647 111.422589,48.8639997 112.519607,48.469392 C113.055572,48.2768893 113.57466,48.2892351 114.07687,48.5046004 C114.579081,48.7213374 114.920274,49.0784505 115.098168,49.5777687 C115.240484,49.9737481 115.291572,50.6413347 115.2528,51.5786994 L114.69494,65.1640863 Z" id="Fill-31" fill="#000000"></path>
                <path d="M33.5815544,102.227716 L32.8188877,120.972267 C32.6309579,125.516428 32.3709579,128.652256 32.0393439,130.380665 C31.708186,132.110446 31.0663965,133.73826 30.1148877,135.264564 C28.7035895,137.475373 26.7408175,139.033685 24.2270281,139.938127 C21.5348877,140.906585 19.0466421,140.845313 16.7618351,139.754312 C14.4770281,138.663768 12.8472386,136.756117 11.8720105,134.031815 C10.5852386,130.436907 10.7795544,126.815936 12.4545018,123.167072 C13.3526421,121.212324 14.7092035,119.410754 16.524186,117.76145 C18.3391684,116.112145 20.2864316,114.913233 22.3664316,114.16517 C23.3617298,113.806685 24.2493789,113.743584 25.0307474,113.974953 C25.8121158,114.20678 26.3334842,114.686436 26.5953088,115.415752 C26.8785719,116.209082 26.7732035,116.962175 26.2792035,117.6732 C26.0055193,118.075124 25.3340807,118.53329 24.2653439,119.046782 C21.7958,120.195397 19.9566421,121.514567 18.747414,123.003833 C17.7297649,124.264932 17.0688175,125.657261 16.7650281,127.182194 C16.4607825,128.706212 16.5588526,130.165757 17.057414,131.559001 C17.5701158,132.991111 18.3519404,133.987919 19.4028877,134.549423 C20.4533789,135.109556 21.6224667,135.158024 22.9110632,134.694372 C24.4423263,134.142927 25.5439053,132.996141 26.2162561,131.2531 C26.888607,129.509144 27.3023263,126.7254 27.4596947,122.900952 L28.2223614,104.155486 L24.4902211,105.497976 C22.7295193,106.131726 21.6247474,105.821709 21.1763614,104.567927 C20.8739404,103.724299 20.9492035,102.950173 21.402607,102.245091 C21.8564667,101.540925 22.6382912,100.988565 23.7480807,100.588928 L36.3229579,96.0653431 L36.820607,95.8865579 L38.2693088,95.7109735 C38.9106421,95.8129405 39.3663263,96.2404702 39.6359053,96.9953918 C39.9383263,97.83902 39.8630632,98.6140606 39.4092035,99.3182273 C38.9558,100.022394 38.1744316,100.57521 37.0650982,100.973933 L33.5815544,102.227716 Z" id="Fill-33" fill="#000000"></path>
                <path d="M47.129014,117.015124 L49.2920316,116.23734 C50.9008386,115.65846 51.9079965,115.938755 52.315786,117.076853 C52.5954,117.856924 52.5288035,118.567035 52.1173649,119.205357 C51.705014,119.845051 50.9875053,120.348485 49.9666632,120.715657 L46.9232947,121.810317 C45.8002772,122.214527 44.8346281,122.302319 44.0245228,122.073236 C43.215786,121.845068 42.669786,121.333861 42.3856105,120.540988 C42.2341719,120.11803 42.175786,119.533206 42.2104526,118.785143 L42.579014,109.86006 L42.5972596,109.247343 C42.666593,107.591637 43.3517158,106.528985 44.6535404,106.061675 C45.1890491,105.868715 45.7154351,105.881518 46.2336105,106.099169 C46.7508737,106.317278 47.0989088,106.675763 47.2777158,107.174624 C47.4241368,107.583406 47.476593,108.271569 47.4341719,109.23957 L47.129014,117.015124 Z M43.7061368,99.4937202 C44.4459965,99.2280574 45.1671544,99.2609794 45.8696105,99.5924865 C46.5716105,99.9244508 47.0560316,100.462178 47.3215053,101.203382 C47.5869789,101.945043 47.554593,102.667957 47.2229789,103.372124 C46.8913649,104.075376 46.3558561,104.561434 45.6159965,104.827554 C44.8761368,105.094589 44.1545228,105.060295 43.4525228,104.728788 C42.7500667,104.396366 42.267014,103.859554 42.0006281,103.117435 C41.7356105,102.375774 41.7679965,101.653317 42.0996105,100.94915 C42.4307684,100.245441 42.9667333,99.7602976 43.7061368,99.4937202 L43.7061368,99.4937202 Z" id="Fill-36" fill="#000000"></path>
                <path d="M75.4622632,106.825238 L77.7402281,106.006302 C79.3490351,105.427879 80.3571053,105.708174 80.7644386,106.845815 C81.0445088,107.625428 80.9783684,108.335539 80.5655614,108.973861 C80.1527544,109.613098 79.443,110.113331 78.4349298,110.475931 L74.5481579,111.874205 C73.7056667,112.176905 72.9425439,112.198853 72.2597018,111.939134 C71.5750351,111.679873 71.1029298,111.185127 70.8420175,110.456726 C70.6632105,109.957866 70.5929649,109.218491 70.6308246,108.238601 L70.8561579,103.198323 C70.8671053,102.905682 70.8333509,102.650993 70.7553509,102.433799 C70.4574912,101.602517 69.8877719,101.337768 69.0452807,101.640926 C68.3943684,101.875038 67.8552105,102.401334 67.427807,103.218442 C66.9999474,104.036464 66.7691404,105.001264 66.7344737,106.110098 L66.4867895,112.174162 C66.3982982,114.141256 65.6839825,115.365317 64.3442982,115.846802 C63.8211053,116.03519 63.3120526,116.023301 62.8185088,115.811137 C62.3245088,115.598515 61.9933509,115.256034 61.8236667,114.783236 C61.691386,114.412406 61.6316316,113.942809 61.6434912,113.374903 L61.6690351,112.781391 L61.9153509,106.65194 C61.9367895,106.110555 61.899386,105.705888 61.8040526,105.437024 C61.7032456,105.155815 61.4870351,104.955081 61.1567895,104.834824 C60.8251754,104.716854 60.4880877,104.71914 60.1437018,104.842598 C58.7652456,105.338715 58.0317719,106.728301 57.9423684,109.011356 L57.6741579,115.322792 C57.5906842,117.301775 56.8850351,118.530409 55.5576667,119.007779 C55.0344737,119.196166 54.5240526,119.188393 54.0259474,118.984916 C53.5282982,118.78144 53.1925789,118.43713 53.0183333,117.950157 C52.8805789,117.566981 52.8203684,117.097384 52.8377018,116.542738 L52.8632456,115.948769 L53.3061579,105.180049 C53.3700175,103.670206 53.9379123,102.721867 55.0102982,102.336404 C56.121,101.937224 56.9981579,102.213404 57.6417719,103.165858 C58.2443333,102.111894 58.7725439,101.366118 59.2273158,100.927614 C59.683,100.490025 60.3060877,100.128339 61.0974912,99.8434716 C62.8071053,99.2284689 64.3579825,99.5147081 65.7492105,100.704018 C66.6418772,98.6939424 67.9824737,97.3665425 69.7696316,96.7241047 C70.9943684,96.2833147 72.1461228,96.2700544 73.2235263,96.6834094 C74.3009298,97.0972216 75.0252807,97.8224218 75.3961228,98.8580955 C75.6301228,99.5105928 75.7300175,100.232592 75.6971754,101.024094 L75.4622632,106.825238 Z" id="Fill-38" fill="#000000"></path>
                <path d="M84.6287228,97.9633009 L86.7333544,97.2060931 C88.0981263,96.7154627 88.6546175,96.1759064 88.4010035,95.5883387 C88.1195649,94.9244102 87.5585123,94.743796 86.7164772,95.0464962 C85.5423719,95.4689962 84.8467579,96.4415693 84.6287228,97.9633009 L84.6287228,97.9633009 Z M84.9594246,101.785463 C85.3033544,102.744775 86.1960211,102.96517 87.6374246,102.446648 L93.3213895,100.401364 C94.9283719,99.822941 95.935986,100.103236 96.3437754,101.240877 C96.6233895,102.021861 96.5563368,102.731515 96.1448982,103.369838 C95.7330035,104.009989 95.0159509,104.512508 93.9951088,104.880138 L88.5793544,106.828485 C86.5636702,107.553685 84.8513193,107.605812 83.4409333,106.987608 C82.0310035,106.368948 80.982793,105.100533 80.2949333,103.181907 C79.4109333,100.713666 79.4811789,98.2842911 80.5056702,95.8956115 C81.5297053,93.5051028 83.1909684,91.8969508 85.4876351,91.0706981 C87.1584772,90.4694129 88.6582667,90.4246023 89.9860912,90.935809 C91.3139158,91.4465584 92.234407,92.4191315 92.7475649,93.8507846 C93.3656351,95.5773647 93.1220561,97.1091558 92.0154596,98.4457008 C91.4069684,99.1987933 90.3304772,99.8535768 88.7864421,100.408222 L84.9594246,101.785463 Z" id="Fill-40" fill="#000000"></path>
                <path d="M81.4594596,128.697067 C80.0691439,129.825562 79.0711088,130.793563 78.3914596,131.588265 C77.7095298,132.38251 77.3546526,133.002085 77.203214,133.398979 C77.0996702,133.666014 77.0837053,133.827424 77.0832491,133.912015 C77.0910035,134.033644 77.0941965,134.020384 77.1366175,134.092172 C77.1799509,134.155273 77.3053895,134.27553 77.5010737,134.387099 C77.7939158,134.564055 78.2158456,134.691628 78.4530386,134.748785 C78.9401965,134.697115 79.3311088,134.58829 79.6545123,134.444255 C80.0267228,134.277359 80.3195649,134.066109 80.5854947,133.7881 C81.1114246,133.239399 81.5415649,132.351417 81.7869684,131.11501 C81.9507228,130.296531 82.0314596,129.340876 82.0314596,128.301087 L82.0314596,128.243473 C81.8325825,128.396653 81.6414596,128.548917 81.4594596,128.697067 L81.4594596,128.697067 Z M78.0799158,138.577805 C78.0156,138.569117 77.6862667,138.519277 77.2123368,138.383931 C76.7388632,138.246755 76.1203368,138.030933 75.4685123,137.634953 C75.0351789,137.369748 74.5817754,137.019036 74.1831088,136.527949 C73.6476,135.883682 73.2489333,134.936258 73.2580561,133.912015 C73.2580561,133.283295 73.3912491,132.645887 73.6357404,132.015338 C73.8806877,131.383417 74.2341965,130.751496 74.6999158,130.096255 C75.6345474,128.787602 77.021214,127.371038 79.0496702,125.720362 C79.829214,125.087527 80.7054596,124.4332 81.6419158,123.770643 C81.2122316,120.986442 80.4796702,118.062321 79.7215649,115.523206 C78.5351439,111.526831 77.3040211,108.450446 77.1717404,108.124426 C77.1648982,108.105679 77.1612491,108.097905 77.160793,108.096076 L80.7008982,106.643847 C80.7223368,106.706033 83.5754947,113.659907 85.0356,121.000159 C85.0638807,121.145565 85.0921614,121.290056 85.1204421,121.435919 C86.8665474,120.312453 88.6637404,119.216423 90.3208982,118.233333 C94.0981965,115.995546 97.1479509,114.345327 97.1620912,114.336639 L98.977986,117.710695 C98.977986,117.711152 98.8771789,117.765108 98.6814947,117.871647 C98.4871789,117.978187 98.2011789,118.135938 97.8390035,118.336672 C97.1160211,118.738138 96.0892491,119.313817 94.8827579,120.007467 C92.4706877,121.392938 89.3370035,123.251663 86.4811088,125.117248 C86.2265825,125.28323 85.9738807,125.450127 85.7248281,125.615652 C85.8083018,126.524667 85.8552842,127.423622 85.8552842,128.301087 C85.8552842,129.689759 85.7394246,131.029047 85.4447579,132.290603 C85.1496351,133.548501 84.6729684,134.740554 83.9080211,135.773027 C83.3998807,136.458904 82.7590035,137.065219 81.9995298,137.5307 C80.9878105,138.153933 79.7840561,138.510589 78.4731088,138.592894 L78.2746877,138.606155 L78.0799158,138.577805 Z" id="Fill-42" fill="#000000"></path>
                <path d="M109.408182,114.785157 L105.229025,107.144034 L114.718112,99.3076648 L121.103621,110.982657 L109.408182,114.785157 Z M122.687067,111.747363 L114.926295,97.5570333 L116.446154,96.7220928 L124.207382,110.91288 L122.687067,111.747363 Z M119.869123,101.00018 L118.958211,99.332585 L124.757579,96.1450877 C125.180877,95.9132614 125.710456,96.0682695 125.941719,96.4921412 L126.015614,96.6265731 C126.246877,97.0486158 126.092246,97.5803988 125.66986,97.8131396 L119.869123,101.00018 Z M123.362337,107.386971 L122.450968,105.719834 L128.251705,102.533251 C128.673179,102.301425 129.20367,102.456433 129.434933,102.879847 L129.508828,103.014279 C129.739635,103.437236 129.58546,103.968562 129.163074,104.200846 L123.362337,107.386971 Z M100.201218,117.040136 L98.3812175,113.710434 L105.033568,108.913413 L107.814656,113.998502 L100.201218,117.040136 Z" id="Combined-Shape" fill="#E0106C"></path>
            </g>
        </g>
    </g>
</svg>