<?xml version="1.0" encoding="UTF-8"?>
<svg width="64px" height="72px" viewBox="0 0 64 72" version="1.1" xmlns="http://www.w3.org/2000/svg" xmlns:xlink="http://www.w3.org/1999/xlink">
    <!-- Generator: Sketch 52.6 (67491) - http://www.bohemiancoding.com/sketch -->
    <title>logo_13</title>
    <desc>Created with Sketch.</desc>
    <g id="Page-1" stroke="none" stroke-width="1" fill="none" fill-rule="evenodd">
        <g id="Artboard" transform="translate(-610.000000, -1805.000000)" fill="#000000">
            <g id="logo_13" transform="translate(610.000000, 1805.000000)">
                <path d="M47.0888219,65.7928421 L47.0888219,40.8391579 C50.8315826,38.6526316 54.2483055,35.9658947 56.9595667,32.5458947 L56.9595667,65.7928421 L47.0888219,65.7928421 Z M6.37223797,65.7928421 L6.37223797,63.9303158 C6.37223797,63.7086316 6.34745148,63.4926316 6.30169179,63.2823158 C6.32838494,63.1515789 6.3588914,63.0227368 6.36651801,62.8844211 C6.37033132,62.82 7.01859348,57.0751579 16.2429828,52.5997895 L16.2429828,65.7928421 L6.37223797,65.7928421 Z M16.2429828,6.20715789 L16.2429828,27.9303158 C16.2429828,28.1595789 16.2715826,28.3812632 16.3192489,28.5972632 C12.648941,29.9254737 9.14069875,31.6023158 6.37223797,33.12 L6.37223797,6.20715789 L16.2429828,6.20715789 Z M40.9188914,10.7658947 C40.9093581,11.9141053 41.0561704,16.7892632 37.5078884,20.016 C33.4314634,23.7221053 28.3387921,25.1166316 22.4376997,26.7309474 C22.4281665,26.7328421 22.4205399,26.7366316 22.4129132,26.7385263 L22.4129132,0 L0.204214137,0 L0.204214137,37.8625263 C0.204214137,38.0008421 0.227093979,38.1353684 0.244253859,38.2698947 C0.143201228,39.0543158 0.337679877,39.8766316 0.852476302,40.5530526 C1.46069875,41.3526316 2.37779904,41.7694737 3.30443261,41.7694737 C3.95841473,41.7694737 4.61811682,41.5610526 5.17867293,41.1309474 C7.45712377,39.3745263 14.8911655,35.2894737 21.5873323,33.4023158 C22.4224465,33.1673684 23.2461208,32.9437895 24.0564485,32.7202105 C30.4437375,30.9732632 36.4744823,29.3229474 41.6434197,24.6221053 C46.8428636,19.8928421 47.0888219,13.4621053 47.0697553,10.8037895 C47.071662,10.7621053 47.0888219,10.5934737 47.0888219,10.5517895 L47.0888219,6.20715789 L56.9595667,6.20715789 L56.9595667,13.7387368 C56.7536481,33.1673684 39.8988318,38.3494737 25.0097752,42.9176842 C22.7275111,43.6187368 20.571086,44.28 18.5233403,44.9810526 C1.13275436,50.9229474 0.238533899,62.0242105 0.209934098,62.4941053 C0.192774217,62.7669474 0.221374018,63.0284211 0.272853661,63.2861053 C0.229000632,63.4945263 0.204214137,63.7086316 0.204214137,63.9303158 L0.204214137,72 L22.4129132,72 L22.4129132,50.2351579 C23.8219301,49.7804211 25.2748,49.3256842 26.809656,48.8557895 C31.2540652,47.4915789 36.173231,45.9776842 40.9188914,43.9275789 L40.9188914,72 L63.1294972,72 L63.1294972,15.516 L63.1294972,13.7387368 C63.1294972,13.6174737 63.1371238,13.5056842 63.1371238,13.3844211 C63.1371238,13.3522105 63.1294972,13.3218947 63.1294972,13.2877895 L63.1294972,0 L40.9188914,0 L40.9188914,10.5517895 L40.9188914,10.7658947 Z" id="Fill-1"></path>
            </g>
        </g>
    </g>
</svg>