<?xml version="1.0" encoding="UTF-8"?>
<svg width="104px" height="62px" viewBox="0 0 104 62" version="1.1" xmlns="http://www.w3.org/2000/svg" xmlns:xlink="http://www.w3.org/1999/xlink">
    <!-- Generator: Sketch 52.6 (67491) - http://www.bohemiancoding.com/sketch -->
    <title>logo_15</title>
    <desc>Created with Sketch.</desc>
    <g id="Page-1" stroke="none" stroke-width="1" fill="none" fill-rule="evenodd">
        <g id="Artboard" transform="translate(-204.000000, -2193.000000)" fill="#000000">
            <g id="logo_15" transform="translate(204.000000, 2193.000000)">
                <path d="M85.7890094,26.6135808 L78.8410087,26.6135808 L71.6271286,26.6135808 L77.9531611,14.3156375 L77.9550603,14.3203371 C79.356625,11.4385354 82.3373239,9.44965984 85.7890094,9.44965984 C90.5862349,9.44965984 94.4747224,13.2920622 94.4747224,18.0320903 C94.4747224,22.7711785 90.5862349,26.6135808 85.7890094,26.6135808 L85.7890094,26.6135808 Z M26.0458893,47.6847587 L26.0439902,47.6800591 C24.6424254,50.5618608 21.6617265,52.5507364 18.2100411,52.5507364 C13.4128155,52.5507364 9.52432807,48.708334 9.52432807,43.9683059 C9.52432807,39.2292177 13.4128155,35.3868154 18.2100411,35.3868154 L25.1580417,35.3868154 L32.3719219,35.3868154 L26.0458893,47.6847587 Z M86.1754842,0.295756665 C79.1192326,0.295756665 73.0239454,4.36186049 70.1600435,10.2523535 L70.1543461,10.2438942 L61.7345126,26.6135808 L59.5163181,26.6135808 L46.7778421,26.6135808 L60.4487954,0.0570164036 L57.2145614,0.00156098853 C53.5482732,-0.0623537272 49.2191855,2.51209342 47.5517413,5.75294548 L36.8130588,26.6135808 L25.1580417,26.6135808 L17.8235662,26.6135808 C8.01641157,26.6135808 0.0666149939,34.4685114 0.0666149939,44.1591102 C0.0666149939,53.849709 8.01641157,61.7046395 17.8235662,61.7046395 C24.8798178,61.7046395 30.975105,57.6385357 33.8399565,51.7480427 L33.8447043,51.756502 L42.2645378,35.3868154 L44.4827324,35.3868154 L57.2212084,35.3868154 L43.550255,61.9433798 L46.784489,61.9988352 C50.4507772,62.0627499 54.779865,59.4883028 56.4473092,56.2474507 L67.1859916,35.3868154 L78.8410087,35.3868154 L86.1754842,35.3868154 C95.9826389,35.3868154 103.932435,27.5318849 103.932435,17.841286 C103.932435,8.15068724 95.9826389,0.295756665 86.1754842,0.295756665 L86.1754842,0.295756665 Z" id="logo"></path>
            </g>
        </g>
    </g>
</svg>