<?xml version="1.0" encoding="UTF-8"?>
<svg width="246px" height="44px" viewBox="0 0 246 44" version="1.1" xmlns="http://www.w3.org/2000/svg" xmlns:xlink="http://www.w3.org/1999/xlink">
    <!-- Generator: Sketch 52.6 (67491) - http://www.bohemiancoding.com/sketch -->
    <title>logo_4</title>
    <desc>Created with Sketch.</desc>
    <defs>
        <linearGradient x1="0%" y1="48.9419425%" x2="100%" y2="48.9419425%" id="linearGradient-1">
            <stop stop-color="#304256" offset="0%"></stop>
            <stop stop-color="#3A596B" offset="100%"></stop>
        </linearGradient>
        <radialGradient cx="50%" cy="50%" fx="50%" fy="50%" r="81.7860117%" gradientTransform="translate(0.500000,0.500000),scale(1.000000,0.848565),translate(-0.500000,-0.500000)" id="radialGradient-2">
            <stop stop-color="#FF7100" offset="0%"></stop>
            <stop stop-color="#FF7202" offset="2%"></stop>
            <stop stop-color="#FF8F2C" offset="45%"></stop>
            <stop stop-color="#FFA045" offset="80%"></stop>
            <stop stop-color="#FFA74F" offset="100%"></stop>
        </radialGradient>
        <radialGradient cx="49.9820209%" cy="50%" fx="49.9820209%" fy="50%" r="115.138439%" gradientTransform="translate(0.499820,0.500000),scale(1.000000,0.685870),translate(-0.499820,-0.500000)" id="radialGradient-3">
            <stop stop-color="#FF7100" offset="0%"></stop>
            <stop stop-color="#FF7202" offset="2%"></stop>
            <stop stop-color="#FF8F2C" offset="45%"></stop>
            <stop stop-color="#FFA045" offset="80%"></stop>
            <stop stop-color="#FFA74F" offset="100%"></stop>
        </radialGradient>
    </defs>
    <g id="Page-1" stroke="none" stroke-width="1" fill="none" fill-rule="evenodd">
        <g id="Artboard" transform="translate(-131.000000, -677.000000)">
            <g id="logo_4" transform="translate(131.000000, 677.000000)">
                <path d="M31.6955625,-3.55271368e-15 L77.228625,-3.55271368e-15 L59.7088125,43.5214035 L48.292875,43.5214035 L62.3071875,8.70736842 L26.90625,8.70736842 L31.6955625,-3.55271368e-15 Z M41.97375,16.7354386 L37.7840625,25.1108772 L13.4300625,25.1108772 L18.204,16.7354386 L41.97375,16.7354386 Z M43.649625,35.1536842 L39.682875,43.5214035 L7.10542736e-15,43.5214035 L4.966125,35.1536842 L43.649625,35.1536842 Z M122.100563,7.4722807 L116.750062,21.7992982 L118.810312,21.7992982 L117.941625,24.2 L110.830687,24.2 L114.743625,32.6912281 L110.315625,32.6912281 L106.395,24.1614035 L101.475,24.1614035 L92.25,32.6989474 L87.806625,32.6989474 L97.031625,24.1536842 L91.11225,24.1536842 L91.9809375,21.7529825 L93.7875,21.7529825 L99.16875,7.4722807 L108.39375,7.4722807 L109.56225,4.24561404 L113.652,4.24561404 L112.445063,7.4722807 L122.100563,7.4722807 Z M117.103688,9.86526316 L111.545625,9.87298246 L107.10225,21.7684211 L112.63725,21.7684211 L117.103688,9.86526316 Z M102.36675,9.86526316 L97.892625,21.7607018 L103.0125,21.7607018 L107.463563,9.86526316 L102.36675,9.86526316 Z M93.2724375,5.94385965 L97.1008125,5.94385965 L86.976375,32.7684211 L73.138875,32.7684211 L83.2325625,5.94385965 L93.2724375,5.94385965 Z M83.9244375,30.1052632 L91.896375,8.90807018 L86.1999375,8.90807018 L82.779,18.0245614 L86.545875,18.0245614 L85.485,20.6877193 L81.7719375,20.6877193 L78.2356875,30.1052632 L83.9244375,30.1052632 Z M126.813,7.36421053 L127.658625,4.48491228 L153.873,4.60070175 L152.135625,7.36421053 L126.813,7.36421053 Z M128.765625,8.82315789 L132.878437,8.82315789 L132.148125,16.8049123 L128.035312,16.8049123 L128.765625,8.82315789 Z M141.280875,8.82315789 L139.38975,15.1375439 L135.276938,15.1375439 L137.160375,8.82315789 L141.280875,8.82315789 Z M145.53975,8.82315789 L149.652562,8.82315789 L145.670437,16.7122807 L141.557625,16.7122807 L145.53975,8.82315789 Z M139.113,16.6196491 L138.536438,18.5263158 L151.07475,18.5340351 L149.483437,20.9501754 L145.870313,20.9424561 L145.778063,32.7684211 L141.66525,32.7684211 L141.7575,20.9424561 L137.798438,20.9424561 L134.193,32.7607018 L130.0725,32.7607018 L133.677938,20.9424561 L130.034063,20.9424561 L125.167875,32.7684211 L121.047375,32.7684211 L125.92125,20.9347368 L122.35425,20.9347368 L123.053813,18.5185965 L134.415938,18.5263158 L135.000188,16.6196491 L139.113,16.6196491 Z M204.110813,32.7684211 L212.582437,20.1087719 L217.74075,20.1087719 L209.261437,32.7684211 L204.110813,32.7684211 Z M235.275937,20.3712281 L240.426562,20.3712281 L241.056938,32.7684211 L235.906313,32.7684211 L235.275937,20.3712281 Z M230.678812,14.9985965 L246,14.9908772 L244.916063,17.9010526 L229.779375,17.9010526 L225.166875,32.7838596 L220.039313,32.7838596 L224.651813,17.9010526 L212.221125,17.9010526 L207.293437,17.9010526 L213.297375,4.24561404 L245.754,4.24561404 L244.808438,6.64631579 L233.277188,6.64631579 L230.678812,14.9985965 Z M225.55125,14.9985965 L228.149625,6.64631579 L217.179563,6.64631579 L213.489562,14.9985965 L225.55125,14.9985965 Z M182.62425,6.90105263 L174.50625,28.2603509 L176.743313,29.8505263 L175.690125,32.7066667 L171.192937,29.4954386 L162.590625,32.6526316 L163.820625,29.2561404 L168.51,27.6042105 L165.435,25.3810526 L171.385125,9.58736842 L168.709875,9.58736842 L169.778437,6.91649123 L172.392187,6.91649123 L173.4915,4.01403509 L177.33525,4.01403509 L176.243625,6.90105263 L182.62425,6.90105263 Z M169.517062,24.7017544 L171.508125,26.0835088 L177.788813,9.55649123 L175.275,9.55649123 L169.517062,24.7017544 Z M199.021687,14.1263158 L186.152812,14.1263158 L182.601187,14.1263158 L186.0375,4.52350877 L190.173375,4.52350877 L203.242125,4.52350877 L206.663062,4.52350877 L203.10375,14.1263158 L199.021687,14.1263158 Z M189.258562,6.94736842 L187.6365,11.6175439 L199.9365,11.6175439 L201.650812,6.98596491 L189.258562,6.94736842 Z M194.140125,18.7115789 L191.388,22.3242105 L203.834063,22.3319298 L202.896187,24.8175439 L197.768625,24.8175439 L200.259375,32.7607018 L195.8775,32.7684211 L193.271437,24.8175439 L189.489188,24.8098246 L183.408375,32.7684211 L178.849688,32.7684211 L184.845937,24.8098246 L177.489,24.8021053 L178.434562,22.3164912 L186.714,22.3164912 L189.435375,18.7115789 L179.841375,18.7192982 L180.77925,16.2336842 L205.1025,16.2105263 L204.164625,18.7038596 L194.140125,18.7115789 Z M109.031813,39.1059649 L106.641,39.1059649 L106.4565,40.2021053 L108.570562,40.2021053 L108.45525,40.8736842 L106.3335,40.8736842 L106.141312,42.0084211 L108.562875,42.0084211 L108.439875,42.68 L105.31875,42.68 L106.0875,38.434386 L109.1625,38.434386 L109.031813,39.1059649 Z M112.960125,38.434386 L115.9275,38.434386 L115.827562,38.9978947 L113.283,42.68 L112.445062,42.68 L114.966562,39.0905263 L112.844813,39.0905263 L112.960125,38.434386 Z M127.6125,39.1059649 L125.221688,39.1059649 L125.0295,40.2021053 L127.15125,40.2021053 L127.035938,40.8736842 L124.914188,40.8736842 L124.714313,42.0084211 L127.135875,42.0084211 L127.020563,42.68 L123.861,42.68 L124.62975,38.434386 L127.758562,38.434386 L127.6125,39.1059649 Z M134.631188,38.434386 L135.399938,38.434386 L134.631188,42.68 L134.016188,42.68 L132.225,39.6617544 L131.694563,42.68 L130.925813,42.68 L131.694563,38.434386 L132.386438,38.434386 L134.1315,41.3677193 L134.631188,38.434386 Z M140.519813,42.68 L139.751062,42.68 L140.366062,39.1291228 L139.028437,39.1291228 L139.14375,38.434386 L142.580062,38.434386 L142.457063,39.1291228 L141.1425,39.1291228 L140.519813,42.68 Z M149.41425,39.1059649 L147.023437,39.1059649 L146.83125,40.2021053 L148.953,40.2021053 L148.837687,40.8736842 L146.715937,40.8736842 L146.516062,42.0084211 L148.937625,42.0084211 L148.822312,42.68 L145.66275,42.68 L146.4315,38.434386 L149.560312,38.434386 L149.41425,39.1059649 Z M155.44125,42.68 L154.6725,41.1978947 L153.75,41.1978947 L153.488625,42.68 L152.719875,42.68 L153.488625,38.434386 L155.372062,38.434386 C155.588307,38.4309281 155.803711,38.4621997 156.010125,38.5270175 C156.17791,38.5804623 156.330704,38.6730473 156.456,38.797193 C156.571753,38.914817 156.654039,39.0614113 156.694313,39.2217544 C156.736911,39.4045486 156.736911,39.5947497 156.694313,39.7775439 C156.66635,39.9436949 156.614562,40.1049014 156.540563,40.2561404 C156.466013,40.3920309 156.372856,40.5167539 156.263813,40.6266667 C156.158881,40.7359385 156.036826,40.8272061 155.9025,40.8968421 C155.764808,40.9750316 155.617486,41.0347233 155.464313,41.074386 L156.325313,42.68 L155.44125,42.68 Z M155.787187,39.2912281 C155.61291,39.1535745 155.393146,39.0873728 155.172187,39.1059649 L154.08825,39.1059649 L153.84225,40.5417544 L154.933875,40.5417544 C155.172319,40.5474017 155.406429,40.4771484 155.602687,40.3410526 C155.776506,40.2205204 155.893273,40.0334788 155.925562,39.8238596 C155.985174,39.6343658 155.931388,39.4273336 155.787188,39.2912281 Z M161.883375,42.68 L161.114625,42.68 L161.729625,39.1291228 L160.392,39.1291228 L160.515,38.434386 L163.943625,38.434386 L163.820625,39.1291228 L162.483,39.1291228 L161.883375,42.68 Z M170.531813,42.68 L169.763063,42.68 L169.494,41.6842105 L167.49525,41.6842105 L166.887938,42.7108772 L166.119188,42.7108772 L168.717563,38.434386 L169.409438,38.434386 L170.531813,42.68 Z M168.902063,39.2989474 L167.887313,40.997193 L169.34025,40.997193 L168.902063,39.2989474 Z M175.79775,38.434386 L175.029,42.68 L174.26025,42.68 L175.029,38.434386 L175.79775,38.434386 Z M182.893313,38.434386 L183.662063,38.434386 L182.893313,42.68 L182.270625,42.68 L180.47175,39.6617544 L179.949,42.68 L179.18025,42.68 L179.949,38.434386 L180.65625,38.434386 L182.409,41.3677193 L182.893313,38.434386 Z M189.26625,41.6378947 L188.289938,39.6463158 L187.7595,42.68 L186.99075,42.68 L187.7595,38.434386 L188.52825,38.434386 L189.466125,40.4414035 L191.103563,38.434386 L191.872313,38.434386 L191.103563,42.68 L190.334812,42.68 L190.86525,39.6385965 L189.26625,41.6378947 Z M199.014,39.1059649 L196.623187,39.1059649 L196.431,40.2021053 L198.545062,40.2021053 L198.42975,40.8736842 L196.315687,40.8736842 L196.115812,42.0084211 L198.537375,42.0084211 L198.422062,42.68 L195.2625,42.68 L196.03125,38.434386 L199.10625,38.434386 L199.014,39.1059649 Z M206.025,38.434386 L206.79375,38.434386 L206.025,42.68 L205.402312,42.68 L203.603438,39.6617544 L203.073,42.68 L202.342688,42.68 L203.111438,38.434386 L203.71875,38.434386 L205.4715,41.3677193 L206.025,38.434386 Z M211.89825,42.68 L211.1295,42.68 L211.752187,39.1291228 L210.406875,39.1291228 L210.529875,38.434386 L213.9585,38.434386 L213.8355,39.1291228 L212.497875,39.1291228 L211.89825,42.68 Z" id="Combined-Shape" fill="url(#linearGradient-1)" fill-rule="nonzero"></path>
                <polygon id="Path" fill="url(#radialGradient-2)" points="12.2308125 21.7607018 3.3594375 21.7607018 16.5204375 0 36.93075 0 22.7780625 16.7354386 33.579 16.7354386 1.62975 42.1473684 0 43.5214035"></polygon>
                <path d="M165.165937,11.0926316 L158.1165,18.8119298 C159.777,18.8119298 160.983937,18.8119298 162.644438,18.8119298 L150.974812,32.8147368 L148.038187,32.7684211 L154.188187,20.9501754 L150.39825,20.9501754 L155.241375,13.3235088 L151.44375,13.3235088 L158.4855,1.64421053 L169.417125,1.69052632 L160.399687,11.0463158 L165.165937,11.0926316 Z" id="Path" fill="url(#radialGradient-3)"></path>
            </g>
        </g>
    </g>
</svg>