<?xml version="1.0" encoding="UTF-8"?>
<svg width="184px" height="84px" viewBox="0 0 184 84" version="1.1" xmlns="http://www.w3.org/2000/svg" xmlns:xlink="http://www.w3.org/1999/xlink">
    <!-- Generator: Sketch 52.6 (67491) - http://www.bohemiancoding.com/sketch -->
    <title>logo_8</title>
    <desc>Created with Sketch.</desc>
    <defs>
        <linearGradient x1="50%" y1="0%" x2="50%" y2="111.20152%" id="linearGradient-1">
            <stop stop-color="#00DBE9" offset="0%"></stop>
            <stop stop-color="#008AC6" offset="100%"></stop>
        </linearGradient>
    </defs>
    <g id="Page-1" stroke="none" stroke-width="1" fill="none" fill-rule="evenodd">
        <g id="Artboard" transform="translate(-548.000000, -1027.000000)">
            <g id="logo_8" transform="translate(548.000000, 1027.000000)">
                <path d="M117.755729,42.9359691 C117.516639,44.0530485 117.144701,45.1355504 116.648324,46.159003 C115.360777,48.9012975 113.358975,51.2220525 110.865766,52.8629136 C106.45949,55.6037066 101.038834,55.9877731 96.309154,53.8942845 C94.3298267,52.957907 92.561822,51.6073259 91.1178801,49.9286635 C89.8443782,48.4643732 88.8514767,46.7654128 88.191525,44.921358 C87.5157618,43.0203009 87.1763432,41.010044 87.1893485,38.9858187 C87.1903149,36.8847266 87.6116241,34.8063401 88.4270364,32.8801031 C89.2700442,30.9014753 90.4802541,29.1112294 91.9897736,27.609798 C93.4011877,26.1498925 95.087609,25.0022194 96.945536,24.2372153 C98.8823544,23.4770814 100.940969,23.0992 103.013714,23.1233348 C105.978749,23.0514281 108.895673,23.9034635 111.381887,25.5676837 C113.838802,27.3370651 115.732189,29.8149082 116.823705,32.6892995 L116.893858,32.8697894 L109.572959,32.8697894 L109.537883,32.8233777 C108.738578,31.7705438 107.708263,30.927582 106.531353,30.3635582 C105.316654,29.8048886 103.998325,29.5250953 102.667963,29.5436184 C100.24991,29.5079567 97.929674,30.5248901 96.2790887,32.3437903 C92.7723105,36.1929229 92.7854879,42.1870047 96.309154,46.0197679 C98.3659336,48.1840435 101.323585,49.1721427 104.223412,48.6637823 C107.123239,48.1554218 109.596202,46.2152972 110.840712,43.4722819 L99.2154656,43.4722819 L99.2154656,38.0782123 L118.106491,38.0782123 L118.106491,38.2071336 C118.106491,38.3257413 118.106491,38.4959175 118.106491,38.7228191 C118.106491,38.9497207 118.106491,39.1250537 118.106491,39.2385045 C118.113141,40.4801131 117.995601,41.7191293 117.755729,42.9359691 Z M146.412964,27.7284057 C147.869374,29.2131609 149.02872,30.9774357 149.825375,32.921358 C150.623863,34.8432892 151.037981,36.9110586 151.043019,39.0012892 C151.055593,41.1252758 150.681688,43.2329138 149.940625,45.2152987 C149.210775,47.1438609 148.105841,48.8986787 146.693573,50.372153 C145.27532,51.9205896 143.560611,53.1497062 141.657637,53.981951 C139.757035,54.8175904 137.711364,55.2474151 135.644578,55.2453803 C133.523723,55.2683528 131.420311,54.8490982 129.46115,54.0128921 C127.557708,53.1785492 125.849325,51.935537 124.450268,50.3669961 C123.074104,48.8761607 121.991831,47.1249013 121.263347,45.2101418 C119.976999,41.7229056 119.817097,37.901847 120.807357,34.3137086 C121.24702,32.8079594 121.907734,31.3802143 122.766611,30.0799312 C125.664374,25.6704756 130.522558,23.0562876 135.694687,23.1233348 C137.673321,23.1227772 139.632254,23.5277299 141.457202,24.3145681 C143.310053,25.1082401 144.993728,26.2680605 146.412964,27.7284057 Z M144.68421,38.903309 C144.7104,36.4310274 143.752628,34.0553508 142.033453,32.3283197 C140.383894,30.5602382 138.09628,29.5744756 135.714731,29.6055006 C133.275587,29.5675506 130.925519,30.5479845 129.200584,32.3231629 C127.455189,34.0427819 126.483927,36.4323752 126.519762,38.9187795 C126.513052,40.1512735 126.725328,41.3746477 127.146122,42.5285776 C127.570226,43.6704235 128.19916,44.7200272 129.000149,45.6226902 C129.864158,46.6001918 130.906034,47.39385 132.066809,47.9587452 C133.178131,48.4902224 134.389059,48.7648098 135.614513,48.7632144 C138.058664,48.8128462 140.407678,47.7888555 142.07354,45.947572 C143.816151,44.0481102 144.755094,41.514597 144.68421,38.903309 Z M183.974536,38.7176622 C183.989569,38.9497207 183.99458,39.1250537 183.999591,39.2436614 C184.007819,40.485089 183.891959,41.724096 183.65384,42.9411259 C183.425924,44.0556197 183.064026,45.1365639 182.5765,46.159003 C181.292312,48.9019998 179.291867,51.2231932 176.798953,52.8629136 C172.392677,55.6037066 166.972021,55.9877731 162.242341,53.8942845 C160.263013,52.957907 158.495009,51.6073259 157.051067,49.9286635 C155.777809,48.4632544 154.783436,46.7646847 154.119701,44.921358 C153.446228,43.0196712 153.106881,41.0098417 153.117524,38.9858187 C153.110788,36.8826995 153.525291,34.8007183 154.335169,32.8697894 C155.179306,30.8948424 156.389455,29.1081897 157.897906,27.609798 C159.308419,26.14876 160.995082,25.0009224 162.853668,24.2372153 C164.790487,23.4770814 166.849102,23.0992 168.921846,23.1233348 C171.886881,23.0514281 174.803805,23.9034635 177.29002,25.5676837 C179.746934,27.3370651 181.640321,29.8149082 182.731838,32.6892995 L182.80199,32.8697894 L175.481091,32.8697894 L175.446015,32.8233777 C174.64671,31.7705438 173.616395,30.927582 172.439486,30.3635582 C171.224787,29.8048886 169.906457,29.5250953 168.576096,29.5436184 C166.158042,29.5079567 163.837806,30.5248901 162.187221,32.3437903 C158.680443,36.1929229 158.69362,42.1870047 162.217286,46.0197679 C163.915795,47.843641 166.27708,48.8549246 168.731433,48.8096261 C172.196002,48.8244865 175.341567,46.7304235 176.748844,43.4722819 L165.123598,43.4722819 L165.123598,38.0730554 L183.974536,38.0730554 L183.974536,38.2019768 C183.974536,38.3205844 183.974536,38.4907606 183.974536,38.7176622 Z M92.7163515,59.6544908 L96.0235337,65.3167168 L92.566025,65.2960894 L89.379104,59.6338633 L92.7163515,59.6544908 Z M104.005869,59.7266867 L107.343116,59.7473141 L103.890619,65.450795 L100.553371,65.4301676 L104.005869,59.7266867 Z M104.391707,74.5320155 L105.163383,71.5152557 L107.904335,71.5307263 L106.556408,77.2651483 L100.122435,77.2238934 L100.172544,69.0244951 L96.8352966,69.0038676 L92.2553503,77.1723249 L88.9932661,77.1516975 L93.5782232,68.9832402 L89.3640714,68.957456 L89.379104,66.1727546 L96.7701551,66.2243232 L96.815253,59.3502364 L99.7566408,59.3708638 L99.7115429,66.2449506 L107.142681,66.2913623 L107.127648,69.0709067 L103.073845,69.0451225 L103.038769,74.5217018 L104.391707,74.5320155 Z M132.111907,69.1534164 L132.096874,71.8504512 L124.705823,71.8040395 L124.670747,77.3837559 L121.729359,77.3682853 L121.764435,71.7834121 L114.528721,71.7370004 L114.548765,69.0399656 L121.779468,69.0863773 L121.784479,67.859046 L124.725866,67.8796734 L124.720855,69.1018479 L132.111907,69.1534164 Z M114.18297,76.9093253 L117.1895,72.3661367 L120.406486,72.3867641 L117.399957,76.9299527 L114.18297,76.9093253 Z M126.128913,72.4280189 L129.426074,72.4486463 L132.30232,77.027933 L129.000149,77.0021487 L126.128913,72.4280189 Z M132.036743,68.4159862 L129.095356,68.3953588 L129.100366,67.291792 L117.580348,67.219596 L117.570327,68.3231629 L114.553776,68.3025355 L114.573819,64.5019338 L132.061798,64.6153846 L132.036743,68.4159862 Z M114.423493,63.0683283 L114.443536,60.3661367 L118.652677,60.3970778 L118.657688,59.4946283 L121.599076,59.5152557 L121.594065,60.4125483 L125.091661,60.4383326 L125.096672,59.5358831 L128.038059,59.5565105 L128.033049,60.4538032 L132.242189,60.4847443 L132.227157,63.1817791 L128.013005,63.1559948 L128.007994,63.9759347 L125.071617,63.9553073 L125.076628,63.1353674 L121.579032,63.11474 L121.574021,63.929523 L118.632634,63.9140524 L118.637645,63.0941126 L114.423493,63.0683283 Z M154.029505,63.6510529 L153.904233,64.3472282 L151.128204,64.3317576 L152.145413,59.7937258 L154.846279,59.8143532 L154.645843,60.8766652 L157.662394,60.8972927 L157.647362,63.6768371 L154.029505,63.6510529 Z M157.471981,66.4151268 L156.058912,69.4731414 L157.727536,69.4834551 L157.712503,72.2629996 L156.043879,72.2526859 L156.008803,77.5900301 L151.719488,77.5642458 L151.734521,74.8414267 L153.087459,74.8517404 L153.102492,72.2320584 L151.118182,72.2217447 L151.133215,69.4422003 L153.042361,69.452514 L153.849113,67.6579287 L151.739532,67.647615 L151.759575,64.8629136 L157.482003,64.9041685 L157.471981,66.4151268 Z M140.560254,70.2724538 L143.461555,70.2879244 L141.667659,77.4972067 L138.766358,77.4765793 L140.560254,70.2724538 Z M139.026924,67.2763214 L139.046967,63.8831113 L142.409269,66.2346369 L142.389226,69.6691018 L139.026924,67.2763214 Z M148.011435,59.8917061 L148.677883,61.3253116 L150.947812,61.3407821 L150.927769,64.1254835 L147.309912,64.0996992 L147.29989,65.734422 L150.642149,65.7550494 L150.566985,77.5539321 L146.793791,77.5281478 L146.808824,74.8104856 L147.64063,74.8156425 L147.680717,68.5191233 L147.124509,68.5139665 L145.641288,77.522991 L142.6999,77.5023636 L144.348481,67.8023206 L144.373535,64.0790718 L143.221032,64.0739149 L143.236065,61.2943704 L145.541071,61.309841 L144.91471,59.8710786 L148.011435,59.8917061 Z M142.63977,61.6140954 L142.619726,65.0073055 L139.452849,62.8620541 L139.472892,59.468844 L142.63977,61.6140954 Z M181.108312,59.9020198 L182.320945,62.7331328 L179.33947,62.7125054 L178.126837,59.8865492 L181.108312,59.9020198 Z M179.830537,73.840997 L180.276505,71.8401375 L182.741859,71.8556081 L181.709618,77.7602063 L179.404612,77.7447357 L177.315074,75.2539751 L175.87194,77.7189514 L172.529682,77.698324 L175.626407,72.4641169 L174.819655,67.3897722 L172.629899,67.7816932 L172.649943,64.8371294 L174.519002,64.4813064 L174.313556,59.7782553 L177.209845,59.7988827 L177.425313,64.0120327 L182.676718,63.1044263 L182.656674,66.0077353 L177.645792,66.832832 L177.906358,69.2874946 L179.073894,67.0855178 L182.255804,67.1113021 L179.159079,72.8560378 L179.830537,73.840997 Z M164.156498,63.0631715 L164.176541,60.283627 L172.439486,60.3351955 L172.414431,64.5896003 L169.673479,70.9531586 L172.29417,77.698324 L169.272608,77.6776966 L167.984812,74.1297808 L166.33122,77.6570692 L163.354756,77.6364418 L166.376318,70.8500215 L164.1114,64.4555221 L167.087864,64.4761495 L168.14516,67.4671251 L169.473043,64.3678556 L169.483065,63.0992694 L164.156498,63.0631715 Z" id="Combined-Shape" fill="#1E334B"></path>
                <path d="M68.9246833,30.4254405 C71.8241584,33.8857564 75.5903258,36.4613526 79.8133301,37.8719381 C78.4904572,41.522991 76.1754297,43.647615 73.1087698,44.5758487 C75.2784818,42.9050279 75.9098529,36.5878814 68.2632468,40.7133648 C68.0477789,26.9290933 49.3722213,38.6351526 65.2015979,41.4301676 C64.5852594,44.1168887 65.5673923,45.1792007 68.5388454,44.2509669 C66.5344925,47.045982 63.8135835,48.3248818 60.521434,48.3764504 C62.4305801,44.1581435 58.5271029,40.4916201 45.3234286,37.7069188 C47.0521829,36.1650193 47.2876944,31.1061453 49.2920472,31.4052428 C36.4742108,29.4817361 21.4866624,39.9037387 18.3799155,54.0954018 L18.2396108,54.1779115 C8.45836898,18.265578 46.7715735,14.7382896 46.7715735,14.7382896 C44.3414722,10.6483494 42.69814,6.11571209 41.9310614,1.38719381 C44.5968507,7.53416416 48.4201537,12.603352 53.6164385,16.3420713 C52.2770614,11.0077341 51.984065,5.45218858 52.7545667,-3.26849658e-13 C53.3709052,6.62140095 55.3652363,12.6136657 59.0432238,17.8220885 L69.5159674,27.5685432 L68.9246833,30.4254405 Z M64.1192473,29.9613236 L66.6196775,29.0382467 L60.4663143,25.4284486 L62.4406018,27.1663086 L64.1192473,29.9613236 Z M45.9948868,51.8057585 L45.9948868,51.8006016 L76.9871926,51.8006016 L63.2724083,84 L33.2622354,84 C13.6245884,84 -1.42108547e-14,67.3175763 -1.42108547e-14,50.2329179 C-1.42108547e-14,37.8719381 7.7818999,21.4886119 25.1496173,19.647615 C16.8465856,25.1138805 11.2794956,36.4228621 13.6696864,48.6342931 C16.0899424,61.0159003 24.4130176,67.6321444 31.8892537,67.8487323 L42.2367252,67.8487323 L52.5090335,67.8487323 C55.5501283,67.7553088 57.9683522,65.1912424 57.9683522,62.0601633 C57.9683522,58.9290842 55.5501283,56.3650178 52.5090335,56.2715943 L39.0848804,56.2715943 L39.5859686,54.2088526 C39.8901016,52.8392325 41.0527098,51.8524044 42.417117,51.8057585 L45.9948868,51.8057585 Z" id="Combined-Shape" fill="url(#linearGradient-1)"></path>
            </g>
        </g>
    </g>
</svg>