<?xml version="1.0" encoding="UTF-8"?>
<svg width="112px" height="95px" viewBox="0 0 112 95" version="1.1" xmlns="http://www.w3.org/2000/svg" xmlns:xlink="http://www.w3.org/1999/xlink">
    <!-- Generator: Sketch 52.6 (67491) - http://www.bohemiancoding.com/sketch -->
    <title>logo_20</title>
    <desc>Created with Sketch.</desc>
    <g id="Page-1" stroke="none" stroke-width="1" fill="none" fill-rule="evenodd">
        <g id="Artboard" transform="translate(-968.000000, -2568.000000)">
            <g id="logo_20" transform="translate(968.000000, 2568.000000)">
                <path d="M2.40425532,72.1518987 L20.7914405,72.1518987 L20.7914405,73.6081267 L12.4646602,73.6081267 L12.4646602,94.7090422 L10.732452,94.7090422 L10.732452,73.6081267 L2.40425532,73.6081267 L2.40425532,72.1518987 Z M29.3571607,94.7087544 L29.3571607,92.2553269 L29.2934245,92.2553269 C28.6149881,93.2453317 27.918139,93.9504223 27.2042936,94.3691598 C26.4876154,94.7907752 25.5797287,94.9994244 24.4778006,94.9994244 C22.9098901,94.9994244 21.6125044,94.4828376 20.584227,93.449664 C19.5573661,92.4164905 19.0432274,90.9516288 19.0432274,89.0579569 L19.0432274,79.854366 L20.6012234,79.854366 L20.6012234,89.0248608 C20.6012234,90.4033848 20.9708933,91.4854831 21.7130659,92.2711555 C22.4552386,93.0582668 23.4183634,93.449664 24.605273,93.449664 C25.6222195,93.449664 26.4876154,93.2122356 27.2042936,92.7388176 C27.918139,92.2653996 28.6362335,91.4466312 29.3571607,90.2853901 L29.3571607,79.854366 L30.9151567,79.854366 L30.9151567,94.7087544 L29.3571607,94.7087544 Z M37.859428,74.9293801 L37.859428,79.8549416 L41.9597901,79.8549416 L41.9597901,81.1471281 L37.859428,81.1471281 L37.859428,89.9765892 C37.859428,91.3982821 37.9727368,92.3321674 38.2021871,92.7796841 C38.4288047,93.2257618 39.0406722,93.4488007 40.0363733,93.4488007 C40.7997913,93.4488007 41.6892654,93.2056164 42.7062118,92.7235646 L42.7062118,94.2402289 C41.6793509,94.745304 40.6723189,95 39.6865324,95 C38.7234076,95 37.9174988,94.7194027 37.2716386,94.1596471 C36.6257785,93.5998915 36.301432,92.8257308 36.301432,91.8342871 L36.301432,81.1471281 L32.3611186,81.1471281 L32.3611186,79.8549416 L36.301432,79.8549416 L36.301432,76.3194159 L37.3665347,74.9293801 L37.859428,74.9293801 Z M51.6219146,93.4495202 C53.2634758,93.4495202 54.6345123,92.8667412 55.7364403,91.6968664 C56.8383684,90.5298695 57.3893324,89.0650078 57.3893324,87.2994033 C57.3893324,85.5453106 56.836952,84.074693 55.7279422,82.8904286 C54.621765,81.7061642 53.2535613,81.1147515 51.6219146,81.1147515 C49.9690225,81.1147515 48.5880715,81.7018473 47.4818944,82.8731611 C46.3743009,84.0487918 45.8219205,85.5208483 45.8219205,87.2994033 C45.8219205,89.0650078 46.3743009,90.5298695 47.4818944,91.6968664 C48.5880715,92.8667412 49.9690225,93.4495202 51.6219146,93.4495202 Z M51.6219146,79.5649911 C53.7407891,79.5649911 55.5055737,80.3031778 56.9219336,81.7752343 C58.3340445,83.2516077 59.0422245,85.0920381 59.0422245,87.2994033 C59.0422245,89.4952569 58.3340445,91.3270535 56.9219336,92.7947932 C55.5055737,94.2654107 53.7407891,94.9992805 51.6219146,94.9992805 C49.5030401,94.9992805 47.7311738,94.2654107 46.3063156,92.7947932 C44.8800411,91.3270535 44.1690284,89.4952569 44.1690284,87.2994033 C44.1690284,85.0920381 44.8800411,83.2516077 46.3063156,81.7752343 C47.7311738,80.3031778 49.5030401,79.5649911 51.6219146,79.5649911 Z M72.5824842,81.322969 L71.6774302,82.8079762 C70.4593606,81.6798312 69.4778232,81.1143198 68.7370669,81.1143198 C67.2739671,81.1143198 65.7131384,82.5345737 64.0489154,85.3765205 L64.0489154,94.7081788 L62.4923358,94.7081788 L62.4923358,79.8552294 L64.0489154,79.8552294 L64.0489154,83.7620069 L64.1126516,83.7620069 C65.8618562,80.9632289 67.5671536,79.5645594 69.2299602,79.5645594 C70.1831704,79.5645594 71.3006785,80.1516553 72.5824842,81.322969 Z M87.7879584,72.1523304 L90.9535229,72.1523304 L81.5673054,94.8058842 L80.8477945,94.8058842 L71.2788665,72.1523304 L74.4784237,72.1523304 L81.1551446,87.9924067 L87.7879584,72.1523304 Z M97.6133892,74.899162 L96.6601789,74.899162 L96.6601789,82.0176991 L97.868334,82.0176991 C99.4787352,82.0176991 100.58208,81.87812 101.1812,81.5989617 C101.778904,81.3183644 102.244886,80.896749 102.580564,80.3312375 C102.913408,79.767165 103.080539,79.1225108 103.080539,78.4015916 C103.080539,77.6907452 102.893579,77.0475299 102.522493,76.4733847 C102.152823,75.8963615 101.631602,75.4905747 100.958831,75.2517073 C100.28606,75.0171567 99.1713851,74.899162 97.6133892,74.899162 Z M93.4818671,94.70933 L93.4818671,72.1521865 L99.0439127,72.1521865 C101.29026,72.1521865 103.07204,72.717698 104.392088,73.8487209 C105.709303,74.9783048 106.369327,76.5079197 106.369327,78.4332487 C106.369327,79.7470196 106.046396,80.8837983 105.400536,81.839268 C104.754676,82.7990546 103.825544,83.514218 102.618805,83.9876359 C103.328402,84.4610539 104.023834,85.1071471 104.700854,85.9259156 C105.379291,86.7432451 106.332501,88.1692549 107.561902,90.2053839 C108.335234,91.4860587 108.954183,92.4487232 109.420166,93.0948164 L110.595745,94.70933 L106.814064,94.70933 L105.845273,93.2228839 C105.814113,93.1696424 105.750377,93.0775489 105.654065,92.9480424 L105.036532,92.0587649 L104.052162,90.4125942 L102.988475,88.6513066 C102.332701,87.7246161 101.732164,86.9864294 101.185449,86.4396245 C100.638734,85.8913806 100.145841,85.4971054 99.7067692,85.2553601 C99.2662812,85.0121758 98.5269413,84.892742 97.4859168,84.892742 L96.6601789,84.892742 L96.6601789,94.70933 L93.4818671,94.70933 Z" id="Combined-Shape" fill="#000000"></path>
                <g id="Group-17" fill="#00D262">
                    <path d="M66.4082191,-0.000323210528 L111.883154,-0.000323210528 L111.883154,54.6141757 L57.0667616,54.6141757 L65.3959869,46.3723072 L103.688893,46.3723072 L103.688893,8.24154524 L69.7598325,8.24154524 L39.7608037,37.8880309 L28.0735381,37.8880309 L66.4082191,-0.000323210528 Z M-4.26325641e-14,-0.000323210528 L54.819606,-0.000323210528 L46.4871673,8.24154524 L8.19426099,8.24154524 L8.19426099,46.3723072 L42.1233216,46.3723072 L72.1223504,16.7258216 L83.809616,16.7258216 L45.4765418,54.6141757 L-4.26325641e-14,54.6141757 L-4.26325641e-14,-0.000323210528 Z" id="Combined-Shape"></path>
                </g>
            </g>
        </g>
    </g>
</svg>