<svg height="125" viewBox="0 0 125 125" width="125" xmlns="http://www.w3.org/2000/svg" xmlns:xlink="http://www.w3.org/1999/xlink"><linearGradient id="a" x1="79.589548%" x2="79.589548%" y1="-10.532074%" y2="97.302563%"><stop offset="0" stop-color="#00f3ff" stop-opacity="0"/><stop offset=".475094006" stop-color="#0d95cd" stop-opacity=".700284"/><stop offset="1" stop-color="#0774b7"/></linearGradient><g fill="none" fill-rule="evenodd" transform="translate(-1)"><path d="m14.5828125 124.888281v-2.510156c2.1515733-.876567 3.8648374-1.912494 5.1398437-3.107812-1.4343821-1.753134-2.549996-3.904675-3.346875-6.454688-.6375031 4.382834-2.6296707 8.287483-5.9765624 11.714063v-2.988282c1.2750063-2.310949 2.1117167-4.661707 2.5101562-7.052343.3984395-2.31095.5976563-5.976538.5976563-10.996875v-2.271094h-1.9125v-2.5101565h14.821875v2.5101565c-.796879 2.151573-1.7929628 3.984367-2.9882813 5.498437h4.78125v2.271094c-.796879 4.621898-2.3109263 8.048426-4.5421875 10.279688 1.2750064 1.354694 3.0679572 2.390621 5.3789063 3.107812v2.390625c-3.0281402-1.115631-5.498428-2.350774-7.4109375-3.705469-1.8328217 1.275007-4.1835795 2.549994-7.0523438 3.825zm-12.78984375-21.0375v-2.510156h2.98828125v-4.0640625h3.46640625v4.0640625h2.74921875v2.510156h-2.6296875c.55781529 2.629701 1.55389908 5.219519 2.9882813 7.769532v3.705468c-1.2750064-1.593758-2.31093357-3.147648-3.10781255-4.661719v14.104688h-3.46640625v-12.311719c-.71719109 2.071886-1.95233498 4.26327-3.70546875 6.574219v-3.585938c1.67344587-3.346891 2.90858977-7.211696 3.70546875-11.594531zm15.18046875 0c0 2.629701-.1195301 4.940615-.3585938 6.932813h2.5101563c.5578153 2.550013 1.434369 4.66171 2.6296875 6.335156 1.4343822-1.91251 2.430466-4.621857 2.9882813-8.128125h-4.4226563v-2.151562c1.0359427-1.673446 1.8328097-3.546084 2.390625-5.617969h-5.7375zm16.0804687 7.530469v-2.629687h11.7140626v-11.4750005h4.0640624v11.4750005h11.8335938v2.629687h-8.2476562v8.486719c-.0796879 1.354694.478119 1.992188 1.6734375 1.9125h1.9124999c1.1156306 0 1.6734376-.557807 1.6734376-1.673438v-1.195312h2.9882812v1.553906c0 2.470325-1.354674 3.705469-4.0640625 3.705469h-3.9445312c-2.7093886.079688-4.0640626-1.274986-4.0640626-4.064063v-8.725781h-4.4226562c.3984395 6.693783-3.3069922 11.196082-11.1164063 13.507031v-2.390625c4.8609619-1.992197 7.2914063-5.697629 7.2914063-11.116406zm4.6617188-5.020312c-1.0359427-1.832822-1.7929664-4.143737-2.2710938-6.932813h3.825c.2390637 2.151573.836714 4.462488 1.7929688 6.932813zm14.7023438 0c.9562547-2.151574 1.553905-4.462488 1.7929687-6.932813h3.9445312c-.3984394 2.470325-1.1554631 4.781239-2.2710937 6.932813zm21.4593749-4.064063v-2.5101562h7.0523438v-2.390625h3.9445312v2.390625h6.9328125v2.5101562h-8.4867187c-1.4343822 2.550013-3.1476463 4.66171-5.1398438 6.335156 2.6297007 0 4.4624949-.039843 5.4984375-.119531 1.2750064 0 2.5499937-.079687 3.825-.239062-.1593757-.318752-.3585925-.796872-.5976562-1.434375-.3984395-.956255-.7171863-1.673436-.95625-2.151563h2.9882812c1.1156306 2.071885 2.1117144 4.582017 2.9882813 7.530469h-3.2273438l-.478125-1.553907c-.1593757.079688-.4382792.119532-.8367187.119532-.3984395.079688-.677343.119531-.8367188.119531v9.323437c0 1.115631.557807 1.673438 1.6734375 1.673438 1.0359427 0 1.5539063-.557807 1.5539063-1.673438v-1.195312h2.390625v1.9125c.0796879 2.151573-1.0359259 3.1875-3.346875 3.107813h-1.9125c-2.5500128.079687-3.7851566-1.035926-3.7054688-3.346875v-9.5625c-.717191.079687-1.4742147.119531-2.2710937.119531v2.510156c.3187516 5.339089-2.350753 9.044521-8.0085938 11.116406v-2.510156c3.3468918-1.832822 4.9007825-4.741386 4.6617188-8.725781v-2.271094h-3.1078125v-2.749219c2.1515733-2.151573 3.705464-4.263271 4.6617187-6.335156zm-9.4429687 6.454688v-2.510157c1.9125096-2.709388 3.1874968-5.657796 3.825-8.8453122h3.4664062c-.9562547 3.4265792-2.4304587 6.3749872-4.4226562 8.8453122 1.3546943 0 2.3507781-.039843 2.9882812-.119531.3984395-.956255.7570297-1.952339 1.0757813-2.988281h3.2273437c-1.3546942 4.223458-3.4663919 7.80936-6.3351562 10.757812 1.9921975 0 3.8249916-.199217 5.4984375-.597656v2.510156c-2.1515733.478128-5.0601379.717188-8.7257813.717188v-2.629688c1.6734459-1.753134 2.9882765-3.506241 3.9445313-5.259375-1.6734459.159376-3.1874932.199219-4.5421875.119532zm0 13.148437v-2.510156c3.5062675.079688 6.733579-.239059 9.6820312-.95625v2.390625c-2.5500127.796879-5.7773242 1.155469-9.6820312 1.075781zm40.703906-13.148437v-2.629688h7.410938v-8.8453125h4.064062v8.8453125h7.171875v2.629688h-7.171875v16.017187h-4.064062v-16.017187zm-6.2156247 15.658593v-15.778125h-2.9882813v-2.629687h6.813281v13.3875c1.51407-.478128 3.028118-1.235151 4.542188-2.271094v3.107812c-2.550013 1.753134-5.339048 3.147652-8.3671877 4.183594zm1.3148437-20.678906c-.3984395-1.992197-1.1156198-4.0640517-2.1515625-6.215625h3.3468745c1.115631 1.9125096 1.912498 3.984364 2.390625 6.215625z" fill="#404040"/><g transform="translate(19.8)"><path d="m78.4783862 53.2808363c-5.4687844 15.718432-20.4767495 27.0053553-38.1341272 27.0053553-22.281519 0-40.344259-17.9726761-40.344259-40.1430958 0-22.1704196 18.06274-40.1430958 40.344259-40.1430958 5.4669211 0 10.679872 1.08195395 15.434371 3.04239973l-5.2610433 5.84583299c-3.2044766-1.03192103-6.6234625-1.58948802-10.1733277-1.58948802-18.2303337 0-33.00893918 14.7049169-33.00893918 32.8443511 0 18.1394343 14.77860548 32.8443512 33.00893918 32.8443512 13.5357713 0 25.1686539-8.1066114 30.2623071-19.7066107z" fill="#0875b7"/><g fill="url(#a)"><path d="m65.504406 4.37924682h10.2694478l-55.0148987 62.74782138h-10.2694478z"/><path d="m80.9085776 4.37924682h10.2694478l-42.544855 48.90158948h-10.2694477z"/><path d="m96.3127492 4.37924682h9.5359158l-41.811323 48.90158948h-10.2694477z"/></g></g></g></svg>