<?xml version="1.0" encoding="UTF-8"?>
<svg width="97px" height="119px" viewBox="0 0 97 119" version="1.1" xmlns="http://www.w3.org/2000/svg" xmlns:xlink="http://www.w3.org/1999/xlink">
    <!-- Generator: Sketch 52.6 (67491) - http://www.bohemiancoding.com/sketch -->
    <title>logo_18</title>
    <desc>Created with Sketch.</desc>
    <g id="Page-1" stroke="none" stroke-width="1" fill="none" fill-rule="evenodd">
        <g id="Artboard" transform="translate(-208.000000, -2551.000000)">
            <g id="logo_18" transform="translate(208.000000, 2551.000000)">
                <g id="Group-41" transform="translate(12.933333, 0.000000)">
                    <polygon id="Fill-4" fill="#000000" points="35.8041431 0.0291369697 0.143216573 20.8216824 0.143216573 43.1835855 35.8041431 22.39104 71.4636375 43.1835855 71.4636375 20.8216824"></polygon>
                    <polygon id="Fill-6" fill="#000000" points="71.4643536 43.3612921 35.803427 64.1538376 35.803427 86.5157406 71.4643536 65.7231952"></polygon>
                    <polygon id="Fill-8" fill="#31CAFF" points="35.8041431 86.5163176 0.143216573 65.7237721 0.143216573 43.3618691 35.8041431 64.1544145"></polygon>
                    <polygon id="Fill-10" fill="#31CAFF" points="71.4643536 43.1841624 35.803427 22.391617 35.803427 0.0297139394 71.4643536 20.8222594"></polygon>
                </g>
                <path d="M4.08562073e-14,98.4454545 L16.4851873,98.4454545 L16.4851873,99.7555023 L9.01974158,99.7555023 L9.01974158,118.738249 L7.46671554,118.738249 L7.46671554,99.7555023 L4.08562073e-14,99.7555023 L4.08562073e-14,98.4454545 Z M24.1648566,118.73799 L24.1648566,116.530845 L24.1077134,116.530845 C23.4994554,117.42147 22.8746894,118.055782 22.2346852,118.432485 C21.5921413,118.811778 20.7781678,118.999482 19.7902248,118.999482 C18.3845013,118.999482 17.2213191,118.534752 16.2994083,117.605291 C15.3787673,116.67583 14.9178119,115.358016 14.9178119,113.654436 L14.9178119,105.374727 L16.3146465,105.374727 L16.3146465,113.624662 C16.3146465,114.864806 16.6460772,115.83828 17.3114784,116.545084 C17.9768796,117.253183 18.8403773,117.605291 19.9045112,117.605291 C20.8162632,117.605291 21.5921413,117.391696 22.2346852,116.965801 C22.8746894,116.539906 23.5185031,115.803328 24.1648566,114.758656 L24.1648566,105.374727 L25.5616911,105.374727 L25.5616911,118.73799 L24.1648566,118.73799 Z M31.7876366,100.944125 L31.7876366,105.375245 L35.4638512,105.375245 L35.4638512,106.537718 L31.7876366,106.537718 L31.7876366,114.480853 C31.7876366,115.759833 31.8892246,116.599972 32.0949402,117.002566 C32.2981162,117.403865 32.8466912,117.604514 33.7393954,117.604514 C34.4238444,117.604514 35.2213099,117.385742 36.1330619,116.95208 L36.1330619,118.316497 C35.212421,118.770871 34.3095579,119 33.4257426,119 C32.5622449,119 31.8397005,118.74757 31.2606491,118.244004 C30.6815977,117.740438 30.3908021,117.04399 30.3908021,116.15207 L30.3908021,106.537718 L26.8580806,106.537718 L26.8580806,105.375245 L30.3908021,105.375245 L30.3908021,102.194625 L31.345729,100.944125 L31.7876366,100.944125 Z M44.1265111,117.605162 C45.5982667,117.605162 46.8274811,117.080884 47.8154241,116.028444 C48.8033671,114.978594 49.2973386,113.660779 49.2973386,112.072411 C49.2973386,110.494399 48.8020972,109.171406 47.807805,108.106021 C46.8160525,107.040636 45.5893778,106.508591 44.1265111,106.508591 C42.6445966,106.508591 41.4064933,107.036753 40.4147407,108.090487 C39.4217184,109.148104 38.926477,110.472392 38.926477,112.072411 C38.926477,113.660779 39.4217184,114.978594 40.4147407,116.028444 C41.4064933,117.080884 42.6445966,117.605162 44.1265111,117.605162 Z M44.1265111,105.1144 C46.026206,105.1144 47.6084386,105.778486 48.8782882,107.102773 C50.1443282,108.430944 50.779253,110.086627 50.779253,112.072411 C50.779253,114.047838 50.1443282,115.695754 48.8782882,117.016158 C47.6084386,118.339151 46.026206,118.999353 44.1265111,118.999353 C42.2268161,118.999353 40.6382343,118.339151 39.3607656,117.016158 C38.082027,115.695754 37.4445626,114.047838 37.4445626,112.072411 C37.4445626,110.086627 38.082027,108.430944 39.3607656,107.102773 C40.6382343,105.778486 42.2268161,105.1144 44.1265111,105.1144 Z M62.918888,106.695907 L62.1074541,108.031845 C61.0153835,107.016947 60.1353777,106.508203 59.4712464,106.508203 C58.1594918,106.508203 56.7601176,107.785888 55.2680443,110.342552 L55.2680443,118.737473 L53.8724796,118.737473 L53.8724796,105.375504 L55.2680443,105.375504 L55.2680443,108.890108 L55.3251875,108.890108 C56.8934518,106.372279 58.4223507,105.114012 59.9131541,105.114012 C60.7677628,105.114012 61.7696742,105.642173 62.918888,106.695907 Z M76.5514852,98.4458429 L79.389599,98.4458429 L70.9743058,118.82537 L70.3292222,118.82537 L61.7501185,98.4458429 L64.6187087,98.4458429 L70.6047796,112.695848 L76.5514852,98.4458429 Z M85.3605587,100.91694 L84.50595,100.91694 L84.50595,107.320899 L85.5891317,107.320899 C87.0329506,107.320899 88.0221635,107.195331 88.5593098,106.944195 C89.0951864,106.691765 89.5129669,106.312472 89.8139212,105.803729 C90.1123359,105.296279 90.2621781,104.716337 90.2621781,104.067786 C90.2621781,103.428296 90.094558,102.849649 89.7618574,102.333138 C89.4304266,101.814038 88.963122,101.448985 88.3599434,101.234096 C87.7567649,101.02309 86.7573933,100.91694 85.3605587,100.91694 Z M81.6564075,118.738508 L81.6564075,98.4457134 L86.6431068,98.4457134 C88.6570882,98.4457134 90.254559,98.9544573 91.4380588,99.971945 C92.6190189,100.988138 93.2107688,102.364206 93.2107688,104.096265 C93.2107688,105.278156 92.9212431,106.300822 92.3421917,107.160379 C91.7631403,108.023819 90.930119,108.667193 89.8482072,109.093088 C90.4844018,109.518983 91.1078979,110.100219 91.714886,110.836797 C92.323144,111.572081 93.1777528,112.854944 94.2799822,114.686681 C94.9733201,115.838798 95.5282443,116.704827 95.9460248,117.286064 L97,118.738508 L93.6095016,118.738508 L92.7409245,117.401276 C92.7129878,117.353379 92.6558446,117.27053 92.5694948,117.154024 L92.0158404,116.354014 L91.1332949,114.873091 L90.1796379,113.288606 C89.5916975,112.454939 89.0532813,111.790854 88.5631194,111.298939 C88.0729574,110.805729 87.6310498,110.451032 87.2373964,110.233554 C86.8424732,110.014781 86.1796117,109.907337 85.2462723,109.907337 L84.50595,109.907337 L84.50595,118.738508 L81.6564075,118.738508 Z" id="Combined-Shape" fill="#000000"></path>
            </g>
        </g>
    </g>
</svg>