<?xml version="1.0" encoding="UTF-8"?>
<svg width="24px" height="24px" viewBox="0 0 24 24" version="1.1" xmlns="http://www.w3.org/2000/svg" xmlns:xlink="http://www.w3.org/1999/xlink">
    <!-- Generator: Sketch 52.6 (67491) - http://www.bohemiancoding.com/sketch -->
    <title>Shape</title>
    <desc>Created with Sketch.</desc>
    <g id="Page-1" stroke="none" stroke-width="1" fill="none" fill-rule="evenodd">
        <g id="首頁" transform="translate(-1187.000000, -3599.000000)" fill="#FFFFFF">
            <path d="M1210.99993,3620.60069 C1210.99993,3621.92575 1209.91687,3623 1208.58032,3623 L1189.41955,3623 C1188.083,3623 1186.99993,3621.92575 1186.99993,3620.60069 L1186.99993,3601.39931 C1186.99993,3600.07412 1188.083,3599 1189.41955,3599 L1208.58032,3599 C1209.91687,3599 1210.99993,3600.07412 1210.99993,3601.39931 L1210.99993,3620.60069 Z M1191.47041,3617.87807 L1194.69813,3617.87807 L1194.69813,3607.67217 L1191.47041,3607.67217 L1191.47041,3617.87807 Z M1194.80418,3604.83373 C1194.78297,3603.93627 1194.14585,3603.24753 1193.10534,3603.24753 C1192.06497,3603.24753 1191.38557,3603.93627 1191.38557,3604.83373 C1191.38557,3605.71007 1192.04376,3606.41979 1193.06292,3606.41979 C1194.14585,3606.41979 1194.80418,3605.71007 1194.80418,3604.83373 Z M1196.62981,3610.92786 L1196.62981,3617.87799 L1199.85739,3617.87799 L1199.85739,3611.9925 C1199.85739,3611.70011 1199.87888,3611.40786 1199.96386,3611.19927 C1200.19744,3610.61504 1200.72809,3610.00983 1201.62,3610.00983 C1202.7879,3610.00983 1203.2552,3610.90715 1203.2552,3612.22194 L1203.2552,3617.87799 L1206.48279,3617.87799 L1206.48279,3611.84631 C1206.48279,3608.84096 1204.89041,3607.44238 1202.76683,3607.44238 C1201.02558,3607.44238 1199.98493,3608.42336 1199.56032,3609.09138 L1199.49669,3609.09138 L1199.34781,3607.67209 L1196.54511,3607.67209 C1196.58739,3608.59067 1196.62981,3609.6549 1196.62981,3610.92786 Z" id="Shape"></path>
        </g>
    </g>
</svg>